G04 #@! TF.GenerationSoftware,KiCad,Pcbnew,(5.1.5)-3*
G04 #@! TF.CreationDate,2020-01-24T21:34:17-05:00*
G04 #@! TF.ProjectId,SmallyMouse2,536d616c-6c79-44d6-9f75-7365322e6b69,2.0*
G04 #@! TF.SameCoordinates,Original*
G04 #@! TF.FileFunction,Copper,L2,Bot*
G04 #@! TF.FilePolarity,Positive*
%FSLAX46Y46*%
G04 Gerber Fmt 4.6, Leading zero omitted, Abs format (unit mm)*
G04 Created by KiCad (PCBNEW (5.1.5)-3) date 2020-01-24 21:34:17*
%MOMM*%
%LPD*%
G04 APERTURE LIST*
%ADD10O,1.700000X1.700000*%
%ADD11R,1.700000X1.700000*%
%ADD12C,1.700000*%
%ADD13C,1.600000*%
%ADD14R,1.600000X1.600000*%
%ADD15R,6.400000X6.400000*%
%ADD16C,0.800000*%
%ADD17C,0.150000*%
%ADD18C,3.000000*%
%ADD19C,0.600000*%
%ADD20C,0.250000*%
%ADD21C,0.500000*%
%ADD22C,0.254000*%
G04 APERTURE END LIST*
D10*
X114000000Y-57540000D03*
X114000000Y-55000000D03*
X116540000Y-57540000D03*
X116540000Y-55000000D03*
X119080000Y-57540000D03*
X119080000Y-55000000D03*
X121620000Y-57540000D03*
X121620000Y-55000000D03*
D11*
X124160000Y-57540000D03*
D12*
X124160000Y-55000000D03*
D10*
X184260000Y-57200000D03*
X181720000Y-57200000D03*
X179180000Y-57200000D03*
X176640000Y-57200000D03*
X174100000Y-57200000D03*
X171560000Y-57200000D03*
X169020000Y-57200000D03*
X166480000Y-57200000D03*
X163940000Y-57200000D03*
D11*
X161400000Y-57200000D03*
D10*
X119180000Y-43790000D03*
D11*
X119180000Y-41250000D03*
D10*
X105600000Y-30480000D03*
D11*
X105600000Y-33020000D03*
D10*
X111560000Y-43790000D03*
D11*
X111560000Y-41250000D03*
D13*
X97000000Y-30500000D03*
D14*
X97000000Y-33000000D03*
D15*
X185500000Y-33000000D03*
D16*
X187900000Y-33000000D03*
X187197056Y-34697056D03*
X185500000Y-35400000D03*
X183802944Y-34697056D03*
X183100000Y-33000000D03*
X183802944Y-31302944D03*
X185500000Y-30600000D03*
X187197056Y-31302944D03*
G04 #@! TA.AperFunction,SMDPad,CuDef*
D17*
G36*
X97299505Y-35851204D02*
G01*
X97323773Y-35854804D01*
X97347572Y-35860765D01*
X97370671Y-35869030D01*
X97392850Y-35879520D01*
X97413893Y-35892132D01*
X97433599Y-35906747D01*
X97451777Y-35923223D01*
X97468253Y-35941401D01*
X97482868Y-35961107D01*
X97495480Y-35982150D01*
X97505970Y-36004329D01*
X97514235Y-36027428D01*
X97520196Y-36051227D01*
X97523796Y-36075495D01*
X97525000Y-36099999D01*
X97525000Y-37000001D01*
X97523796Y-37024505D01*
X97520196Y-37048773D01*
X97514235Y-37072572D01*
X97505970Y-37095671D01*
X97495480Y-37117850D01*
X97482868Y-37138893D01*
X97468253Y-37158599D01*
X97451777Y-37176777D01*
X97433599Y-37193253D01*
X97413893Y-37207868D01*
X97392850Y-37220480D01*
X97370671Y-37230970D01*
X97347572Y-37239235D01*
X97323773Y-37245196D01*
X97299505Y-37248796D01*
X97275001Y-37250000D01*
X96624999Y-37250000D01*
X96600495Y-37248796D01*
X96576227Y-37245196D01*
X96552428Y-37239235D01*
X96529329Y-37230970D01*
X96507150Y-37220480D01*
X96486107Y-37207868D01*
X96466401Y-37193253D01*
X96448223Y-37176777D01*
X96431747Y-37158599D01*
X96417132Y-37138893D01*
X96404520Y-37117850D01*
X96394030Y-37095671D01*
X96385765Y-37072572D01*
X96379804Y-37048773D01*
X96376204Y-37024505D01*
X96375000Y-37000001D01*
X96375000Y-36099999D01*
X96376204Y-36075495D01*
X96379804Y-36051227D01*
X96385765Y-36027428D01*
X96394030Y-36004329D01*
X96404520Y-35982150D01*
X96417132Y-35961107D01*
X96431747Y-35941401D01*
X96448223Y-35923223D01*
X96466401Y-35906747D01*
X96486107Y-35892132D01*
X96507150Y-35879520D01*
X96529329Y-35869030D01*
X96552428Y-35860765D01*
X96576227Y-35854804D01*
X96600495Y-35851204D01*
X96624999Y-35850000D01*
X97275001Y-35850000D01*
X97299505Y-35851204D01*
G37*
G04 #@! TD.AperFunction*
G04 #@! TA.AperFunction,SMDPad,CuDef*
G36*
X99349505Y-35851204D02*
G01*
X99373773Y-35854804D01*
X99397572Y-35860765D01*
X99420671Y-35869030D01*
X99442850Y-35879520D01*
X99463893Y-35892132D01*
X99483599Y-35906747D01*
X99501777Y-35923223D01*
X99518253Y-35941401D01*
X99532868Y-35961107D01*
X99545480Y-35982150D01*
X99555970Y-36004329D01*
X99564235Y-36027428D01*
X99570196Y-36051227D01*
X99573796Y-36075495D01*
X99575000Y-36099999D01*
X99575000Y-37000001D01*
X99573796Y-37024505D01*
X99570196Y-37048773D01*
X99564235Y-37072572D01*
X99555970Y-37095671D01*
X99545480Y-37117850D01*
X99532868Y-37138893D01*
X99518253Y-37158599D01*
X99501777Y-37176777D01*
X99483599Y-37193253D01*
X99463893Y-37207868D01*
X99442850Y-37220480D01*
X99420671Y-37230970D01*
X99397572Y-37239235D01*
X99373773Y-37245196D01*
X99349505Y-37248796D01*
X99325001Y-37250000D01*
X98674999Y-37250000D01*
X98650495Y-37248796D01*
X98626227Y-37245196D01*
X98602428Y-37239235D01*
X98579329Y-37230970D01*
X98557150Y-37220480D01*
X98536107Y-37207868D01*
X98516401Y-37193253D01*
X98498223Y-37176777D01*
X98481747Y-37158599D01*
X98467132Y-37138893D01*
X98454520Y-37117850D01*
X98444030Y-37095671D01*
X98435765Y-37072572D01*
X98429804Y-37048773D01*
X98426204Y-37024505D01*
X98425000Y-37000001D01*
X98425000Y-36099999D01*
X98426204Y-36075495D01*
X98429804Y-36051227D01*
X98435765Y-36027428D01*
X98444030Y-36004329D01*
X98454520Y-35982150D01*
X98467132Y-35961107D01*
X98481747Y-35941401D01*
X98498223Y-35923223D01*
X98516401Y-35906747D01*
X98536107Y-35892132D01*
X98557150Y-35879520D01*
X98579329Y-35869030D01*
X98602428Y-35860765D01*
X98626227Y-35854804D01*
X98650495Y-35851204D01*
X98674999Y-35850000D01*
X99325001Y-35850000D01*
X99349505Y-35851204D01*
G37*
G04 #@! TD.AperFunction*
D13*
X96000000Y-46500000D03*
X96000000Y-44000000D03*
X96000000Y-42000000D03*
D14*
X96000000Y-39500000D03*
D18*
X93290000Y-36430000D03*
X93290000Y-49570000D03*
G04 #@! TA.AperFunction,SMDPad,CuDef*
D17*
G36*
X109174505Y-42926204D02*
G01*
X109198773Y-42929804D01*
X109222572Y-42935765D01*
X109245671Y-42944030D01*
X109267850Y-42954520D01*
X109288893Y-42967132D01*
X109308599Y-42981747D01*
X109326777Y-42998223D01*
X109343253Y-43016401D01*
X109357868Y-43036107D01*
X109370480Y-43057150D01*
X109380970Y-43079329D01*
X109389235Y-43102428D01*
X109395196Y-43126227D01*
X109398796Y-43150495D01*
X109400000Y-43174999D01*
X109400000Y-43825001D01*
X109398796Y-43849505D01*
X109395196Y-43873773D01*
X109389235Y-43897572D01*
X109380970Y-43920671D01*
X109370480Y-43942850D01*
X109357868Y-43963893D01*
X109343253Y-43983599D01*
X109326777Y-44001777D01*
X109308599Y-44018253D01*
X109288893Y-44032868D01*
X109267850Y-44045480D01*
X109245671Y-44055970D01*
X109222572Y-44064235D01*
X109198773Y-44070196D01*
X109174505Y-44073796D01*
X109150001Y-44075000D01*
X108249999Y-44075000D01*
X108225495Y-44073796D01*
X108201227Y-44070196D01*
X108177428Y-44064235D01*
X108154329Y-44055970D01*
X108132150Y-44045480D01*
X108111107Y-44032868D01*
X108091401Y-44018253D01*
X108073223Y-44001777D01*
X108056747Y-43983599D01*
X108042132Y-43963893D01*
X108029520Y-43942850D01*
X108019030Y-43920671D01*
X108010765Y-43897572D01*
X108004804Y-43873773D01*
X108001204Y-43849505D01*
X108000000Y-43825001D01*
X108000000Y-43174999D01*
X108001204Y-43150495D01*
X108004804Y-43126227D01*
X108010765Y-43102428D01*
X108019030Y-43079329D01*
X108029520Y-43057150D01*
X108042132Y-43036107D01*
X108056747Y-43016401D01*
X108073223Y-42998223D01*
X108091401Y-42981747D01*
X108111107Y-42967132D01*
X108132150Y-42954520D01*
X108154329Y-42944030D01*
X108177428Y-42935765D01*
X108201227Y-42929804D01*
X108225495Y-42926204D01*
X108249999Y-42925000D01*
X109150001Y-42925000D01*
X109174505Y-42926204D01*
G37*
G04 #@! TD.AperFunction*
G04 #@! TA.AperFunction,SMDPad,CuDef*
G36*
X109174505Y-40876204D02*
G01*
X109198773Y-40879804D01*
X109222572Y-40885765D01*
X109245671Y-40894030D01*
X109267850Y-40904520D01*
X109288893Y-40917132D01*
X109308599Y-40931747D01*
X109326777Y-40948223D01*
X109343253Y-40966401D01*
X109357868Y-40986107D01*
X109370480Y-41007150D01*
X109380970Y-41029329D01*
X109389235Y-41052428D01*
X109395196Y-41076227D01*
X109398796Y-41100495D01*
X109400000Y-41124999D01*
X109400000Y-41775001D01*
X109398796Y-41799505D01*
X109395196Y-41823773D01*
X109389235Y-41847572D01*
X109380970Y-41870671D01*
X109370480Y-41892850D01*
X109357868Y-41913893D01*
X109343253Y-41933599D01*
X109326777Y-41951777D01*
X109308599Y-41968253D01*
X109288893Y-41982868D01*
X109267850Y-41995480D01*
X109245671Y-42005970D01*
X109222572Y-42014235D01*
X109198773Y-42020196D01*
X109174505Y-42023796D01*
X109150001Y-42025000D01*
X108249999Y-42025000D01*
X108225495Y-42023796D01*
X108201227Y-42020196D01*
X108177428Y-42014235D01*
X108154329Y-42005970D01*
X108132150Y-41995480D01*
X108111107Y-41982868D01*
X108091401Y-41968253D01*
X108073223Y-41951777D01*
X108056747Y-41933599D01*
X108042132Y-41913893D01*
X108029520Y-41892850D01*
X108019030Y-41870671D01*
X108010765Y-41847572D01*
X108004804Y-41823773D01*
X108001204Y-41799505D01*
X108000000Y-41775001D01*
X108000000Y-41124999D01*
X108001204Y-41100495D01*
X108004804Y-41076227D01*
X108010765Y-41052428D01*
X108019030Y-41029329D01*
X108029520Y-41007150D01*
X108042132Y-40986107D01*
X108056747Y-40966401D01*
X108073223Y-40948223D01*
X108091401Y-40931747D01*
X108111107Y-40917132D01*
X108132150Y-40904520D01*
X108154329Y-40894030D01*
X108177428Y-40885765D01*
X108201227Y-40879804D01*
X108225495Y-40876204D01*
X108249999Y-40875000D01*
X109150001Y-40875000D01*
X109174505Y-40876204D01*
G37*
G04 #@! TD.AperFunction*
D10*
X124260000Y-30480000D03*
X124260000Y-33020000D03*
X121720000Y-30480000D03*
X121720000Y-33020000D03*
X119180000Y-30480000D03*
X119180000Y-33020000D03*
X116640000Y-30480000D03*
X116640000Y-33020000D03*
X114100000Y-30480000D03*
D11*
X114100000Y-33020000D03*
D10*
X114100000Y-43790000D03*
D11*
X114100000Y-41250000D03*
G04 #@! TA.AperFunction,SMDPad,CuDef*
D17*
G36*
X159974505Y-50976204D02*
G01*
X159998773Y-50979804D01*
X160022572Y-50985765D01*
X160045671Y-50994030D01*
X160067850Y-51004520D01*
X160088893Y-51017132D01*
X160108599Y-51031747D01*
X160126777Y-51048223D01*
X160143253Y-51066401D01*
X160157868Y-51086107D01*
X160170480Y-51107150D01*
X160180970Y-51129329D01*
X160189235Y-51152428D01*
X160195196Y-51176227D01*
X160198796Y-51200495D01*
X160200000Y-51224999D01*
X160200000Y-51875001D01*
X160198796Y-51899505D01*
X160195196Y-51923773D01*
X160189235Y-51947572D01*
X160180970Y-51970671D01*
X160170480Y-51992850D01*
X160157868Y-52013893D01*
X160143253Y-52033599D01*
X160126777Y-52051777D01*
X160108599Y-52068253D01*
X160088893Y-52082868D01*
X160067850Y-52095480D01*
X160045671Y-52105970D01*
X160022572Y-52114235D01*
X159998773Y-52120196D01*
X159974505Y-52123796D01*
X159950001Y-52125000D01*
X159049999Y-52125000D01*
X159025495Y-52123796D01*
X159001227Y-52120196D01*
X158977428Y-52114235D01*
X158954329Y-52105970D01*
X158932150Y-52095480D01*
X158911107Y-52082868D01*
X158891401Y-52068253D01*
X158873223Y-52051777D01*
X158856747Y-52033599D01*
X158842132Y-52013893D01*
X158829520Y-51992850D01*
X158819030Y-51970671D01*
X158810765Y-51947572D01*
X158804804Y-51923773D01*
X158801204Y-51899505D01*
X158800000Y-51875001D01*
X158800000Y-51224999D01*
X158801204Y-51200495D01*
X158804804Y-51176227D01*
X158810765Y-51152428D01*
X158819030Y-51129329D01*
X158829520Y-51107150D01*
X158842132Y-51086107D01*
X158856747Y-51066401D01*
X158873223Y-51048223D01*
X158891401Y-51031747D01*
X158911107Y-51017132D01*
X158932150Y-51004520D01*
X158954329Y-50994030D01*
X158977428Y-50985765D01*
X159001227Y-50979804D01*
X159025495Y-50976204D01*
X159049999Y-50975000D01*
X159950001Y-50975000D01*
X159974505Y-50976204D01*
G37*
G04 #@! TD.AperFunction*
G04 #@! TA.AperFunction,SMDPad,CuDef*
G36*
X159974505Y-48926204D02*
G01*
X159998773Y-48929804D01*
X160022572Y-48935765D01*
X160045671Y-48944030D01*
X160067850Y-48954520D01*
X160088893Y-48967132D01*
X160108599Y-48981747D01*
X160126777Y-48998223D01*
X160143253Y-49016401D01*
X160157868Y-49036107D01*
X160170480Y-49057150D01*
X160180970Y-49079329D01*
X160189235Y-49102428D01*
X160195196Y-49126227D01*
X160198796Y-49150495D01*
X160200000Y-49174999D01*
X160200000Y-49825001D01*
X160198796Y-49849505D01*
X160195196Y-49873773D01*
X160189235Y-49897572D01*
X160180970Y-49920671D01*
X160170480Y-49942850D01*
X160157868Y-49963893D01*
X160143253Y-49983599D01*
X160126777Y-50001777D01*
X160108599Y-50018253D01*
X160088893Y-50032868D01*
X160067850Y-50045480D01*
X160045671Y-50055970D01*
X160022572Y-50064235D01*
X159998773Y-50070196D01*
X159974505Y-50073796D01*
X159950001Y-50075000D01*
X159049999Y-50075000D01*
X159025495Y-50073796D01*
X159001227Y-50070196D01*
X158977428Y-50064235D01*
X158954329Y-50055970D01*
X158932150Y-50045480D01*
X158911107Y-50032868D01*
X158891401Y-50018253D01*
X158873223Y-50001777D01*
X158856747Y-49983599D01*
X158842132Y-49963893D01*
X158829520Y-49942850D01*
X158819030Y-49920671D01*
X158810765Y-49897572D01*
X158804804Y-49873773D01*
X158801204Y-49849505D01*
X158800000Y-49825001D01*
X158800000Y-49174999D01*
X158801204Y-49150495D01*
X158804804Y-49126227D01*
X158810765Y-49102428D01*
X158819030Y-49079329D01*
X158829520Y-49057150D01*
X158842132Y-49036107D01*
X158856747Y-49016401D01*
X158873223Y-48998223D01*
X158891401Y-48981747D01*
X158911107Y-48967132D01*
X158932150Y-48954520D01*
X158954329Y-48944030D01*
X158977428Y-48935765D01*
X159001227Y-48929804D01*
X159025495Y-48926204D01*
X159049999Y-48925000D01*
X159950001Y-48925000D01*
X159974505Y-48926204D01*
G37*
G04 #@! TD.AperFunction*
G04 #@! TA.AperFunction,SMDPad,CuDef*
G36*
X184499505Y-53501204D02*
G01*
X184523773Y-53504804D01*
X184547572Y-53510765D01*
X184570671Y-53519030D01*
X184592850Y-53529520D01*
X184613893Y-53542132D01*
X184633599Y-53556747D01*
X184651777Y-53573223D01*
X184668253Y-53591401D01*
X184682868Y-53611107D01*
X184695480Y-53632150D01*
X184705970Y-53654329D01*
X184714235Y-53677428D01*
X184720196Y-53701227D01*
X184723796Y-53725495D01*
X184725000Y-53749999D01*
X184725000Y-54650001D01*
X184723796Y-54674505D01*
X184720196Y-54698773D01*
X184714235Y-54722572D01*
X184705970Y-54745671D01*
X184695480Y-54767850D01*
X184682868Y-54788893D01*
X184668253Y-54808599D01*
X184651777Y-54826777D01*
X184633599Y-54843253D01*
X184613893Y-54857868D01*
X184592850Y-54870480D01*
X184570671Y-54880970D01*
X184547572Y-54889235D01*
X184523773Y-54895196D01*
X184499505Y-54898796D01*
X184475001Y-54900000D01*
X183824999Y-54900000D01*
X183800495Y-54898796D01*
X183776227Y-54895196D01*
X183752428Y-54889235D01*
X183729329Y-54880970D01*
X183707150Y-54870480D01*
X183686107Y-54857868D01*
X183666401Y-54843253D01*
X183648223Y-54826777D01*
X183631747Y-54808599D01*
X183617132Y-54788893D01*
X183604520Y-54767850D01*
X183594030Y-54745671D01*
X183585765Y-54722572D01*
X183579804Y-54698773D01*
X183576204Y-54674505D01*
X183575000Y-54650001D01*
X183575000Y-53749999D01*
X183576204Y-53725495D01*
X183579804Y-53701227D01*
X183585765Y-53677428D01*
X183594030Y-53654329D01*
X183604520Y-53632150D01*
X183617132Y-53611107D01*
X183631747Y-53591401D01*
X183648223Y-53573223D01*
X183666401Y-53556747D01*
X183686107Y-53542132D01*
X183707150Y-53529520D01*
X183729329Y-53519030D01*
X183752428Y-53510765D01*
X183776227Y-53504804D01*
X183800495Y-53501204D01*
X183824999Y-53500000D01*
X184475001Y-53500000D01*
X184499505Y-53501204D01*
G37*
G04 #@! TD.AperFunction*
G04 #@! TA.AperFunction,SMDPad,CuDef*
G36*
X186549505Y-53501204D02*
G01*
X186573773Y-53504804D01*
X186597572Y-53510765D01*
X186620671Y-53519030D01*
X186642850Y-53529520D01*
X186663893Y-53542132D01*
X186683599Y-53556747D01*
X186701777Y-53573223D01*
X186718253Y-53591401D01*
X186732868Y-53611107D01*
X186745480Y-53632150D01*
X186755970Y-53654329D01*
X186764235Y-53677428D01*
X186770196Y-53701227D01*
X186773796Y-53725495D01*
X186775000Y-53749999D01*
X186775000Y-54650001D01*
X186773796Y-54674505D01*
X186770196Y-54698773D01*
X186764235Y-54722572D01*
X186755970Y-54745671D01*
X186745480Y-54767850D01*
X186732868Y-54788893D01*
X186718253Y-54808599D01*
X186701777Y-54826777D01*
X186683599Y-54843253D01*
X186663893Y-54857868D01*
X186642850Y-54870480D01*
X186620671Y-54880970D01*
X186597572Y-54889235D01*
X186573773Y-54895196D01*
X186549505Y-54898796D01*
X186525001Y-54900000D01*
X185874999Y-54900000D01*
X185850495Y-54898796D01*
X185826227Y-54895196D01*
X185802428Y-54889235D01*
X185779329Y-54880970D01*
X185757150Y-54870480D01*
X185736107Y-54857868D01*
X185716401Y-54843253D01*
X185698223Y-54826777D01*
X185681747Y-54808599D01*
X185667132Y-54788893D01*
X185654520Y-54767850D01*
X185644030Y-54745671D01*
X185635765Y-54722572D01*
X185629804Y-54698773D01*
X185626204Y-54674505D01*
X185625000Y-54650001D01*
X185625000Y-53749999D01*
X185626204Y-53725495D01*
X185629804Y-53701227D01*
X185635765Y-53677428D01*
X185644030Y-53654329D01*
X185654520Y-53632150D01*
X185667132Y-53611107D01*
X185681747Y-53591401D01*
X185698223Y-53573223D01*
X185716401Y-53556747D01*
X185736107Y-53542132D01*
X185757150Y-53529520D01*
X185779329Y-53519030D01*
X185802428Y-53510765D01*
X185826227Y-53504804D01*
X185850495Y-53501204D01*
X185874999Y-53500000D01*
X186525001Y-53500000D01*
X186549505Y-53501204D01*
G37*
G04 #@! TD.AperFunction*
G04 #@! TA.AperFunction,SMDPad,CuDef*
G36*
X149349505Y-41651204D02*
G01*
X149373773Y-41654804D01*
X149397572Y-41660765D01*
X149420671Y-41669030D01*
X149442850Y-41679520D01*
X149463893Y-41692132D01*
X149483599Y-41706747D01*
X149501777Y-41723223D01*
X149518253Y-41741401D01*
X149532868Y-41761107D01*
X149545480Y-41782150D01*
X149555970Y-41804329D01*
X149564235Y-41827428D01*
X149570196Y-41851227D01*
X149573796Y-41875495D01*
X149575000Y-41899999D01*
X149575000Y-42800001D01*
X149573796Y-42824505D01*
X149570196Y-42848773D01*
X149564235Y-42872572D01*
X149555970Y-42895671D01*
X149545480Y-42917850D01*
X149532868Y-42938893D01*
X149518253Y-42958599D01*
X149501777Y-42976777D01*
X149483599Y-42993253D01*
X149463893Y-43007868D01*
X149442850Y-43020480D01*
X149420671Y-43030970D01*
X149397572Y-43039235D01*
X149373773Y-43045196D01*
X149349505Y-43048796D01*
X149325001Y-43050000D01*
X148674999Y-43050000D01*
X148650495Y-43048796D01*
X148626227Y-43045196D01*
X148602428Y-43039235D01*
X148579329Y-43030970D01*
X148557150Y-43020480D01*
X148536107Y-43007868D01*
X148516401Y-42993253D01*
X148498223Y-42976777D01*
X148481747Y-42958599D01*
X148467132Y-42938893D01*
X148454520Y-42917850D01*
X148444030Y-42895671D01*
X148435765Y-42872572D01*
X148429804Y-42848773D01*
X148426204Y-42824505D01*
X148425000Y-42800001D01*
X148425000Y-41899999D01*
X148426204Y-41875495D01*
X148429804Y-41851227D01*
X148435765Y-41827428D01*
X148444030Y-41804329D01*
X148454520Y-41782150D01*
X148467132Y-41761107D01*
X148481747Y-41741401D01*
X148498223Y-41723223D01*
X148516401Y-41706747D01*
X148536107Y-41692132D01*
X148557150Y-41679520D01*
X148579329Y-41669030D01*
X148602428Y-41660765D01*
X148626227Y-41654804D01*
X148650495Y-41651204D01*
X148674999Y-41650000D01*
X149325001Y-41650000D01*
X149349505Y-41651204D01*
G37*
G04 #@! TD.AperFunction*
G04 #@! TA.AperFunction,SMDPad,CuDef*
G36*
X151399505Y-41651204D02*
G01*
X151423773Y-41654804D01*
X151447572Y-41660765D01*
X151470671Y-41669030D01*
X151492850Y-41679520D01*
X151513893Y-41692132D01*
X151533599Y-41706747D01*
X151551777Y-41723223D01*
X151568253Y-41741401D01*
X151582868Y-41761107D01*
X151595480Y-41782150D01*
X151605970Y-41804329D01*
X151614235Y-41827428D01*
X151620196Y-41851227D01*
X151623796Y-41875495D01*
X151625000Y-41899999D01*
X151625000Y-42800001D01*
X151623796Y-42824505D01*
X151620196Y-42848773D01*
X151614235Y-42872572D01*
X151605970Y-42895671D01*
X151595480Y-42917850D01*
X151582868Y-42938893D01*
X151568253Y-42958599D01*
X151551777Y-42976777D01*
X151533599Y-42993253D01*
X151513893Y-43007868D01*
X151492850Y-43020480D01*
X151470671Y-43030970D01*
X151447572Y-43039235D01*
X151423773Y-43045196D01*
X151399505Y-43048796D01*
X151375001Y-43050000D01*
X150724999Y-43050000D01*
X150700495Y-43048796D01*
X150676227Y-43045196D01*
X150652428Y-43039235D01*
X150629329Y-43030970D01*
X150607150Y-43020480D01*
X150586107Y-43007868D01*
X150566401Y-42993253D01*
X150548223Y-42976777D01*
X150531747Y-42958599D01*
X150517132Y-42938893D01*
X150504520Y-42917850D01*
X150494030Y-42895671D01*
X150485765Y-42872572D01*
X150479804Y-42848773D01*
X150476204Y-42824505D01*
X150475000Y-42800001D01*
X150475000Y-41899999D01*
X150476204Y-41875495D01*
X150479804Y-41851227D01*
X150485765Y-41827428D01*
X150494030Y-41804329D01*
X150504520Y-41782150D01*
X150517132Y-41761107D01*
X150531747Y-41741401D01*
X150548223Y-41723223D01*
X150566401Y-41706747D01*
X150586107Y-41692132D01*
X150607150Y-41679520D01*
X150629329Y-41669030D01*
X150652428Y-41660765D01*
X150676227Y-41654804D01*
X150700495Y-41651204D01*
X150724999Y-41650000D01*
X151375001Y-41650000D01*
X151399505Y-41651204D01*
G37*
G04 #@! TD.AperFunction*
G04 #@! TA.AperFunction,SMDPad,CuDef*
G36*
X135174505Y-37226204D02*
G01*
X135198773Y-37229804D01*
X135222572Y-37235765D01*
X135245671Y-37244030D01*
X135267850Y-37254520D01*
X135288893Y-37267132D01*
X135308599Y-37281747D01*
X135326777Y-37298223D01*
X135343253Y-37316401D01*
X135357868Y-37336107D01*
X135370480Y-37357150D01*
X135380970Y-37379329D01*
X135389235Y-37402428D01*
X135395196Y-37426227D01*
X135398796Y-37450495D01*
X135400000Y-37474999D01*
X135400000Y-38125001D01*
X135398796Y-38149505D01*
X135395196Y-38173773D01*
X135389235Y-38197572D01*
X135380970Y-38220671D01*
X135370480Y-38242850D01*
X135357868Y-38263893D01*
X135343253Y-38283599D01*
X135326777Y-38301777D01*
X135308599Y-38318253D01*
X135288893Y-38332868D01*
X135267850Y-38345480D01*
X135245671Y-38355970D01*
X135222572Y-38364235D01*
X135198773Y-38370196D01*
X135174505Y-38373796D01*
X135150001Y-38375000D01*
X134249999Y-38375000D01*
X134225495Y-38373796D01*
X134201227Y-38370196D01*
X134177428Y-38364235D01*
X134154329Y-38355970D01*
X134132150Y-38345480D01*
X134111107Y-38332868D01*
X134091401Y-38318253D01*
X134073223Y-38301777D01*
X134056747Y-38283599D01*
X134042132Y-38263893D01*
X134029520Y-38242850D01*
X134019030Y-38220671D01*
X134010765Y-38197572D01*
X134004804Y-38173773D01*
X134001204Y-38149505D01*
X134000000Y-38125001D01*
X134000000Y-37474999D01*
X134001204Y-37450495D01*
X134004804Y-37426227D01*
X134010765Y-37402428D01*
X134019030Y-37379329D01*
X134029520Y-37357150D01*
X134042132Y-37336107D01*
X134056747Y-37316401D01*
X134073223Y-37298223D01*
X134091401Y-37281747D01*
X134111107Y-37267132D01*
X134132150Y-37254520D01*
X134154329Y-37244030D01*
X134177428Y-37235765D01*
X134201227Y-37229804D01*
X134225495Y-37226204D01*
X134249999Y-37225000D01*
X135150001Y-37225000D01*
X135174505Y-37226204D01*
G37*
G04 #@! TD.AperFunction*
G04 #@! TA.AperFunction,SMDPad,CuDef*
G36*
X135174505Y-35176204D02*
G01*
X135198773Y-35179804D01*
X135222572Y-35185765D01*
X135245671Y-35194030D01*
X135267850Y-35204520D01*
X135288893Y-35217132D01*
X135308599Y-35231747D01*
X135326777Y-35248223D01*
X135343253Y-35266401D01*
X135357868Y-35286107D01*
X135370480Y-35307150D01*
X135380970Y-35329329D01*
X135389235Y-35352428D01*
X135395196Y-35376227D01*
X135398796Y-35400495D01*
X135400000Y-35424999D01*
X135400000Y-36075001D01*
X135398796Y-36099505D01*
X135395196Y-36123773D01*
X135389235Y-36147572D01*
X135380970Y-36170671D01*
X135370480Y-36192850D01*
X135357868Y-36213893D01*
X135343253Y-36233599D01*
X135326777Y-36251777D01*
X135308599Y-36268253D01*
X135288893Y-36282868D01*
X135267850Y-36295480D01*
X135245671Y-36305970D01*
X135222572Y-36314235D01*
X135198773Y-36320196D01*
X135174505Y-36323796D01*
X135150001Y-36325000D01*
X134249999Y-36325000D01*
X134225495Y-36323796D01*
X134201227Y-36320196D01*
X134177428Y-36314235D01*
X134154329Y-36305970D01*
X134132150Y-36295480D01*
X134111107Y-36282868D01*
X134091401Y-36268253D01*
X134073223Y-36251777D01*
X134056747Y-36233599D01*
X134042132Y-36213893D01*
X134029520Y-36192850D01*
X134019030Y-36170671D01*
X134010765Y-36147572D01*
X134004804Y-36123773D01*
X134001204Y-36099505D01*
X134000000Y-36075001D01*
X134000000Y-35424999D01*
X134001204Y-35400495D01*
X134004804Y-35376227D01*
X134010765Y-35352428D01*
X134019030Y-35329329D01*
X134029520Y-35307150D01*
X134042132Y-35286107D01*
X134056747Y-35266401D01*
X134073223Y-35248223D01*
X134091401Y-35231747D01*
X134111107Y-35217132D01*
X134132150Y-35204520D01*
X134154329Y-35194030D01*
X134177428Y-35185765D01*
X134201227Y-35179804D01*
X134225495Y-35176204D01*
X134249999Y-35175000D01*
X135150001Y-35175000D01*
X135174505Y-35176204D01*
G37*
G04 #@! TD.AperFunction*
G04 #@! TA.AperFunction,SMDPad,CuDef*
G36*
X142474505Y-29276204D02*
G01*
X142498773Y-29279804D01*
X142522572Y-29285765D01*
X142545671Y-29294030D01*
X142567850Y-29304520D01*
X142588893Y-29317132D01*
X142608599Y-29331747D01*
X142626777Y-29348223D01*
X142643253Y-29366401D01*
X142657868Y-29386107D01*
X142670480Y-29407150D01*
X142680970Y-29429329D01*
X142689235Y-29452428D01*
X142695196Y-29476227D01*
X142698796Y-29500495D01*
X142700000Y-29524999D01*
X142700000Y-30175001D01*
X142698796Y-30199505D01*
X142695196Y-30223773D01*
X142689235Y-30247572D01*
X142680970Y-30270671D01*
X142670480Y-30292850D01*
X142657868Y-30313893D01*
X142643253Y-30333599D01*
X142626777Y-30351777D01*
X142608599Y-30368253D01*
X142588893Y-30382868D01*
X142567850Y-30395480D01*
X142545671Y-30405970D01*
X142522572Y-30414235D01*
X142498773Y-30420196D01*
X142474505Y-30423796D01*
X142450001Y-30425000D01*
X141549999Y-30425000D01*
X141525495Y-30423796D01*
X141501227Y-30420196D01*
X141477428Y-30414235D01*
X141454329Y-30405970D01*
X141432150Y-30395480D01*
X141411107Y-30382868D01*
X141391401Y-30368253D01*
X141373223Y-30351777D01*
X141356747Y-30333599D01*
X141342132Y-30313893D01*
X141329520Y-30292850D01*
X141319030Y-30270671D01*
X141310765Y-30247572D01*
X141304804Y-30223773D01*
X141301204Y-30199505D01*
X141300000Y-30175001D01*
X141300000Y-29524999D01*
X141301204Y-29500495D01*
X141304804Y-29476227D01*
X141310765Y-29452428D01*
X141319030Y-29429329D01*
X141329520Y-29407150D01*
X141342132Y-29386107D01*
X141356747Y-29366401D01*
X141373223Y-29348223D01*
X141391401Y-29331747D01*
X141411107Y-29317132D01*
X141432150Y-29304520D01*
X141454329Y-29294030D01*
X141477428Y-29285765D01*
X141501227Y-29279804D01*
X141525495Y-29276204D01*
X141549999Y-29275000D01*
X142450001Y-29275000D01*
X142474505Y-29276204D01*
G37*
G04 #@! TD.AperFunction*
G04 #@! TA.AperFunction,SMDPad,CuDef*
G36*
X142474505Y-31326204D02*
G01*
X142498773Y-31329804D01*
X142522572Y-31335765D01*
X142545671Y-31344030D01*
X142567850Y-31354520D01*
X142588893Y-31367132D01*
X142608599Y-31381747D01*
X142626777Y-31398223D01*
X142643253Y-31416401D01*
X142657868Y-31436107D01*
X142670480Y-31457150D01*
X142680970Y-31479329D01*
X142689235Y-31502428D01*
X142695196Y-31526227D01*
X142698796Y-31550495D01*
X142700000Y-31574999D01*
X142700000Y-32225001D01*
X142698796Y-32249505D01*
X142695196Y-32273773D01*
X142689235Y-32297572D01*
X142680970Y-32320671D01*
X142670480Y-32342850D01*
X142657868Y-32363893D01*
X142643253Y-32383599D01*
X142626777Y-32401777D01*
X142608599Y-32418253D01*
X142588893Y-32432868D01*
X142567850Y-32445480D01*
X142545671Y-32455970D01*
X142522572Y-32464235D01*
X142498773Y-32470196D01*
X142474505Y-32473796D01*
X142450001Y-32475000D01*
X141549999Y-32475000D01*
X141525495Y-32473796D01*
X141501227Y-32470196D01*
X141477428Y-32464235D01*
X141454329Y-32455970D01*
X141432150Y-32445480D01*
X141411107Y-32432868D01*
X141391401Y-32418253D01*
X141373223Y-32401777D01*
X141356747Y-32383599D01*
X141342132Y-32363893D01*
X141329520Y-32342850D01*
X141319030Y-32320671D01*
X141310765Y-32297572D01*
X141304804Y-32273773D01*
X141301204Y-32249505D01*
X141300000Y-32225001D01*
X141300000Y-31574999D01*
X141301204Y-31550495D01*
X141304804Y-31526227D01*
X141310765Y-31502428D01*
X141319030Y-31479329D01*
X141329520Y-31457150D01*
X141342132Y-31436107D01*
X141356747Y-31416401D01*
X141373223Y-31398223D01*
X141391401Y-31381747D01*
X141411107Y-31367132D01*
X141432150Y-31354520D01*
X141454329Y-31344030D01*
X141477428Y-31335765D01*
X141501227Y-31329804D01*
X141525495Y-31326204D01*
X141549999Y-31325000D01*
X142450001Y-31325000D01*
X142474505Y-31326204D01*
G37*
G04 #@! TD.AperFunction*
G04 #@! TA.AperFunction,SMDPad,CuDef*
G36*
X135324505Y-43901204D02*
G01*
X135348773Y-43904804D01*
X135372572Y-43910765D01*
X135395671Y-43919030D01*
X135417850Y-43929520D01*
X135438893Y-43942132D01*
X135458599Y-43956747D01*
X135476777Y-43973223D01*
X135493253Y-43991401D01*
X135507868Y-44011107D01*
X135520480Y-44032150D01*
X135530970Y-44054329D01*
X135539235Y-44077428D01*
X135545196Y-44101227D01*
X135548796Y-44125495D01*
X135550000Y-44149999D01*
X135550000Y-45050001D01*
X135548796Y-45074505D01*
X135545196Y-45098773D01*
X135539235Y-45122572D01*
X135530970Y-45145671D01*
X135520480Y-45167850D01*
X135507868Y-45188893D01*
X135493253Y-45208599D01*
X135476777Y-45226777D01*
X135458599Y-45243253D01*
X135438893Y-45257868D01*
X135417850Y-45270480D01*
X135395671Y-45280970D01*
X135372572Y-45289235D01*
X135348773Y-45295196D01*
X135324505Y-45298796D01*
X135300001Y-45300000D01*
X134649999Y-45300000D01*
X134625495Y-45298796D01*
X134601227Y-45295196D01*
X134577428Y-45289235D01*
X134554329Y-45280970D01*
X134532150Y-45270480D01*
X134511107Y-45257868D01*
X134491401Y-45243253D01*
X134473223Y-45226777D01*
X134456747Y-45208599D01*
X134442132Y-45188893D01*
X134429520Y-45167850D01*
X134419030Y-45145671D01*
X134410765Y-45122572D01*
X134404804Y-45098773D01*
X134401204Y-45074505D01*
X134400000Y-45050001D01*
X134400000Y-44149999D01*
X134401204Y-44125495D01*
X134404804Y-44101227D01*
X134410765Y-44077428D01*
X134419030Y-44054329D01*
X134429520Y-44032150D01*
X134442132Y-44011107D01*
X134456747Y-43991401D01*
X134473223Y-43973223D01*
X134491401Y-43956747D01*
X134511107Y-43942132D01*
X134532150Y-43929520D01*
X134554329Y-43919030D01*
X134577428Y-43910765D01*
X134601227Y-43904804D01*
X134625495Y-43901204D01*
X134649999Y-43900000D01*
X135300001Y-43900000D01*
X135324505Y-43901204D01*
G37*
G04 #@! TD.AperFunction*
G04 #@! TA.AperFunction,SMDPad,CuDef*
G36*
X137374505Y-43901204D02*
G01*
X137398773Y-43904804D01*
X137422572Y-43910765D01*
X137445671Y-43919030D01*
X137467850Y-43929520D01*
X137488893Y-43942132D01*
X137508599Y-43956747D01*
X137526777Y-43973223D01*
X137543253Y-43991401D01*
X137557868Y-44011107D01*
X137570480Y-44032150D01*
X137580970Y-44054329D01*
X137589235Y-44077428D01*
X137595196Y-44101227D01*
X137598796Y-44125495D01*
X137600000Y-44149999D01*
X137600000Y-45050001D01*
X137598796Y-45074505D01*
X137595196Y-45098773D01*
X137589235Y-45122572D01*
X137580970Y-45145671D01*
X137570480Y-45167850D01*
X137557868Y-45188893D01*
X137543253Y-45208599D01*
X137526777Y-45226777D01*
X137508599Y-45243253D01*
X137488893Y-45257868D01*
X137467850Y-45270480D01*
X137445671Y-45280970D01*
X137422572Y-45289235D01*
X137398773Y-45295196D01*
X137374505Y-45298796D01*
X137350001Y-45300000D01*
X136699999Y-45300000D01*
X136675495Y-45298796D01*
X136651227Y-45295196D01*
X136627428Y-45289235D01*
X136604329Y-45280970D01*
X136582150Y-45270480D01*
X136561107Y-45257868D01*
X136541401Y-45243253D01*
X136523223Y-45226777D01*
X136506747Y-45208599D01*
X136492132Y-45188893D01*
X136479520Y-45167850D01*
X136469030Y-45145671D01*
X136460765Y-45122572D01*
X136454804Y-45098773D01*
X136451204Y-45074505D01*
X136450000Y-45050001D01*
X136450000Y-44149999D01*
X136451204Y-44125495D01*
X136454804Y-44101227D01*
X136460765Y-44077428D01*
X136469030Y-44054329D01*
X136479520Y-44032150D01*
X136492132Y-44011107D01*
X136506747Y-43991401D01*
X136523223Y-43973223D01*
X136541401Y-43956747D01*
X136561107Y-43942132D01*
X136582150Y-43929520D01*
X136604329Y-43919030D01*
X136627428Y-43910765D01*
X136651227Y-43904804D01*
X136675495Y-43901204D01*
X136699999Y-43900000D01*
X137350001Y-43900000D01*
X137374505Y-43901204D01*
G37*
G04 #@! TD.AperFunction*
G04 #@! TA.AperFunction,SMDPad,CuDef*
G36*
X136249505Y-32651204D02*
G01*
X136273773Y-32654804D01*
X136297572Y-32660765D01*
X136320671Y-32669030D01*
X136342850Y-32679520D01*
X136363893Y-32692132D01*
X136383599Y-32706747D01*
X136401777Y-32723223D01*
X136418253Y-32741401D01*
X136432868Y-32761107D01*
X136445480Y-32782150D01*
X136455970Y-32804329D01*
X136464235Y-32827428D01*
X136470196Y-32851227D01*
X136473796Y-32875495D01*
X136475000Y-32899999D01*
X136475000Y-33800001D01*
X136473796Y-33824505D01*
X136470196Y-33848773D01*
X136464235Y-33872572D01*
X136455970Y-33895671D01*
X136445480Y-33917850D01*
X136432868Y-33938893D01*
X136418253Y-33958599D01*
X136401777Y-33976777D01*
X136383599Y-33993253D01*
X136363893Y-34007868D01*
X136342850Y-34020480D01*
X136320671Y-34030970D01*
X136297572Y-34039235D01*
X136273773Y-34045196D01*
X136249505Y-34048796D01*
X136225001Y-34050000D01*
X135574999Y-34050000D01*
X135550495Y-34048796D01*
X135526227Y-34045196D01*
X135502428Y-34039235D01*
X135479329Y-34030970D01*
X135457150Y-34020480D01*
X135436107Y-34007868D01*
X135416401Y-33993253D01*
X135398223Y-33976777D01*
X135381747Y-33958599D01*
X135367132Y-33938893D01*
X135354520Y-33917850D01*
X135344030Y-33895671D01*
X135335765Y-33872572D01*
X135329804Y-33848773D01*
X135326204Y-33824505D01*
X135325000Y-33800001D01*
X135325000Y-32899999D01*
X135326204Y-32875495D01*
X135329804Y-32851227D01*
X135335765Y-32827428D01*
X135344030Y-32804329D01*
X135354520Y-32782150D01*
X135367132Y-32761107D01*
X135381747Y-32741401D01*
X135398223Y-32723223D01*
X135416401Y-32706747D01*
X135436107Y-32692132D01*
X135457150Y-32679520D01*
X135479329Y-32669030D01*
X135502428Y-32660765D01*
X135526227Y-32654804D01*
X135550495Y-32651204D01*
X135574999Y-32650000D01*
X136225001Y-32650000D01*
X136249505Y-32651204D01*
G37*
G04 #@! TD.AperFunction*
G04 #@! TA.AperFunction,SMDPad,CuDef*
G36*
X138299505Y-32651204D02*
G01*
X138323773Y-32654804D01*
X138347572Y-32660765D01*
X138370671Y-32669030D01*
X138392850Y-32679520D01*
X138413893Y-32692132D01*
X138433599Y-32706747D01*
X138451777Y-32723223D01*
X138468253Y-32741401D01*
X138482868Y-32761107D01*
X138495480Y-32782150D01*
X138505970Y-32804329D01*
X138514235Y-32827428D01*
X138520196Y-32851227D01*
X138523796Y-32875495D01*
X138525000Y-32899999D01*
X138525000Y-33800001D01*
X138523796Y-33824505D01*
X138520196Y-33848773D01*
X138514235Y-33872572D01*
X138505970Y-33895671D01*
X138495480Y-33917850D01*
X138482868Y-33938893D01*
X138468253Y-33958599D01*
X138451777Y-33976777D01*
X138433599Y-33993253D01*
X138413893Y-34007868D01*
X138392850Y-34020480D01*
X138370671Y-34030970D01*
X138347572Y-34039235D01*
X138323773Y-34045196D01*
X138299505Y-34048796D01*
X138275001Y-34050000D01*
X137624999Y-34050000D01*
X137600495Y-34048796D01*
X137576227Y-34045196D01*
X137552428Y-34039235D01*
X137529329Y-34030970D01*
X137507150Y-34020480D01*
X137486107Y-34007868D01*
X137466401Y-33993253D01*
X137448223Y-33976777D01*
X137431747Y-33958599D01*
X137417132Y-33938893D01*
X137404520Y-33917850D01*
X137394030Y-33895671D01*
X137385765Y-33872572D01*
X137379804Y-33848773D01*
X137376204Y-33824505D01*
X137375000Y-33800001D01*
X137375000Y-32899999D01*
X137376204Y-32875495D01*
X137379804Y-32851227D01*
X137385765Y-32827428D01*
X137394030Y-32804329D01*
X137404520Y-32782150D01*
X137417132Y-32761107D01*
X137431747Y-32741401D01*
X137448223Y-32723223D01*
X137466401Y-32706747D01*
X137486107Y-32692132D01*
X137507150Y-32679520D01*
X137529329Y-32669030D01*
X137552428Y-32660765D01*
X137576227Y-32654804D01*
X137600495Y-32651204D01*
X137624999Y-32650000D01*
X138275001Y-32650000D01*
X138299505Y-32651204D01*
G37*
G04 #@! TD.AperFunction*
G04 #@! TA.AperFunction,SMDPad,CuDef*
G36*
X153474505Y-50976204D02*
G01*
X153498773Y-50979804D01*
X153522572Y-50985765D01*
X153545671Y-50994030D01*
X153567850Y-51004520D01*
X153588893Y-51017132D01*
X153608599Y-51031747D01*
X153626777Y-51048223D01*
X153643253Y-51066401D01*
X153657868Y-51086107D01*
X153670480Y-51107150D01*
X153680970Y-51129329D01*
X153689235Y-51152428D01*
X153695196Y-51176227D01*
X153698796Y-51200495D01*
X153700000Y-51224999D01*
X153700000Y-51875001D01*
X153698796Y-51899505D01*
X153695196Y-51923773D01*
X153689235Y-51947572D01*
X153680970Y-51970671D01*
X153670480Y-51992850D01*
X153657868Y-52013893D01*
X153643253Y-52033599D01*
X153626777Y-52051777D01*
X153608599Y-52068253D01*
X153588893Y-52082868D01*
X153567850Y-52095480D01*
X153545671Y-52105970D01*
X153522572Y-52114235D01*
X153498773Y-52120196D01*
X153474505Y-52123796D01*
X153450001Y-52125000D01*
X152549999Y-52125000D01*
X152525495Y-52123796D01*
X152501227Y-52120196D01*
X152477428Y-52114235D01*
X152454329Y-52105970D01*
X152432150Y-52095480D01*
X152411107Y-52082868D01*
X152391401Y-52068253D01*
X152373223Y-52051777D01*
X152356747Y-52033599D01*
X152342132Y-52013893D01*
X152329520Y-51992850D01*
X152319030Y-51970671D01*
X152310765Y-51947572D01*
X152304804Y-51923773D01*
X152301204Y-51899505D01*
X152300000Y-51875001D01*
X152300000Y-51224999D01*
X152301204Y-51200495D01*
X152304804Y-51176227D01*
X152310765Y-51152428D01*
X152319030Y-51129329D01*
X152329520Y-51107150D01*
X152342132Y-51086107D01*
X152356747Y-51066401D01*
X152373223Y-51048223D01*
X152391401Y-51031747D01*
X152411107Y-51017132D01*
X152432150Y-51004520D01*
X152454329Y-50994030D01*
X152477428Y-50985765D01*
X152501227Y-50979804D01*
X152525495Y-50976204D01*
X152549999Y-50975000D01*
X153450001Y-50975000D01*
X153474505Y-50976204D01*
G37*
G04 #@! TD.AperFunction*
G04 #@! TA.AperFunction,SMDPad,CuDef*
G36*
X153474505Y-48926204D02*
G01*
X153498773Y-48929804D01*
X153522572Y-48935765D01*
X153545671Y-48944030D01*
X153567850Y-48954520D01*
X153588893Y-48967132D01*
X153608599Y-48981747D01*
X153626777Y-48998223D01*
X153643253Y-49016401D01*
X153657868Y-49036107D01*
X153670480Y-49057150D01*
X153680970Y-49079329D01*
X153689235Y-49102428D01*
X153695196Y-49126227D01*
X153698796Y-49150495D01*
X153700000Y-49174999D01*
X153700000Y-49825001D01*
X153698796Y-49849505D01*
X153695196Y-49873773D01*
X153689235Y-49897572D01*
X153680970Y-49920671D01*
X153670480Y-49942850D01*
X153657868Y-49963893D01*
X153643253Y-49983599D01*
X153626777Y-50001777D01*
X153608599Y-50018253D01*
X153588893Y-50032868D01*
X153567850Y-50045480D01*
X153545671Y-50055970D01*
X153522572Y-50064235D01*
X153498773Y-50070196D01*
X153474505Y-50073796D01*
X153450001Y-50075000D01*
X152549999Y-50075000D01*
X152525495Y-50073796D01*
X152501227Y-50070196D01*
X152477428Y-50064235D01*
X152454329Y-50055970D01*
X152432150Y-50045480D01*
X152411107Y-50032868D01*
X152391401Y-50018253D01*
X152373223Y-50001777D01*
X152356747Y-49983599D01*
X152342132Y-49963893D01*
X152329520Y-49942850D01*
X152319030Y-49920671D01*
X152310765Y-49897572D01*
X152304804Y-49873773D01*
X152301204Y-49849505D01*
X152300000Y-49825001D01*
X152300000Y-49174999D01*
X152301204Y-49150495D01*
X152304804Y-49126227D01*
X152310765Y-49102428D01*
X152319030Y-49079329D01*
X152329520Y-49057150D01*
X152342132Y-49036107D01*
X152356747Y-49016401D01*
X152373223Y-48998223D01*
X152391401Y-48981747D01*
X152411107Y-48967132D01*
X152432150Y-48954520D01*
X152454329Y-48944030D01*
X152477428Y-48935765D01*
X152501227Y-48929804D01*
X152525495Y-48926204D01*
X152549999Y-48925000D01*
X153450001Y-48925000D01*
X153474505Y-48926204D01*
G37*
G04 #@! TD.AperFunction*
D10*
X116640000Y-43790000D03*
D11*
X116640000Y-41250000D03*
D19*
X155800000Y-48250000D03*
X97650000Y-41850000D03*
X172800000Y-56300000D03*
X165200000Y-56300000D03*
X155050000Y-50500000D03*
X139500000Y-37700000D03*
X141700000Y-42700000D03*
X142600000Y-49100000D03*
X146412155Y-46014586D03*
X141800000Y-48399970D03*
X145812155Y-45414586D03*
X145300000Y-44800000D03*
X141002752Y-47625010D03*
X143908051Y-50308051D03*
X146000000Y-42900000D03*
X143299996Y-49700000D03*
X145500000Y-43700000D03*
X139574990Y-46400000D03*
X144200000Y-43799992D03*
X140400008Y-47000000D03*
X143900000Y-41800000D03*
X117348000Y-34798000D03*
X129250000Y-45550000D03*
X145200000Y-32350000D03*
X149300000Y-45100000D03*
X138199970Y-39000000D03*
X151950000Y-30550000D03*
X144200000Y-38950000D03*
X142800000Y-37250000D03*
X117900000Y-38000014D03*
X148800000Y-45900000D03*
X132400000Y-45000000D03*
D20*
X159500000Y-49500000D02*
X157050000Y-49500000D01*
X157050000Y-49500000D02*
X155800000Y-48250000D01*
X185500000Y-33000000D02*
X185500000Y-36450000D01*
X153000000Y-49500000D02*
X154050000Y-49500000D01*
X154050000Y-49500000D02*
X155050000Y-50500000D01*
X137700000Y-35900000D02*
X139500000Y-37700000D01*
X137950000Y-33350000D02*
X137700000Y-33600000D01*
X137700000Y-33600000D02*
X137700000Y-35900000D01*
X137025000Y-44600000D02*
X139800000Y-44600000D01*
X139800000Y-44600000D02*
X141700000Y-42700000D01*
D21*
X97000000Y-38500000D02*
X96000000Y-39500000D01*
X97000000Y-33000000D02*
X97000000Y-38500000D01*
D20*
X142600000Y-49100000D02*
X143024264Y-49100000D01*
X143024264Y-49100000D02*
X146109678Y-46014586D01*
X146109678Y-46014586D02*
X146412155Y-46014586D01*
X142826771Y-48399970D02*
X145812155Y-45414586D01*
X141800000Y-48399970D02*
X142826771Y-48399970D01*
X142474990Y-47625010D02*
X141002752Y-47625010D01*
X145300000Y-44800000D02*
X142474990Y-47625010D01*
X147999999Y-44899999D02*
X146000000Y-42900000D01*
X143908051Y-50308051D02*
X147999999Y-46216103D01*
X147999999Y-46216103D02*
X147999999Y-44899999D01*
X147549989Y-45749989D02*
X145500000Y-43700000D01*
X147549989Y-45874271D02*
X147549989Y-45749989D01*
X143724260Y-49700000D02*
X147549989Y-45874271D01*
X143299996Y-49700000D02*
X143724260Y-49700000D01*
X139574990Y-46400000D02*
X139874990Y-46100000D01*
X141899992Y-46100000D02*
X144200000Y-43799992D01*
X139874990Y-46100000D02*
X141899992Y-46100000D01*
X144825002Y-43149266D02*
X143900000Y-42224264D01*
X143900000Y-42224264D02*
X143900000Y-41800000D01*
X142025004Y-47000000D02*
X144825002Y-44200002D01*
X144825002Y-44200002D02*
X144825002Y-43149266D01*
X140400008Y-47000000D02*
X142025004Y-47000000D01*
X117402000Y-34798000D02*
X117348000Y-34798000D01*
X119180000Y-33020000D02*
X117402000Y-34798000D01*
D21*
X108990000Y-43790000D02*
X108700000Y-43500000D01*
X111560000Y-43790000D02*
X108990000Y-43790000D01*
X98900000Y-31100000D02*
X97000000Y-33000000D01*
X105600000Y-30480000D02*
X104980000Y-31100000D01*
X104980000Y-31100000D02*
X98900000Y-31100000D01*
X116640000Y-30480000D02*
X114860000Y-28700000D01*
X107380000Y-28700000D02*
X105600000Y-30480000D01*
X114860000Y-28700000D02*
X107380000Y-28700000D01*
X184260000Y-54435000D02*
X184025000Y-54200000D01*
X184260000Y-57200000D02*
X184260000Y-54435000D01*
X183225000Y-52700000D02*
X162500000Y-52700000D01*
X162500000Y-52700000D02*
X156900000Y-58300000D01*
X184025000Y-54200000D02*
X184025000Y-53500000D01*
X184025000Y-53500000D02*
X183225000Y-52700000D01*
X141900000Y-58200000D02*
X142300000Y-58200000D01*
X129250000Y-45550000D02*
X141900000Y-58200000D01*
X156900000Y-58300000D02*
X142300000Y-58200000D01*
X142300000Y-58200000D02*
X142000000Y-58200000D01*
D20*
X142000000Y-29850000D02*
X142700000Y-29850000D01*
X142700000Y-29850000D02*
X145200000Y-32350000D01*
X149000000Y-44800000D02*
X149300000Y-45100000D01*
X149000000Y-42350000D02*
X149000000Y-44800000D01*
X136999970Y-37800000D02*
X137899971Y-38700001D01*
X134700000Y-37800000D02*
X136999970Y-37800000D01*
X137899971Y-38700001D02*
X138199970Y-39000000D01*
X147000000Y-30550000D02*
X145200000Y-32350000D01*
X151950000Y-30550000D02*
X147000000Y-30550000D01*
X140550000Y-42600000D02*
X143900001Y-39249999D01*
X117830000Y-42600000D02*
X140550000Y-42600000D01*
X143900001Y-39249999D02*
X144200000Y-38950000D01*
X116640000Y-43790000D02*
X117830000Y-42600000D01*
X142500001Y-37549999D02*
X142800000Y-37250000D01*
X115275001Y-42614999D02*
X115275001Y-40329997D01*
X114100000Y-43790000D02*
X115275001Y-42614999D01*
X140150000Y-39900000D02*
X142500001Y-37549999D01*
X115275001Y-40329997D02*
X115704998Y-39900000D01*
X115704998Y-39900000D02*
X140150000Y-39900000D01*
X119180000Y-30480000D02*
X120355001Y-31655001D01*
X120355001Y-31655001D02*
X120355001Y-35545013D01*
X120355001Y-35545013D02*
X117900000Y-38000014D01*
X132400000Y-45000000D02*
X132400000Y-45000000D01*
X148800000Y-46300000D02*
X148800000Y-45900000D01*
X132100000Y-44700000D02*
X139100000Y-51700000D01*
X139100000Y-51700000D02*
X143400000Y-51700000D01*
X120090000Y-44700000D02*
X132100000Y-44700000D01*
X119180000Y-43790000D02*
X120090000Y-44700000D01*
X143400000Y-51700000D02*
X148800000Y-46300000D01*
X112800000Y-42750000D02*
X111560000Y-41510000D01*
X112800000Y-47180000D02*
X112800000Y-42750000D01*
X111560000Y-41510000D02*
X111560000Y-41250000D01*
X112800000Y-47180000D02*
X113800000Y-47180000D01*
X113800000Y-47180000D02*
X121620000Y-55000000D01*
D22*
G36*
X186664326Y-26644904D02*
G01*
X187303348Y-26837837D01*
X187892728Y-27151216D01*
X188410013Y-27573103D01*
X188835503Y-28087431D01*
X189152986Y-28674604D01*
X189350376Y-29312268D01*
X189423001Y-30003247D01*
X189423000Y-59423000D01*
X90577000Y-59423000D01*
X90577000Y-51061653D01*
X91977952Y-51061653D01*
X92133962Y-51377214D01*
X92508745Y-51568020D01*
X92913551Y-51682044D01*
X93332824Y-51714902D01*
X93750451Y-51665334D01*
X94150383Y-51535243D01*
X94446038Y-51377214D01*
X94602048Y-51061653D01*
X93290000Y-49749605D01*
X91977952Y-51061653D01*
X90577000Y-51061653D01*
X90577000Y-49612824D01*
X91145098Y-49612824D01*
X91194666Y-50030451D01*
X91324757Y-50430383D01*
X91482786Y-50726038D01*
X91798347Y-50882048D01*
X93110395Y-49570000D01*
X93469605Y-49570000D01*
X94781653Y-50882048D01*
X95097214Y-50726038D01*
X95288020Y-50351255D01*
X95402044Y-49946449D01*
X95434902Y-49527176D01*
X95385334Y-49109549D01*
X95255243Y-48709617D01*
X95097214Y-48413962D01*
X94781653Y-48257952D01*
X93469605Y-49570000D01*
X93110395Y-49570000D01*
X91798347Y-48257952D01*
X91482786Y-48413962D01*
X91291980Y-48788745D01*
X91177956Y-49193551D01*
X91145098Y-49612824D01*
X90577000Y-49612824D01*
X90577000Y-48078347D01*
X91977952Y-48078347D01*
X93290000Y-49390395D01*
X94602048Y-48078347D01*
X94446038Y-47762786D01*
X94071255Y-47571980D01*
X93789804Y-47492702D01*
X95186903Y-47492702D01*
X95258486Y-47736671D01*
X95513996Y-47857571D01*
X95788184Y-47926300D01*
X96070512Y-47940217D01*
X96350130Y-47898787D01*
X96616292Y-47803603D01*
X96741514Y-47736671D01*
X96813097Y-47492702D01*
X96000000Y-46679605D01*
X95186903Y-47492702D01*
X93789804Y-47492702D01*
X93666449Y-47457956D01*
X93247176Y-47425098D01*
X92829549Y-47474666D01*
X92429617Y-47604757D01*
X92133962Y-47762786D01*
X91977952Y-48078347D01*
X90577000Y-48078347D01*
X90577000Y-46570512D01*
X94559783Y-46570512D01*
X94601213Y-46850130D01*
X94696397Y-47116292D01*
X94763329Y-47241514D01*
X95007298Y-47313097D01*
X95820395Y-46500000D01*
X96179605Y-46500000D01*
X96992702Y-47313097D01*
X97236671Y-47241514D01*
X97357571Y-46986004D01*
X97426300Y-46711816D01*
X97440217Y-46429488D01*
X97398787Y-46149870D01*
X97303603Y-45883708D01*
X97236671Y-45758486D01*
X96992702Y-45686903D01*
X96179605Y-46500000D01*
X95820395Y-46500000D01*
X95007298Y-45686903D01*
X94763329Y-45758486D01*
X94642429Y-46013996D01*
X94573700Y-46288184D01*
X94559783Y-46570512D01*
X90577000Y-46570512D01*
X90577000Y-38700000D01*
X94670451Y-38700000D01*
X94670451Y-40300000D01*
X94680626Y-40403310D01*
X94710761Y-40502650D01*
X94759696Y-40594202D01*
X94825552Y-40674448D01*
X94905798Y-40740304D01*
X94997350Y-40789239D01*
X95096690Y-40819374D01*
X95200000Y-40829549D01*
X95363167Y-40829549D01*
X95154087Y-40969252D01*
X94969252Y-41154087D01*
X94824028Y-41371430D01*
X94723996Y-41612928D01*
X94673000Y-41869302D01*
X94673000Y-42130698D01*
X94723996Y-42387072D01*
X94824028Y-42628570D01*
X94969252Y-42845913D01*
X95123339Y-43000000D01*
X94969252Y-43154087D01*
X94824028Y-43371430D01*
X94723996Y-43612928D01*
X94673000Y-43869302D01*
X94673000Y-44130698D01*
X94723996Y-44387072D01*
X94824028Y-44628570D01*
X94969252Y-44845913D01*
X95154087Y-45030748D01*
X95371430Y-45175972D01*
X95403582Y-45189290D01*
X95383708Y-45196397D01*
X95258486Y-45263329D01*
X95186903Y-45507298D01*
X96000000Y-46320395D01*
X96813097Y-45507298D01*
X96741514Y-45263329D01*
X96590351Y-45191803D01*
X96628570Y-45175972D01*
X96845913Y-45030748D01*
X97030748Y-44845913D01*
X97175972Y-44628570D01*
X97276004Y-44387072D01*
X97327000Y-44130698D01*
X97327000Y-43869302D01*
X97276004Y-43612928D01*
X97175972Y-43371430D01*
X97030748Y-43154087D01*
X96876661Y-43000000D01*
X97030748Y-42845913D01*
X97175972Y-42628570D01*
X97276004Y-42387072D01*
X97327000Y-42130698D01*
X97327000Y-42025000D01*
X107361928Y-42025000D01*
X107374188Y-42149482D01*
X107410498Y-42269180D01*
X107469463Y-42379494D01*
X107548815Y-42476185D01*
X107645506Y-42555537D01*
X107728117Y-42599694D01*
X107698775Y-42623775D01*
X107601829Y-42741905D01*
X107529791Y-42876679D01*
X107485430Y-43022917D01*
X107470451Y-43174999D01*
X107470451Y-43825001D01*
X107485430Y-43977083D01*
X107529791Y-44123321D01*
X107601829Y-44258095D01*
X107698775Y-44376225D01*
X107816905Y-44473171D01*
X107951679Y-44545209D01*
X108097917Y-44589570D01*
X108249999Y-44604549D01*
X109150001Y-44604549D01*
X109302083Y-44589570D01*
X109376486Y-44567000D01*
X110423070Y-44567000D01*
X110490414Y-44667787D01*
X110682213Y-44859586D01*
X110907746Y-45010282D01*
X111158344Y-45114083D01*
X111424377Y-45167000D01*
X111695623Y-45167000D01*
X111961656Y-45114083D01*
X112148000Y-45036897D01*
X112148000Y-47147978D01*
X112144846Y-47180000D01*
X112157435Y-47307814D01*
X112194717Y-47430717D01*
X112255259Y-47543984D01*
X112321755Y-47625010D01*
X112336736Y-47643264D01*
X112436016Y-47724741D01*
X112549283Y-47785283D01*
X112672186Y-47822565D01*
X112800000Y-47835154D01*
X112832022Y-47832000D01*
X113529934Y-47832000D01*
X119318785Y-53620852D01*
X119207000Y-53679845D01*
X119207000Y-54873000D01*
X119227000Y-54873000D01*
X119227000Y-55127000D01*
X119207000Y-55127000D01*
X119207000Y-55147000D01*
X118953000Y-55147000D01*
X118953000Y-55127000D01*
X118933000Y-55127000D01*
X118933000Y-54873000D01*
X118953000Y-54873000D01*
X118953000Y-53679845D01*
X118723110Y-53558524D01*
X118575901Y-53603175D01*
X118313080Y-53728359D01*
X118079731Y-53902412D01*
X117884822Y-54118645D01*
X117753975Y-54338308D01*
X117609586Y-54122213D01*
X117417787Y-53930414D01*
X117192254Y-53779718D01*
X116941656Y-53675917D01*
X116675623Y-53623000D01*
X116404377Y-53623000D01*
X116138344Y-53675917D01*
X115887746Y-53779718D01*
X115662213Y-53930414D01*
X115470414Y-54122213D01*
X115319718Y-54347746D01*
X115270000Y-54467776D01*
X115220282Y-54347746D01*
X115069586Y-54122213D01*
X114877787Y-53930414D01*
X114652254Y-53779718D01*
X114401656Y-53675917D01*
X114135623Y-53623000D01*
X113864377Y-53623000D01*
X113598344Y-53675917D01*
X113347746Y-53779718D01*
X113122213Y-53930414D01*
X112930414Y-54122213D01*
X112779718Y-54347746D01*
X112675917Y-54598344D01*
X112623000Y-54864377D01*
X112623000Y-55135623D01*
X112675917Y-55401656D01*
X112779718Y-55652254D01*
X112930414Y-55877787D01*
X113122213Y-56069586D01*
X113347746Y-56220282D01*
X113467776Y-56270000D01*
X113347746Y-56319718D01*
X113122213Y-56470414D01*
X112930414Y-56662213D01*
X112779718Y-56887746D01*
X112675917Y-57138344D01*
X112623000Y-57404377D01*
X112623000Y-57675623D01*
X112675917Y-57941656D01*
X112779718Y-58192254D01*
X112930414Y-58417787D01*
X113122213Y-58609586D01*
X113347746Y-58760282D01*
X113598344Y-58864083D01*
X113864377Y-58917000D01*
X114135623Y-58917000D01*
X114401656Y-58864083D01*
X114652254Y-58760282D01*
X114877787Y-58609586D01*
X115069586Y-58417787D01*
X115220282Y-58192254D01*
X115270000Y-58072224D01*
X115319718Y-58192254D01*
X115470414Y-58417787D01*
X115662213Y-58609586D01*
X115887746Y-58760282D01*
X116138344Y-58864083D01*
X116404377Y-58917000D01*
X116675623Y-58917000D01*
X116941656Y-58864083D01*
X117192254Y-58760282D01*
X117417787Y-58609586D01*
X117609586Y-58417787D01*
X117760282Y-58192254D01*
X117810000Y-58072224D01*
X117859718Y-58192254D01*
X118010414Y-58417787D01*
X118202213Y-58609586D01*
X118427746Y-58760282D01*
X118678344Y-58864083D01*
X118944377Y-58917000D01*
X119215623Y-58917000D01*
X119481656Y-58864083D01*
X119732254Y-58760282D01*
X119957787Y-58609586D01*
X120149586Y-58417787D01*
X120300282Y-58192254D01*
X120350000Y-58072224D01*
X120399718Y-58192254D01*
X120550414Y-58417787D01*
X120742213Y-58609586D01*
X120967746Y-58760282D01*
X121218344Y-58864083D01*
X121484377Y-58917000D01*
X121755623Y-58917000D01*
X122021656Y-58864083D01*
X122272254Y-58760282D01*
X122497787Y-58609586D01*
X122689586Y-58417787D01*
X122780451Y-58281798D01*
X122780451Y-58390000D01*
X122790626Y-58493310D01*
X122820761Y-58592650D01*
X122869696Y-58684202D01*
X122935552Y-58764448D01*
X123015798Y-58830304D01*
X123107350Y-58879239D01*
X123206690Y-58909374D01*
X123310000Y-58919549D01*
X125010000Y-58919549D01*
X125113310Y-58909374D01*
X125212650Y-58879239D01*
X125304202Y-58830304D01*
X125384448Y-58764448D01*
X125450304Y-58684202D01*
X125499239Y-58592650D01*
X125529374Y-58493310D01*
X125539549Y-58390000D01*
X125539549Y-56690000D01*
X125529374Y-56586690D01*
X125499239Y-56487350D01*
X125450304Y-56395798D01*
X125384448Y-56315552D01*
X125304202Y-56249696D01*
X125212650Y-56200761D01*
X125113310Y-56170626D01*
X125010000Y-56160451D01*
X124901798Y-56160451D01*
X125037787Y-56069586D01*
X125229586Y-55877787D01*
X125380282Y-55652254D01*
X125484083Y-55401656D01*
X125537000Y-55135623D01*
X125537000Y-54864377D01*
X125484083Y-54598344D01*
X125380282Y-54347746D01*
X125229586Y-54122213D01*
X125037787Y-53930414D01*
X124812254Y-53779718D01*
X124561656Y-53675917D01*
X124295623Y-53623000D01*
X124024377Y-53623000D01*
X123758344Y-53675917D01*
X123507746Y-53779718D01*
X123282213Y-53930414D01*
X123090414Y-54122213D01*
X122939718Y-54347746D01*
X122890000Y-54467776D01*
X122840282Y-54347746D01*
X122689586Y-54122213D01*
X122497787Y-53930414D01*
X122272254Y-53779718D01*
X122021656Y-53675917D01*
X121755623Y-53623000D01*
X121484377Y-53623000D01*
X121218344Y-53675917D01*
X121218089Y-53676022D01*
X114283685Y-46741619D01*
X114263264Y-46716736D01*
X114163984Y-46635259D01*
X114050717Y-46574717D01*
X113927814Y-46537435D01*
X113832022Y-46528000D01*
X113800000Y-46524846D01*
X113767978Y-46528000D01*
X113452000Y-46528000D01*
X113452000Y-45012044D01*
X113698344Y-45114083D01*
X113964377Y-45167000D01*
X114235623Y-45167000D01*
X114501656Y-45114083D01*
X114752254Y-45010282D01*
X114977787Y-44859586D01*
X115169586Y-44667787D01*
X115320282Y-44442254D01*
X115370000Y-44322224D01*
X115419718Y-44442254D01*
X115570414Y-44667787D01*
X115762213Y-44859586D01*
X115987746Y-45010282D01*
X116238344Y-45114083D01*
X116504377Y-45167000D01*
X116775623Y-45167000D01*
X117041656Y-45114083D01*
X117292254Y-45010282D01*
X117517787Y-44859586D01*
X117709586Y-44667787D01*
X117860282Y-44442254D01*
X117910000Y-44322224D01*
X117959718Y-44442254D01*
X118110414Y-44667787D01*
X118302213Y-44859586D01*
X118527746Y-45010282D01*
X118778344Y-45114083D01*
X119044377Y-45167000D01*
X119315623Y-45167000D01*
X119581656Y-45114083D01*
X119581911Y-45113978D01*
X119606320Y-45138387D01*
X119626736Y-45163264D01*
X119726016Y-45244741D01*
X119829399Y-45300000D01*
X119839283Y-45305283D01*
X119962185Y-45342565D01*
X119974827Y-45343810D01*
X120057978Y-45352000D01*
X120057985Y-45352000D01*
X120089999Y-45355153D01*
X120122014Y-45352000D01*
X128446183Y-45352000D01*
X128423000Y-45468548D01*
X128423000Y-45631452D01*
X128454782Y-45791227D01*
X128517123Y-45941731D01*
X128607628Y-46077181D01*
X128722819Y-46192372D01*
X128858269Y-46282877D01*
X128902253Y-46301096D01*
X141323592Y-58722436D01*
X141347920Y-58752080D01*
X141377564Y-58776408D01*
X141377565Y-58776409D01*
X141466234Y-58849178D01*
X141554199Y-58896195D01*
X141601216Y-58921327D01*
X141747681Y-58965757D01*
X141861834Y-58977000D01*
X141861836Y-58977000D01*
X141900000Y-58980759D01*
X141938163Y-58977000D01*
X142297394Y-58977000D01*
X156859182Y-59076738D01*
X156900000Y-59080759D01*
X156973481Y-59073521D01*
X157047070Y-59066782D01*
X157049649Y-59066019D01*
X157052318Y-59065756D01*
X157122973Y-59044323D01*
X157193836Y-59023356D01*
X157196212Y-59022107D01*
X157198783Y-59021327D01*
X157263999Y-58986468D01*
X157329309Y-58952132D01*
X157331393Y-58950445D01*
X157333766Y-58949177D01*
X157390918Y-58902274D01*
X157448285Y-58855848D01*
X157474521Y-58824322D01*
X160028274Y-56270569D01*
X160020451Y-56350000D01*
X160020451Y-58050000D01*
X160030626Y-58153310D01*
X160060761Y-58252650D01*
X160109696Y-58344202D01*
X160175552Y-58424448D01*
X160255798Y-58490304D01*
X160347350Y-58539239D01*
X160446690Y-58569374D01*
X160550000Y-58579549D01*
X162250000Y-58579549D01*
X162353310Y-58569374D01*
X162452650Y-58539239D01*
X162544202Y-58490304D01*
X162624448Y-58424448D01*
X162690304Y-58344202D01*
X162739239Y-58252650D01*
X162769374Y-58153310D01*
X162779549Y-58050000D01*
X162779549Y-57941798D01*
X162870414Y-58077787D01*
X163062213Y-58269586D01*
X163287746Y-58420282D01*
X163538344Y-58524083D01*
X163804377Y-58577000D01*
X164075623Y-58577000D01*
X164341656Y-58524083D01*
X164592254Y-58420282D01*
X164817787Y-58269586D01*
X165009586Y-58077787D01*
X165160282Y-57852254D01*
X165210000Y-57732224D01*
X165259718Y-57852254D01*
X165410414Y-58077787D01*
X165602213Y-58269586D01*
X165827746Y-58420282D01*
X166078344Y-58524083D01*
X166344377Y-58577000D01*
X166615623Y-58577000D01*
X166881656Y-58524083D01*
X167132254Y-58420282D01*
X167357787Y-58269586D01*
X167549586Y-58077787D01*
X167700282Y-57852254D01*
X167750000Y-57732224D01*
X167799718Y-57852254D01*
X167950414Y-58077787D01*
X168142213Y-58269586D01*
X168367746Y-58420282D01*
X168618344Y-58524083D01*
X168884377Y-58577000D01*
X169155623Y-58577000D01*
X169421656Y-58524083D01*
X169672254Y-58420282D01*
X169897787Y-58269586D01*
X170089586Y-58077787D01*
X170240282Y-57852254D01*
X170290000Y-57732224D01*
X170339718Y-57852254D01*
X170490414Y-58077787D01*
X170682213Y-58269586D01*
X170907746Y-58420282D01*
X171158344Y-58524083D01*
X171424377Y-58577000D01*
X171695623Y-58577000D01*
X171961656Y-58524083D01*
X172212254Y-58420282D01*
X172437787Y-58269586D01*
X172629586Y-58077787D01*
X172780282Y-57852254D01*
X172830000Y-57732224D01*
X172879718Y-57852254D01*
X173030414Y-58077787D01*
X173222213Y-58269586D01*
X173447746Y-58420282D01*
X173698344Y-58524083D01*
X173964377Y-58577000D01*
X174235623Y-58577000D01*
X174501656Y-58524083D01*
X174752254Y-58420282D01*
X174977787Y-58269586D01*
X175169586Y-58077787D01*
X175320282Y-57852254D01*
X175370000Y-57732224D01*
X175419718Y-57852254D01*
X175570414Y-58077787D01*
X175762213Y-58269586D01*
X175987746Y-58420282D01*
X176238344Y-58524083D01*
X176504377Y-58577000D01*
X176775623Y-58577000D01*
X177041656Y-58524083D01*
X177292254Y-58420282D01*
X177517787Y-58269586D01*
X177709586Y-58077787D01*
X177860282Y-57852254D01*
X177910000Y-57732224D01*
X177959718Y-57852254D01*
X178110414Y-58077787D01*
X178302213Y-58269586D01*
X178527746Y-58420282D01*
X178778344Y-58524083D01*
X179044377Y-58577000D01*
X179315623Y-58577000D01*
X179581656Y-58524083D01*
X179832254Y-58420282D01*
X180057787Y-58269586D01*
X180249586Y-58077787D01*
X180393975Y-57861692D01*
X180524822Y-58081355D01*
X180719731Y-58297588D01*
X180953080Y-58471641D01*
X181215901Y-58596825D01*
X181363110Y-58641476D01*
X181593000Y-58520155D01*
X181593000Y-57327000D01*
X181573000Y-57327000D01*
X181573000Y-57073000D01*
X181593000Y-57073000D01*
X181593000Y-55879845D01*
X181363110Y-55758524D01*
X181215901Y-55803175D01*
X180953080Y-55928359D01*
X180719731Y-56102412D01*
X180524822Y-56318645D01*
X180393975Y-56538308D01*
X180249586Y-56322213D01*
X180057787Y-56130414D01*
X179832254Y-55979718D01*
X179581656Y-55875917D01*
X179315623Y-55823000D01*
X179044377Y-55823000D01*
X178778344Y-55875917D01*
X178527746Y-55979718D01*
X178302213Y-56130414D01*
X178110414Y-56322213D01*
X177959718Y-56547746D01*
X177910000Y-56667776D01*
X177860282Y-56547746D01*
X177709586Y-56322213D01*
X177517787Y-56130414D01*
X177292254Y-55979718D01*
X177041656Y-55875917D01*
X176775623Y-55823000D01*
X176504377Y-55823000D01*
X176238344Y-55875917D01*
X175987746Y-55979718D01*
X175762213Y-56130414D01*
X175570414Y-56322213D01*
X175419718Y-56547746D01*
X175370000Y-56667776D01*
X175320282Y-56547746D01*
X175169586Y-56322213D01*
X174977787Y-56130414D01*
X174752254Y-55979718D01*
X174501656Y-55875917D01*
X174235623Y-55823000D01*
X173964377Y-55823000D01*
X173698344Y-55875917D01*
X173447746Y-55979718D01*
X173222213Y-56130414D01*
X173030414Y-56322213D01*
X172879718Y-56547746D01*
X172830000Y-56667776D01*
X172780282Y-56547746D01*
X172629586Y-56322213D01*
X172437787Y-56130414D01*
X172212254Y-55979718D01*
X171961656Y-55875917D01*
X171695623Y-55823000D01*
X171424377Y-55823000D01*
X171158344Y-55875917D01*
X170907746Y-55979718D01*
X170682213Y-56130414D01*
X170490414Y-56322213D01*
X170339718Y-56547746D01*
X170290000Y-56667776D01*
X170240282Y-56547746D01*
X170089586Y-56322213D01*
X169897787Y-56130414D01*
X169672254Y-55979718D01*
X169421656Y-55875917D01*
X169155623Y-55823000D01*
X168884377Y-55823000D01*
X168618344Y-55875917D01*
X168367746Y-55979718D01*
X168142213Y-56130414D01*
X167950414Y-56322213D01*
X167799718Y-56547746D01*
X167750000Y-56667776D01*
X167700282Y-56547746D01*
X167549586Y-56322213D01*
X167357787Y-56130414D01*
X167132254Y-55979718D01*
X166881656Y-55875917D01*
X166615623Y-55823000D01*
X166344377Y-55823000D01*
X166078344Y-55875917D01*
X165827746Y-55979718D01*
X165602213Y-56130414D01*
X165410414Y-56322213D01*
X165259718Y-56547746D01*
X165210000Y-56667776D01*
X165160282Y-56547746D01*
X165009586Y-56322213D01*
X164817787Y-56130414D01*
X164592254Y-55979718D01*
X164341656Y-55875917D01*
X164075623Y-55823000D01*
X163804377Y-55823000D01*
X163538344Y-55875917D01*
X163287746Y-55979718D01*
X163062213Y-56130414D01*
X162870414Y-56322213D01*
X162779549Y-56458202D01*
X162779549Y-56350000D01*
X162769374Y-56246690D01*
X162739239Y-56147350D01*
X162690304Y-56055798D01*
X162624448Y-55975552D01*
X162544202Y-55909696D01*
X162452650Y-55860761D01*
X162353310Y-55830626D01*
X162250000Y-55820451D01*
X160550000Y-55820451D01*
X160470569Y-55828274D01*
X162821844Y-53477000D01*
X182903157Y-53477000D01*
X183057170Y-53631014D01*
X183045451Y-53749999D01*
X183045451Y-54650001D01*
X183060430Y-54802083D01*
X183104791Y-54948321D01*
X183176829Y-55083095D01*
X183273775Y-55201225D01*
X183391905Y-55298171D01*
X183483001Y-55346863D01*
X183483000Y-56063070D01*
X183382213Y-56130414D01*
X183190414Y-56322213D01*
X183046025Y-56538308D01*
X182915178Y-56318645D01*
X182720269Y-56102412D01*
X182486920Y-55928359D01*
X182224099Y-55803175D01*
X182076890Y-55758524D01*
X181847000Y-55879845D01*
X181847000Y-57073000D01*
X181867000Y-57073000D01*
X181867000Y-57327000D01*
X181847000Y-57327000D01*
X181847000Y-58520155D01*
X182076890Y-58641476D01*
X182224099Y-58596825D01*
X182486920Y-58471641D01*
X182720269Y-58297588D01*
X182915178Y-58081355D01*
X183046025Y-57861692D01*
X183190414Y-58077787D01*
X183382213Y-58269586D01*
X183607746Y-58420282D01*
X183858344Y-58524083D01*
X184124377Y-58577000D01*
X184395623Y-58577000D01*
X184661656Y-58524083D01*
X184912254Y-58420282D01*
X185137787Y-58269586D01*
X185329586Y-58077787D01*
X185480282Y-57852254D01*
X185584083Y-57601656D01*
X185637000Y-57335623D01*
X185637000Y-57064377D01*
X185584083Y-56798344D01*
X185480282Y-56547746D01*
X185329586Y-56322213D01*
X185137787Y-56130414D01*
X185037000Y-56063070D01*
X185037000Y-55188096D01*
X185050306Y-55171883D01*
X185094463Y-55254494D01*
X185173815Y-55351185D01*
X185270506Y-55430537D01*
X185380820Y-55489502D01*
X185500518Y-55525812D01*
X185625000Y-55538072D01*
X185914250Y-55535000D01*
X186073000Y-55376250D01*
X186073000Y-54327000D01*
X186327000Y-54327000D01*
X186327000Y-55376250D01*
X186485750Y-55535000D01*
X186775000Y-55538072D01*
X186899482Y-55525812D01*
X187019180Y-55489502D01*
X187129494Y-55430537D01*
X187226185Y-55351185D01*
X187305537Y-55254494D01*
X187364502Y-55144180D01*
X187400812Y-55024482D01*
X187413072Y-54900000D01*
X187410000Y-54485750D01*
X187251250Y-54327000D01*
X186327000Y-54327000D01*
X186073000Y-54327000D01*
X186053000Y-54327000D01*
X186053000Y-54073000D01*
X186073000Y-54073000D01*
X186073000Y-53023750D01*
X186327000Y-53023750D01*
X186327000Y-54073000D01*
X187251250Y-54073000D01*
X187410000Y-53914250D01*
X187413072Y-53500000D01*
X187400812Y-53375518D01*
X187364502Y-53255820D01*
X187305537Y-53145506D01*
X187226185Y-53048815D01*
X187129494Y-52969463D01*
X187019180Y-52910498D01*
X186899482Y-52874188D01*
X186775000Y-52861928D01*
X186485750Y-52865000D01*
X186327000Y-53023750D01*
X186073000Y-53023750D01*
X185914250Y-52865000D01*
X185625000Y-52861928D01*
X185500518Y-52874188D01*
X185380820Y-52910498D01*
X185270506Y-52969463D01*
X185173815Y-53048815D01*
X185094463Y-53145506D01*
X185050306Y-53228117D01*
X185026225Y-53198775D01*
X184908095Y-53101829D01*
X184773321Y-53029791D01*
X184627083Y-52985430D01*
X184606174Y-52983371D01*
X184601409Y-52977565D01*
X184601408Y-52977564D01*
X184577080Y-52947920D01*
X184547436Y-52923592D01*
X183801412Y-52177569D01*
X183777080Y-52147920D01*
X183658766Y-52050823D01*
X183523784Y-51978673D01*
X183377319Y-51934243D01*
X183263166Y-51923000D01*
X183263163Y-51923000D01*
X183225000Y-51919241D01*
X183186837Y-51923000D01*
X162538163Y-51923000D01*
X162500000Y-51919241D01*
X162461836Y-51923000D01*
X162461834Y-51923000D01*
X162347681Y-51934243D01*
X162201216Y-51978673D01*
X162133725Y-52014748D01*
X162066233Y-52050823D01*
X161977565Y-52123591D01*
X161947920Y-52147920D01*
X161923592Y-52177564D01*
X156580364Y-57520793D01*
X142340822Y-57423262D01*
X142338166Y-57423000D01*
X142302635Y-57423000D01*
X142267157Y-57422757D01*
X142264504Y-57423000D01*
X142221844Y-57423000D01*
X130150843Y-45352000D01*
X131650666Y-45352000D01*
X131667123Y-45391731D01*
X131757628Y-45527181D01*
X131872819Y-45642372D01*
X132008269Y-45732877D01*
X132158773Y-45795218D01*
X132301553Y-45823619D01*
X138616320Y-52138387D01*
X138636736Y-52163264D01*
X138736016Y-52244741D01*
X138849283Y-52305283D01*
X138910735Y-52323924D01*
X138972185Y-52342565D01*
X139100000Y-52355154D01*
X139132022Y-52352000D01*
X143367978Y-52352000D01*
X143400000Y-52355154D01*
X143432022Y-52352000D01*
X143527814Y-52342565D01*
X143650717Y-52305283D01*
X143763984Y-52244741D01*
X143863264Y-52163264D01*
X143883685Y-52138381D01*
X143897066Y-52125000D01*
X151661928Y-52125000D01*
X151674188Y-52249482D01*
X151710498Y-52369180D01*
X151769463Y-52479494D01*
X151848815Y-52576185D01*
X151945506Y-52655537D01*
X152055820Y-52714502D01*
X152175518Y-52750812D01*
X152300000Y-52763072D01*
X152714250Y-52760000D01*
X152873000Y-52601250D01*
X152873000Y-51677000D01*
X153127000Y-51677000D01*
X153127000Y-52601250D01*
X153285750Y-52760000D01*
X153700000Y-52763072D01*
X153824482Y-52750812D01*
X153944180Y-52714502D01*
X154054494Y-52655537D01*
X154151185Y-52576185D01*
X154230537Y-52479494D01*
X154289502Y-52369180D01*
X154325812Y-52249482D01*
X154338072Y-52125000D01*
X158161928Y-52125000D01*
X158174188Y-52249482D01*
X158210498Y-52369180D01*
X158269463Y-52479494D01*
X158348815Y-52576185D01*
X158445506Y-52655537D01*
X158555820Y-52714502D01*
X158675518Y-52750812D01*
X158800000Y-52763072D01*
X159214250Y-52760000D01*
X159373000Y-52601250D01*
X159373000Y-51677000D01*
X159627000Y-51677000D01*
X159627000Y-52601250D01*
X159785750Y-52760000D01*
X160200000Y-52763072D01*
X160324482Y-52750812D01*
X160444180Y-52714502D01*
X160554494Y-52655537D01*
X160651185Y-52576185D01*
X160730537Y-52479494D01*
X160789502Y-52369180D01*
X160825812Y-52249482D01*
X160838072Y-52125000D01*
X160835000Y-51835750D01*
X160676250Y-51677000D01*
X159627000Y-51677000D01*
X159373000Y-51677000D01*
X158323750Y-51677000D01*
X158165000Y-51835750D01*
X158161928Y-52125000D01*
X154338072Y-52125000D01*
X154335000Y-51835750D01*
X154176250Y-51677000D01*
X153127000Y-51677000D01*
X152873000Y-51677000D01*
X151823750Y-51677000D01*
X151665000Y-51835750D01*
X151661928Y-52125000D01*
X143897066Y-52125000D01*
X145047066Y-50975000D01*
X151661928Y-50975000D01*
X151665000Y-51264250D01*
X151823750Y-51423000D01*
X152873000Y-51423000D01*
X152873000Y-51403000D01*
X153127000Y-51403000D01*
X153127000Y-51423000D01*
X154176250Y-51423000D01*
X154335000Y-51264250D01*
X154338072Y-50975000D01*
X154332075Y-50914108D01*
X154407628Y-51027181D01*
X154522819Y-51142372D01*
X154658269Y-51232877D01*
X154808773Y-51295218D01*
X154968548Y-51327000D01*
X155131452Y-51327000D01*
X155291227Y-51295218D01*
X155441731Y-51232877D01*
X155577181Y-51142372D01*
X155692372Y-51027181D01*
X155782877Y-50891731D01*
X155845218Y-50741227D01*
X155877000Y-50581452D01*
X155877000Y-50418548D01*
X155845218Y-50258773D01*
X155782877Y-50108269D01*
X155692372Y-49972819D01*
X155577181Y-49857628D01*
X155441731Y-49767123D01*
X155291227Y-49704782D01*
X155148447Y-49676381D01*
X154533685Y-49061618D01*
X154513264Y-49036736D01*
X154413984Y-48955259D01*
X154300717Y-48894717D01*
X154177814Y-48857435D01*
X154158929Y-48855575D01*
X154098171Y-48741905D01*
X154001225Y-48623775D01*
X153883095Y-48526829D01*
X153748321Y-48454791D01*
X153602083Y-48410430D01*
X153450001Y-48395451D01*
X152549999Y-48395451D01*
X152397917Y-48410430D01*
X152251679Y-48454791D01*
X152116905Y-48526829D01*
X151998775Y-48623775D01*
X151901829Y-48741905D01*
X151829791Y-48876679D01*
X151785430Y-49022917D01*
X151770451Y-49174999D01*
X151770451Y-49825001D01*
X151785430Y-49977083D01*
X151829791Y-50123321D01*
X151901829Y-50258095D01*
X151998775Y-50376225D01*
X152028117Y-50400306D01*
X151945506Y-50444463D01*
X151848815Y-50523815D01*
X151769463Y-50620506D01*
X151710498Y-50730820D01*
X151674188Y-50850518D01*
X151661928Y-50975000D01*
X145047066Y-50975000D01*
X147853518Y-48168548D01*
X154973000Y-48168548D01*
X154973000Y-48331452D01*
X155004782Y-48491227D01*
X155067123Y-48641731D01*
X155157628Y-48777181D01*
X155272819Y-48892372D01*
X155408269Y-48982877D01*
X155558773Y-49045218D01*
X155701553Y-49073619D01*
X156566320Y-49938387D01*
X156586736Y-49963264D01*
X156686016Y-50044741D01*
X156799283Y-50105283D01*
X156809127Y-50108269D01*
X156922185Y-50142565D01*
X157050000Y-50155154D01*
X157082022Y-50152000D01*
X158345120Y-50152000D01*
X158401829Y-50258095D01*
X158498775Y-50376225D01*
X158528117Y-50400306D01*
X158445506Y-50444463D01*
X158348815Y-50523815D01*
X158269463Y-50620506D01*
X158210498Y-50730820D01*
X158174188Y-50850518D01*
X158161928Y-50975000D01*
X158165000Y-51264250D01*
X158323750Y-51423000D01*
X159373000Y-51423000D01*
X159373000Y-51403000D01*
X159627000Y-51403000D01*
X159627000Y-51423000D01*
X160676250Y-51423000D01*
X160835000Y-51264250D01*
X160838072Y-50975000D01*
X160825812Y-50850518D01*
X160789502Y-50730820D01*
X160730537Y-50620506D01*
X160651185Y-50523815D01*
X160554494Y-50444463D01*
X160471883Y-50400306D01*
X160501225Y-50376225D01*
X160598171Y-50258095D01*
X160670209Y-50123321D01*
X160714570Y-49977083D01*
X160729549Y-49825001D01*
X160729549Y-49174999D01*
X160714570Y-49022917D01*
X160670209Y-48876679D01*
X160598171Y-48741905D01*
X160501225Y-48623775D01*
X160383095Y-48526829D01*
X160248321Y-48454791D01*
X160102083Y-48410430D01*
X159950001Y-48395451D01*
X159049999Y-48395451D01*
X158897917Y-48410430D01*
X158751679Y-48454791D01*
X158616905Y-48526829D01*
X158498775Y-48623775D01*
X158401829Y-48741905D01*
X158345120Y-48848000D01*
X157320067Y-48848000D01*
X156623619Y-48151553D01*
X156595218Y-48008773D01*
X156532877Y-47858269D01*
X156442372Y-47722819D01*
X156327181Y-47607628D01*
X156191731Y-47517123D01*
X156041227Y-47454782D01*
X155881452Y-47423000D01*
X155718548Y-47423000D01*
X155558773Y-47454782D01*
X155408269Y-47517123D01*
X155272819Y-47607628D01*
X155157628Y-47722819D01*
X155067123Y-47858269D01*
X155004782Y-48008773D01*
X154973000Y-48168548D01*
X147853518Y-48168548D01*
X149238388Y-46783679D01*
X149263264Y-46763264D01*
X149344741Y-46663984D01*
X149405283Y-46550717D01*
X149431593Y-46463984D01*
X149442565Y-46427815D01*
X149442672Y-46426733D01*
X149532877Y-46291731D01*
X149595218Y-46141227D01*
X149627000Y-45981452D01*
X149627000Y-45859690D01*
X149691731Y-45832877D01*
X149827181Y-45742372D01*
X149942372Y-45627181D01*
X150032877Y-45491731D01*
X150095218Y-45341227D01*
X150127000Y-45181452D01*
X150127000Y-45018548D01*
X150095218Y-44858773D01*
X150032877Y-44708269D01*
X149942372Y-44572819D01*
X149827181Y-44457628D01*
X149691731Y-44367123D01*
X149652000Y-44350666D01*
X149652000Y-43504880D01*
X149758095Y-43448171D01*
X149876225Y-43351225D01*
X149900306Y-43321883D01*
X149944463Y-43404494D01*
X150023815Y-43501185D01*
X150120506Y-43580537D01*
X150230820Y-43639502D01*
X150350518Y-43675812D01*
X150475000Y-43688072D01*
X150764250Y-43685000D01*
X150923000Y-43526250D01*
X150923000Y-42477000D01*
X151177000Y-42477000D01*
X151177000Y-43526250D01*
X151335750Y-43685000D01*
X151625000Y-43688072D01*
X151749482Y-43675812D01*
X151869180Y-43639502D01*
X151979494Y-43580537D01*
X152076185Y-43501185D01*
X152155537Y-43404494D01*
X152214502Y-43294180D01*
X152250812Y-43174482D01*
X152263072Y-43050000D01*
X152260000Y-42635750D01*
X152101250Y-42477000D01*
X151177000Y-42477000D01*
X150923000Y-42477000D01*
X150903000Y-42477000D01*
X150903000Y-42223000D01*
X150923000Y-42223000D01*
X150923000Y-41173750D01*
X151177000Y-41173750D01*
X151177000Y-42223000D01*
X152101250Y-42223000D01*
X152260000Y-42064250D01*
X152263072Y-41650000D01*
X152250812Y-41525518D01*
X152214502Y-41405820D01*
X152155537Y-41295506D01*
X152076185Y-41198815D01*
X151979494Y-41119463D01*
X151869180Y-41060498D01*
X151749482Y-41024188D01*
X151625000Y-41011928D01*
X151335750Y-41015000D01*
X151177000Y-41173750D01*
X150923000Y-41173750D01*
X150764250Y-41015000D01*
X150475000Y-41011928D01*
X150350518Y-41024188D01*
X150230820Y-41060498D01*
X150120506Y-41119463D01*
X150023815Y-41198815D01*
X149944463Y-41295506D01*
X149900306Y-41378117D01*
X149876225Y-41348775D01*
X149758095Y-41251829D01*
X149623321Y-41179791D01*
X149477083Y-41135430D01*
X149325001Y-41120451D01*
X148674999Y-41120451D01*
X148522917Y-41135430D01*
X148376679Y-41179791D01*
X148241905Y-41251829D01*
X148123775Y-41348775D01*
X148026829Y-41466905D01*
X147954791Y-41601679D01*
X147910430Y-41747917D01*
X147895451Y-41899999D01*
X147895451Y-42800001D01*
X147910430Y-42952083D01*
X147954791Y-43098321D01*
X148026829Y-43233095D01*
X148123775Y-43351225D01*
X148241905Y-43448171D01*
X148348000Y-43504880D01*
X148348001Y-44325934D01*
X146823619Y-42801553D01*
X146795218Y-42658773D01*
X146732877Y-42508269D01*
X146642372Y-42372819D01*
X146527181Y-42257628D01*
X146391731Y-42167123D01*
X146241227Y-42104782D01*
X146081452Y-42073000D01*
X145918548Y-42073000D01*
X145758773Y-42104782D01*
X145608269Y-42167123D01*
X145472819Y-42257628D01*
X145357628Y-42372819D01*
X145267123Y-42508269D01*
X145219952Y-42622149D01*
X144678761Y-42080958D01*
X144695218Y-42041227D01*
X144727000Y-41881452D01*
X144727000Y-41718548D01*
X144695218Y-41558773D01*
X144632877Y-41408269D01*
X144542372Y-41272819D01*
X144427181Y-41157628D01*
X144291731Y-41067123D01*
X144141227Y-41004782D01*
X143981452Y-40973000D01*
X143818548Y-40973000D01*
X143658773Y-41004782D01*
X143508269Y-41067123D01*
X143372819Y-41157628D01*
X143257628Y-41272819D01*
X143167123Y-41408269D01*
X143104782Y-41558773D01*
X143073000Y-41718548D01*
X143073000Y-41881452D01*
X143104782Y-42041227D01*
X143167123Y-42191731D01*
X143254525Y-42322538D01*
X143257435Y-42352078D01*
X143286922Y-42449284D01*
X143294717Y-42474980D01*
X143355259Y-42588247D01*
X143436736Y-42687528D01*
X143461618Y-42707949D01*
X143817119Y-43063449D01*
X143808269Y-43067115D01*
X143672819Y-43157620D01*
X143557628Y-43272811D01*
X143467123Y-43408261D01*
X143404782Y-43558765D01*
X143376381Y-43701544D01*
X141629926Y-45448000D01*
X139907011Y-45448000D01*
X139874989Y-45444846D01*
X139747175Y-45457435D01*
X139634117Y-45491731D01*
X139624273Y-45494717D01*
X139511006Y-45555259D01*
X139488061Y-45574089D01*
X139333763Y-45604782D01*
X139183259Y-45667123D01*
X139047809Y-45757628D01*
X138932618Y-45872819D01*
X138842113Y-46008269D01*
X138779772Y-46158773D01*
X138747990Y-46318548D01*
X138747990Y-46481452D01*
X138779772Y-46641227D01*
X138842113Y-46791731D01*
X138932618Y-46927181D01*
X139047809Y-47042372D01*
X139183259Y-47132877D01*
X139333763Y-47195218D01*
X139493538Y-47227000D01*
X139601960Y-47227000D01*
X139604790Y-47241227D01*
X139667131Y-47391731D01*
X139757636Y-47527181D01*
X139872827Y-47642372D01*
X140008277Y-47732877D01*
X140158781Y-47795218D01*
X140194834Y-47802389D01*
X140207534Y-47866237D01*
X140269875Y-48016741D01*
X140360380Y-48152191D01*
X140475571Y-48267382D01*
X140611021Y-48357887D01*
X140761525Y-48420228D01*
X140921300Y-48452010D01*
X140973000Y-48452010D01*
X140973000Y-48481422D01*
X141004782Y-48641197D01*
X141067123Y-48791701D01*
X141157628Y-48927151D01*
X141272819Y-49042342D01*
X141408269Y-49132847D01*
X141558773Y-49195188D01*
X141718548Y-49226970D01*
X141782054Y-49226970D01*
X141804782Y-49341227D01*
X141867123Y-49491731D01*
X141957628Y-49627181D01*
X142072819Y-49742372D01*
X142208269Y-49832877D01*
X142358773Y-49895218D01*
X142501264Y-49923562D01*
X142504778Y-49941227D01*
X142567119Y-50091731D01*
X142657624Y-50227181D01*
X142772815Y-50342372D01*
X142908265Y-50432877D01*
X143058769Y-50495218D01*
X143103864Y-50504188D01*
X143112833Y-50549278D01*
X143175174Y-50699782D01*
X143265679Y-50835232D01*
X143304190Y-50873743D01*
X143129934Y-51048000D01*
X139370067Y-51048000D01*
X134235843Y-45913777D01*
X134275518Y-45925812D01*
X134400000Y-45938072D01*
X134689250Y-45935000D01*
X134848000Y-45776250D01*
X134848000Y-44727000D01*
X133923750Y-44727000D01*
X133765000Y-44885750D01*
X133761928Y-45300000D01*
X133774188Y-45424482D01*
X133786223Y-45464157D01*
X133223619Y-44901553D01*
X133195218Y-44758773D01*
X133132877Y-44608269D01*
X133042372Y-44472819D01*
X132927181Y-44357628D01*
X132791731Y-44267123D01*
X132641227Y-44204782D01*
X132486929Y-44174089D01*
X132463984Y-44155259D01*
X132350717Y-44094717D01*
X132227814Y-44057435D01*
X132132022Y-44048000D01*
X132100000Y-44044846D01*
X132067978Y-44048000D01*
X120532658Y-44048000D01*
X120557000Y-43925623D01*
X120557000Y-43900000D01*
X133761928Y-43900000D01*
X133765000Y-44314250D01*
X133923750Y-44473000D01*
X134848000Y-44473000D01*
X134848000Y-43423750D01*
X134689250Y-43265000D01*
X134400000Y-43261928D01*
X134275518Y-43274188D01*
X134155820Y-43310498D01*
X134045506Y-43369463D01*
X133948815Y-43448815D01*
X133869463Y-43545506D01*
X133810498Y-43655820D01*
X133774188Y-43775518D01*
X133761928Y-43900000D01*
X120557000Y-43900000D01*
X120557000Y-43654377D01*
X120504083Y-43388344D01*
X120447608Y-43252000D01*
X140225934Y-43252000D01*
X139529934Y-43948000D01*
X138099428Y-43948000D01*
X138070209Y-43851679D01*
X137998171Y-43716905D01*
X137901225Y-43598775D01*
X137783095Y-43501829D01*
X137648321Y-43429791D01*
X137502083Y-43385430D01*
X137350001Y-43370451D01*
X136699999Y-43370451D01*
X136547917Y-43385430D01*
X136401679Y-43429791D01*
X136266905Y-43501829D01*
X136148775Y-43598775D01*
X136124694Y-43628117D01*
X136080537Y-43545506D01*
X136001185Y-43448815D01*
X135904494Y-43369463D01*
X135794180Y-43310498D01*
X135674482Y-43274188D01*
X135550000Y-43261928D01*
X135260750Y-43265000D01*
X135102000Y-43423750D01*
X135102000Y-44473000D01*
X135122000Y-44473000D01*
X135122000Y-44727000D01*
X135102000Y-44727000D01*
X135102000Y-45776250D01*
X135260750Y-45935000D01*
X135550000Y-45938072D01*
X135674482Y-45925812D01*
X135794180Y-45889502D01*
X135904494Y-45830537D01*
X136001185Y-45751185D01*
X136080537Y-45654494D01*
X136124694Y-45571883D01*
X136148775Y-45601225D01*
X136266905Y-45698171D01*
X136401679Y-45770209D01*
X136547917Y-45814570D01*
X136699999Y-45829549D01*
X137350001Y-45829549D01*
X137502083Y-45814570D01*
X137648321Y-45770209D01*
X137783095Y-45698171D01*
X137901225Y-45601225D01*
X137998171Y-45483095D01*
X138070209Y-45348321D01*
X138099428Y-45252000D01*
X139767978Y-45252000D01*
X139800000Y-45255154D01*
X139832022Y-45252000D01*
X139927814Y-45242565D01*
X140050717Y-45205283D01*
X140163984Y-45144741D01*
X140263264Y-45063264D01*
X140283685Y-45038381D01*
X141798447Y-43523619D01*
X141941227Y-43495218D01*
X142091731Y-43432877D01*
X142227181Y-43342372D01*
X142342372Y-43227181D01*
X142432877Y-43091731D01*
X142495218Y-42941227D01*
X142527000Y-42781452D01*
X142527000Y-42618548D01*
X142495218Y-42458773D01*
X142432877Y-42308269D01*
X142342372Y-42172819D01*
X142227181Y-42057628D01*
X142099651Y-41972415D01*
X144298448Y-39773619D01*
X144441227Y-39745218D01*
X144591731Y-39682877D01*
X144727181Y-39592372D01*
X144842372Y-39477181D01*
X144932877Y-39341731D01*
X144995218Y-39191227D01*
X145027000Y-39031452D01*
X145027000Y-38868548D01*
X144995218Y-38708773D01*
X144932877Y-38558269D01*
X144842372Y-38422819D01*
X144727181Y-38307628D01*
X144591731Y-38217123D01*
X144441227Y-38154782D01*
X144281452Y-38123000D01*
X144118548Y-38123000D01*
X143958773Y-38154782D01*
X143808269Y-38217123D01*
X143672819Y-38307628D01*
X143557628Y-38422819D01*
X143467123Y-38558269D01*
X143404782Y-38708773D01*
X143376381Y-38851552D01*
X140279934Y-41948000D01*
X120667244Y-41948000D01*
X120665000Y-41535750D01*
X120506250Y-41377000D01*
X119307000Y-41377000D01*
X119307000Y-41397000D01*
X119053000Y-41397000D01*
X119053000Y-41377000D01*
X116767000Y-41377000D01*
X116767000Y-41397000D01*
X116513000Y-41397000D01*
X116513000Y-41377000D01*
X116493000Y-41377000D01*
X116493000Y-41123000D01*
X116513000Y-41123000D01*
X116513000Y-41103000D01*
X116767000Y-41103000D01*
X116767000Y-41123000D01*
X119053000Y-41123000D01*
X119053000Y-41103000D01*
X119307000Y-41103000D01*
X119307000Y-41123000D01*
X120506250Y-41123000D01*
X120665000Y-40964250D01*
X120667244Y-40552000D01*
X140117978Y-40552000D01*
X140150000Y-40555154D01*
X140182022Y-40552000D01*
X140277814Y-40542565D01*
X140400717Y-40505283D01*
X140513984Y-40444741D01*
X140613264Y-40363264D01*
X140633685Y-40338381D01*
X142898448Y-38073619D01*
X143041227Y-38045218D01*
X143191731Y-37982877D01*
X143327181Y-37892372D01*
X143442372Y-37777181D01*
X143532877Y-37641731D01*
X143595218Y-37491227D01*
X143627000Y-37331452D01*
X143627000Y-37168548D01*
X143595218Y-37008773D01*
X143532877Y-36858269D01*
X143442372Y-36722819D01*
X143327181Y-36607628D01*
X143191731Y-36517123D01*
X143041227Y-36454782D01*
X142881452Y-36423000D01*
X142718548Y-36423000D01*
X142558773Y-36454782D01*
X142408269Y-36517123D01*
X142272819Y-36607628D01*
X142157628Y-36722819D01*
X142067123Y-36858269D01*
X142004782Y-37008773D01*
X141976381Y-37151552D01*
X139879934Y-39248000D01*
X138992383Y-39248000D01*
X138995188Y-39241227D01*
X139026970Y-39081452D01*
X139026970Y-38918548D01*
X138995188Y-38758773D01*
X138932847Y-38608269D01*
X138842342Y-38472819D01*
X138727151Y-38357628D01*
X138591701Y-38267123D01*
X138441197Y-38204782D01*
X138298418Y-38176381D01*
X137483655Y-37361618D01*
X137463234Y-37336736D01*
X137363954Y-37255259D01*
X137250687Y-37194717D01*
X137127784Y-37157435D01*
X137031992Y-37148000D01*
X136999970Y-37144846D01*
X136967948Y-37148000D01*
X135854880Y-37148000D01*
X135798171Y-37041905D01*
X135701225Y-36923775D01*
X135671883Y-36899694D01*
X135754494Y-36855537D01*
X135851185Y-36776185D01*
X135930537Y-36679494D01*
X135989502Y-36569180D01*
X136025812Y-36449482D01*
X136038072Y-36325000D01*
X136035000Y-36035750D01*
X135876250Y-35877000D01*
X134827000Y-35877000D01*
X134827000Y-35897000D01*
X134573000Y-35897000D01*
X134573000Y-35877000D01*
X133523750Y-35877000D01*
X133365000Y-36035750D01*
X133361928Y-36325000D01*
X133374188Y-36449482D01*
X133410498Y-36569180D01*
X133469463Y-36679494D01*
X133548815Y-36776185D01*
X133645506Y-36855537D01*
X133728117Y-36899694D01*
X133698775Y-36923775D01*
X133601829Y-37041905D01*
X133529791Y-37176679D01*
X133485430Y-37322917D01*
X133470451Y-37474999D01*
X133470451Y-38125001D01*
X133485430Y-38277083D01*
X133529791Y-38423321D01*
X133601829Y-38558095D01*
X133698775Y-38676225D01*
X133816905Y-38773171D01*
X133951679Y-38845209D01*
X134097917Y-38889570D01*
X134249999Y-38904549D01*
X135150001Y-38904549D01*
X135302083Y-38889570D01*
X135448321Y-38845209D01*
X135583095Y-38773171D01*
X135701225Y-38676225D01*
X135798171Y-38558095D01*
X135854880Y-38452000D01*
X136729904Y-38452000D01*
X137376351Y-39098448D01*
X137404752Y-39241227D01*
X137407557Y-39248000D01*
X115737020Y-39248000D01*
X115704998Y-39244846D01*
X115577183Y-39257435D01*
X115454281Y-39294717D01*
X115341014Y-39355259D01*
X115241734Y-39436736D01*
X115221313Y-39461619D01*
X114920845Y-39762087D01*
X114385750Y-39765000D01*
X114227000Y-39923750D01*
X114227000Y-41123000D01*
X114247000Y-41123000D01*
X114247000Y-41377000D01*
X114227000Y-41377000D01*
X114227000Y-41397000D01*
X113973000Y-41397000D01*
X113973000Y-41377000D01*
X113953000Y-41377000D01*
X113953000Y-41123000D01*
X113973000Y-41123000D01*
X113973000Y-39923750D01*
X113814250Y-39765000D01*
X113250000Y-39761928D01*
X113125518Y-39774188D01*
X113005820Y-39810498D01*
X112895506Y-39869463D01*
X112798815Y-39948815D01*
X112755402Y-40001714D01*
X112704202Y-39959696D01*
X112612650Y-39910761D01*
X112513310Y-39880626D01*
X112410000Y-39870451D01*
X110710000Y-39870451D01*
X110606690Y-39880626D01*
X110507350Y-39910761D01*
X110415798Y-39959696D01*
X110335552Y-40025552D01*
X110269696Y-40105798D01*
X110220761Y-40197350D01*
X110190626Y-40296690D01*
X110180451Y-40400000D01*
X110180451Y-42100000D01*
X110190626Y-42203310D01*
X110220761Y-42302650D01*
X110269696Y-42394202D01*
X110335552Y-42474448D01*
X110415798Y-42540304D01*
X110507350Y-42589239D01*
X110606690Y-42619374D01*
X110710000Y-42629549D01*
X110818202Y-42629549D01*
X110682213Y-42720414D01*
X110490414Y-42912213D01*
X110423070Y-43013000D01*
X109911562Y-43013000D01*
X109870209Y-42876679D01*
X109798171Y-42741905D01*
X109701225Y-42623775D01*
X109671883Y-42599694D01*
X109754494Y-42555537D01*
X109851185Y-42476185D01*
X109930537Y-42379494D01*
X109989502Y-42269180D01*
X110025812Y-42149482D01*
X110038072Y-42025000D01*
X110035000Y-41735750D01*
X109876250Y-41577000D01*
X108827000Y-41577000D01*
X108827000Y-41597000D01*
X108573000Y-41597000D01*
X108573000Y-41577000D01*
X107523750Y-41577000D01*
X107365000Y-41735750D01*
X107361928Y-42025000D01*
X97327000Y-42025000D01*
X97327000Y-41869302D01*
X97276004Y-41612928D01*
X97175972Y-41371430D01*
X97030748Y-41154087D01*
X96845913Y-40969252D01*
X96704856Y-40875000D01*
X107361928Y-40875000D01*
X107365000Y-41164250D01*
X107523750Y-41323000D01*
X108573000Y-41323000D01*
X108573000Y-40398750D01*
X108827000Y-40398750D01*
X108827000Y-41323000D01*
X109876250Y-41323000D01*
X110035000Y-41164250D01*
X110038072Y-40875000D01*
X110025812Y-40750518D01*
X109989502Y-40630820D01*
X109930537Y-40520506D01*
X109851185Y-40423815D01*
X109754494Y-40344463D01*
X109644180Y-40285498D01*
X109524482Y-40249188D01*
X109400000Y-40236928D01*
X108985750Y-40240000D01*
X108827000Y-40398750D01*
X108573000Y-40398750D01*
X108414250Y-40240000D01*
X108000000Y-40236928D01*
X107875518Y-40249188D01*
X107755820Y-40285498D01*
X107645506Y-40344463D01*
X107548815Y-40423815D01*
X107469463Y-40520506D01*
X107410498Y-40630820D01*
X107374188Y-40750518D01*
X107361928Y-40875000D01*
X96704856Y-40875000D01*
X96636833Y-40829549D01*
X96800000Y-40829549D01*
X96903310Y-40819374D01*
X97002650Y-40789239D01*
X97094202Y-40740304D01*
X97174448Y-40674448D01*
X97240304Y-40594202D01*
X97289239Y-40502650D01*
X97319374Y-40403310D01*
X97329549Y-40300000D01*
X97329549Y-39269295D01*
X97522436Y-39076408D01*
X97552080Y-39052080D01*
X97613232Y-38977566D01*
X97649178Y-38933766D01*
X97705809Y-38827815D01*
X97721327Y-38798784D01*
X97765757Y-38652319D01*
X97777000Y-38538166D01*
X97777000Y-38538164D01*
X97780759Y-38500000D01*
X97777000Y-38461837D01*
X97777000Y-37591623D01*
X97826225Y-37551225D01*
X97850306Y-37521883D01*
X97894463Y-37604494D01*
X97973815Y-37701185D01*
X98070506Y-37780537D01*
X98180820Y-37839502D01*
X98300518Y-37875812D01*
X98425000Y-37888072D01*
X98714250Y-37885000D01*
X98873000Y-37726250D01*
X98873000Y-36677000D01*
X99127000Y-36677000D01*
X99127000Y-37726250D01*
X99285750Y-37885000D01*
X99575000Y-37888072D01*
X99699482Y-37875812D01*
X99819180Y-37839502D01*
X99929494Y-37780537D01*
X100026185Y-37701185D01*
X100105537Y-37604494D01*
X100164502Y-37494180D01*
X100200812Y-37374482D01*
X100213072Y-37250000D01*
X100210000Y-36835750D01*
X100051250Y-36677000D01*
X99127000Y-36677000D01*
X98873000Y-36677000D01*
X98853000Y-36677000D01*
X98853000Y-36423000D01*
X98873000Y-36423000D01*
X98873000Y-35373750D01*
X99127000Y-35373750D01*
X99127000Y-36423000D01*
X100051250Y-36423000D01*
X100210000Y-36264250D01*
X100213072Y-35850000D01*
X100200812Y-35725518D01*
X100164502Y-35605820D01*
X100105537Y-35495506D01*
X100026185Y-35398815D01*
X99929494Y-35319463D01*
X99819180Y-35260498D01*
X99699482Y-35224188D01*
X99575000Y-35211928D01*
X99285750Y-35215000D01*
X99127000Y-35373750D01*
X98873000Y-35373750D01*
X98714250Y-35215000D01*
X98425000Y-35211928D01*
X98300518Y-35224188D01*
X98180820Y-35260498D01*
X98070506Y-35319463D01*
X97973815Y-35398815D01*
X97894463Y-35495506D01*
X97850306Y-35578117D01*
X97826225Y-35548775D01*
X97777000Y-35508377D01*
X97777000Y-34329549D01*
X97800000Y-34329549D01*
X97903310Y-34319374D01*
X98002650Y-34289239D01*
X98094202Y-34240304D01*
X98174448Y-34174448D01*
X98240304Y-34094202D01*
X98289239Y-34002650D01*
X98319374Y-33903310D01*
X98322654Y-33870000D01*
X104111928Y-33870000D01*
X104124188Y-33994482D01*
X104160498Y-34114180D01*
X104219463Y-34224494D01*
X104298815Y-34321185D01*
X104395506Y-34400537D01*
X104505820Y-34459502D01*
X104625518Y-34495812D01*
X104750000Y-34508072D01*
X105314250Y-34505000D01*
X105473000Y-34346250D01*
X105473000Y-33147000D01*
X105727000Y-33147000D01*
X105727000Y-34346250D01*
X105885750Y-34505000D01*
X106450000Y-34508072D01*
X106574482Y-34495812D01*
X106694180Y-34459502D01*
X106804494Y-34400537D01*
X106901185Y-34321185D01*
X106980537Y-34224494D01*
X107039502Y-34114180D01*
X107075812Y-33994482D01*
X107088072Y-33870000D01*
X107085000Y-33305750D01*
X106926250Y-33147000D01*
X105727000Y-33147000D01*
X105473000Y-33147000D01*
X104273750Y-33147000D01*
X104115000Y-33305750D01*
X104111928Y-33870000D01*
X98322654Y-33870000D01*
X98329549Y-33800000D01*
X98329549Y-32769294D01*
X99221844Y-31877000D01*
X104186593Y-31877000D01*
X104160498Y-31925820D01*
X104124188Y-32045518D01*
X104111928Y-32170000D01*
X104115000Y-32734250D01*
X104273750Y-32893000D01*
X105473000Y-32893000D01*
X105473000Y-32873000D01*
X105727000Y-32873000D01*
X105727000Y-32893000D01*
X106926250Y-32893000D01*
X107085000Y-32734250D01*
X107088072Y-32170000D01*
X107075812Y-32045518D01*
X107039502Y-31925820D01*
X106980537Y-31815506D01*
X106901185Y-31718815D01*
X106804494Y-31639463D01*
X106694180Y-31580498D01*
X106574482Y-31544188D01*
X106491370Y-31536003D01*
X106669586Y-31357787D01*
X106820282Y-31132254D01*
X106924083Y-30881656D01*
X106977000Y-30615623D01*
X106977000Y-30344377D01*
X106953352Y-30225491D01*
X107701844Y-29477000D01*
X113014471Y-29477000D01*
X112904822Y-29598645D01*
X112755843Y-29848748D01*
X112658519Y-30123109D01*
X112779186Y-30353000D01*
X113973000Y-30353000D01*
X113973000Y-30333000D01*
X114227000Y-30333000D01*
X114227000Y-30353000D01*
X114247000Y-30353000D01*
X114247000Y-30607000D01*
X114227000Y-30607000D01*
X114227000Y-30627000D01*
X113973000Y-30627000D01*
X113973000Y-30607000D01*
X112779186Y-30607000D01*
X112658519Y-30836891D01*
X112755843Y-31111252D01*
X112904822Y-31361355D01*
X113099731Y-31577588D01*
X113191707Y-31646192D01*
X113146690Y-31650626D01*
X113047350Y-31680761D01*
X112955798Y-31729696D01*
X112875552Y-31795552D01*
X112809696Y-31875798D01*
X112760761Y-31967350D01*
X112730626Y-32066690D01*
X112720451Y-32170000D01*
X112720451Y-33870000D01*
X112730626Y-33973310D01*
X112760761Y-34072650D01*
X112809696Y-34164202D01*
X112875552Y-34244448D01*
X112955798Y-34310304D01*
X113047350Y-34359239D01*
X113146690Y-34389374D01*
X113250000Y-34399549D01*
X114950000Y-34399549D01*
X115053310Y-34389374D01*
X115152650Y-34359239D01*
X115244202Y-34310304D01*
X115324448Y-34244448D01*
X115390304Y-34164202D01*
X115439239Y-34072650D01*
X115469374Y-33973310D01*
X115479549Y-33870000D01*
X115479549Y-33761798D01*
X115570414Y-33897787D01*
X115762213Y-34089586D01*
X115987746Y-34240282D01*
X116238344Y-34344083D01*
X116504377Y-34397000D01*
X116621316Y-34397000D01*
X116615123Y-34406269D01*
X116552782Y-34556773D01*
X116521000Y-34716548D01*
X116521000Y-34879452D01*
X116552782Y-35039227D01*
X116615123Y-35189731D01*
X116705628Y-35325181D01*
X116820819Y-35440372D01*
X116956269Y-35530877D01*
X117106773Y-35593218D01*
X117266548Y-35625000D01*
X117429452Y-35625000D01*
X117589227Y-35593218D01*
X117739731Y-35530877D01*
X117875181Y-35440372D01*
X117990372Y-35325181D01*
X118080877Y-35189731D01*
X118143218Y-35039227D01*
X118158211Y-34963855D01*
X118778089Y-34343977D01*
X118778344Y-34344083D01*
X119044377Y-34397000D01*
X119315623Y-34397000D01*
X119581656Y-34344083D01*
X119703002Y-34293820D01*
X119703002Y-35274945D01*
X117801553Y-37176395D01*
X117658773Y-37204796D01*
X117508269Y-37267137D01*
X117372819Y-37357642D01*
X117257628Y-37472833D01*
X117167123Y-37608283D01*
X117104782Y-37758787D01*
X117073000Y-37918562D01*
X117073000Y-38081466D01*
X117104782Y-38241241D01*
X117167123Y-38391745D01*
X117257628Y-38527195D01*
X117372819Y-38642386D01*
X117508269Y-38732891D01*
X117658773Y-38795232D01*
X117818548Y-38827014D01*
X117981452Y-38827014D01*
X118141227Y-38795232D01*
X118291731Y-38732891D01*
X118427181Y-38642386D01*
X118542372Y-38527195D01*
X118632877Y-38391745D01*
X118695218Y-38241241D01*
X118723619Y-38098461D01*
X120793388Y-36028693D01*
X120818265Y-36008277D01*
X120899742Y-35908997D01*
X120960284Y-35795730D01*
X120984222Y-35716816D01*
X120997566Y-35672828D01*
X121010155Y-35545013D01*
X121007001Y-35512991D01*
X121007001Y-35175000D01*
X133361928Y-35175000D01*
X133365000Y-35464250D01*
X133523750Y-35623000D01*
X134573000Y-35623000D01*
X134573000Y-34698750D01*
X134414250Y-34540000D01*
X134000000Y-34536928D01*
X133875518Y-34549188D01*
X133755820Y-34585498D01*
X133645506Y-34644463D01*
X133548815Y-34723815D01*
X133469463Y-34820506D01*
X133410498Y-34930820D01*
X133374188Y-35050518D01*
X133361928Y-35175000D01*
X121007001Y-35175000D01*
X121007001Y-34199694D01*
X121067746Y-34240282D01*
X121318344Y-34344083D01*
X121584377Y-34397000D01*
X121855623Y-34397000D01*
X122121656Y-34344083D01*
X122372254Y-34240282D01*
X122597787Y-34089586D01*
X122789586Y-33897787D01*
X122940282Y-33672254D01*
X122990000Y-33552224D01*
X123039718Y-33672254D01*
X123190414Y-33897787D01*
X123382213Y-34089586D01*
X123607746Y-34240282D01*
X123858344Y-34344083D01*
X124124377Y-34397000D01*
X124395623Y-34397000D01*
X124661656Y-34344083D01*
X124912254Y-34240282D01*
X125137787Y-34089586D01*
X125177373Y-34050000D01*
X134686928Y-34050000D01*
X134699188Y-34174482D01*
X134735498Y-34294180D01*
X134794463Y-34404494D01*
X134873815Y-34501185D01*
X134956614Y-34569136D01*
X134827000Y-34698750D01*
X134827000Y-35623000D01*
X135876250Y-35623000D01*
X136035000Y-35464250D01*
X136038072Y-35175000D01*
X136025812Y-35050518D01*
X135989502Y-34930820D01*
X135930537Y-34820506D01*
X135851185Y-34723815D01*
X135754494Y-34644463D01*
X135689518Y-34609732D01*
X135773000Y-34526250D01*
X135773000Y-33477000D01*
X134848750Y-33477000D01*
X134690000Y-33635750D01*
X134686928Y-34050000D01*
X125177373Y-34050000D01*
X125329586Y-33897787D01*
X125480282Y-33672254D01*
X125584083Y-33421656D01*
X125637000Y-33155623D01*
X125637000Y-32884377D01*
X125590380Y-32650000D01*
X134686928Y-32650000D01*
X134690000Y-33064250D01*
X134848750Y-33223000D01*
X135773000Y-33223000D01*
X135773000Y-32173750D01*
X136027000Y-32173750D01*
X136027000Y-33223000D01*
X136047000Y-33223000D01*
X136047000Y-33477000D01*
X136027000Y-33477000D01*
X136027000Y-34526250D01*
X136185750Y-34685000D01*
X136475000Y-34688072D01*
X136599482Y-34675812D01*
X136719180Y-34639502D01*
X136829494Y-34580537D01*
X136926185Y-34501185D01*
X137005537Y-34404494D01*
X137048000Y-34325052D01*
X137048001Y-35867968D01*
X137044846Y-35900000D01*
X137057435Y-36027814D01*
X137094717Y-36150716D01*
X137094718Y-36150717D01*
X137155260Y-36263984D01*
X137236737Y-36363264D01*
X137261614Y-36383680D01*
X138676381Y-37798447D01*
X138704782Y-37941227D01*
X138767123Y-38091731D01*
X138857628Y-38227181D01*
X138972819Y-38342372D01*
X139108269Y-38432877D01*
X139258773Y-38495218D01*
X139418548Y-38527000D01*
X139581452Y-38527000D01*
X139741227Y-38495218D01*
X139891731Y-38432877D01*
X140027181Y-38342372D01*
X140142372Y-38227181D01*
X140232877Y-38091731D01*
X140295218Y-37941227D01*
X140327000Y-37781452D01*
X140327000Y-37618548D01*
X140295218Y-37458773D01*
X140232877Y-37308269D01*
X140142372Y-37172819D01*
X140027181Y-37057628D01*
X139891731Y-36967123D01*
X139741227Y-36904782D01*
X139598447Y-36876381D01*
X138352000Y-35629934D01*
X138352000Y-34571965D01*
X138427083Y-34564570D01*
X138573321Y-34520209D01*
X138708095Y-34448171D01*
X138826225Y-34351225D01*
X138923171Y-34233095D01*
X138995209Y-34098321D01*
X139039570Y-33952083D01*
X139054549Y-33800001D01*
X139054549Y-32899999D01*
X139039570Y-32747917D01*
X138995209Y-32601679D01*
X138927498Y-32475000D01*
X140661928Y-32475000D01*
X140674188Y-32599482D01*
X140710498Y-32719180D01*
X140769463Y-32829494D01*
X140848815Y-32926185D01*
X140945506Y-33005537D01*
X141055820Y-33064502D01*
X141175518Y-33100812D01*
X141300000Y-33113072D01*
X141714250Y-33110000D01*
X141873000Y-32951250D01*
X141873000Y-32027000D01*
X142127000Y-32027000D01*
X142127000Y-32951250D01*
X142285750Y-33110000D01*
X142700000Y-33113072D01*
X142824482Y-33100812D01*
X142944180Y-33064502D01*
X143054494Y-33005537D01*
X143151185Y-32926185D01*
X143230537Y-32829494D01*
X143289502Y-32719180D01*
X143325812Y-32599482D01*
X143338072Y-32475000D01*
X143335000Y-32185750D01*
X143176250Y-32027000D01*
X142127000Y-32027000D01*
X141873000Y-32027000D01*
X140823750Y-32027000D01*
X140665000Y-32185750D01*
X140661928Y-32475000D01*
X138927498Y-32475000D01*
X138923171Y-32466905D01*
X138826225Y-32348775D01*
X138708095Y-32251829D01*
X138573321Y-32179791D01*
X138427083Y-32135430D01*
X138275001Y-32120451D01*
X137624999Y-32120451D01*
X137472917Y-32135430D01*
X137326679Y-32179791D01*
X137191905Y-32251829D01*
X137073775Y-32348775D01*
X137049694Y-32378117D01*
X137005537Y-32295506D01*
X136926185Y-32198815D01*
X136829494Y-32119463D01*
X136719180Y-32060498D01*
X136599482Y-32024188D01*
X136475000Y-32011928D01*
X136185750Y-32015000D01*
X136027000Y-32173750D01*
X135773000Y-32173750D01*
X135614250Y-32015000D01*
X135325000Y-32011928D01*
X135200518Y-32024188D01*
X135080820Y-32060498D01*
X134970506Y-32119463D01*
X134873815Y-32198815D01*
X134794463Y-32295506D01*
X134735498Y-32405820D01*
X134699188Y-32525518D01*
X134686928Y-32650000D01*
X125590380Y-32650000D01*
X125584083Y-32618344D01*
X125480282Y-32367746D01*
X125329586Y-32142213D01*
X125137787Y-31950414D01*
X124917968Y-31803536D01*
X125026920Y-31751641D01*
X125260269Y-31577588D01*
X125455178Y-31361355D01*
X125476833Y-31325000D01*
X140661928Y-31325000D01*
X140665000Y-31614250D01*
X140823750Y-31773000D01*
X141873000Y-31773000D01*
X141873000Y-31753000D01*
X142127000Y-31753000D01*
X142127000Y-31773000D01*
X143176250Y-31773000D01*
X143335000Y-31614250D01*
X143337177Y-31409244D01*
X144376381Y-32448448D01*
X144404782Y-32591227D01*
X144467123Y-32741731D01*
X144557628Y-32877181D01*
X144672819Y-32992372D01*
X144808269Y-33082877D01*
X144958773Y-33145218D01*
X145118548Y-33177000D01*
X145281452Y-33177000D01*
X145441227Y-33145218D01*
X145591731Y-33082877D01*
X145727181Y-32992372D01*
X145842372Y-32877181D01*
X145932877Y-32741731D01*
X145995218Y-32591227D01*
X146023619Y-32448447D01*
X147270067Y-31202000D01*
X151437228Y-31202000D01*
X151558269Y-31282877D01*
X151708773Y-31345218D01*
X151868548Y-31377000D01*
X152031452Y-31377000D01*
X152191227Y-31345218D01*
X152341731Y-31282877D01*
X152477181Y-31192372D01*
X152592372Y-31077181D01*
X152682877Y-30941731D01*
X152745218Y-30791227D01*
X152777000Y-30631452D01*
X152777000Y-30468548D01*
X152745218Y-30308773D01*
X152682877Y-30158269D01*
X152592372Y-30022819D01*
X152477181Y-29907628D01*
X152341731Y-29817123D01*
X152300393Y-29800000D01*
X181661928Y-29800000D01*
X181665000Y-32714250D01*
X181823750Y-32873000D01*
X182068692Y-32873000D01*
X182066649Y-32882523D01*
X182063587Y-33086377D01*
X182071035Y-33127000D01*
X181823750Y-33127000D01*
X181665000Y-33285750D01*
X181661928Y-36200000D01*
X181674188Y-36324482D01*
X181710498Y-36444180D01*
X181769463Y-36554494D01*
X181848815Y-36651185D01*
X181945506Y-36730537D01*
X182055820Y-36789502D01*
X182175518Y-36825812D01*
X182300000Y-36838072D01*
X185214250Y-36835000D01*
X185373000Y-36676250D01*
X185373000Y-36431308D01*
X185382523Y-36433351D01*
X185586377Y-36436413D01*
X185627000Y-36428965D01*
X185627000Y-36676250D01*
X185785750Y-36835000D01*
X188700000Y-36838072D01*
X188824482Y-36825812D01*
X188944180Y-36789502D01*
X189054494Y-36730537D01*
X189151185Y-36651185D01*
X189230537Y-36554494D01*
X189289502Y-36444180D01*
X189325812Y-36324482D01*
X189338072Y-36200000D01*
X189335000Y-33285750D01*
X189176250Y-33127000D01*
X188931308Y-33127000D01*
X188933351Y-33117477D01*
X188936413Y-32913623D01*
X188928965Y-32873000D01*
X189176250Y-32873000D01*
X189335000Y-32714250D01*
X189338072Y-29800000D01*
X189325812Y-29675518D01*
X189289502Y-29555820D01*
X189230537Y-29445506D01*
X189151185Y-29348815D01*
X189054494Y-29269463D01*
X188944180Y-29210498D01*
X188824482Y-29174188D01*
X188700000Y-29161928D01*
X185785750Y-29165000D01*
X185627000Y-29323750D01*
X185627000Y-29568692D01*
X185617477Y-29566649D01*
X185413623Y-29563587D01*
X185373000Y-29571035D01*
X185373000Y-29323750D01*
X185214250Y-29165000D01*
X182300000Y-29161928D01*
X182175518Y-29174188D01*
X182055820Y-29210498D01*
X181945506Y-29269463D01*
X181848815Y-29348815D01*
X181769463Y-29445506D01*
X181710498Y-29555820D01*
X181674188Y-29675518D01*
X181661928Y-29800000D01*
X152300393Y-29800000D01*
X152191227Y-29754782D01*
X152031452Y-29723000D01*
X151868548Y-29723000D01*
X151708773Y-29754782D01*
X151558269Y-29817123D01*
X151437228Y-29898000D01*
X147032014Y-29898000D01*
X146999999Y-29894847D01*
X146967985Y-29898000D01*
X146967978Y-29898000D01*
X146884827Y-29906190D01*
X146872185Y-29907435D01*
X146752652Y-29943695D01*
X146749283Y-29944717D01*
X146636016Y-30005259D01*
X146536736Y-30086736D01*
X146516320Y-30111613D01*
X145200000Y-31427933D01*
X143222173Y-29450107D01*
X143214570Y-29372917D01*
X143170209Y-29226679D01*
X143098171Y-29091905D01*
X143001225Y-28973775D01*
X142883095Y-28876829D01*
X142748321Y-28804791D01*
X142602083Y-28760430D01*
X142450001Y-28745451D01*
X141549999Y-28745451D01*
X141397917Y-28760430D01*
X141251679Y-28804791D01*
X141116905Y-28876829D01*
X140998775Y-28973775D01*
X140901829Y-29091905D01*
X140829791Y-29226679D01*
X140785430Y-29372917D01*
X140770451Y-29524999D01*
X140770451Y-30175001D01*
X140785430Y-30327083D01*
X140829791Y-30473321D01*
X140901829Y-30608095D01*
X140998775Y-30726225D01*
X141028117Y-30750306D01*
X140945506Y-30794463D01*
X140848815Y-30873815D01*
X140769463Y-30970506D01*
X140710498Y-31080820D01*
X140674188Y-31200518D01*
X140661928Y-31325000D01*
X125476833Y-31325000D01*
X125604157Y-31111252D01*
X125701481Y-30836891D01*
X125580814Y-30607000D01*
X124387000Y-30607000D01*
X124387000Y-30627000D01*
X124133000Y-30627000D01*
X124133000Y-30607000D01*
X124113000Y-30607000D01*
X124113000Y-30353000D01*
X124133000Y-30353000D01*
X124133000Y-29159845D01*
X124387000Y-29159845D01*
X124387000Y-30353000D01*
X125580814Y-30353000D01*
X125701481Y-30123109D01*
X125604157Y-29848748D01*
X125455178Y-29598645D01*
X125260269Y-29382412D01*
X125026920Y-29208359D01*
X124764099Y-29083175D01*
X124616890Y-29038524D01*
X124387000Y-29159845D01*
X124133000Y-29159845D01*
X123903110Y-29038524D01*
X123755901Y-29083175D01*
X123493080Y-29208359D01*
X123259731Y-29382412D01*
X123064822Y-29598645D01*
X122933975Y-29818308D01*
X122789586Y-29602213D01*
X122597787Y-29410414D01*
X122372254Y-29259718D01*
X122121656Y-29155917D01*
X121855623Y-29103000D01*
X121584377Y-29103000D01*
X121318344Y-29155917D01*
X121067746Y-29259718D01*
X120842213Y-29410414D01*
X120650414Y-29602213D01*
X120499718Y-29827746D01*
X120450000Y-29947776D01*
X120400282Y-29827746D01*
X120249586Y-29602213D01*
X120057787Y-29410414D01*
X119832254Y-29259718D01*
X119581656Y-29155917D01*
X119315623Y-29103000D01*
X119044377Y-29103000D01*
X118778344Y-29155917D01*
X118527746Y-29259718D01*
X118302213Y-29410414D01*
X118110414Y-29602213D01*
X117959718Y-29827746D01*
X117910000Y-29947776D01*
X117860282Y-29827746D01*
X117709586Y-29602213D01*
X117517787Y-29410414D01*
X117292254Y-29259718D01*
X117041656Y-29155917D01*
X116775623Y-29103000D01*
X116504377Y-29103000D01*
X116385491Y-29126648D01*
X115436412Y-28177569D01*
X115412080Y-28147920D01*
X115293766Y-28050823D01*
X115158784Y-27978673D01*
X115012319Y-27934243D01*
X114898166Y-27923000D01*
X114898163Y-27923000D01*
X114860000Y-27919241D01*
X114821837Y-27923000D01*
X107418155Y-27923000D01*
X107379999Y-27919242D01*
X107341843Y-27923000D01*
X107341834Y-27923000D01*
X107227681Y-27934243D01*
X107081216Y-27978673D01*
X106946233Y-28050823D01*
X106872862Y-28111037D01*
X106827920Y-28147920D01*
X106803592Y-28177564D01*
X105854509Y-29126648D01*
X105735623Y-29103000D01*
X105464377Y-29103000D01*
X105198344Y-29155917D01*
X104947746Y-29259718D01*
X104722213Y-29410414D01*
X104530414Y-29602213D01*
X104379718Y-29827746D01*
X104275917Y-30078344D01*
X104227252Y-30323000D01*
X98938163Y-30323000D01*
X98900000Y-30319241D01*
X98861836Y-30323000D01*
X98861834Y-30323000D01*
X98747681Y-30334243D01*
X98601216Y-30378673D01*
X98546361Y-30407994D01*
X98466233Y-30450823D01*
X98438024Y-30473973D01*
X98440217Y-30429488D01*
X98398787Y-30149870D01*
X98303603Y-29883708D01*
X98236671Y-29758486D01*
X97992702Y-29686903D01*
X97179605Y-30500000D01*
X97193748Y-30514143D01*
X97014143Y-30693748D01*
X97000000Y-30679605D01*
X96186903Y-31492702D01*
X96239056Y-31670451D01*
X96200000Y-31670451D01*
X96096690Y-31680626D01*
X95997350Y-31710761D01*
X95905798Y-31759696D01*
X95825552Y-31825552D01*
X95759696Y-31905798D01*
X95710761Y-31997350D01*
X95680626Y-32096690D01*
X95670451Y-32200000D01*
X95670451Y-33800000D01*
X95680626Y-33903310D01*
X95710761Y-34002650D01*
X95759696Y-34094202D01*
X95825552Y-34174448D01*
X95905798Y-34240304D01*
X95997350Y-34289239D01*
X96096690Y-34319374D01*
X96200000Y-34329549D01*
X96223000Y-34329549D01*
X96223000Y-35435208D01*
X96191905Y-35451829D01*
X96073775Y-35548775D01*
X95976829Y-35666905D01*
X95904791Y-35801679D01*
X95860430Y-35947917D01*
X95845451Y-36099999D01*
X95845451Y-37000001D01*
X95860430Y-37152083D01*
X95904791Y-37298321D01*
X95976829Y-37433095D01*
X96073775Y-37551225D01*
X96191905Y-37648171D01*
X96223001Y-37664792D01*
X96223001Y-38170451D01*
X95200000Y-38170451D01*
X95096690Y-38180626D01*
X94997350Y-38210761D01*
X94905798Y-38259696D01*
X94825552Y-38325552D01*
X94759696Y-38405798D01*
X94710761Y-38497350D01*
X94680626Y-38596690D01*
X94670451Y-38700000D01*
X90577000Y-38700000D01*
X90577000Y-37921653D01*
X91977952Y-37921653D01*
X92133962Y-38237214D01*
X92508745Y-38428020D01*
X92913551Y-38542044D01*
X93332824Y-38574902D01*
X93750451Y-38525334D01*
X94150383Y-38395243D01*
X94446038Y-38237214D01*
X94602048Y-37921653D01*
X93290000Y-36609605D01*
X91977952Y-37921653D01*
X90577000Y-37921653D01*
X90577000Y-36472824D01*
X91145098Y-36472824D01*
X91194666Y-36890451D01*
X91324757Y-37290383D01*
X91482786Y-37586038D01*
X91798347Y-37742048D01*
X93110395Y-36430000D01*
X93469605Y-36430000D01*
X94781653Y-37742048D01*
X95097214Y-37586038D01*
X95288020Y-37211255D01*
X95402044Y-36806449D01*
X95434902Y-36387176D01*
X95385334Y-35969549D01*
X95255243Y-35569617D01*
X95097214Y-35273962D01*
X94781653Y-35117952D01*
X93469605Y-36430000D01*
X93110395Y-36430000D01*
X91798347Y-35117952D01*
X91482786Y-35273962D01*
X91291980Y-35648745D01*
X91177956Y-36053551D01*
X91145098Y-36472824D01*
X90577000Y-36472824D01*
X90577000Y-34938347D01*
X91977952Y-34938347D01*
X93290000Y-36250395D01*
X94602048Y-34938347D01*
X94446038Y-34622786D01*
X94071255Y-34431980D01*
X93666449Y-34317956D01*
X93247176Y-34285098D01*
X92829549Y-34334666D01*
X92429617Y-34464757D01*
X92133962Y-34622786D01*
X91977952Y-34938347D01*
X90577000Y-34938347D01*
X90577000Y-30570512D01*
X95559783Y-30570512D01*
X95601213Y-30850130D01*
X95696397Y-31116292D01*
X95763329Y-31241514D01*
X96007298Y-31313097D01*
X96820395Y-30500000D01*
X96007298Y-29686903D01*
X95763329Y-29758486D01*
X95642429Y-30013996D01*
X95573700Y-30288184D01*
X95559783Y-30570512D01*
X90577000Y-30570512D01*
X90577000Y-30028217D01*
X90628076Y-29507298D01*
X96186903Y-29507298D01*
X97000000Y-30320395D01*
X97813097Y-29507298D01*
X97741514Y-29263329D01*
X97486004Y-29142429D01*
X97211816Y-29073700D01*
X96929488Y-29059783D01*
X96649870Y-29101213D01*
X96383708Y-29196397D01*
X96258486Y-29263329D01*
X96186903Y-29507298D01*
X90628076Y-29507298D01*
X90644904Y-29335674D01*
X90837837Y-28696652D01*
X91151216Y-28107272D01*
X91573103Y-27589987D01*
X92087431Y-27164497D01*
X92674604Y-26847014D01*
X93312268Y-26649624D01*
X94003237Y-26577000D01*
X185971783Y-26577000D01*
X186664326Y-26644904D01*
G37*
X186664326Y-26644904D02*
X187303348Y-26837837D01*
X187892728Y-27151216D01*
X188410013Y-27573103D01*
X188835503Y-28087431D01*
X189152986Y-28674604D01*
X189350376Y-29312268D01*
X189423001Y-30003247D01*
X189423000Y-59423000D01*
X90577000Y-59423000D01*
X90577000Y-51061653D01*
X91977952Y-51061653D01*
X92133962Y-51377214D01*
X92508745Y-51568020D01*
X92913551Y-51682044D01*
X93332824Y-51714902D01*
X93750451Y-51665334D01*
X94150383Y-51535243D01*
X94446038Y-51377214D01*
X94602048Y-51061653D01*
X93290000Y-49749605D01*
X91977952Y-51061653D01*
X90577000Y-51061653D01*
X90577000Y-49612824D01*
X91145098Y-49612824D01*
X91194666Y-50030451D01*
X91324757Y-50430383D01*
X91482786Y-50726038D01*
X91798347Y-50882048D01*
X93110395Y-49570000D01*
X93469605Y-49570000D01*
X94781653Y-50882048D01*
X95097214Y-50726038D01*
X95288020Y-50351255D01*
X95402044Y-49946449D01*
X95434902Y-49527176D01*
X95385334Y-49109549D01*
X95255243Y-48709617D01*
X95097214Y-48413962D01*
X94781653Y-48257952D01*
X93469605Y-49570000D01*
X93110395Y-49570000D01*
X91798347Y-48257952D01*
X91482786Y-48413962D01*
X91291980Y-48788745D01*
X91177956Y-49193551D01*
X91145098Y-49612824D01*
X90577000Y-49612824D01*
X90577000Y-48078347D01*
X91977952Y-48078347D01*
X93290000Y-49390395D01*
X94602048Y-48078347D01*
X94446038Y-47762786D01*
X94071255Y-47571980D01*
X93789804Y-47492702D01*
X95186903Y-47492702D01*
X95258486Y-47736671D01*
X95513996Y-47857571D01*
X95788184Y-47926300D01*
X96070512Y-47940217D01*
X96350130Y-47898787D01*
X96616292Y-47803603D01*
X96741514Y-47736671D01*
X96813097Y-47492702D01*
X96000000Y-46679605D01*
X95186903Y-47492702D01*
X93789804Y-47492702D01*
X93666449Y-47457956D01*
X93247176Y-47425098D01*
X92829549Y-47474666D01*
X92429617Y-47604757D01*
X92133962Y-47762786D01*
X91977952Y-48078347D01*
X90577000Y-48078347D01*
X90577000Y-46570512D01*
X94559783Y-46570512D01*
X94601213Y-46850130D01*
X94696397Y-47116292D01*
X94763329Y-47241514D01*
X95007298Y-47313097D01*
X95820395Y-46500000D01*
X96179605Y-46500000D01*
X96992702Y-47313097D01*
X97236671Y-47241514D01*
X97357571Y-46986004D01*
X97426300Y-46711816D01*
X97440217Y-46429488D01*
X97398787Y-46149870D01*
X97303603Y-45883708D01*
X97236671Y-45758486D01*
X96992702Y-45686903D01*
X96179605Y-46500000D01*
X95820395Y-46500000D01*
X95007298Y-45686903D01*
X94763329Y-45758486D01*
X94642429Y-46013996D01*
X94573700Y-46288184D01*
X94559783Y-46570512D01*
X90577000Y-46570512D01*
X90577000Y-38700000D01*
X94670451Y-38700000D01*
X94670451Y-40300000D01*
X94680626Y-40403310D01*
X94710761Y-40502650D01*
X94759696Y-40594202D01*
X94825552Y-40674448D01*
X94905798Y-40740304D01*
X94997350Y-40789239D01*
X95096690Y-40819374D01*
X95200000Y-40829549D01*
X95363167Y-40829549D01*
X95154087Y-40969252D01*
X94969252Y-41154087D01*
X94824028Y-41371430D01*
X94723996Y-41612928D01*
X94673000Y-41869302D01*
X94673000Y-42130698D01*
X94723996Y-42387072D01*
X94824028Y-42628570D01*
X94969252Y-42845913D01*
X95123339Y-43000000D01*
X94969252Y-43154087D01*
X94824028Y-43371430D01*
X94723996Y-43612928D01*
X94673000Y-43869302D01*
X94673000Y-44130698D01*
X94723996Y-44387072D01*
X94824028Y-44628570D01*
X94969252Y-44845913D01*
X95154087Y-45030748D01*
X95371430Y-45175972D01*
X95403582Y-45189290D01*
X95383708Y-45196397D01*
X95258486Y-45263329D01*
X95186903Y-45507298D01*
X96000000Y-46320395D01*
X96813097Y-45507298D01*
X96741514Y-45263329D01*
X96590351Y-45191803D01*
X96628570Y-45175972D01*
X96845913Y-45030748D01*
X97030748Y-44845913D01*
X97175972Y-44628570D01*
X97276004Y-44387072D01*
X97327000Y-44130698D01*
X97327000Y-43869302D01*
X97276004Y-43612928D01*
X97175972Y-43371430D01*
X97030748Y-43154087D01*
X96876661Y-43000000D01*
X97030748Y-42845913D01*
X97175972Y-42628570D01*
X97276004Y-42387072D01*
X97327000Y-42130698D01*
X97327000Y-42025000D01*
X107361928Y-42025000D01*
X107374188Y-42149482D01*
X107410498Y-42269180D01*
X107469463Y-42379494D01*
X107548815Y-42476185D01*
X107645506Y-42555537D01*
X107728117Y-42599694D01*
X107698775Y-42623775D01*
X107601829Y-42741905D01*
X107529791Y-42876679D01*
X107485430Y-43022917D01*
X107470451Y-43174999D01*
X107470451Y-43825001D01*
X107485430Y-43977083D01*
X107529791Y-44123321D01*
X107601829Y-44258095D01*
X107698775Y-44376225D01*
X107816905Y-44473171D01*
X107951679Y-44545209D01*
X108097917Y-44589570D01*
X108249999Y-44604549D01*
X109150001Y-44604549D01*
X109302083Y-44589570D01*
X109376486Y-44567000D01*
X110423070Y-44567000D01*
X110490414Y-44667787D01*
X110682213Y-44859586D01*
X110907746Y-45010282D01*
X111158344Y-45114083D01*
X111424377Y-45167000D01*
X111695623Y-45167000D01*
X111961656Y-45114083D01*
X112148000Y-45036897D01*
X112148000Y-47147978D01*
X112144846Y-47180000D01*
X112157435Y-47307814D01*
X112194717Y-47430717D01*
X112255259Y-47543984D01*
X112321755Y-47625010D01*
X112336736Y-47643264D01*
X112436016Y-47724741D01*
X112549283Y-47785283D01*
X112672186Y-47822565D01*
X112800000Y-47835154D01*
X112832022Y-47832000D01*
X113529934Y-47832000D01*
X119318785Y-53620852D01*
X119207000Y-53679845D01*
X119207000Y-54873000D01*
X119227000Y-54873000D01*
X119227000Y-55127000D01*
X119207000Y-55127000D01*
X119207000Y-55147000D01*
X118953000Y-55147000D01*
X118953000Y-55127000D01*
X118933000Y-55127000D01*
X118933000Y-54873000D01*
X118953000Y-54873000D01*
X118953000Y-53679845D01*
X118723110Y-53558524D01*
X118575901Y-53603175D01*
X118313080Y-53728359D01*
X118079731Y-53902412D01*
X117884822Y-54118645D01*
X117753975Y-54338308D01*
X117609586Y-54122213D01*
X117417787Y-53930414D01*
X117192254Y-53779718D01*
X116941656Y-53675917D01*
X116675623Y-53623000D01*
X116404377Y-53623000D01*
X116138344Y-53675917D01*
X115887746Y-53779718D01*
X115662213Y-53930414D01*
X115470414Y-54122213D01*
X115319718Y-54347746D01*
X115270000Y-54467776D01*
X115220282Y-54347746D01*
X115069586Y-54122213D01*
X114877787Y-53930414D01*
X114652254Y-53779718D01*
X114401656Y-53675917D01*
X114135623Y-53623000D01*
X113864377Y-53623000D01*
X113598344Y-53675917D01*
X113347746Y-53779718D01*
X113122213Y-53930414D01*
X112930414Y-54122213D01*
X112779718Y-54347746D01*
X112675917Y-54598344D01*
X112623000Y-54864377D01*
X112623000Y-55135623D01*
X112675917Y-55401656D01*
X112779718Y-55652254D01*
X112930414Y-55877787D01*
X113122213Y-56069586D01*
X113347746Y-56220282D01*
X113467776Y-56270000D01*
X113347746Y-56319718D01*
X113122213Y-56470414D01*
X112930414Y-56662213D01*
X112779718Y-56887746D01*
X112675917Y-57138344D01*
X112623000Y-57404377D01*
X112623000Y-57675623D01*
X112675917Y-57941656D01*
X112779718Y-58192254D01*
X112930414Y-58417787D01*
X113122213Y-58609586D01*
X113347746Y-58760282D01*
X113598344Y-58864083D01*
X113864377Y-58917000D01*
X114135623Y-58917000D01*
X114401656Y-58864083D01*
X114652254Y-58760282D01*
X114877787Y-58609586D01*
X115069586Y-58417787D01*
X115220282Y-58192254D01*
X115270000Y-58072224D01*
X115319718Y-58192254D01*
X115470414Y-58417787D01*
X115662213Y-58609586D01*
X115887746Y-58760282D01*
X116138344Y-58864083D01*
X116404377Y-58917000D01*
X116675623Y-58917000D01*
X116941656Y-58864083D01*
X117192254Y-58760282D01*
X117417787Y-58609586D01*
X117609586Y-58417787D01*
X117760282Y-58192254D01*
X117810000Y-58072224D01*
X117859718Y-58192254D01*
X118010414Y-58417787D01*
X118202213Y-58609586D01*
X118427746Y-58760282D01*
X118678344Y-58864083D01*
X118944377Y-58917000D01*
X119215623Y-58917000D01*
X119481656Y-58864083D01*
X119732254Y-58760282D01*
X119957787Y-58609586D01*
X120149586Y-58417787D01*
X120300282Y-58192254D01*
X120350000Y-58072224D01*
X120399718Y-58192254D01*
X120550414Y-58417787D01*
X120742213Y-58609586D01*
X120967746Y-58760282D01*
X121218344Y-58864083D01*
X121484377Y-58917000D01*
X121755623Y-58917000D01*
X122021656Y-58864083D01*
X122272254Y-58760282D01*
X122497787Y-58609586D01*
X122689586Y-58417787D01*
X122780451Y-58281798D01*
X122780451Y-58390000D01*
X122790626Y-58493310D01*
X122820761Y-58592650D01*
X122869696Y-58684202D01*
X122935552Y-58764448D01*
X123015798Y-58830304D01*
X123107350Y-58879239D01*
X123206690Y-58909374D01*
X123310000Y-58919549D01*
X125010000Y-58919549D01*
X125113310Y-58909374D01*
X125212650Y-58879239D01*
X125304202Y-58830304D01*
X125384448Y-58764448D01*
X125450304Y-58684202D01*
X125499239Y-58592650D01*
X125529374Y-58493310D01*
X125539549Y-58390000D01*
X125539549Y-56690000D01*
X125529374Y-56586690D01*
X125499239Y-56487350D01*
X125450304Y-56395798D01*
X125384448Y-56315552D01*
X125304202Y-56249696D01*
X125212650Y-56200761D01*
X125113310Y-56170626D01*
X125010000Y-56160451D01*
X124901798Y-56160451D01*
X125037787Y-56069586D01*
X125229586Y-55877787D01*
X125380282Y-55652254D01*
X125484083Y-55401656D01*
X125537000Y-55135623D01*
X125537000Y-54864377D01*
X125484083Y-54598344D01*
X125380282Y-54347746D01*
X125229586Y-54122213D01*
X125037787Y-53930414D01*
X124812254Y-53779718D01*
X124561656Y-53675917D01*
X124295623Y-53623000D01*
X124024377Y-53623000D01*
X123758344Y-53675917D01*
X123507746Y-53779718D01*
X123282213Y-53930414D01*
X123090414Y-54122213D01*
X122939718Y-54347746D01*
X122890000Y-54467776D01*
X122840282Y-54347746D01*
X122689586Y-54122213D01*
X122497787Y-53930414D01*
X122272254Y-53779718D01*
X122021656Y-53675917D01*
X121755623Y-53623000D01*
X121484377Y-53623000D01*
X121218344Y-53675917D01*
X121218089Y-53676022D01*
X114283685Y-46741619D01*
X114263264Y-46716736D01*
X114163984Y-46635259D01*
X114050717Y-46574717D01*
X113927814Y-46537435D01*
X113832022Y-46528000D01*
X113800000Y-46524846D01*
X113767978Y-46528000D01*
X113452000Y-46528000D01*
X113452000Y-45012044D01*
X113698344Y-45114083D01*
X113964377Y-45167000D01*
X114235623Y-45167000D01*
X114501656Y-45114083D01*
X114752254Y-45010282D01*
X114977787Y-44859586D01*
X115169586Y-44667787D01*
X115320282Y-44442254D01*
X115370000Y-44322224D01*
X115419718Y-44442254D01*
X115570414Y-44667787D01*
X115762213Y-44859586D01*
X115987746Y-45010282D01*
X116238344Y-45114083D01*
X116504377Y-45167000D01*
X116775623Y-45167000D01*
X117041656Y-45114083D01*
X117292254Y-45010282D01*
X117517787Y-44859586D01*
X117709586Y-44667787D01*
X117860282Y-44442254D01*
X117910000Y-44322224D01*
X117959718Y-44442254D01*
X118110414Y-44667787D01*
X118302213Y-44859586D01*
X118527746Y-45010282D01*
X118778344Y-45114083D01*
X119044377Y-45167000D01*
X119315623Y-45167000D01*
X119581656Y-45114083D01*
X119581911Y-45113978D01*
X119606320Y-45138387D01*
X119626736Y-45163264D01*
X119726016Y-45244741D01*
X119829399Y-45300000D01*
X119839283Y-45305283D01*
X119962185Y-45342565D01*
X119974827Y-45343810D01*
X120057978Y-45352000D01*
X120057985Y-45352000D01*
X120089999Y-45355153D01*
X120122014Y-45352000D01*
X128446183Y-45352000D01*
X128423000Y-45468548D01*
X128423000Y-45631452D01*
X128454782Y-45791227D01*
X128517123Y-45941731D01*
X128607628Y-46077181D01*
X128722819Y-46192372D01*
X128858269Y-46282877D01*
X128902253Y-46301096D01*
X141323592Y-58722436D01*
X141347920Y-58752080D01*
X141377564Y-58776408D01*
X141377565Y-58776409D01*
X141466234Y-58849178D01*
X141554199Y-58896195D01*
X141601216Y-58921327D01*
X141747681Y-58965757D01*
X141861834Y-58977000D01*
X141861836Y-58977000D01*
X141900000Y-58980759D01*
X141938163Y-58977000D01*
X142297394Y-58977000D01*
X156859182Y-59076738D01*
X156900000Y-59080759D01*
X156973481Y-59073521D01*
X157047070Y-59066782D01*
X157049649Y-59066019D01*
X157052318Y-59065756D01*
X157122973Y-59044323D01*
X157193836Y-59023356D01*
X157196212Y-59022107D01*
X157198783Y-59021327D01*
X157263999Y-58986468D01*
X157329309Y-58952132D01*
X157331393Y-58950445D01*
X157333766Y-58949177D01*
X157390918Y-58902274D01*
X157448285Y-58855848D01*
X157474521Y-58824322D01*
X160028274Y-56270569D01*
X160020451Y-56350000D01*
X160020451Y-58050000D01*
X160030626Y-58153310D01*
X160060761Y-58252650D01*
X160109696Y-58344202D01*
X160175552Y-58424448D01*
X160255798Y-58490304D01*
X160347350Y-58539239D01*
X160446690Y-58569374D01*
X160550000Y-58579549D01*
X162250000Y-58579549D01*
X162353310Y-58569374D01*
X162452650Y-58539239D01*
X162544202Y-58490304D01*
X162624448Y-58424448D01*
X162690304Y-58344202D01*
X162739239Y-58252650D01*
X162769374Y-58153310D01*
X162779549Y-58050000D01*
X162779549Y-57941798D01*
X162870414Y-58077787D01*
X163062213Y-58269586D01*
X163287746Y-58420282D01*
X163538344Y-58524083D01*
X163804377Y-58577000D01*
X164075623Y-58577000D01*
X164341656Y-58524083D01*
X164592254Y-58420282D01*
X164817787Y-58269586D01*
X165009586Y-58077787D01*
X165160282Y-57852254D01*
X165210000Y-57732224D01*
X165259718Y-57852254D01*
X165410414Y-58077787D01*
X165602213Y-58269586D01*
X165827746Y-58420282D01*
X166078344Y-58524083D01*
X166344377Y-58577000D01*
X166615623Y-58577000D01*
X166881656Y-58524083D01*
X167132254Y-58420282D01*
X167357787Y-58269586D01*
X167549586Y-58077787D01*
X167700282Y-57852254D01*
X167750000Y-57732224D01*
X167799718Y-57852254D01*
X167950414Y-58077787D01*
X168142213Y-58269586D01*
X168367746Y-58420282D01*
X168618344Y-58524083D01*
X168884377Y-58577000D01*
X169155623Y-58577000D01*
X169421656Y-58524083D01*
X169672254Y-58420282D01*
X169897787Y-58269586D01*
X170089586Y-58077787D01*
X170240282Y-57852254D01*
X170290000Y-57732224D01*
X170339718Y-57852254D01*
X170490414Y-58077787D01*
X170682213Y-58269586D01*
X170907746Y-58420282D01*
X171158344Y-58524083D01*
X171424377Y-58577000D01*
X171695623Y-58577000D01*
X171961656Y-58524083D01*
X172212254Y-58420282D01*
X172437787Y-58269586D01*
X172629586Y-58077787D01*
X172780282Y-57852254D01*
X172830000Y-57732224D01*
X172879718Y-57852254D01*
X173030414Y-58077787D01*
X173222213Y-58269586D01*
X173447746Y-58420282D01*
X173698344Y-58524083D01*
X173964377Y-58577000D01*
X174235623Y-58577000D01*
X174501656Y-58524083D01*
X174752254Y-58420282D01*
X174977787Y-58269586D01*
X175169586Y-58077787D01*
X175320282Y-57852254D01*
X175370000Y-57732224D01*
X175419718Y-57852254D01*
X175570414Y-58077787D01*
X175762213Y-58269586D01*
X175987746Y-58420282D01*
X176238344Y-58524083D01*
X176504377Y-58577000D01*
X176775623Y-58577000D01*
X177041656Y-58524083D01*
X177292254Y-58420282D01*
X177517787Y-58269586D01*
X177709586Y-58077787D01*
X177860282Y-57852254D01*
X177910000Y-57732224D01*
X177959718Y-57852254D01*
X178110414Y-58077787D01*
X178302213Y-58269586D01*
X178527746Y-58420282D01*
X178778344Y-58524083D01*
X179044377Y-58577000D01*
X179315623Y-58577000D01*
X179581656Y-58524083D01*
X179832254Y-58420282D01*
X180057787Y-58269586D01*
X180249586Y-58077787D01*
X180393975Y-57861692D01*
X180524822Y-58081355D01*
X180719731Y-58297588D01*
X180953080Y-58471641D01*
X181215901Y-58596825D01*
X181363110Y-58641476D01*
X181593000Y-58520155D01*
X181593000Y-57327000D01*
X181573000Y-57327000D01*
X181573000Y-57073000D01*
X181593000Y-57073000D01*
X181593000Y-55879845D01*
X181363110Y-55758524D01*
X181215901Y-55803175D01*
X180953080Y-55928359D01*
X180719731Y-56102412D01*
X180524822Y-56318645D01*
X180393975Y-56538308D01*
X180249586Y-56322213D01*
X180057787Y-56130414D01*
X179832254Y-55979718D01*
X179581656Y-55875917D01*
X179315623Y-55823000D01*
X179044377Y-55823000D01*
X178778344Y-55875917D01*
X178527746Y-55979718D01*
X178302213Y-56130414D01*
X178110414Y-56322213D01*
X177959718Y-56547746D01*
X177910000Y-56667776D01*
X177860282Y-56547746D01*
X177709586Y-56322213D01*
X177517787Y-56130414D01*
X177292254Y-55979718D01*
X177041656Y-55875917D01*
X176775623Y-55823000D01*
X176504377Y-55823000D01*
X176238344Y-55875917D01*
X175987746Y-55979718D01*
X175762213Y-56130414D01*
X175570414Y-56322213D01*
X175419718Y-56547746D01*
X175370000Y-56667776D01*
X175320282Y-56547746D01*
X175169586Y-56322213D01*
X174977787Y-56130414D01*
X174752254Y-55979718D01*
X174501656Y-55875917D01*
X174235623Y-55823000D01*
X173964377Y-55823000D01*
X173698344Y-55875917D01*
X173447746Y-55979718D01*
X173222213Y-56130414D01*
X173030414Y-56322213D01*
X172879718Y-56547746D01*
X172830000Y-56667776D01*
X172780282Y-56547746D01*
X172629586Y-56322213D01*
X172437787Y-56130414D01*
X172212254Y-55979718D01*
X171961656Y-55875917D01*
X171695623Y-55823000D01*
X171424377Y-55823000D01*
X171158344Y-55875917D01*
X170907746Y-55979718D01*
X170682213Y-56130414D01*
X170490414Y-56322213D01*
X170339718Y-56547746D01*
X170290000Y-56667776D01*
X170240282Y-56547746D01*
X170089586Y-56322213D01*
X169897787Y-56130414D01*
X169672254Y-55979718D01*
X169421656Y-55875917D01*
X169155623Y-55823000D01*
X168884377Y-55823000D01*
X168618344Y-55875917D01*
X168367746Y-55979718D01*
X168142213Y-56130414D01*
X167950414Y-56322213D01*
X167799718Y-56547746D01*
X167750000Y-56667776D01*
X167700282Y-56547746D01*
X167549586Y-56322213D01*
X167357787Y-56130414D01*
X167132254Y-55979718D01*
X166881656Y-55875917D01*
X166615623Y-55823000D01*
X166344377Y-55823000D01*
X166078344Y-55875917D01*
X165827746Y-55979718D01*
X165602213Y-56130414D01*
X165410414Y-56322213D01*
X165259718Y-56547746D01*
X165210000Y-56667776D01*
X165160282Y-56547746D01*
X165009586Y-56322213D01*
X164817787Y-56130414D01*
X164592254Y-55979718D01*
X164341656Y-55875917D01*
X164075623Y-55823000D01*
X163804377Y-55823000D01*
X163538344Y-55875917D01*
X163287746Y-55979718D01*
X163062213Y-56130414D01*
X162870414Y-56322213D01*
X162779549Y-56458202D01*
X162779549Y-56350000D01*
X162769374Y-56246690D01*
X162739239Y-56147350D01*
X162690304Y-56055798D01*
X162624448Y-55975552D01*
X162544202Y-55909696D01*
X162452650Y-55860761D01*
X162353310Y-55830626D01*
X162250000Y-55820451D01*
X160550000Y-55820451D01*
X160470569Y-55828274D01*
X162821844Y-53477000D01*
X182903157Y-53477000D01*
X183057170Y-53631014D01*
X183045451Y-53749999D01*
X183045451Y-54650001D01*
X183060430Y-54802083D01*
X183104791Y-54948321D01*
X183176829Y-55083095D01*
X183273775Y-55201225D01*
X183391905Y-55298171D01*
X183483001Y-55346863D01*
X183483000Y-56063070D01*
X183382213Y-56130414D01*
X183190414Y-56322213D01*
X183046025Y-56538308D01*
X182915178Y-56318645D01*
X182720269Y-56102412D01*
X182486920Y-55928359D01*
X182224099Y-55803175D01*
X182076890Y-55758524D01*
X181847000Y-55879845D01*
X181847000Y-57073000D01*
X181867000Y-57073000D01*
X181867000Y-57327000D01*
X181847000Y-57327000D01*
X181847000Y-58520155D01*
X182076890Y-58641476D01*
X182224099Y-58596825D01*
X182486920Y-58471641D01*
X182720269Y-58297588D01*
X182915178Y-58081355D01*
X183046025Y-57861692D01*
X183190414Y-58077787D01*
X183382213Y-58269586D01*
X183607746Y-58420282D01*
X183858344Y-58524083D01*
X184124377Y-58577000D01*
X184395623Y-58577000D01*
X184661656Y-58524083D01*
X184912254Y-58420282D01*
X185137787Y-58269586D01*
X185329586Y-58077787D01*
X185480282Y-57852254D01*
X185584083Y-57601656D01*
X185637000Y-57335623D01*
X185637000Y-57064377D01*
X185584083Y-56798344D01*
X185480282Y-56547746D01*
X185329586Y-56322213D01*
X185137787Y-56130414D01*
X185037000Y-56063070D01*
X185037000Y-55188096D01*
X185050306Y-55171883D01*
X185094463Y-55254494D01*
X185173815Y-55351185D01*
X185270506Y-55430537D01*
X185380820Y-55489502D01*
X185500518Y-55525812D01*
X185625000Y-55538072D01*
X185914250Y-55535000D01*
X186073000Y-55376250D01*
X186073000Y-54327000D01*
X186327000Y-54327000D01*
X186327000Y-55376250D01*
X186485750Y-55535000D01*
X186775000Y-55538072D01*
X186899482Y-55525812D01*
X187019180Y-55489502D01*
X187129494Y-55430537D01*
X187226185Y-55351185D01*
X187305537Y-55254494D01*
X187364502Y-55144180D01*
X187400812Y-55024482D01*
X187413072Y-54900000D01*
X187410000Y-54485750D01*
X187251250Y-54327000D01*
X186327000Y-54327000D01*
X186073000Y-54327000D01*
X186053000Y-54327000D01*
X186053000Y-54073000D01*
X186073000Y-54073000D01*
X186073000Y-53023750D01*
X186327000Y-53023750D01*
X186327000Y-54073000D01*
X187251250Y-54073000D01*
X187410000Y-53914250D01*
X187413072Y-53500000D01*
X187400812Y-53375518D01*
X187364502Y-53255820D01*
X187305537Y-53145506D01*
X187226185Y-53048815D01*
X187129494Y-52969463D01*
X187019180Y-52910498D01*
X186899482Y-52874188D01*
X186775000Y-52861928D01*
X186485750Y-52865000D01*
X186327000Y-53023750D01*
X186073000Y-53023750D01*
X185914250Y-52865000D01*
X185625000Y-52861928D01*
X185500518Y-52874188D01*
X185380820Y-52910498D01*
X185270506Y-52969463D01*
X185173815Y-53048815D01*
X185094463Y-53145506D01*
X185050306Y-53228117D01*
X185026225Y-53198775D01*
X184908095Y-53101829D01*
X184773321Y-53029791D01*
X184627083Y-52985430D01*
X184606174Y-52983371D01*
X184601409Y-52977565D01*
X184601408Y-52977564D01*
X184577080Y-52947920D01*
X184547436Y-52923592D01*
X183801412Y-52177569D01*
X183777080Y-52147920D01*
X183658766Y-52050823D01*
X183523784Y-51978673D01*
X183377319Y-51934243D01*
X183263166Y-51923000D01*
X183263163Y-51923000D01*
X183225000Y-51919241D01*
X183186837Y-51923000D01*
X162538163Y-51923000D01*
X162500000Y-51919241D01*
X162461836Y-51923000D01*
X162461834Y-51923000D01*
X162347681Y-51934243D01*
X162201216Y-51978673D01*
X162133725Y-52014748D01*
X162066233Y-52050823D01*
X161977565Y-52123591D01*
X161947920Y-52147920D01*
X161923592Y-52177564D01*
X156580364Y-57520793D01*
X142340822Y-57423262D01*
X142338166Y-57423000D01*
X142302635Y-57423000D01*
X142267157Y-57422757D01*
X142264504Y-57423000D01*
X142221844Y-57423000D01*
X130150843Y-45352000D01*
X131650666Y-45352000D01*
X131667123Y-45391731D01*
X131757628Y-45527181D01*
X131872819Y-45642372D01*
X132008269Y-45732877D01*
X132158773Y-45795218D01*
X132301553Y-45823619D01*
X138616320Y-52138387D01*
X138636736Y-52163264D01*
X138736016Y-52244741D01*
X138849283Y-52305283D01*
X138910735Y-52323924D01*
X138972185Y-52342565D01*
X139100000Y-52355154D01*
X139132022Y-52352000D01*
X143367978Y-52352000D01*
X143400000Y-52355154D01*
X143432022Y-52352000D01*
X143527814Y-52342565D01*
X143650717Y-52305283D01*
X143763984Y-52244741D01*
X143863264Y-52163264D01*
X143883685Y-52138381D01*
X143897066Y-52125000D01*
X151661928Y-52125000D01*
X151674188Y-52249482D01*
X151710498Y-52369180D01*
X151769463Y-52479494D01*
X151848815Y-52576185D01*
X151945506Y-52655537D01*
X152055820Y-52714502D01*
X152175518Y-52750812D01*
X152300000Y-52763072D01*
X152714250Y-52760000D01*
X152873000Y-52601250D01*
X152873000Y-51677000D01*
X153127000Y-51677000D01*
X153127000Y-52601250D01*
X153285750Y-52760000D01*
X153700000Y-52763072D01*
X153824482Y-52750812D01*
X153944180Y-52714502D01*
X154054494Y-52655537D01*
X154151185Y-52576185D01*
X154230537Y-52479494D01*
X154289502Y-52369180D01*
X154325812Y-52249482D01*
X154338072Y-52125000D01*
X158161928Y-52125000D01*
X158174188Y-52249482D01*
X158210498Y-52369180D01*
X158269463Y-52479494D01*
X158348815Y-52576185D01*
X158445506Y-52655537D01*
X158555820Y-52714502D01*
X158675518Y-52750812D01*
X158800000Y-52763072D01*
X159214250Y-52760000D01*
X159373000Y-52601250D01*
X159373000Y-51677000D01*
X159627000Y-51677000D01*
X159627000Y-52601250D01*
X159785750Y-52760000D01*
X160200000Y-52763072D01*
X160324482Y-52750812D01*
X160444180Y-52714502D01*
X160554494Y-52655537D01*
X160651185Y-52576185D01*
X160730537Y-52479494D01*
X160789502Y-52369180D01*
X160825812Y-52249482D01*
X160838072Y-52125000D01*
X160835000Y-51835750D01*
X160676250Y-51677000D01*
X159627000Y-51677000D01*
X159373000Y-51677000D01*
X158323750Y-51677000D01*
X158165000Y-51835750D01*
X158161928Y-52125000D01*
X154338072Y-52125000D01*
X154335000Y-51835750D01*
X154176250Y-51677000D01*
X153127000Y-51677000D01*
X152873000Y-51677000D01*
X151823750Y-51677000D01*
X151665000Y-51835750D01*
X151661928Y-52125000D01*
X143897066Y-52125000D01*
X145047066Y-50975000D01*
X151661928Y-50975000D01*
X151665000Y-51264250D01*
X151823750Y-51423000D01*
X152873000Y-51423000D01*
X152873000Y-51403000D01*
X153127000Y-51403000D01*
X153127000Y-51423000D01*
X154176250Y-51423000D01*
X154335000Y-51264250D01*
X154338072Y-50975000D01*
X154332075Y-50914108D01*
X154407628Y-51027181D01*
X154522819Y-51142372D01*
X154658269Y-51232877D01*
X154808773Y-51295218D01*
X154968548Y-51327000D01*
X155131452Y-51327000D01*
X155291227Y-51295218D01*
X155441731Y-51232877D01*
X155577181Y-51142372D01*
X155692372Y-51027181D01*
X155782877Y-50891731D01*
X155845218Y-50741227D01*
X155877000Y-50581452D01*
X155877000Y-50418548D01*
X155845218Y-50258773D01*
X155782877Y-50108269D01*
X155692372Y-49972819D01*
X155577181Y-49857628D01*
X155441731Y-49767123D01*
X155291227Y-49704782D01*
X155148447Y-49676381D01*
X154533685Y-49061618D01*
X154513264Y-49036736D01*
X154413984Y-48955259D01*
X154300717Y-48894717D01*
X154177814Y-48857435D01*
X154158929Y-48855575D01*
X154098171Y-48741905D01*
X154001225Y-48623775D01*
X153883095Y-48526829D01*
X153748321Y-48454791D01*
X153602083Y-48410430D01*
X153450001Y-48395451D01*
X152549999Y-48395451D01*
X152397917Y-48410430D01*
X152251679Y-48454791D01*
X152116905Y-48526829D01*
X151998775Y-48623775D01*
X151901829Y-48741905D01*
X151829791Y-48876679D01*
X151785430Y-49022917D01*
X151770451Y-49174999D01*
X151770451Y-49825001D01*
X151785430Y-49977083D01*
X151829791Y-50123321D01*
X151901829Y-50258095D01*
X151998775Y-50376225D01*
X152028117Y-50400306D01*
X151945506Y-50444463D01*
X151848815Y-50523815D01*
X151769463Y-50620506D01*
X151710498Y-50730820D01*
X151674188Y-50850518D01*
X151661928Y-50975000D01*
X145047066Y-50975000D01*
X147853518Y-48168548D01*
X154973000Y-48168548D01*
X154973000Y-48331452D01*
X155004782Y-48491227D01*
X155067123Y-48641731D01*
X155157628Y-48777181D01*
X155272819Y-48892372D01*
X155408269Y-48982877D01*
X155558773Y-49045218D01*
X155701553Y-49073619D01*
X156566320Y-49938387D01*
X156586736Y-49963264D01*
X156686016Y-50044741D01*
X156799283Y-50105283D01*
X156809127Y-50108269D01*
X156922185Y-50142565D01*
X157050000Y-50155154D01*
X157082022Y-50152000D01*
X158345120Y-50152000D01*
X158401829Y-50258095D01*
X158498775Y-50376225D01*
X158528117Y-50400306D01*
X158445506Y-50444463D01*
X158348815Y-50523815D01*
X158269463Y-50620506D01*
X158210498Y-50730820D01*
X158174188Y-50850518D01*
X158161928Y-50975000D01*
X158165000Y-51264250D01*
X158323750Y-51423000D01*
X159373000Y-51423000D01*
X159373000Y-51403000D01*
X159627000Y-51403000D01*
X159627000Y-51423000D01*
X160676250Y-51423000D01*
X160835000Y-51264250D01*
X160838072Y-50975000D01*
X160825812Y-50850518D01*
X160789502Y-50730820D01*
X160730537Y-50620506D01*
X160651185Y-50523815D01*
X160554494Y-50444463D01*
X160471883Y-50400306D01*
X160501225Y-50376225D01*
X160598171Y-50258095D01*
X160670209Y-50123321D01*
X160714570Y-49977083D01*
X160729549Y-49825001D01*
X160729549Y-49174999D01*
X160714570Y-49022917D01*
X160670209Y-48876679D01*
X160598171Y-48741905D01*
X160501225Y-48623775D01*
X160383095Y-48526829D01*
X160248321Y-48454791D01*
X160102083Y-48410430D01*
X159950001Y-48395451D01*
X159049999Y-48395451D01*
X158897917Y-48410430D01*
X158751679Y-48454791D01*
X158616905Y-48526829D01*
X158498775Y-48623775D01*
X158401829Y-48741905D01*
X158345120Y-48848000D01*
X157320067Y-48848000D01*
X156623619Y-48151553D01*
X156595218Y-48008773D01*
X156532877Y-47858269D01*
X156442372Y-47722819D01*
X156327181Y-47607628D01*
X156191731Y-47517123D01*
X156041227Y-47454782D01*
X155881452Y-47423000D01*
X155718548Y-47423000D01*
X155558773Y-47454782D01*
X155408269Y-47517123D01*
X155272819Y-47607628D01*
X155157628Y-47722819D01*
X155067123Y-47858269D01*
X155004782Y-48008773D01*
X154973000Y-48168548D01*
X147853518Y-48168548D01*
X149238388Y-46783679D01*
X149263264Y-46763264D01*
X149344741Y-46663984D01*
X149405283Y-46550717D01*
X149431593Y-46463984D01*
X149442565Y-46427815D01*
X149442672Y-46426733D01*
X149532877Y-46291731D01*
X149595218Y-46141227D01*
X149627000Y-45981452D01*
X149627000Y-45859690D01*
X149691731Y-45832877D01*
X149827181Y-45742372D01*
X149942372Y-45627181D01*
X150032877Y-45491731D01*
X150095218Y-45341227D01*
X150127000Y-45181452D01*
X150127000Y-45018548D01*
X150095218Y-44858773D01*
X150032877Y-44708269D01*
X149942372Y-44572819D01*
X149827181Y-44457628D01*
X149691731Y-44367123D01*
X149652000Y-44350666D01*
X149652000Y-43504880D01*
X149758095Y-43448171D01*
X149876225Y-43351225D01*
X149900306Y-43321883D01*
X149944463Y-43404494D01*
X150023815Y-43501185D01*
X150120506Y-43580537D01*
X150230820Y-43639502D01*
X150350518Y-43675812D01*
X150475000Y-43688072D01*
X150764250Y-43685000D01*
X150923000Y-43526250D01*
X150923000Y-42477000D01*
X151177000Y-42477000D01*
X151177000Y-43526250D01*
X151335750Y-43685000D01*
X151625000Y-43688072D01*
X151749482Y-43675812D01*
X151869180Y-43639502D01*
X151979494Y-43580537D01*
X152076185Y-43501185D01*
X152155537Y-43404494D01*
X152214502Y-43294180D01*
X152250812Y-43174482D01*
X152263072Y-43050000D01*
X152260000Y-42635750D01*
X152101250Y-42477000D01*
X151177000Y-42477000D01*
X150923000Y-42477000D01*
X150903000Y-42477000D01*
X150903000Y-42223000D01*
X150923000Y-42223000D01*
X150923000Y-41173750D01*
X151177000Y-41173750D01*
X151177000Y-42223000D01*
X152101250Y-42223000D01*
X152260000Y-42064250D01*
X152263072Y-41650000D01*
X152250812Y-41525518D01*
X152214502Y-41405820D01*
X152155537Y-41295506D01*
X152076185Y-41198815D01*
X151979494Y-41119463D01*
X151869180Y-41060498D01*
X151749482Y-41024188D01*
X151625000Y-41011928D01*
X151335750Y-41015000D01*
X151177000Y-41173750D01*
X150923000Y-41173750D01*
X150764250Y-41015000D01*
X150475000Y-41011928D01*
X150350518Y-41024188D01*
X150230820Y-41060498D01*
X150120506Y-41119463D01*
X150023815Y-41198815D01*
X149944463Y-41295506D01*
X149900306Y-41378117D01*
X149876225Y-41348775D01*
X149758095Y-41251829D01*
X149623321Y-41179791D01*
X149477083Y-41135430D01*
X149325001Y-41120451D01*
X148674999Y-41120451D01*
X148522917Y-41135430D01*
X148376679Y-41179791D01*
X148241905Y-41251829D01*
X148123775Y-41348775D01*
X148026829Y-41466905D01*
X147954791Y-41601679D01*
X147910430Y-41747917D01*
X147895451Y-41899999D01*
X147895451Y-42800001D01*
X147910430Y-42952083D01*
X147954791Y-43098321D01*
X148026829Y-43233095D01*
X148123775Y-43351225D01*
X148241905Y-43448171D01*
X148348000Y-43504880D01*
X148348001Y-44325934D01*
X146823619Y-42801553D01*
X146795218Y-42658773D01*
X146732877Y-42508269D01*
X146642372Y-42372819D01*
X146527181Y-42257628D01*
X146391731Y-42167123D01*
X146241227Y-42104782D01*
X146081452Y-42073000D01*
X145918548Y-42073000D01*
X145758773Y-42104782D01*
X145608269Y-42167123D01*
X145472819Y-42257628D01*
X145357628Y-42372819D01*
X145267123Y-42508269D01*
X145219952Y-42622149D01*
X144678761Y-42080958D01*
X144695218Y-42041227D01*
X144727000Y-41881452D01*
X144727000Y-41718548D01*
X144695218Y-41558773D01*
X144632877Y-41408269D01*
X144542372Y-41272819D01*
X144427181Y-41157628D01*
X144291731Y-41067123D01*
X144141227Y-41004782D01*
X143981452Y-40973000D01*
X143818548Y-40973000D01*
X143658773Y-41004782D01*
X143508269Y-41067123D01*
X143372819Y-41157628D01*
X143257628Y-41272819D01*
X143167123Y-41408269D01*
X143104782Y-41558773D01*
X143073000Y-41718548D01*
X143073000Y-41881452D01*
X143104782Y-42041227D01*
X143167123Y-42191731D01*
X143254525Y-42322538D01*
X143257435Y-42352078D01*
X143286922Y-42449284D01*
X143294717Y-42474980D01*
X143355259Y-42588247D01*
X143436736Y-42687528D01*
X143461618Y-42707949D01*
X143817119Y-43063449D01*
X143808269Y-43067115D01*
X143672819Y-43157620D01*
X143557628Y-43272811D01*
X143467123Y-43408261D01*
X143404782Y-43558765D01*
X143376381Y-43701544D01*
X141629926Y-45448000D01*
X139907011Y-45448000D01*
X139874989Y-45444846D01*
X139747175Y-45457435D01*
X139634117Y-45491731D01*
X139624273Y-45494717D01*
X139511006Y-45555259D01*
X139488061Y-45574089D01*
X139333763Y-45604782D01*
X139183259Y-45667123D01*
X139047809Y-45757628D01*
X138932618Y-45872819D01*
X138842113Y-46008269D01*
X138779772Y-46158773D01*
X138747990Y-46318548D01*
X138747990Y-46481452D01*
X138779772Y-46641227D01*
X138842113Y-46791731D01*
X138932618Y-46927181D01*
X139047809Y-47042372D01*
X139183259Y-47132877D01*
X139333763Y-47195218D01*
X139493538Y-47227000D01*
X139601960Y-47227000D01*
X139604790Y-47241227D01*
X139667131Y-47391731D01*
X139757636Y-47527181D01*
X139872827Y-47642372D01*
X140008277Y-47732877D01*
X140158781Y-47795218D01*
X140194834Y-47802389D01*
X140207534Y-47866237D01*
X140269875Y-48016741D01*
X140360380Y-48152191D01*
X140475571Y-48267382D01*
X140611021Y-48357887D01*
X140761525Y-48420228D01*
X140921300Y-48452010D01*
X140973000Y-48452010D01*
X140973000Y-48481422D01*
X141004782Y-48641197D01*
X141067123Y-48791701D01*
X141157628Y-48927151D01*
X141272819Y-49042342D01*
X141408269Y-49132847D01*
X141558773Y-49195188D01*
X141718548Y-49226970D01*
X141782054Y-49226970D01*
X141804782Y-49341227D01*
X141867123Y-49491731D01*
X141957628Y-49627181D01*
X142072819Y-49742372D01*
X142208269Y-49832877D01*
X142358773Y-49895218D01*
X142501264Y-49923562D01*
X142504778Y-49941227D01*
X142567119Y-50091731D01*
X142657624Y-50227181D01*
X142772815Y-50342372D01*
X142908265Y-50432877D01*
X143058769Y-50495218D01*
X143103864Y-50504188D01*
X143112833Y-50549278D01*
X143175174Y-50699782D01*
X143265679Y-50835232D01*
X143304190Y-50873743D01*
X143129934Y-51048000D01*
X139370067Y-51048000D01*
X134235843Y-45913777D01*
X134275518Y-45925812D01*
X134400000Y-45938072D01*
X134689250Y-45935000D01*
X134848000Y-45776250D01*
X134848000Y-44727000D01*
X133923750Y-44727000D01*
X133765000Y-44885750D01*
X133761928Y-45300000D01*
X133774188Y-45424482D01*
X133786223Y-45464157D01*
X133223619Y-44901553D01*
X133195218Y-44758773D01*
X133132877Y-44608269D01*
X133042372Y-44472819D01*
X132927181Y-44357628D01*
X132791731Y-44267123D01*
X132641227Y-44204782D01*
X132486929Y-44174089D01*
X132463984Y-44155259D01*
X132350717Y-44094717D01*
X132227814Y-44057435D01*
X132132022Y-44048000D01*
X132100000Y-44044846D01*
X132067978Y-44048000D01*
X120532658Y-44048000D01*
X120557000Y-43925623D01*
X120557000Y-43900000D01*
X133761928Y-43900000D01*
X133765000Y-44314250D01*
X133923750Y-44473000D01*
X134848000Y-44473000D01*
X134848000Y-43423750D01*
X134689250Y-43265000D01*
X134400000Y-43261928D01*
X134275518Y-43274188D01*
X134155820Y-43310498D01*
X134045506Y-43369463D01*
X133948815Y-43448815D01*
X133869463Y-43545506D01*
X133810498Y-43655820D01*
X133774188Y-43775518D01*
X133761928Y-43900000D01*
X120557000Y-43900000D01*
X120557000Y-43654377D01*
X120504083Y-43388344D01*
X120447608Y-43252000D01*
X140225934Y-43252000D01*
X139529934Y-43948000D01*
X138099428Y-43948000D01*
X138070209Y-43851679D01*
X137998171Y-43716905D01*
X137901225Y-43598775D01*
X137783095Y-43501829D01*
X137648321Y-43429791D01*
X137502083Y-43385430D01*
X137350001Y-43370451D01*
X136699999Y-43370451D01*
X136547917Y-43385430D01*
X136401679Y-43429791D01*
X136266905Y-43501829D01*
X136148775Y-43598775D01*
X136124694Y-43628117D01*
X136080537Y-43545506D01*
X136001185Y-43448815D01*
X135904494Y-43369463D01*
X135794180Y-43310498D01*
X135674482Y-43274188D01*
X135550000Y-43261928D01*
X135260750Y-43265000D01*
X135102000Y-43423750D01*
X135102000Y-44473000D01*
X135122000Y-44473000D01*
X135122000Y-44727000D01*
X135102000Y-44727000D01*
X135102000Y-45776250D01*
X135260750Y-45935000D01*
X135550000Y-45938072D01*
X135674482Y-45925812D01*
X135794180Y-45889502D01*
X135904494Y-45830537D01*
X136001185Y-45751185D01*
X136080537Y-45654494D01*
X136124694Y-45571883D01*
X136148775Y-45601225D01*
X136266905Y-45698171D01*
X136401679Y-45770209D01*
X136547917Y-45814570D01*
X136699999Y-45829549D01*
X137350001Y-45829549D01*
X137502083Y-45814570D01*
X137648321Y-45770209D01*
X137783095Y-45698171D01*
X137901225Y-45601225D01*
X137998171Y-45483095D01*
X138070209Y-45348321D01*
X138099428Y-45252000D01*
X139767978Y-45252000D01*
X139800000Y-45255154D01*
X139832022Y-45252000D01*
X139927814Y-45242565D01*
X140050717Y-45205283D01*
X140163984Y-45144741D01*
X140263264Y-45063264D01*
X140283685Y-45038381D01*
X141798447Y-43523619D01*
X141941227Y-43495218D01*
X142091731Y-43432877D01*
X142227181Y-43342372D01*
X142342372Y-43227181D01*
X142432877Y-43091731D01*
X142495218Y-42941227D01*
X142527000Y-42781452D01*
X142527000Y-42618548D01*
X142495218Y-42458773D01*
X142432877Y-42308269D01*
X142342372Y-42172819D01*
X142227181Y-42057628D01*
X142099651Y-41972415D01*
X144298448Y-39773619D01*
X144441227Y-39745218D01*
X144591731Y-39682877D01*
X144727181Y-39592372D01*
X144842372Y-39477181D01*
X144932877Y-39341731D01*
X144995218Y-39191227D01*
X145027000Y-39031452D01*
X145027000Y-38868548D01*
X144995218Y-38708773D01*
X144932877Y-38558269D01*
X144842372Y-38422819D01*
X144727181Y-38307628D01*
X144591731Y-38217123D01*
X144441227Y-38154782D01*
X144281452Y-38123000D01*
X144118548Y-38123000D01*
X143958773Y-38154782D01*
X143808269Y-38217123D01*
X143672819Y-38307628D01*
X143557628Y-38422819D01*
X143467123Y-38558269D01*
X143404782Y-38708773D01*
X143376381Y-38851552D01*
X140279934Y-41948000D01*
X120667244Y-41948000D01*
X120665000Y-41535750D01*
X120506250Y-41377000D01*
X119307000Y-41377000D01*
X119307000Y-41397000D01*
X119053000Y-41397000D01*
X119053000Y-41377000D01*
X116767000Y-41377000D01*
X116767000Y-41397000D01*
X116513000Y-41397000D01*
X116513000Y-41377000D01*
X116493000Y-41377000D01*
X116493000Y-41123000D01*
X116513000Y-41123000D01*
X116513000Y-41103000D01*
X116767000Y-41103000D01*
X116767000Y-41123000D01*
X119053000Y-41123000D01*
X119053000Y-41103000D01*
X119307000Y-41103000D01*
X119307000Y-41123000D01*
X120506250Y-41123000D01*
X120665000Y-40964250D01*
X120667244Y-40552000D01*
X140117978Y-40552000D01*
X140150000Y-40555154D01*
X140182022Y-40552000D01*
X140277814Y-40542565D01*
X140400717Y-40505283D01*
X140513984Y-40444741D01*
X140613264Y-40363264D01*
X140633685Y-40338381D01*
X142898448Y-38073619D01*
X143041227Y-38045218D01*
X143191731Y-37982877D01*
X143327181Y-37892372D01*
X143442372Y-37777181D01*
X143532877Y-37641731D01*
X143595218Y-37491227D01*
X143627000Y-37331452D01*
X143627000Y-37168548D01*
X143595218Y-37008773D01*
X143532877Y-36858269D01*
X143442372Y-36722819D01*
X143327181Y-36607628D01*
X143191731Y-36517123D01*
X143041227Y-36454782D01*
X142881452Y-36423000D01*
X142718548Y-36423000D01*
X142558773Y-36454782D01*
X142408269Y-36517123D01*
X142272819Y-36607628D01*
X142157628Y-36722819D01*
X142067123Y-36858269D01*
X142004782Y-37008773D01*
X141976381Y-37151552D01*
X139879934Y-39248000D01*
X138992383Y-39248000D01*
X138995188Y-39241227D01*
X139026970Y-39081452D01*
X139026970Y-38918548D01*
X138995188Y-38758773D01*
X138932847Y-38608269D01*
X138842342Y-38472819D01*
X138727151Y-38357628D01*
X138591701Y-38267123D01*
X138441197Y-38204782D01*
X138298418Y-38176381D01*
X137483655Y-37361618D01*
X137463234Y-37336736D01*
X137363954Y-37255259D01*
X137250687Y-37194717D01*
X137127784Y-37157435D01*
X137031992Y-37148000D01*
X136999970Y-37144846D01*
X136967948Y-37148000D01*
X135854880Y-37148000D01*
X135798171Y-37041905D01*
X135701225Y-36923775D01*
X135671883Y-36899694D01*
X135754494Y-36855537D01*
X135851185Y-36776185D01*
X135930537Y-36679494D01*
X135989502Y-36569180D01*
X136025812Y-36449482D01*
X136038072Y-36325000D01*
X136035000Y-36035750D01*
X135876250Y-35877000D01*
X134827000Y-35877000D01*
X134827000Y-35897000D01*
X134573000Y-35897000D01*
X134573000Y-35877000D01*
X133523750Y-35877000D01*
X133365000Y-36035750D01*
X133361928Y-36325000D01*
X133374188Y-36449482D01*
X133410498Y-36569180D01*
X133469463Y-36679494D01*
X133548815Y-36776185D01*
X133645506Y-36855537D01*
X133728117Y-36899694D01*
X133698775Y-36923775D01*
X133601829Y-37041905D01*
X133529791Y-37176679D01*
X133485430Y-37322917D01*
X133470451Y-37474999D01*
X133470451Y-38125001D01*
X133485430Y-38277083D01*
X133529791Y-38423321D01*
X133601829Y-38558095D01*
X133698775Y-38676225D01*
X133816905Y-38773171D01*
X133951679Y-38845209D01*
X134097917Y-38889570D01*
X134249999Y-38904549D01*
X135150001Y-38904549D01*
X135302083Y-38889570D01*
X135448321Y-38845209D01*
X135583095Y-38773171D01*
X135701225Y-38676225D01*
X135798171Y-38558095D01*
X135854880Y-38452000D01*
X136729904Y-38452000D01*
X137376351Y-39098448D01*
X137404752Y-39241227D01*
X137407557Y-39248000D01*
X115737020Y-39248000D01*
X115704998Y-39244846D01*
X115577183Y-39257435D01*
X115454281Y-39294717D01*
X115341014Y-39355259D01*
X115241734Y-39436736D01*
X115221313Y-39461619D01*
X114920845Y-39762087D01*
X114385750Y-39765000D01*
X114227000Y-39923750D01*
X114227000Y-41123000D01*
X114247000Y-41123000D01*
X114247000Y-41377000D01*
X114227000Y-41377000D01*
X114227000Y-41397000D01*
X113973000Y-41397000D01*
X113973000Y-41377000D01*
X113953000Y-41377000D01*
X113953000Y-41123000D01*
X113973000Y-41123000D01*
X113973000Y-39923750D01*
X113814250Y-39765000D01*
X113250000Y-39761928D01*
X113125518Y-39774188D01*
X113005820Y-39810498D01*
X112895506Y-39869463D01*
X112798815Y-39948815D01*
X112755402Y-40001714D01*
X112704202Y-39959696D01*
X112612650Y-39910761D01*
X112513310Y-39880626D01*
X112410000Y-39870451D01*
X110710000Y-39870451D01*
X110606690Y-39880626D01*
X110507350Y-39910761D01*
X110415798Y-39959696D01*
X110335552Y-40025552D01*
X110269696Y-40105798D01*
X110220761Y-40197350D01*
X110190626Y-40296690D01*
X110180451Y-40400000D01*
X110180451Y-42100000D01*
X110190626Y-42203310D01*
X110220761Y-42302650D01*
X110269696Y-42394202D01*
X110335552Y-42474448D01*
X110415798Y-42540304D01*
X110507350Y-42589239D01*
X110606690Y-42619374D01*
X110710000Y-42629549D01*
X110818202Y-42629549D01*
X110682213Y-42720414D01*
X110490414Y-42912213D01*
X110423070Y-43013000D01*
X109911562Y-43013000D01*
X109870209Y-42876679D01*
X109798171Y-42741905D01*
X109701225Y-42623775D01*
X109671883Y-42599694D01*
X109754494Y-42555537D01*
X109851185Y-42476185D01*
X109930537Y-42379494D01*
X109989502Y-42269180D01*
X110025812Y-42149482D01*
X110038072Y-42025000D01*
X110035000Y-41735750D01*
X109876250Y-41577000D01*
X108827000Y-41577000D01*
X108827000Y-41597000D01*
X108573000Y-41597000D01*
X108573000Y-41577000D01*
X107523750Y-41577000D01*
X107365000Y-41735750D01*
X107361928Y-42025000D01*
X97327000Y-42025000D01*
X97327000Y-41869302D01*
X97276004Y-41612928D01*
X97175972Y-41371430D01*
X97030748Y-41154087D01*
X96845913Y-40969252D01*
X96704856Y-40875000D01*
X107361928Y-40875000D01*
X107365000Y-41164250D01*
X107523750Y-41323000D01*
X108573000Y-41323000D01*
X108573000Y-40398750D01*
X108827000Y-40398750D01*
X108827000Y-41323000D01*
X109876250Y-41323000D01*
X110035000Y-41164250D01*
X110038072Y-40875000D01*
X110025812Y-40750518D01*
X109989502Y-40630820D01*
X109930537Y-40520506D01*
X109851185Y-40423815D01*
X109754494Y-40344463D01*
X109644180Y-40285498D01*
X109524482Y-40249188D01*
X109400000Y-40236928D01*
X108985750Y-40240000D01*
X108827000Y-40398750D01*
X108573000Y-40398750D01*
X108414250Y-40240000D01*
X108000000Y-40236928D01*
X107875518Y-40249188D01*
X107755820Y-40285498D01*
X107645506Y-40344463D01*
X107548815Y-40423815D01*
X107469463Y-40520506D01*
X107410498Y-40630820D01*
X107374188Y-40750518D01*
X107361928Y-40875000D01*
X96704856Y-40875000D01*
X96636833Y-40829549D01*
X96800000Y-40829549D01*
X96903310Y-40819374D01*
X97002650Y-40789239D01*
X97094202Y-40740304D01*
X97174448Y-40674448D01*
X97240304Y-40594202D01*
X97289239Y-40502650D01*
X97319374Y-40403310D01*
X97329549Y-40300000D01*
X97329549Y-39269295D01*
X97522436Y-39076408D01*
X97552080Y-39052080D01*
X97613232Y-38977566D01*
X97649178Y-38933766D01*
X97705809Y-38827815D01*
X97721327Y-38798784D01*
X97765757Y-38652319D01*
X97777000Y-38538166D01*
X97777000Y-38538164D01*
X97780759Y-38500000D01*
X97777000Y-38461837D01*
X97777000Y-37591623D01*
X97826225Y-37551225D01*
X97850306Y-37521883D01*
X97894463Y-37604494D01*
X97973815Y-37701185D01*
X98070506Y-37780537D01*
X98180820Y-37839502D01*
X98300518Y-37875812D01*
X98425000Y-37888072D01*
X98714250Y-37885000D01*
X98873000Y-37726250D01*
X98873000Y-36677000D01*
X99127000Y-36677000D01*
X99127000Y-37726250D01*
X99285750Y-37885000D01*
X99575000Y-37888072D01*
X99699482Y-37875812D01*
X99819180Y-37839502D01*
X99929494Y-37780537D01*
X100026185Y-37701185D01*
X100105537Y-37604494D01*
X100164502Y-37494180D01*
X100200812Y-37374482D01*
X100213072Y-37250000D01*
X100210000Y-36835750D01*
X100051250Y-36677000D01*
X99127000Y-36677000D01*
X98873000Y-36677000D01*
X98853000Y-36677000D01*
X98853000Y-36423000D01*
X98873000Y-36423000D01*
X98873000Y-35373750D01*
X99127000Y-35373750D01*
X99127000Y-36423000D01*
X100051250Y-36423000D01*
X100210000Y-36264250D01*
X100213072Y-35850000D01*
X100200812Y-35725518D01*
X100164502Y-35605820D01*
X100105537Y-35495506D01*
X100026185Y-35398815D01*
X99929494Y-35319463D01*
X99819180Y-35260498D01*
X99699482Y-35224188D01*
X99575000Y-35211928D01*
X99285750Y-35215000D01*
X99127000Y-35373750D01*
X98873000Y-35373750D01*
X98714250Y-35215000D01*
X98425000Y-35211928D01*
X98300518Y-35224188D01*
X98180820Y-35260498D01*
X98070506Y-35319463D01*
X97973815Y-35398815D01*
X97894463Y-35495506D01*
X97850306Y-35578117D01*
X97826225Y-35548775D01*
X97777000Y-35508377D01*
X97777000Y-34329549D01*
X97800000Y-34329549D01*
X97903310Y-34319374D01*
X98002650Y-34289239D01*
X98094202Y-34240304D01*
X98174448Y-34174448D01*
X98240304Y-34094202D01*
X98289239Y-34002650D01*
X98319374Y-33903310D01*
X98322654Y-33870000D01*
X104111928Y-33870000D01*
X104124188Y-33994482D01*
X104160498Y-34114180D01*
X104219463Y-34224494D01*
X104298815Y-34321185D01*
X104395506Y-34400537D01*
X104505820Y-34459502D01*
X104625518Y-34495812D01*
X104750000Y-34508072D01*
X105314250Y-34505000D01*
X105473000Y-34346250D01*
X105473000Y-33147000D01*
X105727000Y-33147000D01*
X105727000Y-34346250D01*
X105885750Y-34505000D01*
X106450000Y-34508072D01*
X106574482Y-34495812D01*
X106694180Y-34459502D01*
X106804494Y-34400537D01*
X106901185Y-34321185D01*
X106980537Y-34224494D01*
X107039502Y-34114180D01*
X107075812Y-33994482D01*
X107088072Y-33870000D01*
X107085000Y-33305750D01*
X106926250Y-33147000D01*
X105727000Y-33147000D01*
X105473000Y-33147000D01*
X104273750Y-33147000D01*
X104115000Y-33305750D01*
X104111928Y-33870000D01*
X98322654Y-33870000D01*
X98329549Y-33800000D01*
X98329549Y-32769294D01*
X99221844Y-31877000D01*
X104186593Y-31877000D01*
X104160498Y-31925820D01*
X104124188Y-32045518D01*
X104111928Y-32170000D01*
X104115000Y-32734250D01*
X104273750Y-32893000D01*
X105473000Y-32893000D01*
X105473000Y-32873000D01*
X105727000Y-32873000D01*
X105727000Y-32893000D01*
X106926250Y-32893000D01*
X107085000Y-32734250D01*
X107088072Y-32170000D01*
X107075812Y-32045518D01*
X107039502Y-31925820D01*
X106980537Y-31815506D01*
X106901185Y-31718815D01*
X106804494Y-31639463D01*
X106694180Y-31580498D01*
X106574482Y-31544188D01*
X106491370Y-31536003D01*
X106669586Y-31357787D01*
X106820282Y-31132254D01*
X106924083Y-30881656D01*
X106977000Y-30615623D01*
X106977000Y-30344377D01*
X106953352Y-30225491D01*
X107701844Y-29477000D01*
X113014471Y-29477000D01*
X112904822Y-29598645D01*
X112755843Y-29848748D01*
X112658519Y-30123109D01*
X112779186Y-30353000D01*
X113973000Y-30353000D01*
X113973000Y-30333000D01*
X114227000Y-30333000D01*
X114227000Y-30353000D01*
X114247000Y-30353000D01*
X114247000Y-30607000D01*
X114227000Y-30607000D01*
X114227000Y-30627000D01*
X113973000Y-30627000D01*
X113973000Y-30607000D01*
X112779186Y-30607000D01*
X112658519Y-30836891D01*
X112755843Y-31111252D01*
X112904822Y-31361355D01*
X113099731Y-31577588D01*
X113191707Y-31646192D01*
X113146690Y-31650626D01*
X113047350Y-31680761D01*
X112955798Y-31729696D01*
X112875552Y-31795552D01*
X112809696Y-31875798D01*
X112760761Y-31967350D01*
X112730626Y-32066690D01*
X112720451Y-32170000D01*
X112720451Y-33870000D01*
X112730626Y-33973310D01*
X112760761Y-34072650D01*
X112809696Y-34164202D01*
X112875552Y-34244448D01*
X112955798Y-34310304D01*
X113047350Y-34359239D01*
X113146690Y-34389374D01*
X113250000Y-34399549D01*
X114950000Y-34399549D01*
X115053310Y-34389374D01*
X115152650Y-34359239D01*
X115244202Y-34310304D01*
X115324448Y-34244448D01*
X115390304Y-34164202D01*
X115439239Y-34072650D01*
X115469374Y-33973310D01*
X115479549Y-33870000D01*
X115479549Y-33761798D01*
X115570414Y-33897787D01*
X115762213Y-34089586D01*
X115987746Y-34240282D01*
X116238344Y-34344083D01*
X116504377Y-34397000D01*
X116621316Y-34397000D01*
X116615123Y-34406269D01*
X116552782Y-34556773D01*
X116521000Y-34716548D01*
X116521000Y-34879452D01*
X116552782Y-35039227D01*
X116615123Y-35189731D01*
X116705628Y-35325181D01*
X116820819Y-35440372D01*
X116956269Y-35530877D01*
X117106773Y-35593218D01*
X117266548Y-35625000D01*
X117429452Y-35625000D01*
X117589227Y-35593218D01*
X117739731Y-35530877D01*
X117875181Y-35440372D01*
X117990372Y-35325181D01*
X118080877Y-35189731D01*
X118143218Y-35039227D01*
X118158211Y-34963855D01*
X118778089Y-34343977D01*
X118778344Y-34344083D01*
X119044377Y-34397000D01*
X119315623Y-34397000D01*
X119581656Y-34344083D01*
X119703002Y-34293820D01*
X119703002Y-35274945D01*
X117801553Y-37176395D01*
X117658773Y-37204796D01*
X117508269Y-37267137D01*
X117372819Y-37357642D01*
X117257628Y-37472833D01*
X117167123Y-37608283D01*
X117104782Y-37758787D01*
X117073000Y-37918562D01*
X117073000Y-38081466D01*
X117104782Y-38241241D01*
X117167123Y-38391745D01*
X117257628Y-38527195D01*
X117372819Y-38642386D01*
X117508269Y-38732891D01*
X117658773Y-38795232D01*
X117818548Y-38827014D01*
X117981452Y-38827014D01*
X118141227Y-38795232D01*
X118291731Y-38732891D01*
X118427181Y-38642386D01*
X118542372Y-38527195D01*
X118632877Y-38391745D01*
X118695218Y-38241241D01*
X118723619Y-38098461D01*
X120793388Y-36028693D01*
X120818265Y-36008277D01*
X120899742Y-35908997D01*
X120960284Y-35795730D01*
X120984222Y-35716816D01*
X120997566Y-35672828D01*
X121010155Y-35545013D01*
X121007001Y-35512991D01*
X121007001Y-35175000D01*
X133361928Y-35175000D01*
X133365000Y-35464250D01*
X133523750Y-35623000D01*
X134573000Y-35623000D01*
X134573000Y-34698750D01*
X134414250Y-34540000D01*
X134000000Y-34536928D01*
X133875518Y-34549188D01*
X133755820Y-34585498D01*
X133645506Y-34644463D01*
X133548815Y-34723815D01*
X133469463Y-34820506D01*
X133410498Y-34930820D01*
X133374188Y-35050518D01*
X133361928Y-35175000D01*
X121007001Y-35175000D01*
X121007001Y-34199694D01*
X121067746Y-34240282D01*
X121318344Y-34344083D01*
X121584377Y-34397000D01*
X121855623Y-34397000D01*
X122121656Y-34344083D01*
X122372254Y-34240282D01*
X122597787Y-34089586D01*
X122789586Y-33897787D01*
X122940282Y-33672254D01*
X122990000Y-33552224D01*
X123039718Y-33672254D01*
X123190414Y-33897787D01*
X123382213Y-34089586D01*
X123607746Y-34240282D01*
X123858344Y-34344083D01*
X124124377Y-34397000D01*
X124395623Y-34397000D01*
X124661656Y-34344083D01*
X124912254Y-34240282D01*
X125137787Y-34089586D01*
X125177373Y-34050000D01*
X134686928Y-34050000D01*
X134699188Y-34174482D01*
X134735498Y-34294180D01*
X134794463Y-34404494D01*
X134873815Y-34501185D01*
X134956614Y-34569136D01*
X134827000Y-34698750D01*
X134827000Y-35623000D01*
X135876250Y-35623000D01*
X136035000Y-35464250D01*
X136038072Y-35175000D01*
X136025812Y-35050518D01*
X135989502Y-34930820D01*
X135930537Y-34820506D01*
X135851185Y-34723815D01*
X135754494Y-34644463D01*
X135689518Y-34609732D01*
X135773000Y-34526250D01*
X135773000Y-33477000D01*
X134848750Y-33477000D01*
X134690000Y-33635750D01*
X134686928Y-34050000D01*
X125177373Y-34050000D01*
X125329586Y-33897787D01*
X125480282Y-33672254D01*
X125584083Y-33421656D01*
X125637000Y-33155623D01*
X125637000Y-32884377D01*
X125590380Y-32650000D01*
X134686928Y-32650000D01*
X134690000Y-33064250D01*
X134848750Y-33223000D01*
X135773000Y-33223000D01*
X135773000Y-32173750D01*
X136027000Y-32173750D01*
X136027000Y-33223000D01*
X136047000Y-33223000D01*
X136047000Y-33477000D01*
X136027000Y-33477000D01*
X136027000Y-34526250D01*
X136185750Y-34685000D01*
X136475000Y-34688072D01*
X136599482Y-34675812D01*
X136719180Y-34639502D01*
X136829494Y-34580537D01*
X136926185Y-34501185D01*
X137005537Y-34404494D01*
X137048000Y-34325052D01*
X137048001Y-35867968D01*
X137044846Y-35900000D01*
X137057435Y-36027814D01*
X137094717Y-36150716D01*
X137094718Y-36150717D01*
X137155260Y-36263984D01*
X137236737Y-36363264D01*
X137261614Y-36383680D01*
X138676381Y-37798447D01*
X138704782Y-37941227D01*
X138767123Y-38091731D01*
X138857628Y-38227181D01*
X138972819Y-38342372D01*
X139108269Y-38432877D01*
X139258773Y-38495218D01*
X139418548Y-38527000D01*
X139581452Y-38527000D01*
X139741227Y-38495218D01*
X139891731Y-38432877D01*
X140027181Y-38342372D01*
X140142372Y-38227181D01*
X140232877Y-38091731D01*
X140295218Y-37941227D01*
X140327000Y-37781452D01*
X140327000Y-37618548D01*
X140295218Y-37458773D01*
X140232877Y-37308269D01*
X140142372Y-37172819D01*
X140027181Y-37057628D01*
X139891731Y-36967123D01*
X139741227Y-36904782D01*
X139598447Y-36876381D01*
X138352000Y-35629934D01*
X138352000Y-34571965D01*
X138427083Y-34564570D01*
X138573321Y-34520209D01*
X138708095Y-34448171D01*
X138826225Y-34351225D01*
X138923171Y-34233095D01*
X138995209Y-34098321D01*
X139039570Y-33952083D01*
X139054549Y-33800001D01*
X139054549Y-32899999D01*
X139039570Y-32747917D01*
X138995209Y-32601679D01*
X138927498Y-32475000D01*
X140661928Y-32475000D01*
X140674188Y-32599482D01*
X140710498Y-32719180D01*
X140769463Y-32829494D01*
X140848815Y-32926185D01*
X140945506Y-33005537D01*
X141055820Y-33064502D01*
X141175518Y-33100812D01*
X141300000Y-33113072D01*
X141714250Y-33110000D01*
X141873000Y-32951250D01*
X141873000Y-32027000D01*
X142127000Y-32027000D01*
X142127000Y-32951250D01*
X142285750Y-33110000D01*
X142700000Y-33113072D01*
X142824482Y-33100812D01*
X142944180Y-33064502D01*
X143054494Y-33005537D01*
X143151185Y-32926185D01*
X143230537Y-32829494D01*
X143289502Y-32719180D01*
X143325812Y-32599482D01*
X143338072Y-32475000D01*
X143335000Y-32185750D01*
X143176250Y-32027000D01*
X142127000Y-32027000D01*
X141873000Y-32027000D01*
X140823750Y-32027000D01*
X140665000Y-32185750D01*
X140661928Y-32475000D01*
X138927498Y-32475000D01*
X138923171Y-32466905D01*
X138826225Y-32348775D01*
X138708095Y-32251829D01*
X138573321Y-32179791D01*
X138427083Y-32135430D01*
X138275001Y-32120451D01*
X137624999Y-32120451D01*
X137472917Y-32135430D01*
X137326679Y-32179791D01*
X137191905Y-32251829D01*
X137073775Y-32348775D01*
X137049694Y-32378117D01*
X137005537Y-32295506D01*
X136926185Y-32198815D01*
X136829494Y-32119463D01*
X136719180Y-32060498D01*
X136599482Y-32024188D01*
X136475000Y-32011928D01*
X136185750Y-32015000D01*
X136027000Y-32173750D01*
X135773000Y-32173750D01*
X135614250Y-32015000D01*
X135325000Y-32011928D01*
X135200518Y-32024188D01*
X135080820Y-32060498D01*
X134970506Y-32119463D01*
X134873815Y-32198815D01*
X134794463Y-32295506D01*
X134735498Y-32405820D01*
X134699188Y-32525518D01*
X134686928Y-32650000D01*
X125590380Y-32650000D01*
X125584083Y-32618344D01*
X125480282Y-32367746D01*
X125329586Y-32142213D01*
X125137787Y-31950414D01*
X124917968Y-31803536D01*
X125026920Y-31751641D01*
X125260269Y-31577588D01*
X125455178Y-31361355D01*
X125476833Y-31325000D01*
X140661928Y-31325000D01*
X140665000Y-31614250D01*
X140823750Y-31773000D01*
X141873000Y-31773000D01*
X141873000Y-31753000D01*
X142127000Y-31753000D01*
X142127000Y-31773000D01*
X143176250Y-31773000D01*
X143335000Y-31614250D01*
X143337177Y-31409244D01*
X144376381Y-32448448D01*
X144404782Y-32591227D01*
X144467123Y-32741731D01*
X144557628Y-32877181D01*
X144672819Y-32992372D01*
X144808269Y-33082877D01*
X144958773Y-33145218D01*
X145118548Y-33177000D01*
X145281452Y-33177000D01*
X145441227Y-33145218D01*
X145591731Y-33082877D01*
X145727181Y-32992372D01*
X145842372Y-32877181D01*
X145932877Y-32741731D01*
X145995218Y-32591227D01*
X146023619Y-32448447D01*
X147270067Y-31202000D01*
X151437228Y-31202000D01*
X151558269Y-31282877D01*
X151708773Y-31345218D01*
X151868548Y-31377000D01*
X152031452Y-31377000D01*
X152191227Y-31345218D01*
X152341731Y-31282877D01*
X152477181Y-31192372D01*
X152592372Y-31077181D01*
X152682877Y-30941731D01*
X152745218Y-30791227D01*
X152777000Y-30631452D01*
X152777000Y-30468548D01*
X152745218Y-30308773D01*
X152682877Y-30158269D01*
X152592372Y-30022819D01*
X152477181Y-29907628D01*
X152341731Y-29817123D01*
X152300393Y-29800000D01*
X181661928Y-29800000D01*
X181665000Y-32714250D01*
X181823750Y-32873000D01*
X182068692Y-32873000D01*
X182066649Y-32882523D01*
X182063587Y-33086377D01*
X182071035Y-33127000D01*
X181823750Y-33127000D01*
X181665000Y-33285750D01*
X181661928Y-36200000D01*
X181674188Y-36324482D01*
X181710498Y-36444180D01*
X181769463Y-36554494D01*
X181848815Y-36651185D01*
X181945506Y-36730537D01*
X182055820Y-36789502D01*
X182175518Y-36825812D01*
X182300000Y-36838072D01*
X185214250Y-36835000D01*
X185373000Y-36676250D01*
X185373000Y-36431308D01*
X185382523Y-36433351D01*
X185586377Y-36436413D01*
X185627000Y-36428965D01*
X185627000Y-36676250D01*
X185785750Y-36835000D01*
X188700000Y-36838072D01*
X188824482Y-36825812D01*
X188944180Y-36789502D01*
X189054494Y-36730537D01*
X189151185Y-36651185D01*
X189230537Y-36554494D01*
X189289502Y-36444180D01*
X189325812Y-36324482D01*
X189338072Y-36200000D01*
X189335000Y-33285750D01*
X189176250Y-33127000D01*
X188931308Y-33127000D01*
X188933351Y-33117477D01*
X188936413Y-32913623D01*
X188928965Y-32873000D01*
X189176250Y-32873000D01*
X189335000Y-32714250D01*
X189338072Y-29800000D01*
X189325812Y-29675518D01*
X189289502Y-29555820D01*
X189230537Y-29445506D01*
X189151185Y-29348815D01*
X189054494Y-29269463D01*
X188944180Y-29210498D01*
X188824482Y-29174188D01*
X188700000Y-29161928D01*
X185785750Y-29165000D01*
X185627000Y-29323750D01*
X185627000Y-29568692D01*
X185617477Y-29566649D01*
X185413623Y-29563587D01*
X185373000Y-29571035D01*
X185373000Y-29323750D01*
X185214250Y-29165000D01*
X182300000Y-29161928D01*
X182175518Y-29174188D01*
X182055820Y-29210498D01*
X181945506Y-29269463D01*
X181848815Y-29348815D01*
X181769463Y-29445506D01*
X181710498Y-29555820D01*
X181674188Y-29675518D01*
X181661928Y-29800000D01*
X152300393Y-29800000D01*
X152191227Y-29754782D01*
X152031452Y-29723000D01*
X151868548Y-29723000D01*
X151708773Y-29754782D01*
X151558269Y-29817123D01*
X151437228Y-29898000D01*
X147032014Y-29898000D01*
X146999999Y-29894847D01*
X146967985Y-29898000D01*
X146967978Y-29898000D01*
X146884827Y-29906190D01*
X146872185Y-29907435D01*
X146752652Y-29943695D01*
X146749283Y-29944717D01*
X146636016Y-30005259D01*
X146536736Y-30086736D01*
X146516320Y-30111613D01*
X145200000Y-31427933D01*
X143222173Y-29450107D01*
X143214570Y-29372917D01*
X143170209Y-29226679D01*
X143098171Y-29091905D01*
X143001225Y-28973775D01*
X142883095Y-28876829D01*
X142748321Y-28804791D01*
X142602083Y-28760430D01*
X142450001Y-28745451D01*
X141549999Y-28745451D01*
X141397917Y-28760430D01*
X141251679Y-28804791D01*
X141116905Y-28876829D01*
X140998775Y-28973775D01*
X140901829Y-29091905D01*
X140829791Y-29226679D01*
X140785430Y-29372917D01*
X140770451Y-29524999D01*
X140770451Y-30175001D01*
X140785430Y-30327083D01*
X140829791Y-30473321D01*
X140901829Y-30608095D01*
X140998775Y-30726225D01*
X141028117Y-30750306D01*
X140945506Y-30794463D01*
X140848815Y-30873815D01*
X140769463Y-30970506D01*
X140710498Y-31080820D01*
X140674188Y-31200518D01*
X140661928Y-31325000D01*
X125476833Y-31325000D01*
X125604157Y-31111252D01*
X125701481Y-30836891D01*
X125580814Y-30607000D01*
X124387000Y-30607000D01*
X124387000Y-30627000D01*
X124133000Y-30627000D01*
X124133000Y-30607000D01*
X124113000Y-30607000D01*
X124113000Y-30353000D01*
X124133000Y-30353000D01*
X124133000Y-29159845D01*
X124387000Y-29159845D01*
X124387000Y-30353000D01*
X125580814Y-30353000D01*
X125701481Y-30123109D01*
X125604157Y-29848748D01*
X125455178Y-29598645D01*
X125260269Y-29382412D01*
X125026920Y-29208359D01*
X124764099Y-29083175D01*
X124616890Y-29038524D01*
X124387000Y-29159845D01*
X124133000Y-29159845D01*
X123903110Y-29038524D01*
X123755901Y-29083175D01*
X123493080Y-29208359D01*
X123259731Y-29382412D01*
X123064822Y-29598645D01*
X122933975Y-29818308D01*
X122789586Y-29602213D01*
X122597787Y-29410414D01*
X122372254Y-29259718D01*
X122121656Y-29155917D01*
X121855623Y-29103000D01*
X121584377Y-29103000D01*
X121318344Y-29155917D01*
X121067746Y-29259718D01*
X120842213Y-29410414D01*
X120650414Y-29602213D01*
X120499718Y-29827746D01*
X120450000Y-29947776D01*
X120400282Y-29827746D01*
X120249586Y-29602213D01*
X120057787Y-29410414D01*
X119832254Y-29259718D01*
X119581656Y-29155917D01*
X119315623Y-29103000D01*
X119044377Y-29103000D01*
X118778344Y-29155917D01*
X118527746Y-29259718D01*
X118302213Y-29410414D01*
X118110414Y-29602213D01*
X117959718Y-29827746D01*
X117910000Y-29947776D01*
X117860282Y-29827746D01*
X117709586Y-29602213D01*
X117517787Y-29410414D01*
X117292254Y-29259718D01*
X117041656Y-29155917D01*
X116775623Y-29103000D01*
X116504377Y-29103000D01*
X116385491Y-29126648D01*
X115436412Y-28177569D01*
X115412080Y-28147920D01*
X115293766Y-28050823D01*
X115158784Y-27978673D01*
X115012319Y-27934243D01*
X114898166Y-27923000D01*
X114898163Y-27923000D01*
X114860000Y-27919241D01*
X114821837Y-27923000D01*
X107418155Y-27923000D01*
X107379999Y-27919242D01*
X107341843Y-27923000D01*
X107341834Y-27923000D01*
X107227681Y-27934243D01*
X107081216Y-27978673D01*
X106946233Y-28050823D01*
X106872862Y-28111037D01*
X106827920Y-28147920D01*
X106803592Y-28177564D01*
X105854509Y-29126648D01*
X105735623Y-29103000D01*
X105464377Y-29103000D01*
X105198344Y-29155917D01*
X104947746Y-29259718D01*
X104722213Y-29410414D01*
X104530414Y-29602213D01*
X104379718Y-29827746D01*
X104275917Y-30078344D01*
X104227252Y-30323000D01*
X98938163Y-30323000D01*
X98900000Y-30319241D01*
X98861836Y-30323000D01*
X98861834Y-30323000D01*
X98747681Y-30334243D01*
X98601216Y-30378673D01*
X98546361Y-30407994D01*
X98466233Y-30450823D01*
X98438024Y-30473973D01*
X98440217Y-30429488D01*
X98398787Y-30149870D01*
X98303603Y-29883708D01*
X98236671Y-29758486D01*
X97992702Y-29686903D01*
X97179605Y-30500000D01*
X97193748Y-30514143D01*
X97014143Y-30693748D01*
X97000000Y-30679605D01*
X96186903Y-31492702D01*
X96239056Y-31670451D01*
X96200000Y-31670451D01*
X96096690Y-31680626D01*
X95997350Y-31710761D01*
X95905798Y-31759696D01*
X95825552Y-31825552D01*
X95759696Y-31905798D01*
X95710761Y-31997350D01*
X95680626Y-32096690D01*
X95670451Y-32200000D01*
X95670451Y-33800000D01*
X95680626Y-33903310D01*
X95710761Y-34002650D01*
X95759696Y-34094202D01*
X95825552Y-34174448D01*
X95905798Y-34240304D01*
X95997350Y-34289239D01*
X96096690Y-34319374D01*
X96200000Y-34329549D01*
X96223000Y-34329549D01*
X96223000Y-35435208D01*
X96191905Y-35451829D01*
X96073775Y-35548775D01*
X95976829Y-35666905D01*
X95904791Y-35801679D01*
X95860430Y-35947917D01*
X95845451Y-36099999D01*
X95845451Y-37000001D01*
X95860430Y-37152083D01*
X95904791Y-37298321D01*
X95976829Y-37433095D01*
X96073775Y-37551225D01*
X96191905Y-37648171D01*
X96223001Y-37664792D01*
X96223001Y-38170451D01*
X95200000Y-38170451D01*
X95096690Y-38180626D01*
X94997350Y-38210761D01*
X94905798Y-38259696D01*
X94825552Y-38325552D01*
X94759696Y-38405798D01*
X94710761Y-38497350D01*
X94680626Y-38596690D01*
X94670451Y-38700000D01*
X90577000Y-38700000D01*
X90577000Y-37921653D01*
X91977952Y-37921653D01*
X92133962Y-38237214D01*
X92508745Y-38428020D01*
X92913551Y-38542044D01*
X93332824Y-38574902D01*
X93750451Y-38525334D01*
X94150383Y-38395243D01*
X94446038Y-38237214D01*
X94602048Y-37921653D01*
X93290000Y-36609605D01*
X91977952Y-37921653D01*
X90577000Y-37921653D01*
X90577000Y-36472824D01*
X91145098Y-36472824D01*
X91194666Y-36890451D01*
X91324757Y-37290383D01*
X91482786Y-37586038D01*
X91798347Y-37742048D01*
X93110395Y-36430000D01*
X93469605Y-36430000D01*
X94781653Y-37742048D01*
X95097214Y-37586038D01*
X95288020Y-37211255D01*
X95402044Y-36806449D01*
X95434902Y-36387176D01*
X95385334Y-35969549D01*
X95255243Y-35569617D01*
X95097214Y-35273962D01*
X94781653Y-35117952D01*
X93469605Y-36430000D01*
X93110395Y-36430000D01*
X91798347Y-35117952D01*
X91482786Y-35273962D01*
X91291980Y-35648745D01*
X91177956Y-36053551D01*
X91145098Y-36472824D01*
X90577000Y-36472824D01*
X90577000Y-34938347D01*
X91977952Y-34938347D01*
X93290000Y-36250395D01*
X94602048Y-34938347D01*
X94446038Y-34622786D01*
X94071255Y-34431980D01*
X93666449Y-34317956D01*
X93247176Y-34285098D01*
X92829549Y-34334666D01*
X92429617Y-34464757D01*
X92133962Y-34622786D01*
X91977952Y-34938347D01*
X90577000Y-34938347D01*
X90577000Y-30570512D01*
X95559783Y-30570512D01*
X95601213Y-30850130D01*
X95696397Y-31116292D01*
X95763329Y-31241514D01*
X96007298Y-31313097D01*
X96820395Y-30500000D01*
X96007298Y-29686903D01*
X95763329Y-29758486D01*
X95642429Y-30013996D01*
X95573700Y-30288184D01*
X95559783Y-30570512D01*
X90577000Y-30570512D01*
X90577000Y-30028217D01*
X90628076Y-29507298D01*
X96186903Y-29507298D01*
X97000000Y-30320395D01*
X97813097Y-29507298D01*
X97741514Y-29263329D01*
X97486004Y-29142429D01*
X97211816Y-29073700D01*
X96929488Y-29059783D01*
X96649870Y-29101213D01*
X96383708Y-29196397D01*
X96258486Y-29263329D01*
X96186903Y-29507298D01*
X90628076Y-29507298D01*
X90644904Y-29335674D01*
X90837837Y-28696652D01*
X91151216Y-28107272D01*
X91573103Y-27589987D01*
X92087431Y-27164497D01*
X92674604Y-26847014D01*
X93312268Y-26649624D01*
X94003237Y-26577000D01*
X185971783Y-26577000D01*
X186664326Y-26644904D01*
G36*
X185627000Y-35319110D02*
G01*
X185627000Y-35480890D01*
X185514143Y-35593748D01*
X185500000Y-35579605D01*
X185485858Y-35593748D01*
X185373000Y-35480890D01*
X185373000Y-35319110D01*
X185485858Y-35206253D01*
X185500000Y-35220395D01*
X185514143Y-35206253D01*
X185627000Y-35319110D01*
G37*
X185627000Y-35319110D02*
X185627000Y-35480890D01*
X185514143Y-35593748D01*
X185500000Y-35579605D01*
X185485858Y-35593748D01*
X185373000Y-35480890D01*
X185373000Y-35319110D01*
X185485858Y-35206253D01*
X185500000Y-35220395D01*
X185514143Y-35206253D01*
X185627000Y-35319110D01*
G36*
X185627000Y-32873000D02*
G01*
X186868692Y-32873000D01*
X186866649Y-32882523D01*
X186863587Y-33086377D01*
X186871035Y-33127000D01*
X185627000Y-33127000D01*
X185627000Y-34368692D01*
X185617477Y-34366649D01*
X185413623Y-34363587D01*
X185373000Y-34371035D01*
X185373000Y-33127000D01*
X184131308Y-33127000D01*
X184133351Y-33117477D01*
X184136413Y-32913623D01*
X184128965Y-32873000D01*
X185373000Y-32873000D01*
X185373000Y-31631308D01*
X185382523Y-31633351D01*
X185586377Y-31636413D01*
X185627000Y-31628965D01*
X185627000Y-32873000D01*
G37*
X185627000Y-32873000D02*
X186868692Y-32873000D01*
X186866649Y-32882523D01*
X186863587Y-33086377D01*
X186871035Y-33127000D01*
X185627000Y-33127000D01*
X185627000Y-34368692D01*
X185617477Y-34366649D01*
X185413623Y-34363587D01*
X185373000Y-34371035D01*
X185373000Y-33127000D01*
X184131308Y-33127000D01*
X184133351Y-33117477D01*
X184136413Y-32913623D01*
X184128965Y-32873000D01*
X185373000Y-32873000D01*
X185373000Y-31631308D01*
X185382523Y-31633351D01*
X185586377Y-31636413D01*
X185627000Y-31628965D01*
X185627000Y-32873000D01*
G36*
X188093748Y-32985858D02*
G01*
X188079605Y-33000000D01*
X188093748Y-33014143D01*
X187980890Y-33127000D01*
X187819110Y-33127000D01*
X187706253Y-33014143D01*
X187720395Y-33000000D01*
X187706253Y-32985858D01*
X187819110Y-32873000D01*
X187980890Y-32873000D01*
X188093748Y-32985858D01*
G37*
X188093748Y-32985858D02*
X188079605Y-33000000D01*
X188093748Y-33014143D01*
X187980890Y-33127000D01*
X187819110Y-33127000D01*
X187706253Y-33014143D01*
X187720395Y-33000000D01*
X187706253Y-32985858D01*
X187819110Y-32873000D01*
X187980890Y-32873000D01*
X188093748Y-32985858D01*
G36*
X183293748Y-32985858D02*
G01*
X183279605Y-33000000D01*
X183293748Y-33014143D01*
X183180890Y-33127000D01*
X183019110Y-33127000D01*
X182906253Y-33014143D01*
X182920395Y-33000000D01*
X182906253Y-32985858D01*
X183019110Y-32873000D01*
X183180890Y-32873000D01*
X183293748Y-32985858D01*
G37*
X183293748Y-32985858D02*
X183279605Y-33000000D01*
X183293748Y-33014143D01*
X183180890Y-33127000D01*
X183019110Y-33127000D01*
X182906253Y-33014143D01*
X182920395Y-33000000D01*
X182906253Y-32985858D01*
X183019110Y-32873000D01*
X183180890Y-32873000D01*
X183293748Y-32985858D01*
G36*
X185627000Y-30519110D02*
G01*
X185627000Y-30680890D01*
X185514143Y-30793748D01*
X185500000Y-30779605D01*
X185485858Y-30793748D01*
X185373000Y-30680890D01*
X185373000Y-30519110D01*
X185485858Y-30406253D01*
X185500000Y-30420395D01*
X185514143Y-30406253D01*
X185627000Y-30519110D01*
G37*
X185627000Y-30519110D02*
X185627000Y-30680890D01*
X185514143Y-30793748D01*
X185500000Y-30779605D01*
X185485858Y-30793748D01*
X185373000Y-30680890D01*
X185373000Y-30519110D01*
X185485858Y-30406253D01*
X185500000Y-30420395D01*
X185514143Y-30406253D01*
X185627000Y-30519110D01*
M02*
