G04 #@! TF.GenerationSoftware,KiCad,Pcbnew,(5.1.5)-3*
G04 #@! TF.CreationDate,2020-01-25T14:55:43-05:00*
G04 #@! TF.ProjectId,SmallyMouse2,536d616c-6c79-44d6-9f75-7365322e6b69,2.0*
G04 #@! TF.SameCoordinates,Original*
G04 #@! TF.FileFunction,Legend,Bot*
G04 #@! TF.FilePolarity,Positive*
%FSLAX46Y46*%
G04 Gerber Fmt 4.6, Leading zero omitted, Abs format (unit mm)*
G04 Created by KiCad (PCBNEW (5.1.5)-3) date 2020-01-25 14:55:43*
%MOMM*%
%LPD*%
G04 APERTURE LIST*
%ADD10C,0.150000*%
%ADD11C,0.120000*%
G04 APERTURE END LIST*
D10*
X187962023Y-39366666D02*
X187485833Y-39366666D01*
X188057261Y-39652380D02*
X187723928Y-38652380D01*
X187390595Y-39652380D01*
X186533452Y-39652380D02*
X187104880Y-39652380D01*
X186819166Y-39652380D02*
X186819166Y-38652380D01*
X186914404Y-38795238D01*
X187009642Y-38890476D01*
X187104880Y-38938095D01*
X186152500Y-38747619D02*
X186104880Y-38700000D01*
X186009642Y-38652380D01*
X185771547Y-38652380D01*
X185676309Y-38700000D01*
X185628690Y-38747619D01*
X185581071Y-38842857D01*
X185581071Y-38938095D01*
X185628690Y-39080952D01*
X186200119Y-39652380D01*
X185581071Y-39652380D01*
X184962023Y-38652380D02*
X184866785Y-38652380D01*
X184771547Y-38700000D01*
X184723928Y-38747619D01*
X184676309Y-38842857D01*
X184628690Y-39033333D01*
X184628690Y-39271428D01*
X184676309Y-39461904D01*
X184723928Y-39557142D01*
X184771547Y-39604761D01*
X184866785Y-39652380D01*
X184962023Y-39652380D01*
X185057261Y-39604761D01*
X185104880Y-39557142D01*
X185152500Y-39461904D01*
X185200119Y-39271428D01*
X185200119Y-39033333D01*
X185152500Y-38842857D01*
X185104880Y-38747619D01*
X185057261Y-38700000D01*
X184962023Y-38652380D01*
X184009642Y-38652380D02*
X183914404Y-38652380D01*
X183819166Y-38700000D01*
X183771547Y-38747619D01*
X183723928Y-38842857D01*
X183676309Y-39033333D01*
X183676309Y-39271428D01*
X183723928Y-39461904D01*
X183771547Y-39557142D01*
X183819166Y-39604761D01*
X183914404Y-39652380D01*
X184009642Y-39652380D01*
X184104880Y-39604761D01*
X184152500Y-39557142D01*
X184200119Y-39461904D01*
X184247738Y-39271428D01*
X184247738Y-39033333D01*
X184200119Y-38842857D01*
X184152500Y-38747619D01*
X184104880Y-38700000D01*
X184009642Y-38652380D01*
X182485833Y-39652380D02*
X182485833Y-38985714D01*
X182485833Y-39176190D02*
X182438214Y-39080952D01*
X182390595Y-39033333D01*
X182295357Y-38985714D01*
X182200119Y-38985714D01*
X181485833Y-39604761D02*
X181581071Y-39652380D01*
X181771547Y-39652380D01*
X181866785Y-39604761D01*
X181914404Y-39509523D01*
X181914404Y-39128571D01*
X181866785Y-39033333D01*
X181771547Y-38985714D01*
X181581071Y-38985714D01*
X181485833Y-39033333D01*
X181438214Y-39128571D01*
X181438214Y-39223809D01*
X181914404Y-39319047D01*
X181104880Y-38985714D02*
X180866785Y-39652380D01*
X180628690Y-38985714D01*
X179533452Y-38747619D02*
X179485833Y-38700000D01*
X179390595Y-38652380D01*
X179152500Y-38652380D01*
X179057261Y-38700000D01*
X179009642Y-38747619D01*
X178962023Y-38842857D01*
X178962023Y-38938095D01*
X179009642Y-39080952D01*
X179581071Y-39652380D01*
X178962023Y-39652380D01*
X178200119Y-39128571D02*
X178057261Y-39176190D01*
X178009642Y-39223809D01*
X177962023Y-39319047D01*
X177962023Y-39461904D01*
X178009642Y-39557142D01*
X178057261Y-39604761D01*
X178152500Y-39652380D01*
X178533452Y-39652380D01*
X178533452Y-38652380D01*
X178200119Y-38652380D01*
X178104880Y-38700000D01*
X178057261Y-38747619D01*
X178009642Y-38842857D01*
X178009642Y-38938095D01*
X178057261Y-39033333D01*
X178104880Y-39080952D01*
X178200119Y-39128571D01*
X178533452Y-39128571D01*
X176819166Y-39604761D02*
X176676309Y-39652380D01*
X176438214Y-39652380D01*
X176342976Y-39604761D01*
X176295357Y-39557142D01*
X176247738Y-39461904D01*
X176247738Y-39366666D01*
X176295357Y-39271428D01*
X176342976Y-39223809D01*
X176438214Y-39176190D01*
X176628690Y-39128571D01*
X176723928Y-39080952D01*
X176771547Y-39033333D01*
X176819166Y-38938095D01*
X176819166Y-38842857D01*
X176771547Y-38747619D01*
X176723928Y-38700000D01*
X176628690Y-38652380D01*
X176390595Y-38652380D01*
X176247738Y-38700000D01*
X175819166Y-39652380D02*
X175819166Y-38985714D01*
X175819166Y-39080952D02*
X175771547Y-39033333D01*
X175676309Y-38985714D01*
X175533452Y-38985714D01*
X175438214Y-39033333D01*
X175390595Y-39128571D01*
X175390595Y-39652380D01*
X175390595Y-39128571D02*
X175342976Y-39033333D01*
X175247738Y-38985714D01*
X175104880Y-38985714D01*
X175009642Y-39033333D01*
X174962023Y-39128571D01*
X174962023Y-39652380D01*
X174057261Y-39652380D02*
X174057261Y-39128571D01*
X174104880Y-39033333D01*
X174200119Y-38985714D01*
X174390595Y-38985714D01*
X174485833Y-39033333D01*
X174057261Y-39604761D02*
X174152500Y-39652380D01*
X174390595Y-39652380D01*
X174485833Y-39604761D01*
X174533452Y-39509523D01*
X174533452Y-39414285D01*
X174485833Y-39319047D01*
X174390595Y-39271428D01*
X174152500Y-39271428D01*
X174057261Y-39223809D01*
X173438214Y-39652380D02*
X173533452Y-39604761D01*
X173581071Y-39509523D01*
X173581071Y-38652380D01*
X172914404Y-39652380D02*
X173009642Y-39604761D01*
X173057261Y-39509523D01*
X173057261Y-38652380D01*
X172628690Y-38985714D02*
X172390595Y-39652380D01*
X172152500Y-38985714D02*
X172390595Y-39652380D01*
X172485833Y-39890476D01*
X172533452Y-39938095D01*
X172628690Y-39985714D01*
X171771547Y-39652380D02*
X171771547Y-38652380D01*
X171438214Y-39366666D01*
X171104880Y-38652380D01*
X171104880Y-39652380D01*
X170485833Y-39652380D02*
X170581071Y-39604761D01*
X170628690Y-39557142D01*
X170676309Y-39461904D01*
X170676309Y-39176190D01*
X170628690Y-39080952D01*
X170581071Y-39033333D01*
X170485833Y-38985714D01*
X170342976Y-38985714D01*
X170247738Y-39033333D01*
X170200119Y-39080952D01*
X170152500Y-39176190D01*
X170152500Y-39461904D01*
X170200119Y-39557142D01*
X170247738Y-39604761D01*
X170342976Y-39652380D01*
X170485833Y-39652380D01*
X169295357Y-38985714D02*
X169295357Y-39652380D01*
X169723928Y-38985714D02*
X169723928Y-39509523D01*
X169676309Y-39604761D01*
X169581071Y-39652380D01*
X169438214Y-39652380D01*
X169342976Y-39604761D01*
X169295357Y-39557142D01*
X168866785Y-39604761D02*
X168771547Y-39652380D01*
X168581071Y-39652380D01*
X168485833Y-39604761D01*
X168438214Y-39509523D01*
X168438214Y-39461904D01*
X168485833Y-39366666D01*
X168581071Y-39319047D01*
X168723928Y-39319047D01*
X168819166Y-39271428D01*
X168866785Y-39176190D01*
X168866785Y-39128571D01*
X168819166Y-39033333D01*
X168723928Y-38985714D01*
X168581071Y-38985714D01*
X168485833Y-39033333D01*
X167628690Y-39604761D02*
X167723928Y-39652380D01*
X167914404Y-39652380D01*
X168009642Y-39604761D01*
X168057261Y-39509523D01*
X168057261Y-39128571D01*
X168009642Y-39033333D01*
X167914404Y-38985714D01*
X167723928Y-38985714D01*
X167628690Y-39033333D01*
X167581071Y-39128571D01*
X167581071Y-39223809D01*
X168057261Y-39319047D01*
X167200119Y-38747619D02*
X167152500Y-38700000D01*
X167057261Y-38652380D01*
X166819166Y-38652380D01*
X166723928Y-38700000D01*
X166676309Y-38747619D01*
X166628690Y-38842857D01*
X166628690Y-38938095D01*
X166676309Y-39080952D01*
X167247738Y-39652380D01*
X166628690Y-39652380D01*
X165438214Y-39652380D02*
X165438214Y-38985714D01*
X165438214Y-39176190D02*
X165390595Y-39080952D01*
X165342976Y-39033333D01*
X165247738Y-38985714D01*
X165152500Y-38985714D01*
X164438214Y-39604761D02*
X164533452Y-39652380D01*
X164723928Y-39652380D01*
X164819166Y-39604761D01*
X164866785Y-39509523D01*
X164866785Y-39128571D01*
X164819166Y-39033333D01*
X164723928Y-38985714D01*
X164533452Y-38985714D01*
X164438214Y-39033333D01*
X164390595Y-39128571D01*
X164390595Y-39223809D01*
X164866785Y-39319047D01*
X163962023Y-39652380D02*
X163962023Y-38985714D01*
X163962023Y-39080952D02*
X163914404Y-39033333D01*
X163819166Y-38985714D01*
X163676309Y-38985714D01*
X163581071Y-39033333D01*
X163533452Y-39128571D01*
X163533452Y-39652380D01*
X163533452Y-39128571D02*
X163485833Y-39033333D01*
X163390595Y-38985714D01*
X163247738Y-38985714D01*
X163152500Y-39033333D01*
X163104880Y-39128571D01*
X163104880Y-39652380D01*
X162628690Y-39652380D02*
X162628690Y-38985714D01*
X162628690Y-38652380D02*
X162676309Y-38700000D01*
X162628690Y-38747619D01*
X162581071Y-38700000D01*
X162628690Y-38652380D01*
X162628690Y-38747619D01*
X162247738Y-39652380D02*
X161723928Y-38985714D01*
X162247738Y-38985714D02*
X161723928Y-39652380D01*
X187914404Y-41302380D02*
X187914404Y-40302380D01*
X187914404Y-40683333D02*
X187819166Y-40635714D01*
X187628690Y-40635714D01*
X187533452Y-40683333D01*
X187485833Y-40730952D01*
X187438214Y-40826190D01*
X187438214Y-41111904D01*
X187485833Y-41207142D01*
X187533452Y-41254761D01*
X187628690Y-41302380D01*
X187819166Y-41302380D01*
X187914404Y-41254761D01*
X187104880Y-40635714D02*
X186866785Y-41302380D01*
X186628690Y-40635714D02*
X186866785Y-41302380D01*
X186962023Y-41540476D01*
X187009642Y-41588095D01*
X187104880Y-41635714D01*
X184866785Y-40826190D02*
X184914404Y-40778571D01*
X185009642Y-40730952D01*
X185104880Y-40730952D01*
X185200119Y-40778571D01*
X185247738Y-40826190D01*
X185295357Y-40921428D01*
X185295357Y-41016666D01*
X185247738Y-41111904D01*
X185200119Y-41159523D01*
X185104880Y-41207142D01*
X185009642Y-41207142D01*
X184914404Y-41159523D01*
X184866785Y-41111904D01*
X184866785Y-40730952D02*
X184866785Y-41111904D01*
X184819166Y-41159523D01*
X184771547Y-41159523D01*
X184676309Y-41111904D01*
X184628690Y-41016666D01*
X184628690Y-40778571D01*
X184723928Y-40635714D01*
X184866785Y-40540476D01*
X185057261Y-40492857D01*
X185247738Y-40540476D01*
X185390595Y-40635714D01*
X185485833Y-40778571D01*
X185533452Y-40969047D01*
X185485833Y-41159523D01*
X185390595Y-41302380D01*
X185247738Y-41397619D01*
X185057261Y-41445238D01*
X184866785Y-41397619D01*
X184723928Y-41302380D01*
X184200119Y-41302380D02*
X184200119Y-40635714D01*
X184200119Y-40730952D02*
X184152500Y-40683333D01*
X184057261Y-40635714D01*
X183914404Y-40635714D01*
X183819166Y-40683333D01*
X183771547Y-40778571D01*
X183771547Y-41302380D01*
X183771547Y-40778571D02*
X183723928Y-40683333D01*
X183628690Y-40635714D01*
X183485833Y-40635714D01*
X183390595Y-40683333D01*
X183342976Y-40778571D01*
X183342976Y-41302380D01*
X182438214Y-41302380D02*
X182438214Y-40778571D01*
X182485833Y-40683333D01*
X182581071Y-40635714D01*
X182771547Y-40635714D01*
X182866785Y-40683333D01*
X182438214Y-41254761D02*
X182533452Y-41302380D01*
X182771547Y-41302380D01*
X182866785Y-41254761D01*
X182914404Y-41159523D01*
X182914404Y-41064285D01*
X182866785Y-40969047D01*
X182771547Y-40921428D01*
X182533452Y-40921428D01*
X182438214Y-40873809D01*
X181962023Y-41302380D02*
X181962023Y-40635714D01*
X181962023Y-40826190D02*
X181914404Y-40730952D01*
X181866785Y-40683333D01*
X181771547Y-40635714D01*
X181676309Y-40635714D01*
X181342976Y-41302380D02*
X181342976Y-40302380D01*
X181247738Y-40921428D02*
X180962023Y-41302380D01*
X180962023Y-40635714D02*
X181342976Y-41016666D01*
X180533452Y-41302380D02*
X180533452Y-40302380D01*
X180533452Y-40683333D02*
X180438214Y-40635714D01*
X180247738Y-40635714D01*
X180152500Y-40683333D01*
X180104880Y-40730952D01*
X180057261Y-40826190D01*
X180057261Y-41111904D01*
X180104880Y-41207142D01*
X180152500Y-41254761D01*
X180247738Y-41302380D01*
X180438214Y-41302380D01*
X180533452Y-41254761D01*
X179200119Y-41302380D02*
X179200119Y-40778571D01*
X179247738Y-40683333D01*
X179342976Y-40635714D01*
X179533452Y-40635714D01*
X179628690Y-40683333D01*
X179200119Y-41254761D02*
X179295357Y-41302380D01*
X179533452Y-41302380D01*
X179628690Y-41254761D01*
X179676309Y-41159523D01*
X179676309Y-41064285D01*
X179628690Y-40969047D01*
X179533452Y-40921428D01*
X179295357Y-40921428D01*
X179200119Y-40873809D01*
X178771547Y-41254761D02*
X178676309Y-41302380D01*
X178485833Y-41302380D01*
X178390595Y-41254761D01*
X178342976Y-41159523D01*
X178342976Y-41111904D01*
X178390595Y-41016666D01*
X178485833Y-40969047D01*
X178628690Y-40969047D01*
X178723928Y-40921428D01*
X178771547Y-40826190D01*
X178771547Y-40778571D01*
X178723928Y-40683333D01*
X178628690Y-40635714D01*
X178485833Y-40635714D01*
X178390595Y-40683333D01*
X177533452Y-41254761D02*
X177628690Y-41302380D01*
X177819166Y-41302380D01*
X177914404Y-41254761D01*
X177962023Y-41159523D01*
X177962023Y-40778571D01*
X177914404Y-40683333D01*
X177819166Y-40635714D01*
X177628690Y-40635714D01*
X177533452Y-40683333D01*
X177485833Y-40778571D01*
X177485833Y-40873809D01*
X177962023Y-40969047D01*
X176628690Y-40635714D02*
X176628690Y-41445238D01*
X176676309Y-41540476D01*
X176723928Y-41588095D01*
X176819166Y-41635714D01*
X176962023Y-41635714D01*
X177057261Y-41588095D01*
X176628690Y-41254761D02*
X176723928Y-41302380D01*
X176914404Y-41302380D01*
X177009642Y-41254761D01*
X177057261Y-41207142D01*
X177104880Y-41111904D01*
X177104880Y-40826190D01*
X177057261Y-40730952D01*
X177009642Y-40683333D01*
X176914404Y-40635714D01*
X176723928Y-40635714D01*
X176628690Y-40683333D01*
X175723928Y-40635714D02*
X175723928Y-41445238D01*
X175771547Y-41540476D01*
X175819166Y-41588095D01*
X175914404Y-41635714D01*
X176057261Y-41635714D01*
X176152500Y-41588095D01*
X175723928Y-41254761D02*
X175819166Y-41302380D01*
X176009642Y-41302380D01*
X176104880Y-41254761D01*
X176152500Y-41207142D01*
X176200119Y-41111904D01*
X176200119Y-40826190D01*
X176152500Y-40730952D01*
X176104880Y-40683333D01*
X176009642Y-40635714D01*
X175819166Y-40635714D01*
X175723928Y-40683333D01*
X175247738Y-41302380D02*
X175247738Y-40635714D01*
X175247738Y-40302380D02*
X175295357Y-40350000D01*
X175247738Y-40397619D01*
X175200119Y-40350000D01*
X175247738Y-40302380D01*
X175247738Y-40397619D01*
X174628690Y-41302380D02*
X174723928Y-41254761D01*
X174771547Y-41207142D01*
X174819166Y-41111904D01*
X174819166Y-40826190D01*
X174771547Y-40730952D01*
X174723928Y-40683333D01*
X174628690Y-40635714D01*
X174485833Y-40635714D01*
X174390595Y-40683333D01*
X174342976Y-40730952D01*
X174295357Y-40826190D01*
X174295357Y-41111904D01*
X174342976Y-41207142D01*
X174390595Y-41254761D01*
X174485833Y-41302380D01*
X174628690Y-41302380D01*
X187914404Y-44602380D02*
X187914404Y-43602380D01*
X187914404Y-43983333D02*
X187819166Y-43935714D01*
X187628690Y-43935714D01*
X187533452Y-43983333D01*
X187485833Y-44030952D01*
X187438214Y-44126190D01*
X187438214Y-44411904D01*
X187485833Y-44507142D01*
X187533452Y-44554761D01*
X187628690Y-44602380D01*
X187819166Y-44602380D01*
X187914404Y-44554761D01*
X186581071Y-44602380D02*
X186581071Y-44078571D01*
X186628690Y-43983333D01*
X186723928Y-43935714D01*
X186914404Y-43935714D01*
X187009642Y-43983333D01*
X186581071Y-44554761D02*
X186676309Y-44602380D01*
X186914404Y-44602380D01*
X187009642Y-44554761D01*
X187057261Y-44459523D01*
X187057261Y-44364285D01*
X187009642Y-44269047D01*
X186914404Y-44221428D01*
X186676309Y-44221428D01*
X186581071Y-44173809D01*
X186152500Y-44554761D02*
X186057261Y-44602380D01*
X185866785Y-44602380D01*
X185771547Y-44554761D01*
X185723928Y-44459523D01*
X185723928Y-44411904D01*
X185771547Y-44316666D01*
X185866785Y-44269047D01*
X186009642Y-44269047D01*
X186104880Y-44221428D01*
X186152500Y-44126190D01*
X186152500Y-44078571D01*
X186104880Y-43983333D01*
X186009642Y-43935714D01*
X185866785Y-43935714D01*
X185771547Y-43983333D01*
X184914404Y-44554761D02*
X185009642Y-44602380D01*
X185200119Y-44602380D01*
X185295357Y-44554761D01*
X185342976Y-44459523D01*
X185342976Y-44078571D01*
X185295357Y-43983333D01*
X185200119Y-43935714D01*
X185009642Y-43935714D01*
X184914404Y-43983333D01*
X184866785Y-44078571D01*
X184866785Y-44173809D01*
X185342976Y-44269047D01*
X184009642Y-44602380D02*
X184009642Y-43602380D01*
X184009642Y-44554761D02*
X184104880Y-44602380D01*
X184295357Y-44602380D01*
X184390595Y-44554761D01*
X184438214Y-44507142D01*
X184485833Y-44411904D01*
X184485833Y-44126190D01*
X184438214Y-44030952D01*
X184390595Y-43983333D01*
X184295357Y-43935714D01*
X184104880Y-43935714D01*
X184009642Y-43983333D01*
X182628690Y-44602380D02*
X182723928Y-44554761D01*
X182771547Y-44507142D01*
X182819166Y-44411904D01*
X182819166Y-44126190D01*
X182771547Y-44030952D01*
X182723928Y-43983333D01*
X182628690Y-43935714D01*
X182485833Y-43935714D01*
X182390595Y-43983333D01*
X182342976Y-44030952D01*
X182295357Y-44126190D01*
X182295357Y-44411904D01*
X182342976Y-44507142D01*
X182390595Y-44554761D01*
X182485833Y-44602380D01*
X182628690Y-44602380D01*
X181866785Y-43935714D02*
X181866785Y-44602380D01*
X181866785Y-44030952D02*
X181819166Y-43983333D01*
X181723928Y-43935714D01*
X181581071Y-43935714D01*
X181485833Y-43983333D01*
X181438214Y-44078571D01*
X181438214Y-44602380D01*
X180247738Y-44554761D02*
X180104880Y-44602380D01*
X179866785Y-44602380D01*
X179771547Y-44554761D01*
X179723928Y-44507142D01*
X179676309Y-44411904D01*
X179676309Y-44316666D01*
X179723928Y-44221428D01*
X179771547Y-44173809D01*
X179866785Y-44126190D01*
X180057261Y-44078571D01*
X180152500Y-44030952D01*
X180200119Y-43983333D01*
X180247738Y-43888095D01*
X180247738Y-43792857D01*
X180200119Y-43697619D01*
X180152500Y-43650000D01*
X180057261Y-43602380D01*
X179819166Y-43602380D01*
X179676309Y-43650000D01*
X179247738Y-44602380D02*
X179247738Y-43935714D01*
X179247738Y-44030952D02*
X179200119Y-43983333D01*
X179104880Y-43935714D01*
X178962023Y-43935714D01*
X178866785Y-43983333D01*
X178819166Y-44078571D01*
X178819166Y-44602380D01*
X178819166Y-44078571D02*
X178771547Y-43983333D01*
X178676309Y-43935714D01*
X178533452Y-43935714D01*
X178438214Y-43983333D01*
X178390595Y-44078571D01*
X178390595Y-44602380D01*
X177485833Y-44602380D02*
X177485833Y-44078571D01*
X177533452Y-43983333D01*
X177628690Y-43935714D01*
X177819166Y-43935714D01*
X177914404Y-43983333D01*
X177485833Y-44554761D02*
X177581071Y-44602380D01*
X177819166Y-44602380D01*
X177914404Y-44554761D01*
X177962023Y-44459523D01*
X177962023Y-44364285D01*
X177914404Y-44269047D01*
X177819166Y-44221428D01*
X177581071Y-44221428D01*
X177485833Y-44173809D01*
X176866785Y-44602380D02*
X176962023Y-44554761D01*
X177009642Y-44459523D01*
X177009642Y-43602380D01*
X176342976Y-44602380D02*
X176438214Y-44554761D01*
X176485833Y-44459523D01*
X176485833Y-43602380D01*
X176057261Y-43935714D02*
X175819166Y-44602380D01*
X175581071Y-43935714D02*
X175819166Y-44602380D01*
X175914404Y-44840476D01*
X175962023Y-44888095D01*
X176057261Y-44935714D01*
X175200119Y-44602380D02*
X175200119Y-43602380D01*
X174866785Y-44316666D01*
X174533452Y-43602380D01*
X174533452Y-44602380D01*
X173914404Y-44602380D02*
X174009642Y-44554761D01*
X174057261Y-44507142D01*
X174104880Y-44411904D01*
X174104880Y-44126190D01*
X174057261Y-44030952D01*
X174009642Y-43983333D01*
X173914404Y-43935714D01*
X173771547Y-43935714D01*
X173676309Y-43983333D01*
X173628690Y-44030952D01*
X173581071Y-44126190D01*
X173581071Y-44411904D01*
X173628690Y-44507142D01*
X173676309Y-44554761D01*
X173771547Y-44602380D01*
X173914404Y-44602380D01*
X172723928Y-43935714D02*
X172723928Y-44602380D01*
X173152500Y-43935714D02*
X173152500Y-44459523D01*
X173104880Y-44554761D01*
X173009642Y-44602380D01*
X172866785Y-44602380D01*
X172771547Y-44554761D01*
X172723928Y-44507142D01*
X172295357Y-44554761D02*
X172200119Y-44602380D01*
X172009642Y-44602380D01*
X171914404Y-44554761D01*
X171866785Y-44459523D01*
X171866785Y-44411904D01*
X171914404Y-44316666D01*
X172009642Y-44269047D01*
X172152500Y-44269047D01*
X172247738Y-44221428D01*
X172295357Y-44126190D01*
X172295357Y-44078571D01*
X172247738Y-43983333D01*
X172152500Y-43935714D01*
X172009642Y-43935714D01*
X171914404Y-43983333D01*
X171057261Y-44554761D02*
X171152500Y-44602380D01*
X171342976Y-44602380D01*
X171438214Y-44554761D01*
X171485833Y-44459523D01*
X171485833Y-44078571D01*
X171438214Y-43983333D01*
X171342976Y-43935714D01*
X171152500Y-43935714D01*
X171057261Y-43983333D01*
X171009642Y-44078571D01*
X171009642Y-44173809D01*
X171485833Y-44269047D01*
X170628690Y-43697619D02*
X170581071Y-43650000D01*
X170485833Y-43602380D01*
X170247738Y-43602380D01*
X170152500Y-43650000D01*
X170104880Y-43697619D01*
X170057261Y-43792857D01*
X170057261Y-43888095D01*
X170104880Y-44030952D01*
X170676309Y-44602380D01*
X170057261Y-44602380D01*
X168866785Y-44602380D02*
X168866785Y-43602380D01*
X168866785Y-43983333D02*
X168771547Y-43935714D01*
X168581071Y-43935714D01*
X168485833Y-43983333D01*
X168438214Y-44030952D01*
X168390595Y-44126190D01*
X168390595Y-44411904D01*
X168438214Y-44507142D01*
X168485833Y-44554761D01*
X168581071Y-44602380D01*
X168771547Y-44602380D01*
X168866785Y-44554761D01*
X168057261Y-43935714D02*
X167819166Y-44602380D01*
X167581071Y-43935714D02*
X167819166Y-44602380D01*
X167914404Y-44840476D01*
X167962023Y-44888095D01*
X168057261Y-44935714D01*
X166485833Y-44554761D02*
X166342976Y-44602380D01*
X166104880Y-44602380D01*
X166009642Y-44554761D01*
X165962023Y-44507142D01*
X165914404Y-44411904D01*
X165914404Y-44316666D01*
X165962023Y-44221428D01*
X166009642Y-44173809D01*
X166104880Y-44126190D01*
X166295357Y-44078571D01*
X166390595Y-44030952D01*
X166438214Y-43983333D01*
X166485833Y-43888095D01*
X166485833Y-43792857D01*
X166438214Y-43697619D01*
X166390595Y-43650000D01*
X166295357Y-43602380D01*
X166057261Y-43602380D01*
X165914404Y-43650000D01*
X165485833Y-44602380D02*
X165485833Y-43935714D01*
X165485833Y-43602380D02*
X165533452Y-43650000D01*
X165485833Y-43697619D01*
X165438214Y-43650000D01*
X165485833Y-43602380D01*
X165485833Y-43697619D01*
X165009642Y-44602380D02*
X165009642Y-43935714D01*
X165009642Y-44030952D02*
X164962023Y-43983333D01*
X164866785Y-43935714D01*
X164723928Y-43935714D01*
X164628690Y-43983333D01*
X164581071Y-44078571D01*
X164581071Y-44602380D01*
X164581071Y-44078571D02*
X164533452Y-43983333D01*
X164438214Y-43935714D01*
X164295357Y-43935714D01*
X164200119Y-43983333D01*
X164152500Y-44078571D01*
X164152500Y-44602380D01*
X163533452Y-44602380D02*
X163628690Y-44554761D01*
X163676309Y-44507142D01*
X163723928Y-44411904D01*
X163723928Y-44126190D01*
X163676309Y-44030952D01*
X163628690Y-43983333D01*
X163533452Y-43935714D01*
X163390595Y-43935714D01*
X163295357Y-43983333D01*
X163247738Y-44030952D01*
X163200119Y-44126190D01*
X163200119Y-44411904D01*
X163247738Y-44507142D01*
X163295357Y-44554761D01*
X163390595Y-44602380D01*
X163533452Y-44602380D01*
X162771547Y-43935714D02*
X162771547Y-44602380D01*
X162771547Y-44030952D02*
X162723928Y-43983333D01*
X162628690Y-43935714D01*
X162485833Y-43935714D01*
X162390595Y-43983333D01*
X162342976Y-44078571D01*
X162342976Y-44602380D01*
X161104880Y-44602380D02*
X161104880Y-43602380D01*
X160628690Y-43935714D02*
X160628690Y-44602380D01*
X160628690Y-44030952D02*
X160581071Y-43983333D01*
X160485833Y-43935714D01*
X160342976Y-43935714D01*
X160247738Y-43983333D01*
X160200119Y-44078571D01*
X160200119Y-44602380D01*
X159723928Y-43935714D02*
X159723928Y-44602380D01*
X159723928Y-44030952D02*
X159676309Y-43983333D01*
X159581071Y-43935714D01*
X159438214Y-43935714D01*
X159342976Y-43983333D01*
X159295357Y-44078571D01*
X159295357Y-44602380D01*
X158866785Y-44554761D02*
X158771547Y-44602380D01*
X158581071Y-44602380D01*
X158485833Y-44554761D01*
X158438214Y-44459523D01*
X158438214Y-44411904D01*
X158485833Y-44316666D01*
X158581071Y-44269047D01*
X158723928Y-44269047D01*
X158819166Y-44221428D01*
X158866785Y-44126190D01*
X158866785Y-44078571D01*
X158819166Y-43983333D01*
X158723928Y-43935714D01*
X158581071Y-43935714D01*
X158485833Y-43983333D01*
X187485833Y-45585714D02*
X187485833Y-46395238D01*
X187533452Y-46490476D01*
X187581071Y-46538095D01*
X187676309Y-46585714D01*
X187819166Y-46585714D01*
X187914404Y-46538095D01*
X187485833Y-46204761D02*
X187581071Y-46252380D01*
X187771547Y-46252380D01*
X187866785Y-46204761D01*
X187914404Y-46157142D01*
X187962023Y-46061904D01*
X187962023Y-45776190D01*
X187914404Y-45680952D01*
X187866785Y-45633333D01*
X187771547Y-45585714D01*
X187581071Y-45585714D01*
X187485833Y-45633333D01*
X187009642Y-46252380D02*
X187009642Y-45585714D01*
X187009642Y-45252380D02*
X187057261Y-45300000D01*
X187009642Y-45347619D01*
X186962023Y-45300000D01*
X187009642Y-45252380D01*
X187009642Y-45347619D01*
X186676309Y-45585714D02*
X186295357Y-45585714D01*
X186533452Y-45252380D02*
X186533452Y-46109523D01*
X186485833Y-46204761D01*
X186390595Y-46252380D01*
X186295357Y-46252380D01*
X185962023Y-46252380D02*
X185962023Y-45252380D01*
X185533452Y-46252380D02*
X185533452Y-45728571D01*
X185581071Y-45633333D01*
X185676309Y-45585714D01*
X185819166Y-45585714D01*
X185914404Y-45633333D01*
X185962023Y-45680952D01*
X184628690Y-45585714D02*
X184628690Y-46252380D01*
X185057261Y-45585714D02*
X185057261Y-46109523D01*
X185009642Y-46204761D01*
X184914404Y-46252380D01*
X184771547Y-46252380D01*
X184676309Y-46204761D01*
X184628690Y-46157142D01*
X184152500Y-46252380D02*
X184152500Y-45252380D01*
X184152500Y-45633333D02*
X184057261Y-45585714D01*
X183866785Y-45585714D01*
X183771547Y-45633333D01*
X183723928Y-45680952D01*
X183676309Y-45776190D01*
X183676309Y-46061904D01*
X183723928Y-46157142D01*
X183771547Y-46204761D01*
X183866785Y-46252380D01*
X184057261Y-46252380D01*
X184152500Y-46204761D01*
X183247738Y-46157142D02*
X183200119Y-46204761D01*
X183247738Y-46252380D01*
X183295357Y-46204761D01*
X183247738Y-46157142D01*
X183247738Y-46252380D01*
X182342976Y-46204761D02*
X182438214Y-46252380D01*
X182628690Y-46252380D01*
X182723928Y-46204761D01*
X182771547Y-46157142D01*
X182819166Y-46061904D01*
X182819166Y-45776190D01*
X182771547Y-45680952D01*
X182723928Y-45633333D01*
X182628690Y-45585714D01*
X182438214Y-45585714D01*
X182342976Y-45633333D01*
X181771547Y-46252380D02*
X181866785Y-46204761D01*
X181914404Y-46157142D01*
X181962023Y-46061904D01*
X181962023Y-45776190D01*
X181914404Y-45680952D01*
X181866785Y-45633333D01*
X181771547Y-45585714D01*
X181628690Y-45585714D01*
X181533452Y-45633333D01*
X181485833Y-45680952D01*
X181438214Y-45776190D01*
X181438214Y-46061904D01*
X181485833Y-46157142D01*
X181533452Y-46204761D01*
X181628690Y-46252380D01*
X181771547Y-46252380D01*
X181009642Y-46252380D02*
X181009642Y-45585714D01*
X181009642Y-45680952D02*
X180962023Y-45633333D01*
X180866785Y-45585714D01*
X180723928Y-45585714D01*
X180628690Y-45633333D01*
X180581071Y-45728571D01*
X180581071Y-46252380D01*
X180581071Y-45728571D02*
X180533452Y-45633333D01*
X180438214Y-45585714D01*
X180295357Y-45585714D01*
X180200119Y-45633333D01*
X180152500Y-45728571D01*
X180152500Y-46252380D01*
X178962023Y-45204761D02*
X179819166Y-46490476D01*
X178628690Y-46252380D02*
X178628690Y-45252380D01*
X178628690Y-45633333D02*
X178533452Y-45585714D01*
X178342976Y-45585714D01*
X178247738Y-45633333D01*
X178200119Y-45680952D01*
X178152500Y-45776190D01*
X178152500Y-46061904D01*
X178200119Y-46157142D01*
X178247738Y-46204761D01*
X178342976Y-46252380D01*
X178533452Y-46252380D01*
X178628690Y-46204761D01*
X177581071Y-46252380D02*
X177676309Y-46204761D01*
X177723928Y-46109523D01*
X177723928Y-45252380D01*
X176771547Y-46252380D02*
X176771547Y-45728571D01*
X176819166Y-45633333D01*
X176914404Y-45585714D01*
X177104880Y-45585714D01*
X177200119Y-45633333D01*
X176771547Y-46204761D02*
X176866785Y-46252380D01*
X177104880Y-46252380D01*
X177200119Y-46204761D01*
X177247738Y-46109523D01*
X177247738Y-46014285D01*
X177200119Y-45919047D01*
X177104880Y-45871428D01*
X176866785Y-45871428D01*
X176771547Y-45823809D01*
X176295357Y-46252380D02*
X176295357Y-45585714D01*
X176295357Y-45776190D02*
X176247738Y-45680952D01*
X176200119Y-45633333D01*
X176104880Y-45585714D01*
X176009642Y-45585714D01*
X175676309Y-46252380D02*
X175676309Y-45252380D01*
X175581071Y-45871428D02*
X175295357Y-46252380D01*
X175295357Y-45585714D02*
X175676309Y-45966666D01*
X174152500Y-45204761D02*
X175009642Y-46490476D01*
X173866785Y-46204761D02*
X173723928Y-46252380D01*
X173485833Y-46252380D01*
X173390595Y-46204761D01*
X173342976Y-46157142D01*
X173295357Y-46061904D01*
X173295357Y-45966666D01*
X173342976Y-45871428D01*
X173390595Y-45823809D01*
X173485833Y-45776190D01*
X173676309Y-45728571D01*
X173771547Y-45680952D01*
X173819166Y-45633333D01*
X173866785Y-45538095D01*
X173866785Y-45442857D01*
X173819166Y-45347619D01*
X173771547Y-45300000D01*
X173676309Y-45252380D01*
X173438214Y-45252380D01*
X173295357Y-45300000D01*
X172866785Y-46252380D02*
X172866785Y-45585714D01*
X172866785Y-45680952D02*
X172819166Y-45633333D01*
X172723928Y-45585714D01*
X172581071Y-45585714D01*
X172485833Y-45633333D01*
X172438214Y-45728571D01*
X172438214Y-46252380D01*
X172438214Y-45728571D02*
X172390595Y-45633333D01*
X172295357Y-45585714D01*
X172152500Y-45585714D01*
X172057261Y-45633333D01*
X172009642Y-45728571D01*
X172009642Y-46252380D01*
X171104880Y-46252380D02*
X171104880Y-45728571D01*
X171152500Y-45633333D01*
X171247738Y-45585714D01*
X171438214Y-45585714D01*
X171533452Y-45633333D01*
X171104880Y-46204761D02*
X171200119Y-46252380D01*
X171438214Y-46252380D01*
X171533452Y-46204761D01*
X171581071Y-46109523D01*
X171581071Y-46014285D01*
X171533452Y-45919047D01*
X171438214Y-45871428D01*
X171200119Y-45871428D01*
X171104880Y-45823809D01*
X170485833Y-46252380D02*
X170581071Y-46204761D01*
X170628690Y-46109523D01*
X170628690Y-45252380D01*
X169962023Y-46252380D02*
X170057261Y-46204761D01*
X170104880Y-46109523D01*
X170104880Y-45252380D01*
X169676309Y-45585714D02*
X169438214Y-46252380D01*
X169200119Y-45585714D02*
X169438214Y-46252380D01*
X169533452Y-46490476D01*
X169581071Y-46538095D01*
X169676309Y-46585714D01*
X168819166Y-46252380D02*
X168819166Y-45252380D01*
X168485833Y-45966666D01*
X168152500Y-45252380D01*
X168152500Y-46252380D01*
X167533452Y-46252380D02*
X167628690Y-46204761D01*
X167676309Y-46157142D01*
X167723928Y-46061904D01*
X167723928Y-45776190D01*
X167676309Y-45680952D01*
X167628690Y-45633333D01*
X167533452Y-45585714D01*
X167390595Y-45585714D01*
X167295357Y-45633333D01*
X167247738Y-45680952D01*
X167200119Y-45776190D01*
X167200119Y-46061904D01*
X167247738Y-46157142D01*
X167295357Y-46204761D01*
X167390595Y-46252380D01*
X167533452Y-46252380D01*
X166342976Y-45585714D02*
X166342976Y-46252380D01*
X166771547Y-45585714D02*
X166771547Y-46109523D01*
X166723928Y-46204761D01*
X166628690Y-46252380D01*
X166485833Y-46252380D01*
X166390595Y-46204761D01*
X166342976Y-46157142D01*
X165914404Y-46204761D02*
X165819166Y-46252380D01*
X165628690Y-46252380D01*
X165533452Y-46204761D01*
X165485833Y-46109523D01*
X165485833Y-46061904D01*
X165533452Y-45966666D01*
X165628690Y-45919047D01*
X165771547Y-45919047D01*
X165866785Y-45871428D01*
X165914404Y-45776190D01*
X165914404Y-45728571D01*
X165866785Y-45633333D01*
X165771547Y-45585714D01*
X165628690Y-45585714D01*
X165533452Y-45633333D01*
X164676309Y-46204761D02*
X164771547Y-46252380D01*
X164962023Y-46252380D01*
X165057261Y-46204761D01*
X165104880Y-46109523D01*
X165104880Y-45728571D01*
X165057261Y-45633333D01*
X164962023Y-45585714D01*
X164771547Y-45585714D01*
X164676309Y-45633333D01*
X164628690Y-45728571D01*
X164628690Y-45823809D01*
X165104880Y-45919047D01*
X164247738Y-45347619D02*
X164200119Y-45300000D01*
X164104880Y-45252380D01*
X163866785Y-45252380D01*
X163771547Y-45300000D01*
X163723928Y-45347619D01*
X163676309Y-45442857D01*
X163676309Y-45538095D01*
X163723928Y-45680952D01*
X164295357Y-46252380D01*
X163676309Y-46252380D01*
X125650000Y-47650000D02*
X108550000Y-47650000D01*
X125171428Y-47002380D02*
X125171428Y-46478571D01*
X125219047Y-46383333D01*
X125314285Y-46335714D01*
X125504761Y-46335714D01*
X125600000Y-46383333D01*
X125171428Y-46954761D02*
X125266666Y-47002380D01*
X125504761Y-47002380D01*
X125600000Y-46954761D01*
X125647619Y-46859523D01*
X125647619Y-46764285D01*
X125600000Y-46669047D01*
X125504761Y-46621428D01*
X125266666Y-46621428D01*
X125171428Y-46573809D01*
X124171428Y-47002380D02*
X124742857Y-47002380D01*
X124457142Y-47002380D02*
X124457142Y-46002380D01*
X124552380Y-46145238D01*
X124647619Y-46240476D01*
X124742857Y-46288095D01*
X123790476Y-46097619D02*
X123742857Y-46050000D01*
X123647619Y-46002380D01*
X123409523Y-46002380D01*
X123314285Y-46050000D01*
X123266666Y-46097619D01*
X123219047Y-46192857D01*
X123219047Y-46288095D01*
X123266666Y-46430952D01*
X123838095Y-47002380D01*
X123219047Y-47002380D01*
X122600000Y-46002380D02*
X122504761Y-46002380D01*
X122409523Y-46050000D01*
X122361904Y-46097619D01*
X122314285Y-46192857D01*
X122266666Y-46383333D01*
X122266666Y-46621428D01*
X122314285Y-46811904D01*
X122361904Y-46907142D01*
X122409523Y-46954761D01*
X122504761Y-47002380D01*
X122600000Y-47002380D01*
X122695238Y-46954761D01*
X122742857Y-46907142D01*
X122790476Y-46811904D01*
X122838095Y-46621428D01*
X122838095Y-46383333D01*
X122790476Y-46192857D01*
X122742857Y-46097619D01*
X122695238Y-46050000D01*
X122600000Y-46002380D01*
X121647619Y-46002380D02*
X121552380Y-46002380D01*
X121457142Y-46050000D01*
X121409523Y-46097619D01*
X121361904Y-46192857D01*
X121314285Y-46383333D01*
X121314285Y-46621428D01*
X121361904Y-46811904D01*
X121409523Y-46907142D01*
X121457142Y-46954761D01*
X121552380Y-47002380D01*
X121647619Y-47002380D01*
X121742857Y-46954761D01*
X121790476Y-46907142D01*
X121838095Y-46811904D01*
X121885714Y-46621428D01*
X121885714Y-46383333D01*
X121838095Y-46192857D01*
X121790476Y-46097619D01*
X121742857Y-46050000D01*
X121647619Y-46002380D01*
X120123809Y-46335714D02*
X120123809Y-47335714D01*
X120123809Y-46383333D02*
X120028571Y-46335714D01*
X119838095Y-46335714D01*
X119742857Y-46383333D01*
X119695238Y-46430952D01*
X119647619Y-46526190D01*
X119647619Y-46811904D01*
X119695238Y-46907142D01*
X119742857Y-46954761D01*
X119838095Y-47002380D01*
X120028571Y-47002380D01*
X120123809Y-46954761D01*
X119314285Y-46335714D02*
X119123809Y-47002380D01*
X118933333Y-46526190D01*
X118742857Y-47002380D01*
X118552380Y-46335714D01*
X118171428Y-47002380D02*
X118171428Y-46335714D01*
X118171428Y-46526190D02*
X118123809Y-46430952D01*
X118076190Y-46383333D01*
X117980952Y-46335714D01*
X117885714Y-46335714D01*
X116790476Y-47002380D02*
X116790476Y-46335714D01*
X116790476Y-46430952D02*
X116742857Y-46383333D01*
X116647619Y-46335714D01*
X116504761Y-46335714D01*
X116409523Y-46383333D01*
X116361904Y-46478571D01*
X116361904Y-47002380D01*
X116361904Y-46478571D02*
X116314285Y-46383333D01*
X116219047Y-46335714D01*
X116076190Y-46335714D01*
X115980952Y-46383333D01*
X115933333Y-46478571D01*
X115933333Y-47002380D01*
X115028571Y-47002380D02*
X115028571Y-46478571D01*
X115076190Y-46383333D01*
X115171428Y-46335714D01*
X115361904Y-46335714D01*
X115457142Y-46383333D01*
X115028571Y-46954761D02*
X115123809Y-47002380D01*
X115361904Y-47002380D01*
X115457142Y-46954761D01*
X115504761Y-46859523D01*
X115504761Y-46764285D01*
X115457142Y-46669047D01*
X115361904Y-46621428D01*
X115123809Y-46621428D01*
X115028571Y-46573809D01*
X114647619Y-47002380D02*
X114123809Y-46335714D01*
X114647619Y-46335714D02*
X114123809Y-47002380D01*
X112504761Y-46002380D02*
X112980952Y-46002380D01*
X113028571Y-46478571D01*
X112980952Y-46430952D01*
X112885714Y-46383333D01*
X112647619Y-46383333D01*
X112552380Y-46430952D01*
X112504761Y-46478571D01*
X112457142Y-46573809D01*
X112457142Y-46811904D01*
X112504761Y-46907142D01*
X112552380Y-46954761D01*
X112647619Y-47002380D01*
X112885714Y-47002380D01*
X112980952Y-46954761D01*
X113028571Y-46907142D01*
X111838095Y-46002380D02*
X111742857Y-46002380D01*
X111647619Y-46050000D01*
X111600000Y-46097619D01*
X111552380Y-46192857D01*
X111504761Y-46383333D01*
X111504761Y-46621428D01*
X111552380Y-46811904D01*
X111600000Y-46907142D01*
X111647619Y-46954761D01*
X111742857Y-47002380D01*
X111838095Y-47002380D01*
X111933333Y-46954761D01*
X111980952Y-46907142D01*
X112028571Y-46811904D01*
X112076190Y-46621428D01*
X112076190Y-46383333D01*
X112028571Y-46192857D01*
X111980952Y-46097619D01*
X111933333Y-46050000D01*
X111838095Y-46002380D01*
X110314285Y-47002380D02*
X110314285Y-46335714D01*
X110314285Y-46430952D02*
X110266666Y-46383333D01*
X110171428Y-46335714D01*
X110028571Y-46335714D01*
X109933333Y-46383333D01*
X109885714Y-46478571D01*
X109885714Y-47002380D01*
X109885714Y-46478571D02*
X109838095Y-46383333D01*
X109742857Y-46335714D01*
X109600000Y-46335714D01*
X109504761Y-46383333D01*
X109457142Y-46478571D01*
X109457142Y-47002380D01*
X109028571Y-46716666D02*
X108552380Y-46716666D01*
X109123809Y-47002380D02*
X108790476Y-46002380D01*
X108457142Y-47002380D01*
X106050000Y-53150000D02*
X106100000Y-53150000D01*
X106450000Y-53150000D02*
X106050000Y-53150000D01*
X106450000Y-56600000D02*
X106450000Y-53150000D01*
X100400000Y-56600000D02*
X106450000Y-56600000D01*
X100400000Y-53150000D02*
X100400000Y-56600000D01*
X106100000Y-53150000D02*
X100400000Y-53150000D01*
X106150000Y-53100000D02*
X106900000Y-52750000D01*
X105850000Y-52200000D02*
X106150000Y-53100000D01*
X106150000Y-53100000D02*
X105850000Y-52200000D01*
X107550000Y-49650000D02*
X106150000Y-53100000D01*
X125542738Y-49527380D02*
X125637976Y-49479761D01*
X125685595Y-49432142D01*
X125733214Y-49336904D01*
X125733214Y-49051190D01*
X125685595Y-48955952D01*
X125637976Y-48908333D01*
X125542738Y-48860714D01*
X125399880Y-48860714D01*
X125304642Y-48908333D01*
X125257023Y-48955952D01*
X125209404Y-49051190D01*
X125209404Y-49336904D01*
X125257023Y-49432142D01*
X125304642Y-49479761D01*
X125399880Y-49527380D01*
X125542738Y-49527380D01*
X124780833Y-48860714D02*
X124780833Y-49860714D01*
X124780833Y-48908333D02*
X124685595Y-48860714D01*
X124495119Y-48860714D01*
X124399880Y-48908333D01*
X124352261Y-48955952D01*
X124304642Y-49051190D01*
X124304642Y-49336904D01*
X124352261Y-49432142D01*
X124399880Y-49479761D01*
X124495119Y-49527380D01*
X124685595Y-49527380D01*
X124780833Y-49479761D01*
X123495119Y-49479761D02*
X123590357Y-49527380D01*
X123780833Y-49527380D01*
X123876071Y-49479761D01*
X123923690Y-49384523D01*
X123923690Y-49003571D01*
X123876071Y-48908333D01*
X123780833Y-48860714D01*
X123590357Y-48860714D01*
X123495119Y-48908333D01*
X123447500Y-49003571D01*
X123447500Y-49098809D01*
X123923690Y-49194047D01*
X123018928Y-48860714D02*
X123018928Y-49527380D01*
X123018928Y-48955952D02*
X122971309Y-48908333D01*
X122876071Y-48860714D01*
X122733214Y-48860714D01*
X122637976Y-48908333D01*
X122590357Y-49003571D01*
X122590357Y-49527380D01*
X121352261Y-49003571D02*
X120590357Y-49003571D01*
X120590357Y-49289285D02*
X121352261Y-49289285D01*
X118971309Y-49479761D02*
X119066547Y-49527380D01*
X119257023Y-49527380D01*
X119352261Y-49479761D01*
X119399880Y-49384523D01*
X119399880Y-49003571D01*
X119352261Y-48908333D01*
X119257023Y-48860714D01*
X119066547Y-48860714D01*
X118971309Y-48908333D01*
X118923690Y-49003571D01*
X118923690Y-49098809D01*
X119399880Y-49194047D01*
X118590357Y-49527380D02*
X118066547Y-48860714D01*
X118590357Y-48860714D02*
X118066547Y-49527380D01*
X117828452Y-48860714D02*
X117447500Y-48860714D01*
X117685595Y-48527380D02*
X117685595Y-49384523D01*
X117637976Y-49479761D01*
X117542738Y-49527380D01*
X117447500Y-49527380D01*
X116733214Y-49479761D02*
X116828452Y-49527380D01*
X117018928Y-49527380D01*
X117114166Y-49479761D01*
X117161785Y-49384523D01*
X117161785Y-49003571D01*
X117114166Y-48908333D01*
X117018928Y-48860714D01*
X116828452Y-48860714D01*
X116733214Y-48908333D01*
X116685595Y-49003571D01*
X116685595Y-49098809D01*
X117161785Y-49194047D01*
X116257023Y-49527380D02*
X116257023Y-48860714D01*
X116257023Y-49051190D02*
X116209404Y-48955952D01*
X116161785Y-48908333D01*
X116066547Y-48860714D01*
X115971309Y-48860714D01*
X115637976Y-48860714D02*
X115637976Y-49527380D01*
X115637976Y-48955952D02*
X115590357Y-48908333D01*
X115495119Y-48860714D01*
X115352261Y-48860714D01*
X115257023Y-48908333D01*
X115209404Y-49003571D01*
X115209404Y-49527380D01*
X114304642Y-49527380D02*
X114304642Y-49003571D01*
X114352261Y-48908333D01*
X114447500Y-48860714D01*
X114637976Y-48860714D01*
X114733214Y-48908333D01*
X114304642Y-49479761D02*
X114399880Y-49527380D01*
X114637976Y-49527380D01*
X114733214Y-49479761D01*
X114780833Y-49384523D01*
X114780833Y-49289285D01*
X114733214Y-49194047D01*
X114637976Y-49146428D01*
X114399880Y-49146428D01*
X114304642Y-49098809D01*
X113685595Y-49527380D02*
X113780833Y-49479761D01*
X113828452Y-49384523D01*
X113828452Y-48527380D01*
X112542738Y-48860714D02*
X112542738Y-49860714D01*
X112542738Y-48908333D02*
X112447500Y-48860714D01*
X112257023Y-48860714D01*
X112161785Y-48908333D01*
X112114166Y-48955952D01*
X112066547Y-49051190D01*
X112066547Y-49336904D01*
X112114166Y-49432142D01*
X112161785Y-49479761D01*
X112257023Y-49527380D01*
X112447500Y-49527380D01*
X112542738Y-49479761D01*
X111495119Y-49527380D02*
X111590357Y-49479761D01*
X111637976Y-49432142D01*
X111685595Y-49336904D01*
X111685595Y-49051190D01*
X111637976Y-48955952D01*
X111590357Y-48908333D01*
X111495119Y-48860714D01*
X111352261Y-48860714D01*
X111257023Y-48908333D01*
X111209404Y-48955952D01*
X111161785Y-49051190D01*
X111161785Y-49336904D01*
X111209404Y-49432142D01*
X111257023Y-49479761D01*
X111352261Y-49527380D01*
X111495119Y-49527380D01*
X110828452Y-48860714D02*
X110637976Y-49527380D01*
X110447500Y-49051190D01*
X110257023Y-49527380D01*
X110066547Y-48860714D01*
X109304642Y-49479761D02*
X109399880Y-49527380D01*
X109590357Y-49527380D01*
X109685595Y-49479761D01*
X109733214Y-49384523D01*
X109733214Y-49003571D01*
X109685595Y-48908333D01*
X109590357Y-48860714D01*
X109399880Y-48860714D01*
X109304642Y-48908333D01*
X109257023Y-49003571D01*
X109257023Y-49098809D01*
X109733214Y-49194047D01*
X108828452Y-49527380D02*
X108828452Y-48860714D01*
X108828452Y-49051190D02*
X108780833Y-48955952D01*
X108733214Y-48908333D01*
X108637976Y-48860714D01*
X108542738Y-48860714D01*
X125018928Y-51129761D02*
X125114166Y-51177380D01*
X125304642Y-51177380D01*
X125399880Y-51129761D01*
X125447500Y-51082142D01*
X125495119Y-50986904D01*
X125495119Y-50701190D01*
X125447500Y-50605952D01*
X125399880Y-50558333D01*
X125304642Y-50510714D01*
X125114166Y-50510714D01*
X125018928Y-50558333D01*
X124447500Y-51177380D02*
X124542738Y-51129761D01*
X124590357Y-51034523D01*
X124590357Y-50177380D01*
X123923690Y-51177380D02*
X124018928Y-51129761D01*
X124066547Y-51082142D01*
X124114166Y-50986904D01*
X124114166Y-50701190D01*
X124066547Y-50605952D01*
X124018928Y-50558333D01*
X123923690Y-50510714D01*
X123780833Y-50510714D01*
X123685595Y-50558333D01*
X123637976Y-50605952D01*
X123590357Y-50701190D01*
X123590357Y-50986904D01*
X123637976Y-51082142D01*
X123685595Y-51129761D01*
X123780833Y-51177380D01*
X123923690Y-51177380D01*
X123209404Y-51129761D02*
X123114166Y-51177380D01*
X122923690Y-51177380D01*
X122828452Y-51129761D01*
X122780833Y-51034523D01*
X122780833Y-50986904D01*
X122828452Y-50891666D01*
X122923690Y-50844047D01*
X123066547Y-50844047D01*
X123161785Y-50796428D01*
X123209404Y-50701190D01*
X123209404Y-50653571D01*
X123161785Y-50558333D01*
X123066547Y-50510714D01*
X122923690Y-50510714D01*
X122828452Y-50558333D01*
X121971309Y-51129761D02*
X122066547Y-51177380D01*
X122257023Y-51177380D01*
X122352261Y-51129761D01*
X122399880Y-51034523D01*
X122399880Y-50653571D01*
X122352261Y-50558333D01*
X122257023Y-50510714D01*
X122066547Y-50510714D01*
X121971309Y-50558333D01*
X121923690Y-50653571D01*
X121923690Y-50748809D01*
X122399880Y-50844047D01*
X121066547Y-51177380D02*
X121066547Y-50177380D01*
X121066547Y-51129761D02*
X121161785Y-51177380D01*
X121352261Y-51177380D01*
X121447500Y-51129761D01*
X121495119Y-51082142D01*
X121542738Y-50986904D01*
X121542738Y-50701190D01*
X121495119Y-50605952D01*
X121447500Y-50558333D01*
X121352261Y-50510714D01*
X121161785Y-50510714D01*
X121066547Y-50558333D01*
X119828452Y-50653571D02*
X119066547Y-50653571D01*
X119066547Y-50939285D02*
X119828452Y-50939285D01*
X117399880Y-51177380D02*
X117399880Y-50653571D01*
X117447500Y-50558333D01*
X117542738Y-50510714D01*
X117733214Y-50510714D01*
X117828452Y-50558333D01*
X117399880Y-51129761D02*
X117495119Y-51177380D01*
X117733214Y-51177380D01*
X117828452Y-51129761D01*
X117876071Y-51034523D01*
X117876071Y-50939285D01*
X117828452Y-50844047D01*
X117733214Y-50796428D01*
X117495119Y-50796428D01*
X117399880Y-50748809D01*
X116923690Y-51177380D02*
X116923690Y-50510714D01*
X116923690Y-50605952D02*
X116876071Y-50558333D01*
X116780833Y-50510714D01*
X116637976Y-50510714D01*
X116542738Y-50558333D01*
X116495119Y-50653571D01*
X116495119Y-51177380D01*
X116495119Y-50653571D02*
X116447500Y-50558333D01*
X116352261Y-50510714D01*
X116209404Y-50510714D01*
X116114166Y-50558333D01*
X116066547Y-50653571D01*
X116066547Y-51177380D01*
X115590357Y-51177380D02*
X115590357Y-50510714D01*
X115590357Y-50177380D02*
X115637976Y-50225000D01*
X115590357Y-50272619D01*
X115542738Y-50225000D01*
X115590357Y-50177380D01*
X115590357Y-50272619D01*
X114685595Y-50510714D02*
X114685595Y-51320238D01*
X114733214Y-51415476D01*
X114780833Y-51463095D01*
X114876071Y-51510714D01*
X115018928Y-51510714D01*
X115114166Y-51463095D01*
X114685595Y-51129761D02*
X114780833Y-51177380D01*
X114971309Y-51177380D01*
X115066547Y-51129761D01*
X115114166Y-51082142D01*
X115161785Y-50986904D01*
X115161785Y-50701190D01*
X115114166Y-50605952D01*
X115066547Y-50558333D01*
X114971309Y-50510714D01*
X114780833Y-50510714D01*
X114685595Y-50558333D01*
X113780833Y-51177380D02*
X113780833Y-50653571D01*
X113828452Y-50558333D01*
X113923690Y-50510714D01*
X114114166Y-50510714D01*
X114209404Y-50558333D01*
X113780833Y-51129761D02*
X113876071Y-51177380D01*
X114114166Y-51177380D01*
X114209404Y-51129761D01*
X114257023Y-51034523D01*
X114257023Y-50939285D01*
X114209404Y-50844047D01*
X114114166Y-50796428D01*
X113876071Y-50796428D01*
X113780833Y-50748809D01*
X112542738Y-50510714D02*
X112542738Y-51510714D01*
X112542738Y-50558333D02*
X112447500Y-50510714D01*
X112257023Y-50510714D01*
X112161785Y-50558333D01*
X112114166Y-50605952D01*
X112066547Y-50701190D01*
X112066547Y-50986904D01*
X112114166Y-51082142D01*
X112161785Y-51129761D01*
X112257023Y-51177380D01*
X112447500Y-51177380D01*
X112542738Y-51129761D01*
X111495119Y-51177380D02*
X111590357Y-51129761D01*
X111637976Y-51082142D01*
X111685595Y-50986904D01*
X111685595Y-50701190D01*
X111637976Y-50605952D01*
X111590357Y-50558333D01*
X111495119Y-50510714D01*
X111352261Y-50510714D01*
X111257023Y-50558333D01*
X111209404Y-50605952D01*
X111161785Y-50701190D01*
X111161785Y-50986904D01*
X111209404Y-51082142D01*
X111257023Y-51129761D01*
X111352261Y-51177380D01*
X111495119Y-51177380D01*
X110828452Y-50510714D02*
X110637976Y-51177380D01*
X110447500Y-50701190D01*
X110257023Y-51177380D01*
X110066547Y-50510714D01*
X109304642Y-51129761D02*
X109399880Y-51177380D01*
X109590357Y-51177380D01*
X109685595Y-51129761D01*
X109733214Y-51034523D01*
X109733214Y-50653571D01*
X109685595Y-50558333D01*
X109590357Y-50510714D01*
X109399880Y-50510714D01*
X109304642Y-50558333D01*
X109257023Y-50653571D01*
X109257023Y-50748809D01*
X109733214Y-50844047D01*
X108828452Y-51177380D02*
X108828452Y-50510714D01*
X108828452Y-50701190D02*
X108780833Y-50605952D01*
X108733214Y-50558333D01*
X108637976Y-50510714D01*
X108542738Y-50510714D01*
D11*
X107600000Y-56000000D02*
X111450000Y-56000000D01*
X107600000Y-54000000D02*
X111450000Y-54000000D01*
X107600000Y-56000000D02*
X107600000Y-54000000D01*
X103163748Y-51090000D02*
X103686252Y-51090000D01*
X103163748Y-52510000D02*
X103686252Y-52510000D01*
X98236252Y-37260000D02*
X97713748Y-37260000D01*
X98236252Y-35840000D02*
X97713748Y-35840000D01*
X160210000Y-50263748D02*
X160210000Y-50786252D01*
X158790000Y-50263748D02*
X158790000Y-50786252D01*
X185436252Y-54910000D02*
X184913748Y-54910000D01*
X185436252Y-53490000D02*
X184913748Y-53490000D01*
X150286252Y-43060000D02*
X149763748Y-43060000D01*
X150286252Y-41640000D02*
X149763748Y-41640000D01*
X135410000Y-36513748D02*
X135410000Y-37036252D01*
X133990000Y-36513748D02*
X133990000Y-37036252D01*
X141290000Y-31136252D02*
X141290000Y-30613748D01*
X142710000Y-31136252D02*
X142710000Y-30613748D01*
X136261252Y-45310000D02*
X135738748Y-45310000D01*
X136261252Y-43890000D02*
X135738748Y-43890000D01*
X137186252Y-34060000D02*
X136663748Y-34060000D01*
X137186252Y-32640000D02*
X136663748Y-32640000D01*
X153710000Y-50263748D02*
X153710000Y-50786252D01*
X152290000Y-50263748D02*
X152290000Y-50786252D01*
D10*
X110411095Y-57357380D02*
X110411095Y-56357380D01*
X110173000Y-56357380D01*
X110030142Y-56405000D01*
X109934904Y-56500238D01*
X109887285Y-56595476D01*
X109839666Y-56785952D01*
X109839666Y-56928809D01*
X109887285Y-57119285D01*
X109934904Y-57214523D01*
X110030142Y-57309761D01*
X110173000Y-57357380D01*
X110411095Y-57357380D01*
X108887285Y-57357380D02*
X109458714Y-57357380D01*
X109173000Y-57357380D02*
X109173000Y-56357380D01*
X109268238Y-56500238D01*
X109363476Y-56595476D01*
X109458714Y-56643095D01*
X103616666Y-50557142D02*
X103664285Y-50604761D01*
X103807142Y-50652380D01*
X103902380Y-50652380D01*
X104045238Y-50604761D01*
X104140476Y-50509523D01*
X104188095Y-50414285D01*
X104235714Y-50223809D01*
X104235714Y-50080952D01*
X104188095Y-49890476D01*
X104140476Y-49795238D01*
X104045238Y-49700000D01*
X103902380Y-49652380D01*
X103807142Y-49652380D01*
X103664285Y-49700000D01*
X103616666Y-49747619D01*
X103140476Y-50652380D02*
X102950000Y-50652380D01*
X102854761Y-50604761D01*
X102807142Y-50557142D01*
X102711904Y-50414285D01*
X102664285Y-50223809D01*
X102664285Y-49842857D01*
X102711904Y-49747619D01*
X102759523Y-49700000D01*
X102854761Y-49652380D01*
X103045238Y-49652380D01*
X103140476Y-49700000D01*
X103188095Y-49747619D01*
X103235714Y-49842857D01*
X103235714Y-50080952D01*
X103188095Y-50176190D01*
X103140476Y-50223809D01*
X103045238Y-50271428D01*
X102854761Y-50271428D01*
X102759523Y-50223809D01*
X102711904Y-50176190D01*
X102664285Y-50080952D01*
X98617857Y-35257142D02*
X98665476Y-35304761D01*
X98808333Y-35352380D01*
X98903571Y-35352380D01*
X99046428Y-35304761D01*
X99141666Y-35209523D01*
X99189285Y-35114285D01*
X99236904Y-34923809D01*
X99236904Y-34780952D01*
X99189285Y-34590476D01*
X99141666Y-34495238D01*
X99046428Y-34400000D01*
X98903571Y-34352380D01*
X98808333Y-34352380D01*
X98665476Y-34400000D01*
X98617857Y-34447619D01*
X97665476Y-35352380D02*
X98236904Y-35352380D01*
X97951190Y-35352380D02*
X97951190Y-34352380D01*
X98046428Y-34495238D01*
X98141666Y-34590476D01*
X98236904Y-34638095D01*
X97046428Y-34352380D02*
X96951190Y-34352380D01*
X96855952Y-34400000D01*
X96808333Y-34447619D01*
X96760714Y-34542857D01*
X96713095Y-34733333D01*
X96713095Y-34971428D01*
X96760714Y-35161904D01*
X96808333Y-35257142D01*
X96855952Y-35304761D01*
X96951190Y-35352380D01*
X97046428Y-35352380D01*
X97141666Y-35304761D01*
X97189285Y-35257142D01*
X97236904Y-35161904D01*
X97284523Y-34971428D01*
X97284523Y-34733333D01*
X97236904Y-34542857D01*
X97189285Y-34447619D01*
X97141666Y-34400000D01*
X97046428Y-34352380D01*
X161607142Y-50358333D02*
X161654761Y-50310714D01*
X161702380Y-50167857D01*
X161702380Y-50072619D01*
X161654761Y-49929761D01*
X161559523Y-49834523D01*
X161464285Y-49786904D01*
X161273809Y-49739285D01*
X161130952Y-49739285D01*
X160940476Y-49786904D01*
X160845238Y-49834523D01*
X160750000Y-49929761D01*
X160702380Y-50072619D01*
X160702380Y-50167857D01*
X160750000Y-50310714D01*
X160797619Y-50358333D01*
X161702380Y-51310714D02*
X161702380Y-50739285D01*
X161702380Y-51025000D02*
X160702380Y-51025000D01*
X160845238Y-50929761D01*
X160940476Y-50834523D01*
X160988095Y-50739285D01*
X185416666Y-52907142D02*
X185464285Y-52954761D01*
X185607142Y-53002380D01*
X185702380Y-53002380D01*
X185845238Y-52954761D01*
X185940476Y-52859523D01*
X185988095Y-52764285D01*
X186035714Y-52573809D01*
X186035714Y-52430952D01*
X185988095Y-52240476D01*
X185940476Y-52145238D01*
X185845238Y-52050000D01*
X185702380Y-52002380D01*
X185607142Y-52002380D01*
X185464285Y-52050000D01*
X185416666Y-52097619D01*
X184845238Y-52430952D02*
X184940476Y-52383333D01*
X184988095Y-52335714D01*
X185035714Y-52240476D01*
X185035714Y-52192857D01*
X184988095Y-52097619D01*
X184940476Y-52050000D01*
X184845238Y-52002380D01*
X184654761Y-52002380D01*
X184559523Y-52050000D01*
X184511904Y-52097619D01*
X184464285Y-52192857D01*
X184464285Y-52240476D01*
X184511904Y-52335714D01*
X184559523Y-52383333D01*
X184654761Y-52430952D01*
X184845238Y-52430952D01*
X184940476Y-52478571D01*
X184988095Y-52526190D01*
X185035714Y-52621428D01*
X185035714Y-52811904D01*
X184988095Y-52907142D01*
X184940476Y-52954761D01*
X184845238Y-53002380D01*
X184654761Y-53002380D01*
X184559523Y-52954761D01*
X184511904Y-52907142D01*
X184464285Y-52811904D01*
X184464285Y-52621428D01*
X184511904Y-52526190D01*
X184559523Y-52478571D01*
X184654761Y-52430952D01*
X150191666Y-40957142D02*
X150239285Y-41004761D01*
X150382142Y-41052380D01*
X150477380Y-41052380D01*
X150620238Y-41004761D01*
X150715476Y-40909523D01*
X150763095Y-40814285D01*
X150810714Y-40623809D01*
X150810714Y-40480952D01*
X150763095Y-40290476D01*
X150715476Y-40195238D01*
X150620238Y-40100000D01*
X150477380Y-40052380D01*
X150382142Y-40052380D01*
X150239285Y-40100000D01*
X150191666Y-40147619D01*
X149858333Y-40052380D02*
X149191666Y-40052380D01*
X149620238Y-41052380D01*
X133407142Y-36608333D02*
X133454761Y-36560714D01*
X133502380Y-36417857D01*
X133502380Y-36322619D01*
X133454761Y-36179761D01*
X133359523Y-36084523D01*
X133264285Y-36036904D01*
X133073809Y-35989285D01*
X132930952Y-35989285D01*
X132740476Y-36036904D01*
X132645238Y-36084523D01*
X132550000Y-36179761D01*
X132502380Y-36322619D01*
X132502380Y-36417857D01*
X132550000Y-36560714D01*
X132597619Y-36608333D01*
X132502380Y-37465476D02*
X132502380Y-37275000D01*
X132550000Y-37179761D01*
X132597619Y-37132142D01*
X132740476Y-37036904D01*
X132930952Y-36989285D01*
X133311904Y-36989285D01*
X133407142Y-37036904D01*
X133454761Y-37084523D01*
X133502380Y-37179761D01*
X133502380Y-37370238D01*
X133454761Y-37465476D01*
X133407142Y-37513095D01*
X133311904Y-37560714D01*
X133073809Y-37560714D01*
X132978571Y-37513095D01*
X132930952Y-37465476D01*
X132883333Y-37370238D01*
X132883333Y-37179761D01*
X132930952Y-37084523D01*
X132978571Y-37036904D01*
X133073809Y-36989285D01*
X144007142Y-30683333D02*
X144054761Y-30635714D01*
X144102380Y-30492857D01*
X144102380Y-30397619D01*
X144054761Y-30254761D01*
X143959523Y-30159523D01*
X143864285Y-30111904D01*
X143673809Y-30064285D01*
X143530952Y-30064285D01*
X143340476Y-30111904D01*
X143245238Y-30159523D01*
X143150000Y-30254761D01*
X143102380Y-30397619D01*
X143102380Y-30492857D01*
X143150000Y-30635714D01*
X143197619Y-30683333D01*
X143102380Y-31588095D02*
X143102380Y-31111904D01*
X143578571Y-31064285D01*
X143530952Y-31111904D01*
X143483333Y-31207142D01*
X143483333Y-31445238D01*
X143530952Y-31540476D01*
X143578571Y-31588095D01*
X143673809Y-31635714D01*
X143911904Y-31635714D01*
X144007142Y-31588095D01*
X144054761Y-31540476D01*
X144102380Y-31445238D01*
X144102380Y-31207142D01*
X144054761Y-31111904D01*
X144007142Y-31064285D01*
X136166666Y-43307142D02*
X136214285Y-43354761D01*
X136357142Y-43402380D01*
X136452380Y-43402380D01*
X136595238Y-43354761D01*
X136690476Y-43259523D01*
X136738095Y-43164285D01*
X136785714Y-42973809D01*
X136785714Y-42830952D01*
X136738095Y-42640476D01*
X136690476Y-42545238D01*
X136595238Y-42450000D01*
X136452380Y-42402380D01*
X136357142Y-42402380D01*
X136214285Y-42450000D01*
X136166666Y-42497619D01*
X135309523Y-42735714D02*
X135309523Y-43402380D01*
X135547619Y-42354761D02*
X135785714Y-43069047D01*
X135166666Y-43069047D01*
X137091666Y-32057142D02*
X137139285Y-32104761D01*
X137282142Y-32152380D01*
X137377380Y-32152380D01*
X137520238Y-32104761D01*
X137615476Y-32009523D01*
X137663095Y-31914285D01*
X137710714Y-31723809D01*
X137710714Y-31580952D01*
X137663095Y-31390476D01*
X137615476Y-31295238D01*
X137520238Y-31200000D01*
X137377380Y-31152380D01*
X137282142Y-31152380D01*
X137139285Y-31200000D01*
X137091666Y-31247619D01*
X136758333Y-31152380D02*
X136139285Y-31152380D01*
X136472619Y-31533333D01*
X136329761Y-31533333D01*
X136234523Y-31580952D01*
X136186904Y-31628571D01*
X136139285Y-31723809D01*
X136139285Y-31961904D01*
X136186904Y-32057142D01*
X136234523Y-32104761D01*
X136329761Y-32152380D01*
X136615476Y-32152380D01*
X136710714Y-32104761D01*
X136758333Y-32057142D01*
X151607142Y-50333333D02*
X151654761Y-50285714D01*
X151702380Y-50142857D01*
X151702380Y-50047619D01*
X151654761Y-49904761D01*
X151559523Y-49809523D01*
X151464285Y-49761904D01*
X151273809Y-49714285D01*
X151130952Y-49714285D01*
X150940476Y-49761904D01*
X150845238Y-49809523D01*
X150750000Y-49904761D01*
X150702380Y-50047619D01*
X150702380Y-50142857D01*
X150750000Y-50285714D01*
X150797619Y-50333333D01*
X150797619Y-50714285D02*
X150750000Y-50761904D01*
X150702380Y-50857142D01*
X150702380Y-51095238D01*
X150750000Y-51190476D01*
X150797619Y-51238095D01*
X150892857Y-51285714D01*
X150988095Y-51285714D01*
X151130952Y-51238095D01*
X151702380Y-50666666D01*
X151702380Y-51285714D01*
M02*
