G04 #@! TF.GenerationSoftware,KiCad,Pcbnew,(5.1.5)-3*
G04 #@! TF.CreationDate,2020-01-24T21:34:17-05:00*
G04 #@! TF.ProjectId,SmallyMouse2,536d616c-6c79-44d6-9f75-7365322e6b69,2.0*
G04 #@! TF.SameCoordinates,Original*
G04 #@! TF.FileFunction,Soldermask,Bot*
G04 #@! TF.FilePolarity,Negative*
%FSLAX46Y46*%
G04 Gerber Fmt 4.6, Leading zero omitted, Abs format (unit mm)*
G04 Created by KiCad (PCBNEW (5.1.5)-3) date 2020-01-24 21:34:17*
%MOMM*%
%LPD*%
G04 APERTURE LIST*
%ADD10O,1.700000X1.700000*%
%ADD11R,1.700000X1.700000*%
%ADD12C,1.700000*%
%ADD13C,1.600000*%
%ADD14R,1.600000X1.600000*%
%ADD15R,6.400000X6.400000*%
%ADD16C,0.800000*%
%ADD17C,0.150000*%
%ADD18C,3.000000*%
G04 APERTURE END LIST*
D10*
X114000000Y-57540000D03*
X114000000Y-55000000D03*
X116540000Y-57540000D03*
X116540000Y-55000000D03*
X119080000Y-57540000D03*
X119080000Y-55000000D03*
X121620000Y-57540000D03*
X121620000Y-55000000D03*
D11*
X124160000Y-57540000D03*
D12*
X124160000Y-55000000D03*
D10*
X184260000Y-57200000D03*
X181720000Y-57200000D03*
X179180000Y-57200000D03*
X176640000Y-57200000D03*
X174100000Y-57200000D03*
X171560000Y-57200000D03*
X169020000Y-57200000D03*
X166480000Y-57200000D03*
X163940000Y-57200000D03*
D11*
X161400000Y-57200000D03*
D10*
X119180000Y-43790000D03*
D11*
X119180000Y-41250000D03*
D10*
X105600000Y-30480000D03*
D11*
X105600000Y-33020000D03*
D10*
X111560000Y-43790000D03*
D11*
X111560000Y-41250000D03*
D13*
X97000000Y-30500000D03*
D14*
X97000000Y-33000000D03*
D15*
X185500000Y-33000000D03*
D16*
X187900000Y-33000000D03*
X187197056Y-34697056D03*
X185500000Y-35400000D03*
X183802944Y-34697056D03*
X183100000Y-33000000D03*
X183802944Y-31302944D03*
X185500000Y-30600000D03*
X187197056Y-31302944D03*
D17*
G36*
X97299505Y-35851204D02*
G01*
X97323773Y-35854804D01*
X97347572Y-35860765D01*
X97370671Y-35869030D01*
X97392850Y-35879520D01*
X97413893Y-35892132D01*
X97433599Y-35906747D01*
X97451777Y-35923223D01*
X97468253Y-35941401D01*
X97482868Y-35961107D01*
X97495480Y-35982150D01*
X97505970Y-36004329D01*
X97514235Y-36027428D01*
X97520196Y-36051227D01*
X97523796Y-36075495D01*
X97525000Y-36099999D01*
X97525000Y-37000001D01*
X97523796Y-37024505D01*
X97520196Y-37048773D01*
X97514235Y-37072572D01*
X97505970Y-37095671D01*
X97495480Y-37117850D01*
X97482868Y-37138893D01*
X97468253Y-37158599D01*
X97451777Y-37176777D01*
X97433599Y-37193253D01*
X97413893Y-37207868D01*
X97392850Y-37220480D01*
X97370671Y-37230970D01*
X97347572Y-37239235D01*
X97323773Y-37245196D01*
X97299505Y-37248796D01*
X97275001Y-37250000D01*
X96624999Y-37250000D01*
X96600495Y-37248796D01*
X96576227Y-37245196D01*
X96552428Y-37239235D01*
X96529329Y-37230970D01*
X96507150Y-37220480D01*
X96486107Y-37207868D01*
X96466401Y-37193253D01*
X96448223Y-37176777D01*
X96431747Y-37158599D01*
X96417132Y-37138893D01*
X96404520Y-37117850D01*
X96394030Y-37095671D01*
X96385765Y-37072572D01*
X96379804Y-37048773D01*
X96376204Y-37024505D01*
X96375000Y-37000001D01*
X96375000Y-36099999D01*
X96376204Y-36075495D01*
X96379804Y-36051227D01*
X96385765Y-36027428D01*
X96394030Y-36004329D01*
X96404520Y-35982150D01*
X96417132Y-35961107D01*
X96431747Y-35941401D01*
X96448223Y-35923223D01*
X96466401Y-35906747D01*
X96486107Y-35892132D01*
X96507150Y-35879520D01*
X96529329Y-35869030D01*
X96552428Y-35860765D01*
X96576227Y-35854804D01*
X96600495Y-35851204D01*
X96624999Y-35850000D01*
X97275001Y-35850000D01*
X97299505Y-35851204D01*
G37*
G36*
X99349505Y-35851204D02*
G01*
X99373773Y-35854804D01*
X99397572Y-35860765D01*
X99420671Y-35869030D01*
X99442850Y-35879520D01*
X99463893Y-35892132D01*
X99483599Y-35906747D01*
X99501777Y-35923223D01*
X99518253Y-35941401D01*
X99532868Y-35961107D01*
X99545480Y-35982150D01*
X99555970Y-36004329D01*
X99564235Y-36027428D01*
X99570196Y-36051227D01*
X99573796Y-36075495D01*
X99575000Y-36099999D01*
X99575000Y-37000001D01*
X99573796Y-37024505D01*
X99570196Y-37048773D01*
X99564235Y-37072572D01*
X99555970Y-37095671D01*
X99545480Y-37117850D01*
X99532868Y-37138893D01*
X99518253Y-37158599D01*
X99501777Y-37176777D01*
X99483599Y-37193253D01*
X99463893Y-37207868D01*
X99442850Y-37220480D01*
X99420671Y-37230970D01*
X99397572Y-37239235D01*
X99373773Y-37245196D01*
X99349505Y-37248796D01*
X99325001Y-37250000D01*
X98674999Y-37250000D01*
X98650495Y-37248796D01*
X98626227Y-37245196D01*
X98602428Y-37239235D01*
X98579329Y-37230970D01*
X98557150Y-37220480D01*
X98536107Y-37207868D01*
X98516401Y-37193253D01*
X98498223Y-37176777D01*
X98481747Y-37158599D01*
X98467132Y-37138893D01*
X98454520Y-37117850D01*
X98444030Y-37095671D01*
X98435765Y-37072572D01*
X98429804Y-37048773D01*
X98426204Y-37024505D01*
X98425000Y-37000001D01*
X98425000Y-36099999D01*
X98426204Y-36075495D01*
X98429804Y-36051227D01*
X98435765Y-36027428D01*
X98444030Y-36004329D01*
X98454520Y-35982150D01*
X98467132Y-35961107D01*
X98481747Y-35941401D01*
X98498223Y-35923223D01*
X98516401Y-35906747D01*
X98536107Y-35892132D01*
X98557150Y-35879520D01*
X98579329Y-35869030D01*
X98602428Y-35860765D01*
X98626227Y-35854804D01*
X98650495Y-35851204D01*
X98674999Y-35850000D01*
X99325001Y-35850000D01*
X99349505Y-35851204D01*
G37*
D13*
X96000000Y-46500000D03*
X96000000Y-44000000D03*
X96000000Y-42000000D03*
D14*
X96000000Y-39500000D03*
D18*
X93290000Y-36430000D03*
X93290000Y-49570000D03*
D17*
G36*
X109174505Y-42926204D02*
G01*
X109198773Y-42929804D01*
X109222572Y-42935765D01*
X109245671Y-42944030D01*
X109267850Y-42954520D01*
X109288893Y-42967132D01*
X109308599Y-42981747D01*
X109326777Y-42998223D01*
X109343253Y-43016401D01*
X109357868Y-43036107D01*
X109370480Y-43057150D01*
X109380970Y-43079329D01*
X109389235Y-43102428D01*
X109395196Y-43126227D01*
X109398796Y-43150495D01*
X109400000Y-43174999D01*
X109400000Y-43825001D01*
X109398796Y-43849505D01*
X109395196Y-43873773D01*
X109389235Y-43897572D01*
X109380970Y-43920671D01*
X109370480Y-43942850D01*
X109357868Y-43963893D01*
X109343253Y-43983599D01*
X109326777Y-44001777D01*
X109308599Y-44018253D01*
X109288893Y-44032868D01*
X109267850Y-44045480D01*
X109245671Y-44055970D01*
X109222572Y-44064235D01*
X109198773Y-44070196D01*
X109174505Y-44073796D01*
X109150001Y-44075000D01*
X108249999Y-44075000D01*
X108225495Y-44073796D01*
X108201227Y-44070196D01*
X108177428Y-44064235D01*
X108154329Y-44055970D01*
X108132150Y-44045480D01*
X108111107Y-44032868D01*
X108091401Y-44018253D01*
X108073223Y-44001777D01*
X108056747Y-43983599D01*
X108042132Y-43963893D01*
X108029520Y-43942850D01*
X108019030Y-43920671D01*
X108010765Y-43897572D01*
X108004804Y-43873773D01*
X108001204Y-43849505D01*
X108000000Y-43825001D01*
X108000000Y-43174999D01*
X108001204Y-43150495D01*
X108004804Y-43126227D01*
X108010765Y-43102428D01*
X108019030Y-43079329D01*
X108029520Y-43057150D01*
X108042132Y-43036107D01*
X108056747Y-43016401D01*
X108073223Y-42998223D01*
X108091401Y-42981747D01*
X108111107Y-42967132D01*
X108132150Y-42954520D01*
X108154329Y-42944030D01*
X108177428Y-42935765D01*
X108201227Y-42929804D01*
X108225495Y-42926204D01*
X108249999Y-42925000D01*
X109150001Y-42925000D01*
X109174505Y-42926204D01*
G37*
G36*
X109174505Y-40876204D02*
G01*
X109198773Y-40879804D01*
X109222572Y-40885765D01*
X109245671Y-40894030D01*
X109267850Y-40904520D01*
X109288893Y-40917132D01*
X109308599Y-40931747D01*
X109326777Y-40948223D01*
X109343253Y-40966401D01*
X109357868Y-40986107D01*
X109370480Y-41007150D01*
X109380970Y-41029329D01*
X109389235Y-41052428D01*
X109395196Y-41076227D01*
X109398796Y-41100495D01*
X109400000Y-41124999D01*
X109400000Y-41775001D01*
X109398796Y-41799505D01*
X109395196Y-41823773D01*
X109389235Y-41847572D01*
X109380970Y-41870671D01*
X109370480Y-41892850D01*
X109357868Y-41913893D01*
X109343253Y-41933599D01*
X109326777Y-41951777D01*
X109308599Y-41968253D01*
X109288893Y-41982868D01*
X109267850Y-41995480D01*
X109245671Y-42005970D01*
X109222572Y-42014235D01*
X109198773Y-42020196D01*
X109174505Y-42023796D01*
X109150001Y-42025000D01*
X108249999Y-42025000D01*
X108225495Y-42023796D01*
X108201227Y-42020196D01*
X108177428Y-42014235D01*
X108154329Y-42005970D01*
X108132150Y-41995480D01*
X108111107Y-41982868D01*
X108091401Y-41968253D01*
X108073223Y-41951777D01*
X108056747Y-41933599D01*
X108042132Y-41913893D01*
X108029520Y-41892850D01*
X108019030Y-41870671D01*
X108010765Y-41847572D01*
X108004804Y-41823773D01*
X108001204Y-41799505D01*
X108000000Y-41775001D01*
X108000000Y-41124999D01*
X108001204Y-41100495D01*
X108004804Y-41076227D01*
X108010765Y-41052428D01*
X108019030Y-41029329D01*
X108029520Y-41007150D01*
X108042132Y-40986107D01*
X108056747Y-40966401D01*
X108073223Y-40948223D01*
X108091401Y-40931747D01*
X108111107Y-40917132D01*
X108132150Y-40904520D01*
X108154329Y-40894030D01*
X108177428Y-40885765D01*
X108201227Y-40879804D01*
X108225495Y-40876204D01*
X108249999Y-40875000D01*
X109150001Y-40875000D01*
X109174505Y-40876204D01*
G37*
D10*
X124260000Y-30480000D03*
X124260000Y-33020000D03*
X121720000Y-30480000D03*
X121720000Y-33020000D03*
X119180000Y-30480000D03*
X119180000Y-33020000D03*
X116640000Y-30480000D03*
X116640000Y-33020000D03*
X114100000Y-30480000D03*
D11*
X114100000Y-33020000D03*
D10*
X114100000Y-43790000D03*
D11*
X114100000Y-41250000D03*
D17*
G36*
X159974505Y-50976204D02*
G01*
X159998773Y-50979804D01*
X160022572Y-50985765D01*
X160045671Y-50994030D01*
X160067850Y-51004520D01*
X160088893Y-51017132D01*
X160108599Y-51031747D01*
X160126777Y-51048223D01*
X160143253Y-51066401D01*
X160157868Y-51086107D01*
X160170480Y-51107150D01*
X160180970Y-51129329D01*
X160189235Y-51152428D01*
X160195196Y-51176227D01*
X160198796Y-51200495D01*
X160200000Y-51224999D01*
X160200000Y-51875001D01*
X160198796Y-51899505D01*
X160195196Y-51923773D01*
X160189235Y-51947572D01*
X160180970Y-51970671D01*
X160170480Y-51992850D01*
X160157868Y-52013893D01*
X160143253Y-52033599D01*
X160126777Y-52051777D01*
X160108599Y-52068253D01*
X160088893Y-52082868D01*
X160067850Y-52095480D01*
X160045671Y-52105970D01*
X160022572Y-52114235D01*
X159998773Y-52120196D01*
X159974505Y-52123796D01*
X159950001Y-52125000D01*
X159049999Y-52125000D01*
X159025495Y-52123796D01*
X159001227Y-52120196D01*
X158977428Y-52114235D01*
X158954329Y-52105970D01*
X158932150Y-52095480D01*
X158911107Y-52082868D01*
X158891401Y-52068253D01*
X158873223Y-52051777D01*
X158856747Y-52033599D01*
X158842132Y-52013893D01*
X158829520Y-51992850D01*
X158819030Y-51970671D01*
X158810765Y-51947572D01*
X158804804Y-51923773D01*
X158801204Y-51899505D01*
X158800000Y-51875001D01*
X158800000Y-51224999D01*
X158801204Y-51200495D01*
X158804804Y-51176227D01*
X158810765Y-51152428D01*
X158819030Y-51129329D01*
X158829520Y-51107150D01*
X158842132Y-51086107D01*
X158856747Y-51066401D01*
X158873223Y-51048223D01*
X158891401Y-51031747D01*
X158911107Y-51017132D01*
X158932150Y-51004520D01*
X158954329Y-50994030D01*
X158977428Y-50985765D01*
X159001227Y-50979804D01*
X159025495Y-50976204D01*
X159049999Y-50975000D01*
X159950001Y-50975000D01*
X159974505Y-50976204D01*
G37*
G36*
X159974505Y-48926204D02*
G01*
X159998773Y-48929804D01*
X160022572Y-48935765D01*
X160045671Y-48944030D01*
X160067850Y-48954520D01*
X160088893Y-48967132D01*
X160108599Y-48981747D01*
X160126777Y-48998223D01*
X160143253Y-49016401D01*
X160157868Y-49036107D01*
X160170480Y-49057150D01*
X160180970Y-49079329D01*
X160189235Y-49102428D01*
X160195196Y-49126227D01*
X160198796Y-49150495D01*
X160200000Y-49174999D01*
X160200000Y-49825001D01*
X160198796Y-49849505D01*
X160195196Y-49873773D01*
X160189235Y-49897572D01*
X160180970Y-49920671D01*
X160170480Y-49942850D01*
X160157868Y-49963893D01*
X160143253Y-49983599D01*
X160126777Y-50001777D01*
X160108599Y-50018253D01*
X160088893Y-50032868D01*
X160067850Y-50045480D01*
X160045671Y-50055970D01*
X160022572Y-50064235D01*
X159998773Y-50070196D01*
X159974505Y-50073796D01*
X159950001Y-50075000D01*
X159049999Y-50075000D01*
X159025495Y-50073796D01*
X159001227Y-50070196D01*
X158977428Y-50064235D01*
X158954329Y-50055970D01*
X158932150Y-50045480D01*
X158911107Y-50032868D01*
X158891401Y-50018253D01*
X158873223Y-50001777D01*
X158856747Y-49983599D01*
X158842132Y-49963893D01*
X158829520Y-49942850D01*
X158819030Y-49920671D01*
X158810765Y-49897572D01*
X158804804Y-49873773D01*
X158801204Y-49849505D01*
X158800000Y-49825001D01*
X158800000Y-49174999D01*
X158801204Y-49150495D01*
X158804804Y-49126227D01*
X158810765Y-49102428D01*
X158819030Y-49079329D01*
X158829520Y-49057150D01*
X158842132Y-49036107D01*
X158856747Y-49016401D01*
X158873223Y-48998223D01*
X158891401Y-48981747D01*
X158911107Y-48967132D01*
X158932150Y-48954520D01*
X158954329Y-48944030D01*
X158977428Y-48935765D01*
X159001227Y-48929804D01*
X159025495Y-48926204D01*
X159049999Y-48925000D01*
X159950001Y-48925000D01*
X159974505Y-48926204D01*
G37*
G36*
X184499505Y-53501204D02*
G01*
X184523773Y-53504804D01*
X184547572Y-53510765D01*
X184570671Y-53519030D01*
X184592850Y-53529520D01*
X184613893Y-53542132D01*
X184633599Y-53556747D01*
X184651777Y-53573223D01*
X184668253Y-53591401D01*
X184682868Y-53611107D01*
X184695480Y-53632150D01*
X184705970Y-53654329D01*
X184714235Y-53677428D01*
X184720196Y-53701227D01*
X184723796Y-53725495D01*
X184725000Y-53749999D01*
X184725000Y-54650001D01*
X184723796Y-54674505D01*
X184720196Y-54698773D01*
X184714235Y-54722572D01*
X184705970Y-54745671D01*
X184695480Y-54767850D01*
X184682868Y-54788893D01*
X184668253Y-54808599D01*
X184651777Y-54826777D01*
X184633599Y-54843253D01*
X184613893Y-54857868D01*
X184592850Y-54870480D01*
X184570671Y-54880970D01*
X184547572Y-54889235D01*
X184523773Y-54895196D01*
X184499505Y-54898796D01*
X184475001Y-54900000D01*
X183824999Y-54900000D01*
X183800495Y-54898796D01*
X183776227Y-54895196D01*
X183752428Y-54889235D01*
X183729329Y-54880970D01*
X183707150Y-54870480D01*
X183686107Y-54857868D01*
X183666401Y-54843253D01*
X183648223Y-54826777D01*
X183631747Y-54808599D01*
X183617132Y-54788893D01*
X183604520Y-54767850D01*
X183594030Y-54745671D01*
X183585765Y-54722572D01*
X183579804Y-54698773D01*
X183576204Y-54674505D01*
X183575000Y-54650001D01*
X183575000Y-53749999D01*
X183576204Y-53725495D01*
X183579804Y-53701227D01*
X183585765Y-53677428D01*
X183594030Y-53654329D01*
X183604520Y-53632150D01*
X183617132Y-53611107D01*
X183631747Y-53591401D01*
X183648223Y-53573223D01*
X183666401Y-53556747D01*
X183686107Y-53542132D01*
X183707150Y-53529520D01*
X183729329Y-53519030D01*
X183752428Y-53510765D01*
X183776227Y-53504804D01*
X183800495Y-53501204D01*
X183824999Y-53500000D01*
X184475001Y-53500000D01*
X184499505Y-53501204D01*
G37*
G36*
X186549505Y-53501204D02*
G01*
X186573773Y-53504804D01*
X186597572Y-53510765D01*
X186620671Y-53519030D01*
X186642850Y-53529520D01*
X186663893Y-53542132D01*
X186683599Y-53556747D01*
X186701777Y-53573223D01*
X186718253Y-53591401D01*
X186732868Y-53611107D01*
X186745480Y-53632150D01*
X186755970Y-53654329D01*
X186764235Y-53677428D01*
X186770196Y-53701227D01*
X186773796Y-53725495D01*
X186775000Y-53749999D01*
X186775000Y-54650001D01*
X186773796Y-54674505D01*
X186770196Y-54698773D01*
X186764235Y-54722572D01*
X186755970Y-54745671D01*
X186745480Y-54767850D01*
X186732868Y-54788893D01*
X186718253Y-54808599D01*
X186701777Y-54826777D01*
X186683599Y-54843253D01*
X186663893Y-54857868D01*
X186642850Y-54870480D01*
X186620671Y-54880970D01*
X186597572Y-54889235D01*
X186573773Y-54895196D01*
X186549505Y-54898796D01*
X186525001Y-54900000D01*
X185874999Y-54900000D01*
X185850495Y-54898796D01*
X185826227Y-54895196D01*
X185802428Y-54889235D01*
X185779329Y-54880970D01*
X185757150Y-54870480D01*
X185736107Y-54857868D01*
X185716401Y-54843253D01*
X185698223Y-54826777D01*
X185681747Y-54808599D01*
X185667132Y-54788893D01*
X185654520Y-54767850D01*
X185644030Y-54745671D01*
X185635765Y-54722572D01*
X185629804Y-54698773D01*
X185626204Y-54674505D01*
X185625000Y-54650001D01*
X185625000Y-53749999D01*
X185626204Y-53725495D01*
X185629804Y-53701227D01*
X185635765Y-53677428D01*
X185644030Y-53654329D01*
X185654520Y-53632150D01*
X185667132Y-53611107D01*
X185681747Y-53591401D01*
X185698223Y-53573223D01*
X185716401Y-53556747D01*
X185736107Y-53542132D01*
X185757150Y-53529520D01*
X185779329Y-53519030D01*
X185802428Y-53510765D01*
X185826227Y-53504804D01*
X185850495Y-53501204D01*
X185874999Y-53500000D01*
X186525001Y-53500000D01*
X186549505Y-53501204D01*
G37*
G36*
X149349505Y-41651204D02*
G01*
X149373773Y-41654804D01*
X149397572Y-41660765D01*
X149420671Y-41669030D01*
X149442850Y-41679520D01*
X149463893Y-41692132D01*
X149483599Y-41706747D01*
X149501777Y-41723223D01*
X149518253Y-41741401D01*
X149532868Y-41761107D01*
X149545480Y-41782150D01*
X149555970Y-41804329D01*
X149564235Y-41827428D01*
X149570196Y-41851227D01*
X149573796Y-41875495D01*
X149575000Y-41899999D01*
X149575000Y-42800001D01*
X149573796Y-42824505D01*
X149570196Y-42848773D01*
X149564235Y-42872572D01*
X149555970Y-42895671D01*
X149545480Y-42917850D01*
X149532868Y-42938893D01*
X149518253Y-42958599D01*
X149501777Y-42976777D01*
X149483599Y-42993253D01*
X149463893Y-43007868D01*
X149442850Y-43020480D01*
X149420671Y-43030970D01*
X149397572Y-43039235D01*
X149373773Y-43045196D01*
X149349505Y-43048796D01*
X149325001Y-43050000D01*
X148674999Y-43050000D01*
X148650495Y-43048796D01*
X148626227Y-43045196D01*
X148602428Y-43039235D01*
X148579329Y-43030970D01*
X148557150Y-43020480D01*
X148536107Y-43007868D01*
X148516401Y-42993253D01*
X148498223Y-42976777D01*
X148481747Y-42958599D01*
X148467132Y-42938893D01*
X148454520Y-42917850D01*
X148444030Y-42895671D01*
X148435765Y-42872572D01*
X148429804Y-42848773D01*
X148426204Y-42824505D01*
X148425000Y-42800001D01*
X148425000Y-41899999D01*
X148426204Y-41875495D01*
X148429804Y-41851227D01*
X148435765Y-41827428D01*
X148444030Y-41804329D01*
X148454520Y-41782150D01*
X148467132Y-41761107D01*
X148481747Y-41741401D01*
X148498223Y-41723223D01*
X148516401Y-41706747D01*
X148536107Y-41692132D01*
X148557150Y-41679520D01*
X148579329Y-41669030D01*
X148602428Y-41660765D01*
X148626227Y-41654804D01*
X148650495Y-41651204D01*
X148674999Y-41650000D01*
X149325001Y-41650000D01*
X149349505Y-41651204D01*
G37*
G36*
X151399505Y-41651204D02*
G01*
X151423773Y-41654804D01*
X151447572Y-41660765D01*
X151470671Y-41669030D01*
X151492850Y-41679520D01*
X151513893Y-41692132D01*
X151533599Y-41706747D01*
X151551777Y-41723223D01*
X151568253Y-41741401D01*
X151582868Y-41761107D01*
X151595480Y-41782150D01*
X151605970Y-41804329D01*
X151614235Y-41827428D01*
X151620196Y-41851227D01*
X151623796Y-41875495D01*
X151625000Y-41899999D01*
X151625000Y-42800001D01*
X151623796Y-42824505D01*
X151620196Y-42848773D01*
X151614235Y-42872572D01*
X151605970Y-42895671D01*
X151595480Y-42917850D01*
X151582868Y-42938893D01*
X151568253Y-42958599D01*
X151551777Y-42976777D01*
X151533599Y-42993253D01*
X151513893Y-43007868D01*
X151492850Y-43020480D01*
X151470671Y-43030970D01*
X151447572Y-43039235D01*
X151423773Y-43045196D01*
X151399505Y-43048796D01*
X151375001Y-43050000D01*
X150724999Y-43050000D01*
X150700495Y-43048796D01*
X150676227Y-43045196D01*
X150652428Y-43039235D01*
X150629329Y-43030970D01*
X150607150Y-43020480D01*
X150586107Y-43007868D01*
X150566401Y-42993253D01*
X150548223Y-42976777D01*
X150531747Y-42958599D01*
X150517132Y-42938893D01*
X150504520Y-42917850D01*
X150494030Y-42895671D01*
X150485765Y-42872572D01*
X150479804Y-42848773D01*
X150476204Y-42824505D01*
X150475000Y-42800001D01*
X150475000Y-41899999D01*
X150476204Y-41875495D01*
X150479804Y-41851227D01*
X150485765Y-41827428D01*
X150494030Y-41804329D01*
X150504520Y-41782150D01*
X150517132Y-41761107D01*
X150531747Y-41741401D01*
X150548223Y-41723223D01*
X150566401Y-41706747D01*
X150586107Y-41692132D01*
X150607150Y-41679520D01*
X150629329Y-41669030D01*
X150652428Y-41660765D01*
X150676227Y-41654804D01*
X150700495Y-41651204D01*
X150724999Y-41650000D01*
X151375001Y-41650000D01*
X151399505Y-41651204D01*
G37*
G36*
X135174505Y-37226204D02*
G01*
X135198773Y-37229804D01*
X135222572Y-37235765D01*
X135245671Y-37244030D01*
X135267850Y-37254520D01*
X135288893Y-37267132D01*
X135308599Y-37281747D01*
X135326777Y-37298223D01*
X135343253Y-37316401D01*
X135357868Y-37336107D01*
X135370480Y-37357150D01*
X135380970Y-37379329D01*
X135389235Y-37402428D01*
X135395196Y-37426227D01*
X135398796Y-37450495D01*
X135400000Y-37474999D01*
X135400000Y-38125001D01*
X135398796Y-38149505D01*
X135395196Y-38173773D01*
X135389235Y-38197572D01*
X135380970Y-38220671D01*
X135370480Y-38242850D01*
X135357868Y-38263893D01*
X135343253Y-38283599D01*
X135326777Y-38301777D01*
X135308599Y-38318253D01*
X135288893Y-38332868D01*
X135267850Y-38345480D01*
X135245671Y-38355970D01*
X135222572Y-38364235D01*
X135198773Y-38370196D01*
X135174505Y-38373796D01*
X135150001Y-38375000D01*
X134249999Y-38375000D01*
X134225495Y-38373796D01*
X134201227Y-38370196D01*
X134177428Y-38364235D01*
X134154329Y-38355970D01*
X134132150Y-38345480D01*
X134111107Y-38332868D01*
X134091401Y-38318253D01*
X134073223Y-38301777D01*
X134056747Y-38283599D01*
X134042132Y-38263893D01*
X134029520Y-38242850D01*
X134019030Y-38220671D01*
X134010765Y-38197572D01*
X134004804Y-38173773D01*
X134001204Y-38149505D01*
X134000000Y-38125001D01*
X134000000Y-37474999D01*
X134001204Y-37450495D01*
X134004804Y-37426227D01*
X134010765Y-37402428D01*
X134019030Y-37379329D01*
X134029520Y-37357150D01*
X134042132Y-37336107D01*
X134056747Y-37316401D01*
X134073223Y-37298223D01*
X134091401Y-37281747D01*
X134111107Y-37267132D01*
X134132150Y-37254520D01*
X134154329Y-37244030D01*
X134177428Y-37235765D01*
X134201227Y-37229804D01*
X134225495Y-37226204D01*
X134249999Y-37225000D01*
X135150001Y-37225000D01*
X135174505Y-37226204D01*
G37*
G36*
X135174505Y-35176204D02*
G01*
X135198773Y-35179804D01*
X135222572Y-35185765D01*
X135245671Y-35194030D01*
X135267850Y-35204520D01*
X135288893Y-35217132D01*
X135308599Y-35231747D01*
X135326777Y-35248223D01*
X135343253Y-35266401D01*
X135357868Y-35286107D01*
X135370480Y-35307150D01*
X135380970Y-35329329D01*
X135389235Y-35352428D01*
X135395196Y-35376227D01*
X135398796Y-35400495D01*
X135400000Y-35424999D01*
X135400000Y-36075001D01*
X135398796Y-36099505D01*
X135395196Y-36123773D01*
X135389235Y-36147572D01*
X135380970Y-36170671D01*
X135370480Y-36192850D01*
X135357868Y-36213893D01*
X135343253Y-36233599D01*
X135326777Y-36251777D01*
X135308599Y-36268253D01*
X135288893Y-36282868D01*
X135267850Y-36295480D01*
X135245671Y-36305970D01*
X135222572Y-36314235D01*
X135198773Y-36320196D01*
X135174505Y-36323796D01*
X135150001Y-36325000D01*
X134249999Y-36325000D01*
X134225495Y-36323796D01*
X134201227Y-36320196D01*
X134177428Y-36314235D01*
X134154329Y-36305970D01*
X134132150Y-36295480D01*
X134111107Y-36282868D01*
X134091401Y-36268253D01*
X134073223Y-36251777D01*
X134056747Y-36233599D01*
X134042132Y-36213893D01*
X134029520Y-36192850D01*
X134019030Y-36170671D01*
X134010765Y-36147572D01*
X134004804Y-36123773D01*
X134001204Y-36099505D01*
X134000000Y-36075001D01*
X134000000Y-35424999D01*
X134001204Y-35400495D01*
X134004804Y-35376227D01*
X134010765Y-35352428D01*
X134019030Y-35329329D01*
X134029520Y-35307150D01*
X134042132Y-35286107D01*
X134056747Y-35266401D01*
X134073223Y-35248223D01*
X134091401Y-35231747D01*
X134111107Y-35217132D01*
X134132150Y-35204520D01*
X134154329Y-35194030D01*
X134177428Y-35185765D01*
X134201227Y-35179804D01*
X134225495Y-35176204D01*
X134249999Y-35175000D01*
X135150001Y-35175000D01*
X135174505Y-35176204D01*
G37*
G36*
X142474505Y-29276204D02*
G01*
X142498773Y-29279804D01*
X142522572Y-29285765D01*
X142545671Y-29294030D01*
X142567850Y-29304520D01*
X142588893Y-29317132D01*
X142608599Y-29331747D01*
X142626777Y-29348223D01*
X142643253Y-29366401D01*
X142657868Y-29386107D01*
X142670480Y-29407150D01*
X142680970Y-29429329D01*
X142689235Y-29452428D01*
X142695196Y-29476227D01*
X142698796Y-29500495D01*
X142700000Y-29524999D01*
X142700000Y-30175001D01*
X142698796Y-30199505D01*
X142695196Y-30223773D01*
X142689235Y-30247572D01*
X142680970Y-30270671D01*
X142670480Y-30292850D01*
X142657868Y-30313893D01*
X142643253Y-30333599D01*
X142626777Y-30351777D01*
X142608599Y-30368253D01*
X142588893Y-30382868D01*
X142567850Y-30395480D01*
X142545671Y-30405970D01*
X142522572Y-30414235D01*
X142498773Y-30420196D01*
X142474505Y-30423796D01*
X142450001Y-30425000D01*
X141549999Y-30425000D01*
X141525495Y-30423796D01*
X141501227Y-30420196D01*
X141477428Y-30414235D01*
X141454329Y-30405970D01*
X141432150Y-30395480D01*
X141411107Y-30382868D01*
X141391401Y-30368253D01*
X141373223Y-30351777D01*
X141356747Y-30333599D01*
X141342132Y-30313893D01*
X141329520Y-30292850D01*
X141319030Y-30270671D01*
X141310765Y-30247572D01*
X141304804Y-30223773D01*
X141301204Y-30199505D01*
X141300000Y-30175001D01*
X141300000Y-29524999D01*
X141301204Y-29500495D01*
X141304804Y-29476227D01*
X141310765Y-29452428D01*
X141319030Y-29429329D01*
X141329520Y-29407150D01*
X141342132Y-29386107D01*
X141356747Y-29366401D01*
X141373223Y-29348223D01*
X141391401Y-29331747D01*
X141411107Y-29317132D01*
X141432150Y-29304520D01*
X141454329Y-29294030D01*
X141477428Y-29285765D01*
X141501227Y-29279804D01*
X141525495Y-29276204D01*
X141549999Y-29275000D01*
X142450001Y-29275000D01*
X142474505Y-29276204D01*
G37*
G36*
X142474505Y-31326204D02*
G01*
X142498773Y-31329804D01*
X142522572Y-31335765D01*
X142545671Y-31344030D01*
X142567850Y-31354520D01*
X142588893Y-31367132D01*
X142608599Y-31381747D01*
X142626777Y-31398223D01*
X142643253Y-31416401D01*
X142657868Y-31436107D01*
X142670480Y-31457150D01*
X142680970Y-31479329D01*
X142689235Y-31502428D01*
X142695196Y-31526227D01*
X142698796Y-31550495D01*
X142700000Y-31574999D01*
X142700000Y-32225001D01*
X142698796Y-32249505D01*
X142695196Y-32273773D01*
X142689235Y-32297572D01*
X142680970Y-32320671D01*
X142670480Y-32342850D01*
X142657868Y-32363893D01*
X142643253Y-32383599D01*
X142626777Y-32401777D01*
X142608599Y-32418253D01*
X142588893Y-32432868D01*
X142567850Y-32445480D01*
X142545671Y-32455970D01*
X142522572Y-32464235D01*
X142498773Y-32470196D01*
X142474505Y-32473796D01*
X142450001Y-32475000D01*
X141549999Y-32475000D01*
X141525495Y-32473796D01*
X141501227Y-32470196D01*
X141477428Y-32464235D01*
X141454329Y-32455970D01*
X141432150Y-32445480D01*
X141411107Y-32432868D01*
X141391401Y-32418253D01*
X141373223Y-32401777D01*
X141356747Y-32383599D01*
X141342132Y-32363893D01*
X141329520Y-32342850D01*
X141319030Y-32320671D01*
X141310765Y-32297572D01*
X141304804Y-32273773D01*
X141301204Y-32249505D01*
X141300000Y-32225001D01*
X141300000Y-31574999D01*
X141301204Y-31550495D01*
X141304804Y-31526227D01*
X141310765Y-31502428D01*
X141319030Y-31479329D01*
X141329520Y-31457150D01*
X141342132Y-31436107D01*
X141356747Y-31416401D01*
X141373223Y-31398223D01*
X141391401Y-31381747D01*
X141411107Y-31367132D01*
X141432150Y-31354520D01*
X141454329Y-31344030D01*
X141477428Y-31335765D01*
X141501227Y-31329804D01*
X141525495Y-31326204D01*
X141549999Y-31325000D01*
X142450001Y-31325000D01*
X142474505Y-31326204D01*
G37*
G36*
X135324505Y-43901204D02*
G01*
X135348773Y-43904804D01*
X135372572Y-43910765D01*
X135395671Y-43919030D01*
X135417850Y-43929520D01*
X135438893Y-43942132D01*
X135458599Y-43956747D01*
X135476777Y-43973223D01*
X135493253Y-43991401D01*
X135507868Y-44011107D01*
X135520480Y-44032150D01*
X135530970Y-44054329D01*
X135539235Y-44077428D01*
X135545196Y-44101227D01*
X135548796Y-44125495D01*
X135550000Y-44149999D01*
X135550000Y-45050001D01*
X135548796Y-45074505D01*
X135545196Y-45098773D01*
X135539235Y-45122572D01*
X135530970Y-45145671D01*
X135520480Y-45167850D01*
X135507868Y-45188893D01*
X135493253Y-45208599D01*
X135476777Y-45226777D01*
X135458599Y-45243253D01*
X135438893Y-45257868D01*
X135417850Y-45270480D01*
X135395671Y-45280970D01*
X135372572Y-45289235D01*
X135348773Y-45295196D01*
X135324505Y-45298796D01*
X135300001Y-45300000D01*
X134649999Y-45300000D01*
X134625495Y-45298796D01*
X134601227Y-45295196D01*
X134577428Y-45289235D01*
X134554329Y-45280970D01*
X134532150Y-45270480D01*
X134511107Y-45257868D01*
X134491401Y-45243253D01*
X134473223Y-45226777D01*
X134456747Y-45208599D01*
X134442132Y-45188893D01*
X134429520Y-45167850D01*
X134419030Y-45145671D01*
X134410765Y-45122572D01*
X134404804Y-45098773D01*
X134401204Y-45074505D01*
X134400000Y-45050001D01*
X134400000Y-44149999D01*
X134401204Y-44125495D01*
X134404804Y-44101227D01*
X134410765Y-44077428D01*
X134419030Y-44054329D01*
X134429520Y-44032150D01*
X134442132Y-44011107D01*
X134456747Y-43991401D01*
X134473223Y-43973223D01*
X134491401Y-43956747D01*
X134511107Y-43942132D01*
X134532150Y-43929520D01*
X134554329Y-43919030D01*
X134577428Y-43910765D01*
X134601227Y-43904804D01*
X134625495Y-43901204D01*
X134649999Y-43900000D01*
X135300001Y-43900000D01*
X135324505Y-43901204D01*
G37*
G36*
X137374505Y-43901204D02*
G01*
X137398773Y-43904804D01*
X137422572Y-43910765D01*
X137445671Y-43919030D01*
X137467850Y-43929520D01*
X137488893Y-43942132D01*
X137508599Y-43956747D01*
X137526777Y-43973223D01*
X137543253Y-43991401D01*
X137557868Y-44011107D01*
X137570480Y-44032150D01*
X137580970Y-44054329D01*
X137589235Y-44077428D01*
X137595196Y-44101227D01*
X137598796Y-44125495D01*
X137600000Y-44149999D01*
X137600000Y-45050001D01*
X137598796Y-45074505D01*
X137595196Y-45098773D01*
X137589235Y-45122572D01*
X137580970Y-45145671D01*
X137570480Y-45167850D01*
X137557868Y-45188893D01*
X137543253Y-45208599D01*
X137526777Y-45226777D01*
X137508599Y-45243253D01*
X137488893Y-45257868D01*
X137467850Y-45270480D01*
X137445671Y-45280970D01*
X137422572Y-45289235D01*
X137398773Y-45295196D01*
X137374505Y-45298796D01*
X137350001Y-45300000D01*
X136699999Y-45300000D01*
X136675495Y-45298796D01*
X136651227Y-45295196D01*
X136627428Y-45289235D01*
X136604329Y-45280970D01*
X136582150Y-45270480D01*
X136561107Y-45257868D01*
X136541401Y-45243253D01*
X136523223Y-45226777D01*
X136506747Y-45208599D01*
X136492132Y-45188893D01*
X136479520Y-45167850D01*
X136469030Y-45145671D01*
X136460765Y-45122572D01*
X136454804Y-45098773D01*
X136451204Y-45074505D01*
X136450000Y-45050001D01*
X136450000Y-44149999D01*
X136451204Y-44125495D01*
X136454804Y-44101227D01*
X136460765Y-44077428D01*
X136469030Y-44054329D01*
X136479520Y-44032150D01*
X136492132Y-44011107D01*
X136506747Y-43991401D01*
X136523223Y-43973223D01*
X136541401Y-43956747D01*
X136561107Y-43942132D01*
X136582150Y-43929520D01*
X136604329Y-43919030D01*
X136627428Y-43910765D01*
X136651227Y-43904804D01*
X136675495Y-43901204D01*
X136699999Y-43900000D01*
X137350001Y-43900000D01*
X137374505Y-43901204D01*
G37*
G36*
X136249505Y-32651204D02*
G01*
X136273773Y-32654804D01*
X136297572Y-32660765D01*
X136320671Y-32669030D01*
X136342850Y-32679520D01*
X136363893Y-32692132D01*
X136383599Y-32706747D01*
X136401777Y-32723223D01*
X136418253Y-32741401D01*
X136432868Y-32761107D01*
X136445480Y-32782150D01*
X136455970Y-32804329D01*
X136464235Y-32827428D01*
X136470196Y-32851227D01*
X136473796Y-32875495D01*
X136475000Y-32899999D01*
X136475000Y-33800001D01*
X136473796Y-33824505D01*
X136470196Y-33848773D01*
X136464235Y-33872572D01*
X136455970Y-33895671D01*
X136445480Y-33917850D01*
X136432868Y-33938893D01*
X136418253Y-33958599D01*
X136401777Y-33976777D01*
X136383599Y-33993253D01*
X136363893Y-34007868D01*
X136342850Y-34020480D01*
X136320671Y-34030970D01*
X136297572Y-34039235D01*
X136273773Y-34045196D01*
X136249505Y-34048796D01*
X136225001Y-34050000D01*
X135574999Y-34050000D01*
X135550495Y-34048796D01*
X135526227Y-34045196D01*
X135502428Y-34039235D01*
X135479329Y-34030970D01*
X135457150Y-34020480D01*
X135436107Y-34007868D01*
X135416401Y-33993253D01*
X135398223Y-33976777D01*
X135381747Y-33958599D01*
X135367132Y-33938893D01*
X135354520Y-33917850D01*
X135344030Y-33895671D01*
X135335765Y-33872572D01*
X135329804Y-33848773D01*
X135326204Y-33824505D01*
X135325000Y-33800001D01*
X135325000Y-32899999D01*
X135326204Y-32875495D01*
X135329804Y-32851227D01*
X135335765Y-32827428D01*
X135344030Y-32804329D01*
X135354520Y-32782150D01*
X135367132Y-32761107D01*
X135381747Y-32741401D01*
X135398223Y-32723223D01*
X135416401Y-32706747D01*
X135436107Y-32692132D01*
X135457150Y-32679520D01*
X135479329Y-32669030D01*
X135502428Y-32660765D01*
X135526227Y-32654804D01*
X135550495Y-32651204D01*
X135574999Y-32650000D01*
X136225001Y-32650000D01*
X136249505Y-32651204D01*
G37*
G36*
X138299505Y-32651204D02*
G01*
X138323773Y-32654804D01*
X138347572Y-32660765D01*
X138370671Y-32669030D01*
X138392850Y-32679520D01*
X138413893Y-32692132D01*
X138433599Y-32706747D01*
X138451777Y-32723223D01*
X138468253Y-32741401D01*
X138482868Y-32761107D01*
X138495480Y-32782150D01*
X138505970Y-32804329D01*
X138514235Y-32827428D01*
X138520196Y-32851227D01*
X138523796Y-32875495D01*
X138525000Y-32899999D01*
X138525000Y-33800001D01*
X138523796Y-33824505D01*
X138520196Y-33848773D01*
X138514235Y-33872572D01*
X138505970Y-33895671D01*
X138495480Y-33917850D01*
X138482868Y-33938893D01*
X138468253Y-33958599D01*
X138451777Y-33976777D01*
X138433599Y-33993253D01*
X138413893Y-34007868D01*
X138392850Y-34020480D01*
X138370671Y-34030970D01*
X138347572Y-34039235D01*
X138323773Y-34045196D01*
X138299505Y-34048796D01*
X138275001Y-34050000D01*
X137624999Y-34050000D01*
X137600495Y-34048796D01*
X137576227Y-34045196D01*
X137552428Y-34039235D01*
X137529329Y-34030970D01*
X137507150Y-34020480D01*
X137486107Y-34007868D01*
X137466401Y-33993253D01*
X137448223Y-33976777D01*
X137431747Y-33958599D01*
X137417132Y-33938893D01*
X137404520Y-33917850D01*
X137394030Y-33895671D01*
X137385765Y-33872572D01*
X137379804Y-33848773D01*
X137376204Y-33824505D01*
X137375000Y-33800001D01*
X137375000Y-32899999D01*
X137376204Y-32875495D01*
X137379804Y-32851227D01*
X137385765Y-32827428D01*
X137394030Y-32804329D01*
X137404520Y-32782150D01*
X137417132Y-32761107D01*
X137431747Y-32741401D01*
X137448223Y-32723223D01*
X137466401Y-32706747D01*
X137486107Y-32692132D01*
X137507150Y-32679520D01*
X137529329Y-32669030D01*
X137552428Y-32660765D01*
X137576227Y-32654804D01*
X137600495Y-32651204D01*
X137624999Y-32650000D01*
X138275001Y-32650000D01*
X138299505Y-32651204D01*
G37*
G36*
X153474505Y-50976204D02*
G01*
X153498773Y-50979804D01*
X153522572Y-50985765D01*
X153545671Y-50994030D01*
X153567850Y-51004520D01*
X153588893Y-51017132D01*
X153608599Y-51031747D01*
X153626777Y-51048223D01*
X153643253Y-51066401D01*
X153657868Y-51086107D01*
X153670480Y-51107150D01*
X153680970Y-51129329D01*
X153689235Y-51152428D01*
X153695196Y-51176227D01*
X153698796Y-51200495D01*
X153700000Y-51224999D01*
X153700000Y-51875001D01*
X153698796Y-51899505D01*
X153695196Y-51923773D01*
X153689235Y-51947572D01*
X153680970Y-51970671D01*
X153670480Y-51992850D01*
X153657868Y-52013893D01*
X153643253Y-52033599D01*
X153626777Y-52051777D01*
X153608599Y-52068253D01*
X153588893Y-52082868D01*
X153567850Y-52095480D01*
X153545671Y-52105970D01*
X153522572Y-52114235D01*
X153498773Y-52120196D01*
X153474505Y-52123796D01*
X153450001Y-52125000D01*
X152549999Y-52125000D01*
X152525495Y-52123796D01*
X152501227Y-52120196D01*
X152477428Y-52114235D01*
X152454329Y-52105970D01*
X152432150Y-52095480D01*
X152411107Y-52082868D01*
X152391401Y-52068253D01*
X152373223Y-52051777D01*
X152356747Y-52033599D01*
X152342132Y-52013893D01*
X152329520Y-51992850D01*
X152319030Y-51970671D01*
X152310765Y-51947572D01*
X152304804Y-51923773D01*
X152301204Y-51899505D01*
X152300000Y-51875001D01*
X152300000Y-51224999D01*
X152301204Y-51200495D01*
X152304804Y-51176227D01*
X152310765Y-51152428D01*
X152319030Y-51129329D01*
X152329520Y-51107150D01*
X152342132Y-51086107D01*
X152356747Y-51066401D01*
X152373223Y-51048223D01*
X152391401Y-51031747D01*
X152411107Y-51017132D01*
X152432150Y-51004520D01*
X152454329Y-50994030D01*
X152477428Y-50985765D01*
X152501227Y-50979804D01*
X152525495Y-50976204D01*
X152549999Y-50975000D01*
X153450001Y-50975000D01*
X153474505Y-50976204D01*
G37*
G36*
X153474505Y-48926204D02*
G01*
X153498773Y-48929804D01*
X153522572Y-48935765D01*
X153545671Y-48944030D01*
X153567850Y-48954520D01*
X153588893Y-48967132D01*
X153608599Y-48981747D01*
X153626777Y-48998223D01*
X153643253Y-49016401D01*
X153657868Y-49036107D01*
X153670480Y-49057150D01*
X153680970Y-49079329D01*
X153689235Y-49102428D01*
X153695196Y-49126227D01*
X153698796Y-49150495D01*
X153700000Y-49174999D01*
X153700000Y-49825001D01*
X153698796Y-49849505D01*
X153695196Y-49873773D01*
X153689235Y-49897572D01*
X153680970Y-49920671D01*
X153670480Y-49942850D01*
X153657868Y-49963893D01*
X153643253Y-49983599D01*
X153626777Y-50001777D01*
X153608599Y-50018253D01*
X153588893Y-50032868D01*
X153567850Y-50045480D01*
X153545671Y-50055970D01*
X153522572Y-50064235D01*
X153498773Y-50070196D01*
X153474505Y-50073796D01*
X153450001Y-50075000D01*
X152549999Y-50075000D01*
X152525495Y-50073796D01*
X152501227Y-50070196D01*
X152477428Y-50064235D01*
X152454329Y-50055970D01*
X152432150Y-50045480D01*
X152411107Y-50032868D01*
X152391401Y-50018253D01*
X152373223Y-50001777D01*
X152356747Y-49983599D01*
X152342132Y-49963893D01*
X152329520Y-49942850D01*
X152319030Y-49920671D01*
X152310765Y-49897572D01*
X152304804Y-49873773D01*
X152301204Y-49849505D01*
X152300000Y-49825001D01*
X152300000Y-49174999D01*
X152301204Y-49150495D01*
X152304804Y-49126227D01*
X152310765Y-49102428D01*
X152319030Y-49079329D01*
X152329520Y-49057150D01*
X152342132Y-49036107D01*
X152356747Y-49016401D01*
X152373223Y-48998223D01*
X152391401Y-48981747D01*
X152411107Y-48967132D01*
X152432150Y-48954520D01*
X152454329Y-48944030D01*
X152477428Y-48935765D01*
X152501227Y-48929804D01*
X152525495Y-48926204D01*
X152549999Y-48925000D01*
X153450001Y-48925000D01*
X153474505Y-48926204D01*
G37*
D10*
X116640000Y-43790000D03*
D11*
X116640000Y-41250000D03*
M02*
