M48
INCH
T1C0.0118
T2C0.0157
T3C0.0197
T4C0.0315
T5C0.0362
T6C0.0394
T7C0.0906
T8C0.1260
%
G90
G05
T1
X3.8445Y-1.6476
X4.62Y-1.37
X4.6417Y-1.4961
X5.4951Y-1.8268
X5.5276Y-1.8504
X5.5513Y-1.875
X5.5827Y-1.9055
X5.6142Y-1.9331
X5.622Y-1.4665
X5.6417Y-1.9567
X5.6654Y-1.6457
X5.6657Y-1.9806
X5.6772Y-1.5335
X5.6772Y-1.7244
X5.7205Y-1.7638
X5.7283Y-1.7205
X5.7406Y-1.788
X5.748Y-1.689
X5.7643Y-1.8116
X5.8583Y-1.8071
T2
X4.0689Y-1.7933
X5.0886Y-1.7933
X5.2126Y-1.7717
X5.4409Y-1.5354
X5.4921Y-1.4843
X5.5787Y-1.6811
X5.7165Y-1.2736
X5.878Y-1.7756
X5.9823Y-1.2028
X6.1043Y-1.9882
X6.1339Y-1.8996
X6.5039Y-2.2165
X6.8031Y-2.2165
T3
X7.2087Y-1.2992
X7.2363Y-1.2324
X7.2363Y-1.366
X7.3031Y-1.2047
X7.3031Y-1.3937
X7.37Y-1.2324
X7.37Y-1.366
X7.3976Y-1.2992
T4
X3.8189Y-1.2008
X3.8189Y-1.2992
T5
X3.7795Y-1.5551
X3.7795Y-1.6535
X3.7795Y-1.7323
X3.7795Y-1.8307
T6
X4.5921Y-1.624
X4.5921Y-1.724
X4.4921Y-1.624
X4.4921Y-1.724
X6.3543Y-2.252
X6.4543Y-2.252
X6.5543Y-2.252
X6.6543Y-2.252
X6.7543Y-2.252
X6.8543Y-2.252
X6.9543Y-2.252
X7.0543Y-2.252
X7.1543Y-2.252
X7.2543Y-2.252
X4.4921Y-1.2
X4.4921Y-1.3
X4.5921Y-1.2
X4.5921Y-1.3
X4.6921Y-1.2
X4.6921Y-1.3
X4.7921Y-1.2
X4.7921Y-1.3
X4.8921Y-1.2
X4.8921Y-1.3
X4.0236Y-2.165
X4.1236Y-2.165
X4.4882Y-2.1654
X4.4882Y-2.2654
X4.5882Y-2.1654
X4.5882Y-2.2654
X4.6882Y-2.1654
X4.6882Y-2.2654
X4.7882Y-2.1654
X4.7882Y-2.2654
X4.8882Y-2.1654
X4.8882Y-2.2654
X4.6921Y-1.624
X4.6921Y-1.724
T7
X3.6728Y-1.4343
X3.6728Y-1.9516
T8
X7.3031Y-1.2992
T0
M30
