G04 #@! TF.GenerationSoftware,KiCad,Pcbnew,(5.1.5)-3*
G04 #@! TF.CreationDate,2020-01-25T14:55:43-05:00*
G04 #@! TF.ProjectId,SmallyMouse2,536d616c-6c79-44d6-9f75-7365322e6b69,2.0*
G04 #@! TF.SameCoordinates,Original*
G04 #@! TF.FileFunction,Legend,Top*
G04 #@! TF.FilePolarity,Positive*
%FSLAX46Y46*%
G04 Gerber Fmt 4.6, Leading zero omitted, Abs format (unit mm)*
G04 Created by KiCad (PCBNEW (5.1.5)-3) date 2020-01-25 14:55:43*
%MOMM*%
%LPD*%
G04 APERTURE LIST*
%ADD10C,0.150000*%
%ADD11C,0.200000*%
%ADD12C,0.120000*%
%ADD13C,0.010000*%
G04 APERTURE END LIST*
D10*
X168233095Y-54702380D02*
X168804523Y-54702380D01*
X168518809Y-55702380D02*
X168518809Y-54702380D01*
X169042619Y-54702380D02*
X169709285Y-55702380D01*
X169709285Y-54702380D02*
X169042619Y-55702380D01*
D11*
X126478571Y-33550000D02*
X127550000Y-33550000D01*
X127764285Y-33621428D01*
X127907142Y-33764285D01*
X127978571Y-33978571D01*
X127978571Y-34121428D01*
X126478571Y-33050000D02*
X126478571Y-32192857D01*
X127978571Y-32621428D02*
X126478571Y-32621428D01*
X127550000Y-31764285D02*
X127550000Y-31050000D01*
X127978571Y-31907142D02*
X126478571Y-31407142D01*
X127978571Y-30907142D01*
X126550000Y-29621428D02*
X126478571Y-29764285D01*
X126478571Y-29978571D01*
X126550000Y-30192857D01*
X126692857Y-30335714D01*
X126835714Y-30407142D01*
X127121428Y-30478571D01*
X127335714Y-30478571D01*
X127621428Y-30407142D01*
X127764285Y-30335714D01*
X127907142Y-30192857D01*
X127978571Y-29978571D01*
X127978571Y-29835714D01*
X127907142Y-29621428D01*
X127835714Y-29550000D01*
X127335714Y-29550000D01*
X127335714Y-29835714D01*
X164648571Y-31125000D02*
X165362857Y-31125000D01*
X164505714Y-31553571D02*
X165005714Y-30053571D01*
X165505714Y-31553571D01*
X166791428Y-31553571D02*
X165934285Y-31553571D01*
X166362857Y-31553571D02*
X166362857Y-30053571D01*
X166220000Y-30267857D01*
X166077142Y-30410714D01*
X165934285Y-30482142D01*
X167362857Y-30196428D02*
X167434285Y-30125000D01*
X167577142Y-30053571D01*
X167934285Y-30053571D01*
X168077142Y-30125000D01*
X168148571Y-30196428D01*
X168220000Y-30339285D01*
X168220000Y-30482142D01*
X168148571Y-30696428D01*
X167291428Y-31553571D01*
X168220000Y-31553571D01*
X169148571Y-30053571D02*
X169291428Y-30053571D01*
X169434285Y-30125000D01*
X169505714Y-30196428D01*
X169577142Y-30339285D01*
X169648571Y-30625000D01*
X169648571Y-30982142D01*
X169577142Y-31267857D01*
X169505714Y-31410714D01*
X169434285Y-31482142D01*
X169291428Y-31553571D01*
X169148571Y-31553571D01*
X169005714Y-31482142D01*
X168934285Y-31410714D01*
X168862857Y-31267857D01*
X168791428Y-30982142D01*
X168791428Y-30625000D01*
X168862857Y-30339285D01*
X168934285Y-30196428D01*
X169005714Y-30125000D01*
X169148571Y-30053571D01*
X170577142Y-30053571D02*
X170720000Y-30053571D01*
X170862857Y-30125000D01*
X170934285Y-30196428D01*
X171005714Y-30339285D01*
X171077142Y-30625000D01*
X171077142Y-30982142D01*
X171005714Y-31267857D01*
X170934285Y-31410714D01*
X170862857Y-31482142D01*
X170720000Y-31553571D01*
X170577142Y-31553571D01*
X170434285Y-31482142D01*
X170362857Y-31410714D01*
X170291428Y-31267857D01*
X170220000Y-30982142D01*
X170220000Y-30625000D01*
X170291428Y-30339285D01*
X170362857Y-30196428D01*
X170434285Y-30125000D01*
X170577142Y-30053571D01*
X173720000Y-31553571D02*
X173220000Y-30839285D01*
X172862857Y-31553571D02*
X172862857Y-30053571D01*
X173434285Y-30053571D01*
X173577142Y-30125000D01*
X173648571Y-30196428D01*
X173720000Y-30339285D01*
X173720000Y-30553571D01*
X173648571Y-30696428D01*
X173577142Y-30767857D01*
X173434285Y-30839285D01*
X172862857Y-30839285D01*
X174362857Y-30767857D02*
X174862857Y-30767857D01*
X175077142Y-31553571D02*
X174362857Y-31553571D01*
X174362857Y-30053571D01*
X175077142Y-30053571D01*
X175505714Y-30053571D02*
X176005714Y-31553571D01*
X176505714Y-30053571D01*
X178077142Y-30196428D02*
X178148571Y-30125000D01*
X178291428Y-30053571D01*
X178648571Y-30053571D01*
X178791428Y-30125000D01*
X178862857Y-30196428D01*
X178934285Y-30339285D01*
X178934285Y-30482142D01*
X178862857Y-30696428D01*
X178005714Y-31553571D01*
X178934285Y-31553571D01*
X180077142Y-30767857D02*
X180291428Y-30839285D01*
X180362857Y-30910714D01*
X180434285Y-31053571D01*
X180434285Y-31267857D01*
X180362857Y-31410714D01*
X180291428Y-31482142D01*
X180148571Y-31553571D01*
X179577142Y-31553571D01*
X179577142Y-30053571D01*
X180077142Y-30053571D01*
X180220000Y-30125000D01*
X180291428Y-30196428D01*
X180362857Y-30339285D01*
X180362857Y-30482142D01*
X180291428Y-30625000D01*
X180220000Y-30696428D01*
X180077142Y-30767857D01*
X179577142Y-30767857D01*
X165148571Y-33932142D02*
X165362857Y-34003571D01*
X165720000Y-34003571D01*
X165862857Y-33932142D01*
X165934285Y-33860714D01*
X166005714Y-33717857D01*
X166005714Y-33575000D01*
X165934285Y-33432142D01*
X165862857Y-33360714D01*
X165720000Y-33289285D01*
X165434285Y-33217857D01*
X165291428Y-33146428D01*
X165220000Y-33075000D01*
X165148571Y-32932142D01*
X165148571Y-32789285D01*
X165220000Y-32646428D01*
X165291428Y-32575000D01*
X165434285Y-32503571D01*
X165791428Y-32503571D01*
X166005714Y-32575000D01*
X166648571Y-34003571D02*
X166648571Y-33003571D01*
X166648571Y-33146428D02*
X166720000Y-33075000D01*
X166862857Y-33003571D01*
X167077142Y-33003571D01*
X167220000Y-33075000D01*
X167291428Y-33217857D01*
X167291428Y-34003571D01*
X167291428Y-33217857D02*
X167362857Y-33075000D01*
X167505714Y-33003571D01*
X167720000Y-33003571D01*
X167862857Y-33075000D01*
X167934285Y-33217857D01*
X167934285Y-34003571D01*
X169291428Y-34003571D02*
X169291428Y-33217857D01*
X169220000Y-33075000D01*
X169077142Y-33003571D01*
X168791428Y-33003571D01*
X168648571Y-33075000D01*
X169291428Y-33932142D02*
X169148571Y-34003571D01*
X168791428Y-34003571D01*
X168648571Y-33932142D01*
X168577142Y-33789285D01*
X168577142Y-33646428D01*
X168648571Y-33503571D01*
X168791428Y-33432142D01*
X169148571Y-33432142D01*
X169291428Y-33360714D01*
X170220000Y-34003571D02*
X170077142Y-33932142D01*
X170005714Y-33789285D01*
X170005714Y-32503571D01*
X171005714Y-34003571D02*
X170862857Y-33932142D01*
X170791428Y-33789285D01*
X170791428Y-32503571D01*
X171434285Y-33003571D02*
X171791428Y-34003571D01*
X172148571Y-33003571D02*
X171791428Y-34003571D01*
X171648571Y-34360714D01*
X171577142Y-34432142D01*
X171434285Y-34503571D01*
X172720000Y-34003571D02*
X172720000Y-32503571D01*
X173220000Y-33575000D01*
X173720000Y-32503571D01*
X173720000Y-34003571D01*
X174648571Y-34003571D02*
X174505714Y-33932142D01*
X174434285Y-33860714D01*
X174362857Y-33717857D01*
X174362857Y-33289285D01*
X174434285Y-33146428D01*
X174505714Y-33075000D01*
X174648571Y-33003571D01*
X174862857Y-33003571D01*
X175005714Y-33075000D01*
X175077142Y-33146428D01*
X175148571Y-33289285D01*
X175148571Y-33717857D01*
X175077142Y-33860714D01*
X175005714Y-33932142D01*
X174862857Y-34003571D01*
X174648571Y-34003571D01*
X176434285Y-33003571D02*
X176434285Y-34003571D01*
X175791428Y-33003571D02*
X175791428Y-33789285D01*
X175862857Y-33932142D01*
X176005714Y-34003571D01*
X176220000Y-34003571D01*
X176362857Y-33932142D01*
X176434285Y-33860714D01*
X177077142Y-33932142D02*
X177220000Y-34003571D01*
X177505714Y-34003571D01*
X177648571Y-33932142D01*
X177720000Y-33789285D01*
X177720000Y-33717857D01*
X177648571Y-33575000D01*
X177505714Y-33503571D01*
X177291428Y-33503571D01*
X177148571Y-33432142D01*
X177077142Y-33289285D01*
X177077142Y-33217857D01*
X177148571Y-33075000D01*
X177291428Y-33003571D01*
X177505714Y-33003571D01*
X177648571Y-33075000D01*
X178934285Y-33932142D02*
X178791428Y-34003571D01*
X178505714Y-34003571D01*
X178362857Y-33932142D01*
X178291428Y-33789285D01*
X178291428Y-33217857D01*
X178362857Y-33075000D01*
X178505714Y-33003571D01*
X178791428Y-33003571D01*
X178934285Y-33075000D01*
X179005714Y-33217857D01*
X179005714Y-33360714D01*
X178291428Y-33503571D01*
X179577142Y-32646428D02*
X179648571Y-32575000D01*
X179791428Y-32503571D01*
X180148571Y-32503571D01*
X180291428Y-32575000D01*
X180362857Y-32646428D01*
X180434285Y-32789285D01*
X180434285Y-32932142D01*
X180362857Y-33146428D01*
X179505714Y-34003571D01*
X180434285Y-34003571D01*
X115707142Y-51778571D02*
X116707142Y-53278571D01*
X116707142Y-51778571D02*
X115707142Y-53278571D01*
X118135714Y-53135714D02*
X118064285Y-53207142D01*
X117850000Y-53278571D01*
X117707142Y-53278571D01*
X117492857Y-53207142D01*
X117350000Y-53064285D01*
X117278571Y-52921428D01*
X117207142Y-52635714D01*
X117207142Y-52421428D01*
X117278571Y-52135714D01*
X117350000Y-51992857D01*
X117492857Y-51850000D01*
X117707142Y-51778571D01*
X117850000Y-51778571D01*
X118064285Y-51850000D01*
X118135714Y-51921428D01*
X118778571Y-53278571D02*
X118778571Y-51778571D01*
X119635714Y-53278571D01*
X119635714Y-51778571D01*
X121135714Y-53278571D02*
X120278571Y-53278571D01*
X120707142Y-53278571D02*
X120707142Y-51778571D01*
X120564285Y-51992857D01*
X120421428Y-52135714D01*
X120278571Y-52207142D01*
X121707142Y-52850000D02*
X122421428Y-52850000D01*
X121564285Y-53278571D02*
X122064285Y-51778571D01*
X122564285Y-53278571D01*
D10*
X178543904Y-55692380D02*
X178543904Y-54692380D01*
X178782000Y-54692380D01*
X178924857Y-54740000D01*
X179020095Y-54835238D01*
X179067714Y-54930476D01*
X179115333Y-55120952D01*
X179115333Y-55263809D01*
X179067714Y-55454285D01*
X179020095Y-55549523D01*
X178924857Y-55644761D01*
X178782000Y-55692380D01*
X178543904Y-55692380D01*
X179448666Y-54692380D02*
X180115333Y-54692380D01*
X179686761Y-55692380D01*
X176003904Y-55692380D02*
X176003904Y-54692380D01*
X176242000Y-54692380D01*
X176384857Y-54740000D01*
X176480095Y-54835238D01*
X176527714Y-54930476D01*
X176575333Y-55120952D01*
X176575333Y-55263809D01*
X176527714Y-55454285D01*
X176480095Y-55549523D01*
X176384857Y-55644761D01*
X176242000Y-55692380D01*
X176003904Y-55692380D01*
X177432476Y-54692380D02*
X177242000Y-54692380D01*
X177146761Y-54740000D01*
X177099142Y-54787619D01*
X177003904Y-54930476D01*
X176956285Y-55120952D01*
X176956285Y-55501904D01*
X177003904Y-55597142D01*
X177051523Y-55644761D01*
X177146761Y-55692380D01*
X177337238Y-55692380D01*
X177432476Y-55644761D01*
X177480095Y-55597142D01*
X177527714Y-55501904D01*
X177527714Y-55263809D01*
X177480095Y-55168571D01*
X177432476Y-55120952D01*
X177337238Y-55073333D01*
X177146761Y-55073333D01*
X177051523Y-55120952D01*
X177003904Y-55168571D01*
X176956285Y-55263809D01*
X173463904Y-55692380D02*
X173463904Y-54692380D01*
X173702000Y-54692380D01*
X173844857Y-54740000D01*
X173940095Y-54835238D01*
X173987714Y-54930476D01*
X174035333Y-55120952D01*
X174035333Y-55263809D01*
X173987714Y-55454285D01*
X173940095Y-55549523D01*
X173844857Y-55644761D01*
X173702000Y-55692380D01*
X173463904Y-55692380D01*
X174940095Y-54692380D02*
X174463904Y-54692380D01*
X174416285Y-55168571D01*
X174463904Y-55120952D01*
X174559142Y-55073333D01*
X174797238Y-55073333D01*
X174892476Y-55120952D01*
X174940095Y-55168571D01*
X174987714Y-55263809D01*
X174987714Y-55501904D01*
X174940095Y-55597142D01*
X174892476Y-55644761D01*
X174797238Y-55692380D01*
X174559142Y-55692380D01*
X174463904Y-55644761D01*
X174416285Y-55597142D01*
X170923904Y-55692380D02*
X170923904Y-54692380D01*
X171162000Y-54692380D01*
X171304857Y-54740000D01*
X171400095Y-54835238D01*
X171447714Y-54930476D01*
X171495333Y-55120952D01*
X171495333Y-55263809D01*
X171447714Y-55454285D01*
X171400095Y-55549523D01*
X171304857Y-55644761D01*
X171162000Y-55692380D01*
X170923904Y-55692380D01*
X172352476Y-55025714D02*
X172352476Y-55692380D01*
X172114380Y-54644761D02*
X171876285Y-55359047D01*
X172495333Y-55359047D01*
X165843904Y-55692380D02*
X165843904Y-54692380D01*
X166082000Y-54692380D01*
X166224857Y-54740000D01*
X166320095Y-54835238D01*
X166367714Y-54930476D01*
X166415333Y-55120952D01*
X166415333Y-55263809D01*
X166367714Y-55454285D01*
X166320095Y-55549523D01*
X166224857Y-55644761D01*
X166082000Y-55692380D01*
X165843904Y-55692380D01*
X166796285Y-54787619D02*
X166843904Y-54740000D01*
X166939142Y-54692380D01*
X167177238Y-54692380D01*
X167272476Y-54740000D01*
X167320095Y-54787619D01*
X167367714Y-54882857D01*
X167367714Y-54978095D01*
X167320095Y-55120952D01*
X166748666Y-55692380D01*
X167367714Y-55692380D01*
X163303904Y-55692380D02*
X163303904Y-54692380D01*
X163542000Y-54692380D01*
X163684857Y-54740000D01*
X163780095Y-54835238D01*
X163827714Y-54930476D01*
X163875333Y-55120952D01*
X163875333Y-55263809D01*
X163827714Y-55454285D01*
X163780095Y-55549523D01*
X163684857Y-55644761D01*
X163542000Y-55692380D01*
X163303904Y-55692380D01*
X164827714Y-55692380D02*
X164256285Y-55692380D01*
X164542000Y-55692380D02*
X164542000Y-54692380D01*
X164446761Y-54835238D01*
X164351523Y-54930476D01*
X164256285Y-54978095D01*
X160636904Y-55692380D02*
X160636904Y-54692380D01*
X160875000Y-54692380D01*
X161017857Y-54740000D01*
X161113095Y-54835238D01*
X161160714Y-54930476D01*
X161208333Y-55120952D01*
X161208333Y-55263809D01*
X161160714Y-55454285D01*
X161113095Y-55549523D01*
X161017857Y-55644761D01*
X160875000Y-55692380D01*
X160636904Y-55692380D01*
X161827380Y-54692380D02*
X161922619Y-54692380D01*
X162017857Y-54740000D01*
X162065476Y-54787619D01*
X162113095Y-54882857D01*
X162160714Y-55073333D01*
X162160714Y-55311428D01*
X162113095Y-55501904D01*
X162065476Y-55597142D01*
X162017857Y-55644761D01*
X161922619Y-55692380D01*
X161827380Y-55692380D01*
X161732142Y-55644761D01*
X161684523Y-55597142D01*
X161636904Y-55501904D01*
X161589285Y-55311428D01*
X161589285Y-55073333D01*
X161636904Y-54882857D01*
X161684523Y-54787619D01*
X161732142Y-54740000D01*
X161827380Y-54692380D01*
X181218809Y-54692380D02*
X181314047Y-54692380D01*
X181409285Y-54740000D01*
X181456904Y-54787619D01*
X181504523Y-54882857D01*
X181552142Y-55073333D01*
X181552142Y-55311428D01*
X181504523Y-55501904D01*
X181456904Y-55597142D01*
X181409285Y-55644761D01*
X181314047Y-55692380D01*
X181218809Y-55692380D01*
X181123571Y-55644761D01*
X181075952Y-55597142D01*
X181028333Y-55501904D01*
X180980714Y-55311428D01*
X180980714Y-55073333D01*
X181028333Y-54882857D01*
X181075952Y-54787619D01*
X181123571Y-54740000D01*
X181218809Y-54692380D01*
X181837857Y-54692380D02*
X182171190Y-55692380D01*
X182504523Y-54692380D01*
X184171523Y-54692380D02*
X183695333Y-54692380D01*
X183647714Y-55168571D01*
X183695333Y-55120952D01*
X183790571Y-55073333D01*
X184028666Y-55073333D01*
X184123904Y-55120952D01*
X184171523Y-55168571D01*
X184219142Y-55263809D01*
X184219142Y-55501904D01*
X184171523Y-55597142D01*
X184123904Y-55644761D01*
X184028666Y-55692380D01*
X183790571Y-55692380D01*
X183695333Y-55644761D01*
X183647714Y-55597142D01*
X184504857Y-54692380D02*
X184838190Y-55692380D01*
X185171523Y-54692380D01*
X117038380Y-39203142D02*
X116038380Y-39203142D01*
X116514571Y-39203142D02*
X116514571Y-38631714D01*
X117038380Y-38631714D02*
X116038380Y-38631714D01*
X116038380Y-38250761D02*
X117038380Y-38012666D01*
X116324095Y-37822190D01*
X117038380Y-37631714D01*
X116038380Y-37393619D01*
X116514571Y-36679333D02*
X116562190Y-36536476D01*
X116609809Y-36488857D01*
X116705047Y-36441238D01*
X116847904Y-36441238D01*
X116943142Y-36488857D01*
X116990761Y-36536476D01*
X117038380Y-36631714D01*
X117038380Y-37012666D01*
X116038380Y-37012666D01*
X116038380Y-36679333D01*
X116086000Y-36584095D01*
X116133619Y-36536476D01*
X116228857Y-36488857D01*
X116324095Y-36488857D01*
X116419333Y-36536476D01*
X116466952Y-36584095D01*
X116514571Y-36679333D01*
X116514571Y-37012666D01*
X119324380Y-38647619D02*
X118848190Y-38980952D01*
X119324380Y-39219047D02*
X118324380Y-39219047D01*
X118324380Y-38838095D01*
X118372000Y-38742857D01*
X118419619Y-38695238D01*
X118514857Y-38647619D01*
X118657714Y-38647619D01*
X118752952Y-38695238D01*
X118800571Y-38742857D01*
X118848190Y-38838095D01*
X118848190Y-39219047D01*
X119276761Y-38266666D02*
X119324380Y-38123809D01*
X119324380Y-37885714D01*
X119276761Y-37790476D01*
X119229142Y-37742857D01*
X119133904Y-37695238D01*
X119038666Y-37695238D01*
X118943428Y-37742857D01*
X118895809Y-37790476D01*
X118848190Y-37885714D01*
X118800571Y-38076190D01*
X118752952Y-38171428D01*
X118705333Y-38219047D01*
X118610095Y-38266666D01*
X118514857Y-38266666D01*
X118419619Y-38219047D01*
X118372000Y-38171428D01*
X118324380Y-38076190D01*
X118324380Y-37838095D01*
X118372000Y-37695238D01*
X118324380Y-37409523D02*
X118324380Y-36838095D01*
X119324380Y-37123809D02*
X118324380Y-37123809D01*
X114450761Y-39338095D02*
X114498380Y-39195238D01*
X114498380Y-38957142D01*
X114450761Y-38861904D01*
X114403142Y-38814285D01*
X114307904Y-38766666D01*
X114212666Y-38766666D01*
X114117428Y-38814285D01*
X114069809Y-38861904D01*
X114022190Y-38957142D01*
X113974571Y-39147619D01*
X113926952Y-39242857D01*
X113879333Y-39290476D01*
X113784095Y-39338095D01*
X113688857Y-39338095D01*
X113593619Y-39290476D01*
X113546000Y-39242857D01*
X113498380Y-39147619D01*
X113498380Y-38909523D01*
X113546000Y-38766666D01*
X114498380Y-37861904D02*
X114498380Y-38338095D01*
X113498380Y-38338095D01*
X113498380Y-37338095D02*
X113498380Y-37242857D01*
X113546000Y-37147619D01*
X113593619Y-37100000D01*
X113688857Y-37052380D01*
X113879333Y-37004761D01*
X114117428Y-37004761D01*
X114307904Y-37052380D01*
X114403142Y-37100000D01*
X114450761Y-37147619D01*
X114498380Y-37242857D01*
X114498380Y-37338095D01*
X114450761Y-37433333D01*
X114403142Y-37480952D01*
X114307904Y-37528571D01*
X114117428Y-37576190D01*
X113879333Y-37576190D01*
X113688857Y-37528571D01*
X113593619Y-37480952D01*
X113546000Y-37433333D01*
X113498380Y-37338095D01*
X113498380Y-36671428D02*
X114498380Y-36433333D01*
X113784095Y-36242857D01*
X114498380Y-36052380D01*
X113498380Y-35814285D01*
D12*
X100870000Y-56320000D02*
X100870000Y-54990000D01*
X102200000Y-56320000D02*
X100870000Y-56320000D01*
X103470000Y-56320000D02*
X103470000Y-53660000D01*
X103470000Y-53660000D02*
X106070000Y-53660000D01*
X103470000Y-56320000D02*
X106070000Y-56320000D01*
X106070000Y-56320000D02*
X106070000Y-53660000D01*
X117850000Y-39920000D02*
X119180000Y-39920000D01*
X117850000Y-41250000D02*
X117850000Y-39920000D01*
X117850000Y-42520000D02*
X120510000Y-42520000D01*
X120510000Y-42520000D02*
X120510000Y-45120000D01*
X117850000Y-42520000D02*
X117850000Y-45120000D01*
X117850000Y-45120000D02*
X120510000Y-45120000D01*
X160070000Y-58530000D02*
X160070000Y-57200000D01*
X161400000Y-58530000D02*
X160070000Y-58530000D01*
X162670000Y-58530000D02*
X162670000Y-55870000D01*
X162670000Y-55870000D02*
X185590000Y-55870000D01*
X162670000Y-58530000D02*
X185590000Y-58530000D01*
X185590000Y-58530000D02*
X185590000Y-55870000D01*
D10*
X137359604Y-39406586D02*
X136458043Y-40308148D01*
X147100000Y-28853018D02*
X146622703Y-29330315D01*
X157246982Y-39000000D02*
X156769685Y-39477297D01*
X147100000Y-49146982D02*
X147577297Y-48669685D01*
X136953018Y-39000000D02*
X137430315Y-38522703D01*
X147100000Y-49146982D02*
X146622703Y-48669685D01*
X157246982Y-39000000D02*
X156769685Y-38522703D01*
X147100000Y-28853018D02*
X147577297Y-29330315D01*
X136953018Y-39000000D02*
X137359604Y-39406586D01*
D12*
X95275000Y-34304775D02*
X95775000Y-34304775D01*
X95525000Y-34554775D02*
X95525000Y-34054775D01*
X96716000Y-29149000D02*
X97284000Y-29149000D01*
X96482000Y-29189000D02*
X97518000Y-29189000D01*
X96323000Y-29229000D02*
X97677000Y-29229000D01*
X96195000Y-29269000D02*
X97805000Y-29269000D01*
X96085000Y-29309000D02*
X97915000Y-29309000D01*
X95989000Y-29349000D02*
X98011000Y-29349000D01*
X95902000Y-29389000D02*
X98098000Y-29389000D01*
X95822000Y-29429000D02*
X98178000Y-29429000D01*
X98040000Y-29469000D02*
X98251000Y-29469000D01*
X95749000Y-29469000D02*
X95960000Y-29469000D01*
X98040000Y-29509000D02*
X98319000Y-29509000D01*
X95681000Y-29509000D02*
X95960000Y-29509000D01*
X98040000Y-29549000D02*
X98383000Y-29549000D01*
X95617000Y-29549000D02*
X95960000Y-29549000D01*
X98040000Y-29589000D02*
X98443000Y-29589000D01*
X95557000Y-29589000D02*
X95960000Y-29589000D01*
X98040000Y-29629000D02*
X98500000Y-29629000D01*
X95500000Y-29629000D02*
X95960000Y-29629000D01*
X98040000Y-29669000D02*
X98554000Y-29669000D01*
X95446000Y-29669000D02*
X95960000Y-29669000D01*
X98040000Y-29709000D02*
X98605000Y-29709000D01*
X95395000Y-29709000D02*
X95960000Y-29709000D01*
X98040000Y-29749000D02*
X98653000Y-29749000D01*
X95347000Y-29749000D02*
X95960000Y-29749000D01*
X98040000Y-29789000D02*
X98699000Y-29789000D01*
X95301000Y-29789000D02*
X95960000Y-29789000D01*
X98040000Y-29829000D02*
X98743000Y-29829000D01*
X95257000Y-29829000D02*
X95960000Y-29829000D01*
X98040000Y-29869000D02*
X98785000Y-29869000D01*
X95215000Y-29869000D02*
X95960000Y-29869000D01*
X98040000Y-29909000D02*
X98826000Y-29909000D01*
X95174000Y-29909000D02*
X95960000Y-29909000D01*
X98040000Y-29949000D02*
X98864000Y-29949000D01*
X95136000Y-29949000D02*
X95960000Y-29949000D01*
X98040000Y-29989000D02*
X98901000Y-29989000D01*
X95099000Y-29989000D02*
X95960000Y-29989000D01*
X98040000Y-30029000D02*
X98937000Y-30029000D01*
X95063000Y-30029000D02*
X95960000Y-30029000D01*
X98040000Y-30069000D02*
X98971000Y-30069000D01*
X95029000Y-30069000D02*
X95960000Y-30069000D01*
X98040000Y-30109000D02*
X99004000Y-30109000D01*
X94996000Y-30109000D02*
X95960000Y-30109000D01*
X98040000Y-30149000D02*
X99035000Y-30149000D01*
X94965000Y-30149000D02*
X95960000Y-30149000D01*
X98040000Y-30189000D02*
X99065000Y-30189000D01*
X94935000Y-30189000D02*
X95960000Y-30189000D01*
X98040000Y-30229000D02*
X99095000Y-30229000D01*
X94905000Y-30229000D02*
X95960000Y-30229000D01*
X98040000Y-30269000D02*
X99122000Y-30269000D01*
X94878000Y-30269000D02*
X95960000Y-30269000D01*
X98040000Y-30309000D02*
X99149000Y-30309000D01*
X94851000Y-30309000D02*
X95960000Y-30309000D01*
X98040000Y-30349000D02*
X99175000Y-30349000D01*
X94825000Y-30349000D02*
X95960000Y-30349000D01*
X98040000Y-30389000D02*
X99200000Y-30389000D01*
X94800000Y-30389000D02*
X95960000Y-30389000D01*
X98040000Y-30429000D02*
X99224000Y-30429000D01*
X94776000Y-30429000D02*
X95960000Y-30429000D01*
X98040000Y-30469000D02*
X99247000Y-30469000D01*
X94753000Y-30469000D02*
X95960000Y-30469000D01*
X98040000Y-30509000D02*
X99268000Y-30509000D01*
X94732000Y-30509000D02*
X95960000Y-30509000D01*
X98040000Y-30549000D02*
X99290000Y-30549000D01*
X94710000Y-30549000D02*
X95960000Y-30549000D01*
X98040000Y-30589000D02*
X99310000Y-30589000D01*
X94690000Y-30589000D02*
X95960000Y-30589000D01*
X98040000Y-30629000D02*
X99329000Y-30629000D01*
X94671000Y-30629000D02*
X95960000Y-30629000D01*
X98040000Y-30669000D02*
X99348000Y-30669000D01*
X94652000Y-30669000D02*
X95960000Y-30669000D01*
X98040000Y-30709000D02*
X99365000Y-30709000D01*
X94635000Y-30709000D02*
X95960000Y-30709000D01*
X98040000Y-30749000D02*
X99382000Y-30749000D01*
X94618000Y-30749000D02*
X95960000Y-30749000D01*
X98040000Y-30789000D02*
X99398000Y-30789000D01*
X94602000Y-30789000D02*
X95960000Y-30789000D01*
X98040000Y-30829000D02*
X99414000Y-30829000D01*
X94586000Y-30829000D02*
X95960000Y-30829000D01*
X98040000Y-30869000D02*
X99428000Y-30869000D01*
X94572000Y-30869000D02*
X95960000Y-30869000D01*
X98040000Y-30909000D02*
X99442000Y-30909000D01*
X94558000Y-30909000D02*
X95960000Y-30909000D01*
X98040000Y-30949000D02*
X99455000Y-30949000D01*
X94545000Y-30949000D02*
X95960000Y-30949000D01*
X98040000Y-30989000D02*
X99468000Y-30989000D01*
X94532000Y-30989000D02*
X95960000Y-30989000D01*
X98040000Y-31029000D02*
X99480000Y-31029000D01*
X94520000Y-31029000D02*
X95960000Y-31029000D01*
X98040000Y-31070000D02*
X99491000Y-31070000D01*
X94509000Y-31070000D02*
X95960000Y-31070000D01*
X98040000Y-31110000D02*
X99501000Y-31110000D01*
X94499000Y-31110000D02*
X95960000Y-31110000D01*
X98040000Y-31150000D02*
X99511000Y-31150000D01*
X94489000Y-31150000D02*
X95960000Y-31150000D01*
X98040000Y-31190000D02*
X99520000Y-31190000D01*
X94480000Y-31190000D02*
X95960000Y-31190000D01*
X98040000Y-31230000D02*
X99528000Y-31230000D01*
X94472000Y-31230000D02*
X95960000Y-31230000D01*
X98040000Y-31270000D02*
X99536000Y-31270000D01*
X94464000Y-31270000D02*
X95960000Y-31270000D01*
X98040000Y-31310000D02*
X99543000Y-31310000D01*
X94457000Y-31310000D02*
X95960000Y-31310000D01*
X98040000Y-31350000D02*
X99550000Y-31350000D01*
X94450000Y-31350000D02*
X95960000Y-31350000D01*
X98040000Y-31390000D02*
X99556000Y-31390000D01*
X94444000Y-31390000D02*
X95960000Y-31390000D01*
X98040000Y-31430000D02*
X99561000Y-31430000D01*
X94439000Y-31430000D02*
X95960000Y-31430000D01*
X98040000Y-31470000D02*
X99565000Y-31470000D01*
X94435000Y-31470000D02*
X95960000Y-31470000D01*
X98040000Y-31510000D02*
X99569000Y-31510000D01*
X94431000Y-31510000D02*
X95960000Y-31510000D01*
X94427000Y-31550000D02*
X99573000Y-31550000D01*
X94424000Y-31590000D02*
X99576000Y-31590000D01*
X94422000Y-31630000D02*
X99578000Y-31630000D01*
X94421000Y-31670000D02*
X99579000Y-31670000D01*
X94420000Y-31710000D02*
X99580000Y-31710000D01*
X94420000Y-31750000D02*
X99580000Y-31750000D01*
X99620000Y-31750000D02*
G75*
G03X99620000Y-31750000I-2620000J0D01*
G01*
D13*
G36*
X180998576Y-41049036D02*
G01*
X181399322Y-40973487D01*
X181629154Y-40415959D01*
X181401748Y-40081535D01*
X181338431Y-39987878D01*
X181281896Y-39903218D01*
X181234727Y-39831505D01*
X181199502Y-39776689D01*
X181178805Y-39742720D01*
X181174342Y-39733470D01*
X181185820Y-39716805D01*
X181217551Y-39681194D01*
X181265483Y-39630629D01*
X181325562Y-39569100D01*
X181393733Y-39500601D01*
X181465945Y-39429121D01*
X181538142Y-39358653D01*
X181606273Y-39293189D01*
X181666283Y-39236720D01*
X181714119Y-39193237D01*
X181745727Y-39166732D01*
X181756305Y-39160395D01*
X181775806Y-39169514D01*
X181818531Y-39195080D01*
X181880298Y-39234403D01*
X181956931Y-39284797D01*
X182044248Y-39343573D01*
X182094052Y-39377632D01*
X182184993Y-39439711D01*
X182267059Y-39494874D01*
X182336163Y-39540446D01*
X182388222Y-39573750D01*
X182419150Y-39592110D01*
X182425650Y-39594869D01*
X182444121Y-39588615D01*
X182487172Y-39571566D01*
X182548749Y-39546297D01*
X182622799Y-39515378D01*
X182703270Y-39481382D01*
X182784107Y-39446882D01*
X182859258Y-39414449D01*
X182922671Y-39386657D01*
X182968293Y-39366077D01*
X182990069Y-39355281D01*
X182990926Y-39354644D01*
X182995084Y-39337693D01*
X183004361Y-39292549D01*
X183017844Y-39223890D01*
X183034621Y-39136398D01*
X183053781Y-39034750D01*
X183064830Y-38975444D01*
X183085510Y-38866828D01*
X183105189Y-38768723D01*
X183122789Y-38686091D01*
X183137233Y-38623896D01*
X183147446Y-38587101D01*
X183150686Y-38579704D01*
X183172617Y-38572460D01*
X183222147Y-38566615D01*
X183293485Y-38562165D01*
X183380839Y-38559107D01*
X183478417Y-38557435D01*
X183580426Y-38557147D01*
X183681075Y-38558239D01*
X183774572Y-38560706D01*
X183855125Y-38564544D01*
X183916942Y-38569750D01*
X183954230Y-38576319D01*
X183961993Y-38580259D01*
X183971298Y-38603812D01*
X183984600Y-38653718D01*
X184000337Y-38723377D01*
X184016946Y-38806187D01*
X184022319Y-38835095D01*
X184047848Y-38974469D01*
X184068408Y-39084564D01*
X184084815Y-39169018D01*
X184097887Y-39231470D01*
X184108441Y-39275556D01*
X184117294Y-39304915D01*
X184125263Y-39323185D01*
X184133165Y-39334002D01*
X184134727Y-39335515D01*
X184159886Y-39350623D01*
X184208850Y-39373671D01*
X184275621Y-39402356D01*
X184354205Y-39434378D01*
X184438607Y-39467435D01*
X184522830Y-39499227D01*
X184600879Y-39527451D01*
X184666759Y-39549807D01*
X184714473Y-39563993D01*
X184738027Y-39567707D01*
X184738852Y-39567398D01*
X184758104Y-39554811D01*
X184800463Y-39526256D01*
X184861521Y-39484733D01*
X184936868Y-39433244D01*
X185022096Y-39374789D01*
X185046315Y-39358142D01*
X185134123Y-39298785D01*
X185214238Y-39246553D01*
X185282062Y-39204292D01*
X185332993Y-39174847D01*
X185362431Y-39161063D01*
X185366048Y-39160395D01*
X185385057Y-39171976D01*
X185422714Y-39203976D01*
X185474973Y-39252282D01*
X185537786Y-39312780D01*
X185607106Y-39381356D01*
X185678885Y-39453896D01*
X185749077Y-39526288D01*
X185813635Y-39594416D01*
X185868510Y-39654168D01*
X185909656Y-39701429D01*
X185933026Y-39732087D01*
X185936842Y-39740568D01*
X185927855Y-39760309D01*
X185903616Y-39800726D01*
X185868209Y-39855237D01*
X185839711Y-39897177D01*
X185787418Y-39973171D01*
X185725845Y-40063166D01*
X185664370Y-40153436D01*
X185631469Y-40201968D01*
X185520359Y-40366238D01*
X185594916Y-40504131D01*
X185627578Y-40566951D01*
X185652966Y-40620371D01*
X185667446Y-40656516D01*
X185669460Y-40665716D01*
X185654584Y-40676779D01*
X185612547Y-40698606D01*
X185547227Y-40729566D01*
X185462500Y-40768030D01*
X185362245Y-40812368D01*
X185250339Y-40860953D01*
X185130659Y-40912154D01*
X185007084Y-40964341D01*
X184883491Y-41015887D01*
X184763757Y-41065160D01*
X184651759Y-41110533D01*
X184551377Y-41150375D01*
X184466486Y-41183058D01*
X184400965Y-41206951D01*
X184358690Y-41220426D01*
X184344172Y-41222594D01*
X184325653Y-41205417D01*
X184295590Y-41167810D01*
X184260232Y-41117634D01*
X184257434Y-41113422D01*
X184153625Y-40983736D01*
X184032515Y-40879166D01*
X183897976Y-40800619D01*
X183753882Y-40749001D01*
X183604105Y-40725218D01*
X183452517Y-40730177D01*
X183302992Y-40764783D01*
X183159400Y-40829943D01*
X183127984Y-40849114D01*
X183001125Y-40948826D01*
X182899255Y-41066623D01*
X182822904Y-41198429D01*
X182772602Y-41340167D01*
X182748879Y-41487758D01*
X182752265Y-41637127D01*
X182783288Y-41784197D01*
X182842480Y-41924889D01*
X182930369Y-42055127D01*
X182966042Y-42095414D01*
X183077706Y-42197945D01*
X183195257Y-42272659D01*
X183327020Y-42323910D01*
X183457507Y-42352454D01*
X183604216Y-42359500D01*
X183751653Y-42336004D01*
X183894834Y-42284351D01*
X184028777Y-42206929D01*
X184148498Y-42106125D01*
X184249014Y-41984324D01*
X184259609Y-41968316D01*
X184294306Y-41917602D01*
X184324370Y-41879050D01*
X184343565Y-41860619D01*
X184344172Y-41860351D01*
X184364936Y-41864308D01*
X184412062Y-41879993D01*
X184481673Y-41905778D01*
X184569893Y-41940031D01*
X184672844Y-41981123D01*
X184786650Y-42027424D01*
X184907435Y-42077304D01*
X185031321Y-42129133D01*
X185154432Y-42181281D01*
X185272891Y-42232118D01*
X185382823Y-42280013D01*
X185480349Y-42323338D01*
X185561593Y-42360462D01*
X185622679Y-42389756D01*
X185659730Y-42409588D01*
X185669460Y-42417574D01*
X185661883Y-42441979D01*
X185641560Y-42487642D01*
X185612125Y-42546690D01*
X185594916Y-42579160D01*
X185520359Y-42717053D01*
X185631469Y-42881323D01*
X185688390Y-42965179D01*
X185751030Y-43056987D01*
X185810011Y-43143020D01*
X185839711Y-43186113D01*
X185880410Y-43246723D01*
X185912663Y-43298045D01*
X185932384Y-43333385D01*
X185936554Y-43344863D01*
X185925307Y-43361570D01*
X185893911Y-43398546D01*
X185845624Y-43452205D01*
X185783708Y-43518962D01*
X185711421Y-43595234D01*
X185665008Y-43643473D01*
X185582087Y-43727867D01*
X185507920Y-43800803D01*
X185445680Y-43859331D01*
X185398541Y-43900503D01*
X185369673Y-43921372D01*
X185363815Y-43923374D01*
X185341532Y-43914083D01*
X185296477Y-43888409D01*
X185233211Y-43849200D01*
X185156295Y-43799303D01*
X185070292Y-43741567D01*
X185046315Y-43725149D01*
X184959170Y-43665323D01*
X184880710Y-43611650D01*
X184815345Y-43567130D01*
X184767484Y-43534765D01*
X184741535Y-43517555D01*
X184738852Y-43515893D01*
X184718172Y-43518379D01*
X184672704Y-43531577D01*
X184608444Y-43553186D01*
X184531387Y-43580904D01*
X184447529Y-43612430D01*
X184362866Y-43645463D01*
X184283392Y-43677701D01*
X184215104Y-43706843D01*
X184163997Y-43730588D01*
X184136067Y-43746635D01*
X184134727Y-43747775D01*
X184126745Y-43757588D01*
X184118851Y-43774161D01*
X184110229Y-43801132D01*
X184100062Y-43842139D01*
X184087531Y-43900820D01*
X184071821Y-43980813D01*
X184052113Y-44085755D01*
X184027592Y-44219285D01*
X184022319Y-44248196D01*
X184005764Y-44333882D01*
X183989569Y-44408582D01*
X183975296Y-44465694D01*
X183964508Y-44498617D01*
X183961993Y-44503031D01*
X183939696Y-44510306D01*
X183889869Y-44516219D01*
X183818304Y-44520766D01*
X183730793Y-44523945D01*
X183633128Y-44525749D01*
X183531101Y-44526177D01*
X183430503Y-44525223D01*
X183337127Y-44522884D01*
X183256765Y-44519156D01*
X183195209Y-44514034D01*
X183158250Y-44507516D01*
X183150686Y-44503586D01*
X183143056Y-44481708D01*
X183130642Y-44431891D01*
X183114522Y-44359097D01*
X183095773Y-44268289D01*
X183075471Y-44164431D01*
X183064830Y-44107846D01*
X183044760Y-44000486D01*
X183026580Y-43904746D01*
X183011199Y-43825306D01*
X182999531Y-43766846D01*
X182992488Y-43734045D01*
X182990926Y-43728646D01*
X182973322Y-43719522D01*
X182930918Y-43700235D01*
X182869772Y-43673355D01*
X182795943Y-43641454D01*
X182715489Y-43607102D01*
X182634468Y-43572871D01*
X182558937Y-43541331D01*
X182494955Y-43515054D01*
X182448580Y-43496611D01*
X182425869Y-43488571D01*
X182424876Y-43488422D01*
X182406961Y-43497535D01*
X182365733Y-43523086D01*
X182305291Y-43562388D01*
X182229731Y-43612757D01*
X182143152Y-43671506D01*
X182093421Y-43705658D01*
X182002236Y-43767890D01*
X181919449Y-43823164D01*
X181849249Y-43868782D01*
X181795824Y-43902048D01*
X181763361Y-43920264D01*
X181756083Y-43922895D01*
X181739145Y-43911586D01*
X181702978Y-43880319D01*
X181651635Y-43833090D01*
X181589167Y-43773892D01*
X181519626Y-43706719D01*
X181447065Y-43635566D01*
X181375535Y-43564426D01*
X181309087Y-43497293D01*
X181251774Y-43438161D01*
X181207647Y-43391025D01*
X181180759Y-43359877D01*
X181174342Y-43349457D01*
X181183365Y-43332491D01*
X181208715Y-43291911D01*
X181247810Y-43231663D01*
X181298071Y-43155693D01*
X181356917Y-43067946D01*
X181401748Y-43001756D01*
X181629154Y-42667332D01*
X181514238Y-42388567D01*
X181399322Y-42109803D01*
X180998576Y-42034254D01*
X180597829Y-41958706D01*
X180597829Y-41124585D01*
X180998576Y-41049036D01*
G37*
X180998576Y-41049036D02*
X181399322Y-40973487D01*
X181629154Y-40415959D01*
X181401748Y-40081535D01*
X181338431Y-39987878D01*
X181281896Y-39903218D01*
X181234727Y-39831505D01*
X181199502Y-39776689D01*
X181178805Y-39742720D01*
X181174342Y-39733470D01*
X181185820Y-39716805D01*
X181217551Y-39681194D01*
X181265483Y-39630629D01*
X181325562Y-39569100D01*
X181393733Y-39500601D01*
X181465945Y-39429121D01*
X181538142Y-39358653D01*
X181606273Y-39293189D01*
X181666283Y-39236720D01*
X181714119Y-39193237D01*
X181745727Y-39166732D01*
X181756305Y-39160395D01*
X181775806Y-39169514D01*
X181818531Y-39195080D01*
X181880298Y-39234403D01*
X181956931Y-39284797D01*
X182044248Y-39343573D01*
X182094052Y-39377632D01*
X182184993Y-39439711D01*
X182267059Y-39494874D01*
X182336163Y-39540446D01*
X182388222Y-39573750D01*
X182419150Y-39592110D01*
X182425650Y-39594869D01*
X182444121Y-39588615D01*
X182487172Y-39571566D01*
X182548749Y-39546297D01*
X182622799Y-39515378D01*
X182703270Y-39481382D01*
X182784107Y-39446882D01*
X182859258Y-39414449D01*
X182922671Y-39386657D01*
X182968293Y-39366077D01*
X182990069Y-39355281D01*
X182990926Y-39354644D01*
X182995084Y-39337693D01*
X183004361Y-39292549D01*
X183017844Y-39223890D01*
X183034621Y-39136398D01*
X183053781Y-39034750D01*
X183064830Y-38975444D01*
X183085510Y-38866828D01*
X183105189Y-38768723D01*
X183122789Y-38686091D01*
X183137233Y-38623896D01*
X183147446Y-38587101D01*
X183150686Y-38579704D01*
X183172617Y-38572460D01*
X183222147Y-38566615D01*
X183293485Y-38562165D01*
X183380839Y-38559107D01*
X183478417Y-38557435D01*
X183580426Y-38557147D01*
X183681075Y-38558239D01*
X183774572Y-38560706D01*
X183855125Y-38564544D01*
X183916942Y-38569750D01*
X183954230Y-38576319D01*
X183961993Y-38580259D01*
X183971298Y-38603812D01*
X183984600Y-38653718D01*
X184000337Y-38723377D01*
X184016946Y-38806187D01*
X184022319Y-38835095D01*
X184047848Y-38974469D01*
X184068408Y-39084564D01*
X184084815Y-39169018D01*
X184097887Y-39231470D01*
X184108441Y-39275556D01*
X184117294Y-39304915D01*
X184125263Y-39323185D01*
X184133165Y-39334002D01*
X184134727Y-39335515D01*
X184159886Y-39350623D01*
X184208850Y-39373671D01*
X184275621Y-39402356D01*
X184354205Y-39434378D01*
X184438607Y-39467435D01*
X184522830Y-39499227D01*
X184600879Y-39527451D01*
X184666759Y-39549807D01*
X184714473Y-39563993D01*
X184738027Y-39567707D01*
X184738852Y-39567398D01*
X184758104Y-39554811D01*
X184800463Y-39526256D01*
X184861521Y-39484733D01*
X184936868Y-39433244D01*
X185022096Y-39374789D01*
X185046315Y-39358142D01*
X185134123Y-39298785D01*
X185214238Y-39246553D01*
X185282062Y-39204292D01*
X185332993Y-39174847D01*
X185362431Y-39161063D01*
X185366048Y-39160395D01*
X185385057Y-39171976D01*
X185422714Y-39203976D01*
X185474973Y-39252282D01*
X185537786Y-39312780D01*
X185607106Y-39381356D01*
X185678885Y-39453896D01*
X185749077Y-39526288D01*
X185813635Y-39594416D01*
X185868510Y-39654168D01*
X185909656Y-39701429D01*
X185933026Y-39732087D01*
X185936842Y-39740568D01*
X185927855Y-39760309D01*
X185903616Y-39800726D01*
X185868209Y-39855237D01*
X185839711Y-39897177D01*
X185787418Y-39973171D01*
X185725845Y-40063166D01*
X185664370Y-40153436D01*
X185631469Y-40201968D01*
X185520359Y-40366238D01*
X185594916Y-40504131D01*
X185627578Y-40566951D01*
X185652966Y-40620371D01*
X185667446Y-40656516D01*
X185669460Y-40665716D01*
X185654584Y-40676779D01*
X185612547Y-40698606D01*
X185547227Y-40729566D01*
X185462500Y-40768030D01*
X185362245Y-40812368D01*
X185250339Y-40860953D01*
X185130659Y-40912154D01*
X185007084Y-40964341D01*
X184883491Y-41015887D01*
X184763757Y-41065160D01*
X184651759Y-41110533D01*
X184551377Y-41150375D01*
X184466486Y-41183058D01*
X184400965Y-41206951D01*
X184358690Y-41220426D01*
X184344172Y-41222594D01*
X184325653Y-41205417D01*
X184295590Y-41167810D01*
X184260232Y-41117634D01*
X184257434Y-41113422D01*
X184153625Y-40983736D01*
X184032515Y-40879166D01*
X183897976Y-40800619D01*
X183753882Y-40749001D01*
X183604105Y-40725218D01*
X183452517Y-40730177D01*
X183302992Y-40764783D01*
X183159400Y-40829943D01*
X183127984Y-40849114D01*
X183001125Y-40948826D01*
X182899255Y-41066623D01*
X182822904Y-41198429D01*
X182772602Y-41340167D01*
X182748879Y-41487758D01*
X182752265Y-41637127D01*
X182783288Y-41784197D01*
X182842480Y-41924889D01*
X182930369Y-42055127D01*
X182966042Y-42095414D01*
X183077706Y-42197945D01*
X183195257Y-42272659D01*
X183327020Y-42323910D01*
X183457507Y-42352454D01*
X183604216Y-42359500D01*
X183751653Y-42336004D01*
X183894834Y-42284351D01*
X184028777Y-42206929D01*
X184148498Y-42106125D01*
X184249014Y-41984324D01*
X184259609Y-41968316D01*
X184294306Y-41917602D01*
X184324370Y-41879050D01*
X184343565Y-41860619D01*
X184344172Y-41860351D01*
X184364936Y-41864308D01*
X184412062Y-41879993D01*
X184481673Y-41905778D01*
X184569893Y-41940031D01*
X184672844Y-41981123D01*
X184786650Y-42027424D01*
X184907435Y-42077304D01*
X185031321Y-42129133D01*
X185154432Y-42181281D01*
X185272891Y-42232118D01*
X185382823Y-42280013D01*
X185480349Y-42323338D01*
X185561593Y-42360462D01*
X185622679Y-42389756D01*
X185659730Y-42409588D01*
X185669460Y-42417574D01*
X185661883Y-42441979D01*
X185641560Y-42487642D01*
X185612125Y-42546690D01*
X185594916Y-42579160D01*
X185520359Y-42717053D01*
X185631469Y-42881323D01*
X185688390Y-42965179D01*
X185751030Y-43056987D01*
X185810011Y-43143020D01*
X185839711Y-43186113D01*
X185880410Y-43246723D01*
X185912663Y-43298045D01*
X185932384Y-43333385D01*
X185936554Y-43344863D01*
X185925307Y-43361570D01*
X185893911Y-43398546D01*
X185845624Y-43452205D01*
X185783708Y-43518962D01*
X185711421Y-43595234D01*
X185665008Y-43643473D01*
X185582087Y-43727867D01*
X185507920Y-43800803D01*
X185445680Y-43859331D01*
X185398541Y-43900503D01*
X185369673Y-43921372D01*
X185363815Y-43923374D01*
X185341532Y-43914083D01*
X185296477Y-43888409D01*
X185233211Y-43849200D01*
X185156295Y-43799303D01*
X185070292Y-43741567D01*
X185046315Y-43725149D01*
X184959170Y-43665323D01*
X184880710Y-43611650D01*
X184815345Y-43567130D01*
X184767484Y-43534765D01*
X184741535Y-43517555D01*
X184738852Y-43515893D01*
X184718172Y-43518379D01*
X184672704Y-43531577D01*
X184608444Y-43553186D01*
X184531387Y-43580904D01*
X184447529Y-43612430D01*
X184362866Y-43645463D01*
X184283392Y-43677701D01*
X184215104Y-43706843D01*
X184163997Y-43730588D01*
X184136067Y-43746635D01*
X184134727Y-43747775D01*
X184126745Y-43757588D01*
X184118851Y-43774161D01*
X184110229Y-43801132D01*
X184100062Y-43842139D01*
X184087531Y-43900820D01*
X184071821Y-43980813D01*
X184052113Y-44085755D01*
X184027592Y-44219285D01*
X184022319Y-44248196D01*
X184005764Y-44333882D01*
X183989569Y-44408582D01*
X183975296Y-44465694D01*
X183964508Y-44498617D01*
X183961993Y-44503031D01*
X183939696Y-44510306D01*
X183889869Y-44516219D01*
X183818304Y-44520766D01*
X183730793Y-44523945D01*
X183633128Y-44525749D01*
X183531101Y-44526177D01*
X183430503Y-44525223D01*
X183337127Y-44522884D01*
X183256765Y-44519156D01*
X183195209Y-44514034D01*
X183158250Y-44507516D01*
X183150686Y-44503586D01*
X183143056Y-44481708D01*
X183130642Y-44431891D01*
X183114522Y-44359097D01*
X183095773Y-44268289D01*
X183075471Y-44164431D01*
X183064830Y-44107846D01*
X183044760Y-44000486D01*
X183026580Y-43904746D01*
X183011199Y-43825306D01*
X182999531Y-43766846D01*
X182992488Y-43734045D01*
X182990926Y-43728646D01*
X182973322Y-43719522D01*
X182930918Y-43700235D01*
X182869772Y-43673355D01*
X182795943Y-43641454D01*
X182715489Y-43607102D01*
X182634468Y-43572871D01*
X182558937Y-43541331D01*
X182494955Y-43515054D01*
X182448580Y-43496611D01*
X182425869Y-43488571D01*
X182424876Y-43488422D01*
X182406961Y-43497535D01*
X182365733Y-43523086D01*
X182305291Y-43562388D01*
X182229731Y-43612757D01*
X182143152Y-43671506D01*
X182093421Y-43705658D01*
X182002236Y-43767890D01*
X181919449Y-43823164D01*
X181849249Y-43868782D01*
X181795824Y-43902048D01*
X181763361Y-43920264D01*
X181756083Y-43922895D01*
X181739145Y-43911586D01*
X181702978Y-43880319D01*
X181651635Y-43833090D01*
X181589167Y-43773892D01*
X181519626Y-43706719D01*
X181447065Y-43635566D01*
X181375535Y-43564426D01*
X181309087Y-43497293D01*
X181251774Y-43438161D01*
X181207647Y-43391025D01*
X181180759Y-43359877D01*
X181174342Y-43349457D01*
X181183365Y-43332491D01*
X181208715Y-43291911D01*
X181247810Y-43231663D01*
X181298071Y-43155693D01*
X181356917Y-43067946D01*
X181401748Y-43001756D01*
X181629154Y-42667332D01*
X181514238Y-42388567D01*
X181399322Y-42109803D01*
X180998576Y-42034254D01*
X180597829Y-41958706D01*
X180597829Y-41124585D01*
X180998576Y-41049036D01*
G36*
X186537645Y-39158612D02*
G01*
X186555206Y-39101135D01*
X186577395Y-39064128D01*
X186594942Y-39052073D01*
X186615742Y-39055391D01*
X186648419Y-39076921D01*
X186671562Y-39095126D01*
X186713402Y-39132656D01*
X186731005Y-39160852D01*
X186729856Y-39184889D01*
X186711710Y-39256192D01*
X186712534Y-39308558D01*
X186733098Y-39351082D01*
X186745134Y-39365358D01*
X186787483Y-39411053D01*
X187340526Y-39411053D01*
X187340526Y-39594869D01*
X186538421Y-39594869D01*
X186538421Y-39502961D01*
X186540603Y-39447781D01*
X186548351Y-39419312D01*
X186563468Y-39411057D01*
X186563916Y-39411053D01*
X186579749Y-39407155D01*
X186577684Y-39389526D01*
X186566261Y-39365099D01*
X186545005Y-39314650D01*
X186532216Y-39273684D01*
X186528938Y-39220972D01*
X186537645Y-39158612D01*
G37*
X186537645Y-39158612D02*
X186555206Y-39101135D01*
X186577395Y-39064128D01*
X186594942Y-39052073D01*
X186615742Y-39055391D01*
X186648419Y-39076921D01*
X186671562Y-39095126D01*
X186713402Y-39132656D01*
X186731005Y-39160852D01*
X186729856Y-39184889D01*
X186711710Y-39256192D01*
X186712534Y-39308558D01*
X186733098Y-39351082D01*
X186745134Y-39365358D01*
X186787483Y-39411053D01*
X187340526Y-39411053D01*
X187340526Y-39594869D01*
X186538421Y-39594869D01*
X186538421Y-39502961D01*
X186540603Y-39447781D01*
X186548351Y-39419312D01*
X186563468Y-39411057D01*
X186563916Y-39411053D01*
X186579749Y-39407155D01*
X186577684Y-39389526D01*
X186566261Y-39365099D01*
X186545005Y-39314650D01*
X186532216Y-39273684D01*
X186528938Y-39220972D01*
X186537645Y-39158612D01*
G36*
X186552226Y-42552043D02*
G01*
X186572090Y-42510454D01*
X186600784Y-42470175D01*
X186633809Y-42439490D01*
X186675931Y-42417139D01*
X186731915Y-42401864D01*
X186806528Y-42392408D01*
X186904535Y-42387513D01*
X187030702Y-42385919D01*
X187043914Y-42385894D01*
X187340526Y-42385527D01*
X187340526Y-42569343D01*
X187067081Y-42569343D01*
X186965777Y-42569473D01*
X186892353Y-42570379D01*
X186841271Y-42572827D01*
X186806990Y-42577586D01*
X186783971Y-42585426D01*
X186766673Y-42597115D01*
X186749581Y-42613398D01*
X186712857Y-42670366D01*
X186706042Y-42732555D01*
X186729261Y-42791801D01*
X186746543Y-42812405D01*
X186762791Y-42827530D01*
X186780191Y-42838390D01*
X186804212Y-42845690D01*
X186840322Y-42850137D01*
X186893988Y-42852436D01*
X186970680Y-42853296D01*
X187064043Y-42853422D01*
X187340526Y-42853422D01*
X187340526Y-43037237D01*
X186538421Y-43037237D01*
X186538421Y-42945329D01*
X186540603Y-42890149D01*
X186548351Y-42861680D01*
X186563468Y-42853425D01*
X186563916Y-42853422D01*
X186578720Y-42849592D01*
X186577040Y-42832699D01*
X186560773Y-42799112D01*
X186536840Y-42722937D01*
X186534178Y-42635800D01*
X186552226Y-42552043D01*
G37*
X186552226Y-42552043D02*
X186572090Y-42510454D01*
X186600784Y-42470175D01*
X186633809Y-42439490D01*
X186675931Y-42417139D01*
X186731915Y-42401864D01*
X186806528Y-42392408D01*
X186904535Y-42387513D01*
X187030702Y-42385919D01*
X187043914Y-42385894D01*
X187340526Y-42385527D01*
X187340526Y-42569343D01*
X187067081Y-42569343D01*
X186965777Y-42569473D01*
X186892353Y-42570379D01*
X186841271Y-42572827D01*
X186806990Y-42577586D01*
X186783971Y-42585426D01*
X186766673Y-42597115D01*
X186749581Y-42613398D01*
X186712857Y-42670366D01*
X186706042Y-42732555D01*
X186729261Y-42791801D01*
X186746543Y-42812405D01*
X186762791Y-42827530D01*
X186780191Y-42838390D01*
X186804212Y-42845690D01*
X186840322Y-42850137D01*
X186893988Y-42852436D01*
X186970680Y-42853296D01*
X187064043Y-42853422D01*
X187340526Y-42853422D01*
X187340526Y-43037237D01*
X186538421Y-43037237D01*
X186538421Y-42945329D01*
X186540603Y-42890149D01*
X186548351Y-42861680D01*
X186563468Y-42853425D01*
X186563916Y-42853422D01*
X186578720Y-42849592D01*
X186577040Y-42832699D01*
X186560773Y-42799112D01*
X186536840Y-42722937D01*
X186534178Y-42635800D01*
X186552226Y-42552043D01*
G36*
X186535554Y-37991216D02*
G01*
X186545949Y-37948426D01*
X186584013Y-37866391D01*
X186642149Y-37796243D01*
X186711852Y-37747695D01*
X186727502Y-37741025D01*
X186768496Y-37731876D01*
X186829138Y-37725471D01*
X186890430Y-37723290D01*
X187006316Y-37723290D01*
X187006316Y-37965593D01*
X187006693Y-38065529D01*
X187008987Y-38135931D01*
X187014938Y-38180687D01*
X187026285Y-38203685D01*
X187044771Y-38208811D01*
X187072136Y-38199952D01*
X187104155Y-38184083D01*
X187157592Y-38139816D01*
X187184215Y-38078301D01*
X187183347Y-38003115D01*
X187154371Y-37917947D01*
X187118611Y-37844341D01*
X187166904Y-37783266D01*
X187215197Y-37722190D01*
X187268285Y-37779649D01*
X187318445Y-37856359D01*
X187348688Y-37950698D01*
X187357151Y-38052173D01*
X187341974Y-38150289D01*
X187336824Y-38166119D01*
X187291791Y-38252353D01*
X187224652Y-38316499D01*
X187133405Y-38359909D01*
X187016044Y-38383936D01*
X187013529Y-38384216D01*
X186885627Y-38386367D01*
X186839997Y-38377671D01*
X186839997Y-38207895D01*
X186847013Y-38192303D01*
X186852388Y-38149971D01*
X186855457Y-38087566D01*
X186855921Y-38048019D01*
X186855630Y-37974272D01*
X186853783Y-37928160D01*
X186848912Y-37903900D01*
X186839555Y-37895706D01*
X186824245Y-37897794D01*
X186818322Y-37899545D01*
X186762668Y-37929440D01*
X186717815Y-37976458D01*
X186698105Y-38017951D01*
X186699295Y-38073074D01*
X186723875Y-38128932D01*
X186764570Y-38175788D01*
X186814108Y-38203906D01*
X186839997Y-38207895D01*
X186839997Y-38377671D01*
X186773133Y-38364926D01*
X186678727Y-38322389D01*
X186605088Y-38261253D01*
X186554893Y-38184015D01*
X186530822Y-38093170D01*
X186535554Y-37991216D01*
G37*
X186535554Y-37991216D02*
X186545949Y-37948426D01*
X186584013Y-37866391D01*
X186642149Y-37796243D01*
X186711852Y-37747695D01*
X186727502Y-37741025D01*
X186768496Y-37731876D01*
X186829138Y-37725471D01*
X186890430Y-37723290D01*
X187006316Y-37723290D01*
X187006316Y-37965593D01*
X187006693Y-38065529D01*
X187008987Y-38135931D01*
X187014938Y-38180687D01*
X187026285Y-38203685D01*
X187044771Y-38208811D01*
X187072136Y-38199952D01*
X187104155Y-38184083D01*
X187157592Y-38139816D01*
X187184215Y-38078301D01*
X187183347Y-38003115D01*
X187154371Y-37917947D01*
X187118611Y-37844341D01*
X187166904Y-37783266D01*
X187215197Y-37722190D01*
X187268285Y-37779649D01*
X187318445Y-37856359D01*
X187348688Y-37950698D01*
X187357151Y-38052173D01*
X187341974Y-38150289D01*
X187336824Y-38166119D01*
X187291791Y-38252353D01*
X187224652Y-38316499D01*
X187133405Y-38359909D01*
X187016044Y-38383936D01*
X187013529Y-38384216D01*
X186885627Y-38386367D01*
X186839997Y-38377671D01*
X186839997Y-38207895D01*
X186847013Y-38192303D01*
X186852388Y-38149971D01*
X186855457Y-38087566D01*
X186855921Y-38048019D01*
X186855630Y-37974272D01*
X186853783Y-37928160D01*
X186848912Y-37903900D01*
X186839555Y-37895706D01*
X186824245Y-37897794D01*
X186818322Y-37899545D01*
X186762668Y-37929440D01*
X186717815Y-37976458D01*
X186698105Y-38017951D01*
X186699295Y-38073074D01*
X186723875Y-38128932D01*
X186764570Y-38175788D01*
X186814108Y-38203906D01*
X186839997Y-38207895D01*
X186839997Y-38377671D01*
X186773133Y-38364926D01*
X186678727Y-38322389D01*
X186605088Y-38261253D01*
X186554893Y-38184015D01*
X186530822Y-38093170D01*
X186535554Y-37991216D01*
G36*
X186545419Y-38603424D02*
G01*
X186586549Y-38506605D01*
X186606571Y-38476110D01*
X186637340Y-38437135D01*
X186661533Y-38412669D01*
X186669413Y-38408422D01*
X186686899Y-38420416D01*
X186716570Y-38451113D01*
X186737279Y-38475688D01*
X186791336Y-38542954D01*
X186746642Y-38596070D01*
X186717789Y-38637116D01*
X186707829Y-38677137D01*
X186710261Y-38722941D01*
X186728345Y-38795676D01*
X186765881Y-38845744D01*
X186826562Y-38876171D01*
X186914081Y-38889983D01*
X186914136Y-38889987D01*
X187011958Y-38888792D01*
X187083730Y-38870228D01*
X187132595Y-38833196D01*
X187149143Y-38807950D01*
X187169749Y-38740903D01*
X187169762Y-38669291D01*
X187149768Y-38606985D01*
X187140000Y-38592237D01*
X187115047Y-38555250D01*
X187110958Y-38526332D01*
X187129530Y-38495144D01*
X187162887Y-38460664D01*
X187219196Y-38406088D01*
X187269142Y-38466682D01*
X187325513Y-38560302D01*
X187353293Y-38665875D01*
X187351282Y-38776202D01*
X187332862Y-38848657D01*
X187287310Y-38933344D01*
X187215650Y-39001073D01*
X187165066Y-39031843D01*
X187092488Y-39056764D01*
X187000569Y-39069234D01*
X186900948Y-39069330D01*
X186805267Y-39057130D01*
X186725169Y-39032710D01*
X186716956Y-39028864D01*
X186636413Y-38971907D01*
X186577771Y-38894791D01*
X186542247Y-38803610D01*
X186531057Y-38704457D01*
X186545419Y-38603424D01*
G37*
X186545419Y-38603424D02*
X186586549Y-38506605D01*
X186606571Y-38476110D01*
X186637340Y-38437135D01*
X186661533Y-38412669D01*
X186669413Y-38408422D01*
X186686899Y-38420416D01*
X186716570Y-38451113D01*
X186737279Y-38475688D01*
X186791336Y-38542954D01*
X186746642Y-38596070D01*
X186717789Y-38637116D01*
X186707829Y-38677137D01*
X186710261Y-38722941D01*
X186728345Y-38795676D01*
X186765881Y-38845744D01*
X186826562Y-38876171D01*
X186914081Y-38889983D01*
X186914136Y-38889987D01*
X187011958Y-38888792D01*
X187083730Y-38870228D01*
X187132595Y-38833196D01*
X187149143Y-38807950D01*
X187169749Y-38740903D01*
X187169762Y-38669291D01*
X187149768Y-38606985D01*
X187140000Y-38592237D01*
X187115047Y-38555250D01*
X187110958Y-38526332D01*
X187129530Y-38495144D01*
X187162887Y-38460664D01*
X187219196Y-38406088D01*
X187269142Y-38466682D01*
X187325513Y-38560302D01*
X187353293Y-38665875D01*
X187351282Y-38776202D01*
X187332862Y-38848657D01*
X187287310Y-38933344D01*
X187215650Y-39001073D01*
X187165066Y-39031843D01*
X187092488Y-39056764D01*
X187000569Y-39069234D01*
X186900948Y-39069330D01*
X186805267Y-39057130D01*
X186725169Y-39032710D01*
X186716956Y-39028864D01*
X186636413Y-38971907D01*
X186577771Y-38894791D01*
X186542247Y-38803610D01*
X186531057Y-38704457D01*
X186545419Y-38603424D01*
G36*
X186798533Y-40229869D02*
G01*
X186921089Y-40228290D01*
X187014179Y-40222519D01*
X187081651Y-40211009D01*
X187127355Y-40192210D01*
X187155139Y-40164574D01*
X187168854Y-40126552D01*
X187172358Y-40079474D01*
X187168432Y-40030168D01*
X187154089Y-39992717D01*
X187125478Y-39965572D01*
X187078751Y-39947185D01*
X187010058Y-39936007D01*
X186915550Y-39930489D01*
X186798533Y-39929079D01*
X186538421Y-39929079D01*
X186538421Y-39745264D01*
X187340526Y-39745264D01*
X187340526Y-39837172D01*
X187338281Y-39892578D01*
X187330396Y-39921109D01*
X187315428Y-39929079D01*
X187302097Y-39933880D01*
X187304917Y-39952986D01*
X187323783Y-39991496D01*
X187352887Y-40079761D01*
X187350825Y-40173377D01*
X187319221Y-40263079D01*
X187294257Y-40305796D01*
X187267226Y-40338379D01*
X187233405Y-40362183D01*
X187188068Y-40378561D01*
X187126489Y-40388869D01*
X187043943Y-40394459D01*
X186935705Y-40396688D01*
X186852004Y-40396974D01*
X186538421Y-40396974D01*
X186538421Y-40229869D01*
X186798533Y-40229869D01*
G37*
X186798533Y-40229869D02*
X186921089Y-40228290D01*
X187014179Y-40222519D01*
X187081651Y-40211009D01*
X187127355Y-40192210D01*
X187155139Y-40164574D01*
X187168854Y-40126552D01*
X187172358Y-40079474D01*
X187168432Y-40030168D01*
X187154089Y-39992717D01*
X187125478Y-39965572D01*
X187078751Y-39947185D01*
X187010058Y-39936007D01*
X186915550Y-39930489D01*
X186798533Y-39929079D01*
X186538421Y-39929079D01*
X186538421Y-39745264D01*
X187340526Y-39745264D01*
X187340526Y-39837172D01*
X187338281Y-39892578D01*
X187330396Y-39921109D01*
X187315428Y-39929079D01*
X187302097Y-39933880D01*
X187304917Y-39952986D01*
X187323783Y-39991496D01*
X187352887Y-40079761D01*
X187350825Y-40173377D01*
X187319221Y-40263079D01*
X187294257Y-40305796D01*
X187267226Y-40338379D01*
X187233405Y-40362183D01*
X187188068Y-40378561D01*
X187126489Y-40388869D01*
X187043943Y-40394459D01*
X186935705Y-40396688D01*
X186852004Y-40396974D01*
X186538421Y-40396974D01*
X186538421Y-40229869D01*
X186798533Y-40229869D01*
G36*
X186548310Y-40738331D02*
G01*
X186594340Y-40653808D01*
X186667006Y-40587679D01*
X186726106Y-40556522D01*
X186778305Y-40543145D01*
X186852719Y-40534478D01*
X186938442Y-40530763D01*
X187024569Y-40532246D01*
X187100193Y-40539169D01*
X187140584Y-40547255D01*
X187195840Y-40574535D01*
X187254530Y-40621780D01*
X187305852Y-40678718D01*
X187339005Y-40735076D01*
X187339531Y-40736450D01*
X187354018Y-40806384D01*
X187354377Y-40889263D01*
X187341188Y-40968023D01*
X187330617Y-40998434D01*
X187286201Y-41076761D01*
X187228007Y-41132857D01*
X187150965Y-41169714D01*
X187050001Y-41190320D01*
X186997116Y-41194982D01*
X186930663Y-41194387D01*
X186930663Y-41015264D01*
X187027630Y-41009230D01*
X187101523Y-40991862D01*
X187148736Y-40964260D01*
X187162237Y-40944596D01*
X187171651Y-40894213D01*
X187168864Y-40834327D01*
X187155316Y-40782551D01*
X187147862Y-40768973D01*
X187104451Y-40733151D01*
X187038014Y-40709507D01*
X186957161Y-40699442D01*
X186870502Y-40704358D01*
X186818349Y-40715345D01*
X186757951Y-40746891D01*
X186720197Y-40796689D01*
X186707143Y-40856663D01*
X186720849Y-40918736D01*
X186754372Y-40966418D01*
X186782031Y-40991475D01*
X186809294Y-41006100D01*
X186846190Y-41013071D01*
X186902750Y-41015167D01*
X186930663Y-41015264D01*
X186930663Y-41194387D01*
X186855994Y-41193718D01*
X186740271Y-41170735D01*
X186649941Y-41126028D01*
X186585000Y-41059595D01*
X186545445Y-40971435D01*
X186540858Y-40952505D01*
X186530090Y-40838734D01*
X186548310Y-40738331D01*
G37*
X186548310Y-40738331D02*
X186594340Y-40653808D01*
X186667006Y-40587679D01*
X186726106Y-40556522D01*
X186778305Y-40543145D01*
X186852719Y-40534478D01*
X186938442Y-40530763D01*
X187024569Y-40532246D01*
X187100193Y-40539169D01*
X187140584Y-40547255D01*
X187195840Y-40574535D01*
X187254530Y-40621780D01*
X187305852Y-40678718D01*
X187339005Y-40735076D01*
X187339531Y-40736450D01*
X187354018Y-40806384D01*
X187354377Y-40889263D01*
X187341188Y-40968023D01*
X187330617Y-40998434D01*
X187286201Y-41076761D01*
X187228007Y-41132857D01*
X187150965Y-41169714D01*
X187050001Y-41190320D01*
X186997116Y-41194982D01*
X186930663Y-41194387D01*
X186930663Y-41015264D01*
X187027630Y-41009230D01*
X187101523Y-40991862D01*
X187148736Y-40964260D01*
X187162237Y-40944596D01*
X187171651Y-40894213D01*
X187168864Y-40834327D01*
X187155316Y-40782551D01*
X187147862Y-40768973D01*
X187104451Y-40733151D01*
X187038014Y-40709507D01*
X186957161Y-40699442D01*
X186870502Y-40704358D01*
X186818349Y-40715345D01*
X186757951Y-40746891D01*
X186720197Y-40796689D01*
X186707143Y-40856663D01*
X186720849Y-40918736D01*
X186754372Y-40966418D01*
X186782031Y-40991475D01*
X186809294Y-41006100D01*
X186846190Y-41013071D01*
X186902750Y-41015167D01*
X186930663Y-41015264D01*
X186930663Y-41194387D01*
X186855994Y-41193718D01*
X186740271Y-41170735D01*
X186649941Y-41126028D01*
X186585000Y-41059595D01*
X186545445Y-40971435D01*
X186540858Y-40952505D01*
X186530090Y-40838734D01*
X186548310Y-40738331D01*
G36*
X186535547Y-41531372D02*
G01*
X186547548Y-41468092D01*
X186572648Y-41402443D01*
X186575848Y-41395428D01*
X186602026Y-41345644D01*
X186626353Y-41311166D01*
X186641937Y-41300022D01*
X186667353Y-41310634D01*
X186704853Y-41336412D01*
X186718852Y-41347854D01*
X186773954Y-41395008D01*
X186738086Y-41455799D01*
X186714192Y-41513653D01*
X186701420Y-41580500D01*
X186700613Y-41644606D01*
X186712615Y-41694236D01*
X186720105Y-41706146D01*
X186754450Y-41728828D01*
X186794013Y-41731584D01*
X186824920Y-41714612D01*
X186830913Y-41704573D01*
X186838357Y-41674490D01*
X186847106Y-41621611D01*
X186855467Y-41556425D01*
X186856778Y-41544400D01*
X186874888Y-41439703D01*
X186905651Y-41363768D01*
X186951907Y-41313408D01*
X187016497Y-41285436D01*
X187095387Y-41276722D01*
X187185065Y-41288760D01*
X187255486Y-41327849D01*
X187306777Y-41394145D01*
X187339067Y-41487806D01*
X187351807Y-41591777D01*
X187351654Y-41676562D01*
X187340083Y-41745335D01*
X187324109Y-41792303D01*
X187296275Y-41851650D01*
X187263973Y-41906494D01*
X187249755Y-41925987D01*
X187208835Y-41976119D01*
X187086477Y-41855197D01*
X187131967Y-41786457D01*
X187166133Y-41717512D01*
X187184004Y-41643889D01*
X187185889Y-41573117D01*
X187172101Y-41512726D01*
X187142949Y-41470243D01*
X187118352Y-41456526D01*
X187078904Y-41458583D01*
X187048737Y-41492670D01*
X187027906Y-41558692D01*
X187018279Y-41631026D01*
X186999910Y-41742348D01*
X186965254Y-41825048D01*
X186913297Y-41880235D01*
X186843023Y-41909012D01*
X186759707Y-41912999D01*
X186672681Y-41893307D01*
X186606902Y-41848411D01*
X186562068Y-41777909D01*
X186537879Y-41681399D01*
X186533137Y-41609900D01*
X186535547Y-41531372D01*
G37*
X186535547Y-41531372D02*
X186547548Y-41468092D01*
X186572648Y-41402443D01*
X186575848Y-41395428D01*
X186602026Y-41345644D01*
X186626353Y-41311166D01*
X186641937Y-41300022D01*
X186667353Y-41310634D01*
X186704853Y-41336412D01*
X186718852Y-41347854D01*
X186773954Y-41395008D01*
X186738086Y-41455799D01*
X186714192Y-41513653D01*
X186701420Y-41580500D01*
X186700613Y-41644606D01*
X186712615Y-41694236D01*
X186720105Y-41706146D01*
X186754450Y-41728828D01*
X186794013Y-41731584D01*
X186824920Y-41714612D01*
X186830913Y-41704573D01*
X186838357Y-41674490D01*
X186847106Y-41621611D01*
X186855467Y-41556425D01*
X186856778Y-41544400D01*
X186874888Y-41439703D01*
X186905651Y-41363768D01*
X186951907Y-41313408D01*
X187016497Y-41285436D01*
X187095387Y-41276722D01*
X187185065Y-41288760D01*
X187255486Y-41327849D01*
X187306777Y-41394145D01*
X187339067Y-41487806D01*
X187351807Y-41591777D01*
X187351654Y-41676562D01*
X187340083Y-41745335D01*
X187324109Y-41792303D01*
X187296275Y-41851650D01*
X187263973Y-41906494D01*
X187249755Y-41925987D01*
X187208835Y-41976119D01*
X187086477Y-41855197D01*
X187131967Y-41786457D01*
X187166133Y-41717512D01*
X187184004Y-41643889D01*
X187185889Y-41573117D01*
X187172101Y-41512726D01*
X187142949Y-41470243D01*
X187118352Y-41456526D01*
X187078904Y-41458583D01*
X187048737Y-41492670D01*
X187027906Y-41558692D01*
X187018279Y-41631026D01*
X186999910Y-41742348D01*
X186965254Y-41825048D01*
X186913297Y-41880235D01*
X186843023Y-41909012D01*
X186759707Y-41912999D01*
X186672681Y-41893307D01*
X186606902Y-41848411D01*
X186562068Y-41777909D01*
X186537879Y-41681399D01*
X186533137Y-41609900D01*
X186535547Y-41531372D01*
G36*
X186557027Y-43352982D02*
G01*
X186564866Y-43336330D01*
X186607086Y-43278695D01*
X186668700Y-43224195D01*
X186736543Y-43183501D01*
X186767734Y-43171926D01*
X186823449Y-43161366D01*
X186890781Y-43155069D01*
X186918585Y-43154304D01*
X187006316Y-43154211D01*
X187006316Y-43659150D01*
X187052270Y-43648387D01*
X187106620Y-43621967D01*
X187153591Y-43575778D01*
X187183848Y-43520828D01*
X187190131Y-43485811D01*
X187182506Y-43438323D01*
X187163383Y-43381665D01*
X187154584Y-43362418D01*
X187119036Y-43291241D01*
X187165367Y-43230498D01*
X187196703Y-43195448D01*
X187222567Y-43176798D01*
X187230158Y-43175853D01*
X187248556Y-43192515D01*
X187276515Y-43229030D01*
X187298327Y-43262172D01*
X187337537Y-43351607D01*
X187355285Y-43451871D01*
X187350670Y-43551246D01*
X187326551Y-43630461D01*
X187274884Y-43712120D01*
X187206856Y-43770151D01*
X187118843Y-43806454D01*
X187007216Y-43822928D01*
X186956138Y-43824389D01*
X186839091Y-43818543D01*
X186835686Y-43817825D01*
X186835686Y-43650511D01*
X186846662Y-43645903D01*
X186852715Y-43626964D01*
X186855310Y-43587902D01*
X186855910Y-43522923D01*
X186855921Y-43497903D01*
X186855014Y-43421779D01*
X186851720Y-43373504D01*
X186845181Y-43347540D01*
X186834537Y-43338352D01*
X186831119Y-43338027D01*
X186803956Y-43348513D01*
X186765903Y-43374758D01*
X186752579Y-43386041D01*
X186714896Y-43427928D01*
X186700080Y-43471591D01*
X186698842Y-43495115D01*
X186714329Y-43558757D01*
X186755930Y-43612127D01*
X186816353Y-43645981D01*
X186818322Y-43646581D01*
X186835686Y-43650511D01*
X186835686Y-43817825D01*
X186746928Y-43799101D01*
X186673190Y-43764078D01*
X186620848Y-43721244D01*
X186564092Y-43642052D01*
X186533762Y-43548960D01*
X186531021Y-43449945D01*
X186557027Y-43352982D01*
G37*
X186557027Y-43352982D02*
X186564866Y-43336330D01*
X186607086Y-43278695D01*
X186668700Y-43224195D01*
X186736543Y-43183501D01*
X186767734Y-43171926D01*
X186823449Y-43161366D01*
X186890781Y-43155069D01*
X186918585Y-43154304D01*
X187006316Y-43154211D01*
X187006316Y-43659150D01*
X187052270Y-43648387D01*
X187106620Y-43621967D01*
X187153591Y-43575778D01*
X187183848Y-43520828D01*
X187190131Y-43485811D01*
X187182506Y-43438323D01*
X187163383Y-43381665D01*
X187154584Y-43362418D01*
X187119036Y-43291241D01*
X187165367Y-43230498D01*
X187196703Y-43195448D01*
X187222567Y-43176798D01*
X187230158Y-43175853D01*
X187248556Y-43192515D01*
X187276515Y-43229030D01*
X187298327Y-43262172D01*
X187337537Y-43351607D01*
X187355285Y-43451871D01*
X187350670Y-43551246D01*
X187326551Y-43630461D01*
X187274884Y-43712120D01*
X187206856Y-43770151D01*
X187118843Y-43806454D01*
X187007216Y-43822928D01*
X186956138Y-43824389D01*
X186839091Y-43818543D01*
X186835686Y-43817825D01*
X186835686Y-43650511D01*
X186846662Y-43645903D01*
X186852715Y-43626964D01*
X186855310Y-43587902D01*
X186855910Y-43522923D01*
X186855921Y-43497903D01*
X186855014Y-43421779D01*
X186851720Y-43373504D01*
X186845181Y-43347540D01*
X186834537Y-43338352D01*
X186831119Y-43338027D01*
X186803956Y-43348513D01*
X186765903Y-43374758D01*
X186752579Y-43386041D01*
X186714896Y-43427928D01*
X186700080Y-43471591D01*
X186698842Y-43495115D01*
X186714329Y-43558757D01*
X186755930Y-43612127D01*
X186816353Y-43645981D01*
X186818322Y-43646581D01*
X186835686Y-43650511D01*
X186835686Y-43817825D01*
X186746928Y-43799101D01*
X186673190Y-43764078D01*
X186620848Y-43721244D01*
X186564092Y-43642052D01*
X186533762Y-43548960D01*
X186531021Y-43449945D01*
X186557027Y-43352982D01*
G36*
X186547104Y-44923216D02*
G01*
X186585754Y-44835795D01*
X186650290Y-44769430D01*
X186740812Y-44724024D01*
X186857418Y-44699482D01*
X186875624Y-44697723D01*
X187003984Y-44696344D01*
X187116496Y-44714216D01*
X187207688Y-44750250D01*
X187237022Y-44769545D01*
X187299106Y-44836755D01*
X187339316Y-44922350D01*
X187356003Y-45018110D01*
X187347517Y-45115813D01*
X187321380Y-45190083D01*
X187277335Y-45253953D01*
X187219587Y-45306154D01*
X187218236Y-45307057D01*
X187182593Y-45328256D01*
X187146752Y-45342033D01*
X187101519Y-45350376D01*
X187037701Y-45355273D01*
X186985368Y-45357431D01*
X186937910Y-45358329D01*
X186937910Y-45191257D01*
X186985154Y-45189624D01*
X187048046Y-45183696D01*
X187088407Y-45173239D01*
X187117122Y-45154381D01*
X187133896Y-45136719D01*
X187169016Y-45074106D01*
X187173710Y-45008592D01*
X187148440Y-44947579D01*
X187120124Y-44917072D01*
X187091589Y-44895089D01*
X187064284Y-44882231D01*
X187028750Y-44876588D01*
X186975524Y-44876249D01*
X186926506Y-44877988D01*
X186856482Y-44881729D01*
X186811064Y-44887659D01*
X186781440Y-44898347D01*
X186758797Y-44916361D01*
X186745855Y-44930637D01*
X186711860Y-44990349D01*
X186710165Y-45054766D01*
X186730301Y-45108781D01*
X186772352Y-45154860D01*
X186841428Y-45182311D01*
X186937910Y-45191257D01*
X186937910Y-45358329D01*
X186881299Y-45359401D01*
X186803468Y-45356036D01*
X186744930Y-45345955D01*
X186698737Y-45327774D01*
X186657942Y-45300110D01*
X186645828Y-45289854D01*
X186585474Y-45225722D01*
X186550220Y-45156934D01*
X186535450Y-45072811D01*
X186534243Y-45031791D01*
X186547104Y-44923216D01*
G37*
X186547104Y-44923216D02*
X186585754Y-44835795D01*
X186650290Y-44769430D01*
X186740812Y-44724024D01*
X186857418Y-44699482D01*
X186875624Y-44697723D01*
X187003984Y-44696344D01*
X187116496Y-44714216D01*
X187207688Y-44750250D01*
X187237022Y-44769545D01*
X187299106Y-44836755D01*
X187339316Y-44922350D01*
X187356003Y-45018110D01*
X187347517Y-45115813D01*
X187321380Y-45190083D01*
X187277335Y-45253953D01*
X187219587Y-45306154D01*
X187218236Y-45307057D01*
X187182593Y-45328256D01*
X187146752Y-45342033D01*
X187101519Y-45350376D01*
X187037701Y-45355273D01*
X186985368Y-45357431D01*
X186937910Y-45358329D01*
X186937910Y-45191257D01*
X186985154Y-45189624D01*
X187048046Y-45183696D01*
X187088407Y-45173239D01*
X187117122Y-45154381D01*
X187133896Y-45136719D01*
X187169016Y-45074106D01*
X187173710Y-45008592D01*
X187148440Y-44947579D01*
X187120124Y-44917072D01*
X187091589Y-44895089D01*
X187064284Y-44882231D01*
X187028750Y-44876588D01*
X186975524Y-44876249D01*
X186926506Y-44877988D01*
X186856482Y-44881729D01*
X186811064Y-44887659D01*
X186781440Y-44898347D01*
X186758797Y-44916361D01*
X186745855Y-44930637D01*
X186711860Y-44990349D01*
X186710165Y-45054766D01*
X186730301Y-45108781D01*
X186772352Y-45154860D01*
X186841428Y-45182311D01*
X186937910Y-45191257D01*
X186937910Y-45358329D01*
X186881299Y-45359401D01*
X186803468Y-45356036D01*
X186744930Y-45345955D01*
X186698737Y-45327774D01*
X186657942Y-45300110D01*
X186645828Y-45289854D01*
X186585474Y-45225722D01*
X186550220Y-45156934D01*
X186535450Y-45072811D01*
X186534243Y-45031791D01*
X186547104Y-44923216D01*
G36*
X187796078Y-38848807D02*
G01*
X187816845Y-38768932D01*
X187859705Y-38702038D01*
X187891723Y-38669649D01*
X187967413Y-38616555D01*
X188055216Y-38586127D01*
X188163150Y-38575673D01*
X188171875Y-38575620D01*
X188259605Y-38575527D01*
X188259605Y-39080466D01*
X188305559Y-39069702D01*
X188347178Y-39050268D01*
X188390544Y-39016255D01*
X188397467Y-39009140D01*
X188434935Y-38947997D01*
X188441289Y-38878271D01*
X188416638Y-38798013D01*
X188410000Y-38784408D01*
X188389819Y-38742681D01*
X188378321Y-38714732D01*
X188377258Y-38709855D01*
X188387583Y-38692832D01*
X188412845Y-38660367D01*
X188426650Y-38643886D01*
X188458361Y-38609736D01*
X188479299Y-38598522D01*
X188498560Y-38606305D01*
X188503827Y-38610465D01*
X188526878Y-38638643D01*
X188554892Y-38685138D01*
X188571246Y-38717566D01*
X188600059Y-38809615D01*
X188609395Y-38911524D01*
X188598332Y-39008037D01*
X188590412Y-39035066D01*
X188545581Y-39118724D01*
X188476598Y-39180734D01*
X188382794Y-39221455D01*
X188263498Y-39241245D01*
X188201118Y-39243418D01*
X188110298Y-39237074D01*
X188110298Y-39076843D01*
X188117012Y-39061345D01*
X188122280Y-39019688D01*
X188125389Y-38959124D01*
X188125921Y-38918093D01*
X188125408Y-38844289D01*
X188123006Y-38797707D01*
X188117422Y-38772152D01*
X188107361Y-38761431D01*
X188092763Y-38759343D01*
X188047796Y-38773669D01*
X188003353Y-38809738D01*
X187969242Y-38857185D01*
X187955288Y-38904651D01*
X187967666Y-38969121D01*
X188003452Y-39024930D01*
X188055033Y-39063626D01*
X188110298Y-39076843D01*
X188110298Y-39237074D01*
X188068866Y-39234179D01*
X187963498Y-39205664D01*
X187884178Y-39157271D01*
X187830071Y-39088396D01*
X187800343Y-38998435D01*
X187794618Y-38949700D01*
X187796078Y-38848807D01*
G37*
X187796078Y-38848807D02*
X187816845Y-38768932D01*
X187859705Y-38702038D01*
X187891723Y-38669649D01*
X187967413Y-38616555D01*
X188055216Y-38586127D01*
X188163150Y-38575673D01*
X188171875Y-38575620D01*
X188259605Y-38575527D01*
X188259605Y-39080466D01*
X188305559Y-39069702D01*
X188347178Y-39050268D01*
X188390544Y-39016255D01*
X188397467Y-39009140D01*
X188434935Y-38947997D01*
X188441289Y-38878271D01*
X188416638Y-38798013D01*
X188410000Y-38784408D01*
X188389819Y-38742681D01*
X188378321Y-38714732D01*
X188377258Y-38709855D01*
X188387583Y-38692832D01*
X188412845Y-38660367D01*
X188426650Y-38643886D01*
X188458361Y-38609736D01*
X188479299Y-38598522D01*
X188498560Y-38606305D01*
X188503827Y-38610465D01*
X188526878Y-38638643D01*
X188554892Y-38685138D01*
X188571246Y-38717566D01*
X188600059Y-38809615D01*
X188609395Y-38911524D01*
X188598332Y-39008037D01*
X188590412Y-39035066D01*
X188545581Y-39118724D01*
X188476598Y-39180734D01*
X188382794Y-39221455D01*
X188263498Y-39241245D01*
X188201118Y-39243418D01*
X188110298Y-39237074D01*
X188110298Y-39076843D01*
X188117012Y-39061345D01*
X188122280Y-39019688D01*
X188125389Y-38959124D01*
X188125921Y-38918093D01*
X188125408Y-38844289D01*
X188123006Y-38797707D01*
X188117422Y-38772152D01*
X188107361Y-38761431D01*
X188092763Y-38759343D01*
X188047796Y-38773669D01*
X188003353Y-38809738D01*
X187969242Y-38857185D01*
X187955288Y-38904651D01*
X187967666Y-38969121D01*
X188003452Y-39024930D01*
X188055033Y-39063626D01*
X188110298Y-39076843D01*
X188110298Y-39237074D01*
X188068866Y-39234179D01*
X187963498Y-39205664D01*
X187884178Y-39157271D01*
X187830071Y-39088396D01*
X187800343Y-38998435D01*
X187794618Y-38949700D01*
X187796078Y-38848807D01*
G36*
X187791447Y-39376833D02*
G01*
X187804112Y-39312592D01*
X187822864Y-39276020D01*
X187854017Y-39237547D01*
X187923127Y-39292283D01*
X187964979Y-39326031D01*
X187985398Y-39348947D01*
X187988517Y-39371721D01*
X187978472Y-39405044D01*
X187972789Y-39420686D01*
X187964404Y-39484458D01*
X187982378Y-39542860D01*
X188022982Y-39585736D01*
X188035929Y-39592701D01*
X188070224Y-39600287D01*
X188133427Y-39606141D01*
X188221060Y-39609989D01*
X188328640Y-39611557D01*
X188343944Y-39611579D01*
X188610526Y-39611579D01*
X188610526Y-39795395D01*
X187791710Y-39795395D01*
X187791710Y-39703487D01*
X187793094Y-39650493D01*
X187799252Y-39622885D01*
X187813194Y-39612676D01*
X187826344Y-39611579D01*
X187860978Y-39611579D01*
X187826344Y-39567550D01*
X187802716Y-39517063D01*
X187791033Y-39449240D01*
X187791447Y-39376833D01*
G37*
X187791447Y-39376833D02*
X187804112Y-39312592D01*
X187822864Y-39276020D01*
X187854017Y-39237547D01*
X187923127Y-39292283D01*
X187964979Y-39326031D01*
X187985398Y-39348947D01*
X187988517Y-39371721D01*
X187978472Y-39405044D01*
X187972789Y-39420686D01*
X187964404Y-39484458D01*
X187982378Y-39542860D01*
X188022982Y-39585736D01*
X188035929Y-39592701D01*
X188070224Y-39600287D01*
X188133427Y-39606141D01*
X188221060Y-39609989D01*
X188328640Y-39611557D01*
X188343944Y-39611579D01*
X188610526Y-39611579D01*
X188610526Y-39795395D01*
X187791710Y-39795395D01*
X187791710Y-39703487D01*
X187793094Y-39650493D01*
X187799252Y-39622885D01*
X187813194Y-39612676D01*
X187826344Y-39611579D01*
X187860978Y-39611579D01*
X187826344Y-39567550D01*
X187802716Y-39517063D01*
X187791033Y-39449240D01*
X187791447Y-39376833D01*
G36*
X187796673Y-40170008D02*
G01*
X187813780Y-40099573D01*
X187822844Y-40079213D01*
X187846583Y-40039747D01*
X187873321Y-40009459D01*
X187907699Y-39987048D01*
X187954360Y-39971214D01*
X188017946Y-39960657D01*
X188103099Y-39954076D01*
X188214462Y-39950172D01*
X188288849Y-39948690D01*
X188610526Y-39943235D01*
X188610526Y-40036420D01*
X188608156Y-40092953D01*
X188600055Y-40122078D01*
X188586451Y-40129606D01*
X188571741Y-40133580D01*
X188574554Y-40151348D01*
X188586348Y-40175560D01*
X188604427Y-40236172D01*
X188609299Y-40314071D01*
X188601330Y-40396005D01*
X188580889Y-40468719D01*
X188578051Y-40475241D01*
X188531365Y-40541698D01*
X188466464Y-40585509D01*
X188390600Y-40605668D01*
X188363344Y-40604128D01*
X188363344Y-40439655D01*
X188400024Y-40425163D01*
X188426309Y-40382195D01*
X188440417Y-40312871D01*
X188442290Y-40275823D01*
X188437494Y-40214081D01*
X188418858Y-40173040D01*
X188410000Y-40163027D01*
X188361806Y-40135900D01*
X188318092Y-40129606D01*
X188259605Y-40129606D01*
X188259605Y-40211070D01*
X188264432Y-40305766D01*
X188279613Y-40372187D01*
X188306200Y-40414154D01*
X188318052Y-40423551D01*
X188363344Y-40439655D01*
X188363344Y-40604128D01*
X188311026Y-40601171D01*
X188234995Y-40571015D01*
X188183612Y-40529869D01*
X188161397Y-40504948D01*
X188146798Y-40480552D01*
X188137897Y-40448809D01*
X188132775Y-40401848D01*
X188129515Y-40331796D01*
X188128577Y-40304010D01*
X188122879Y-40129606D01*
X188070091Y-40129862D01*
X188014603Y-40136616D01*
X187981052Y-40161036D01*
X187959618Y-40210370D01*
X187959236Y-40211694D01*
X187950808Y-40281640D01*
X187961816Y-40350086D01*
X187988585Y-40400953D01*
X188001803Y-40421363D01*
X187999974Y-40443346D01*
X187980824Y-40477174D01*
X187967308Y-40497039D01*
X187938432Y-40535894D01*
X187916786Y-40559962D01*
X187910589Y-40563824D01*
X187878519Y-40547921D01*
X187840219Y-40500935D01*
X187827297Y-40480527D01*
X187805041Y-40421857D01*
X187792432Y-40342788D01*
X187789600Y-40254959D01*
X187796673Y-40170008D01*
G37*
X187796673Y-40170008D02*
X187813780Y-40099573D01*
X187822844Y-40079213D01*
X187846583Y-40039747D01*
X187873321Y-40009459D01*
X187907699Y-39987048D01*
X187954360Y-39971214D01*
X188017946Y-39960657D01*
X188103099Y-39954076D01*
X188214462Y-39950172D01*
X188288849Y-39948690D01*
X188610526Y-39943235D01*
X188610526Y-40036420D01*
X188608156Y-40092953D01*
X188600055Y-40122078D01*
X188586451Y-40129606D01*
X188571741Y-40133580D01*
X188574554Y-40151348D01*
X188586348Y-40175560D01*
X188604427Y-40236172D01*
X188609299Y-40314071D01*
X188601330Y-40396005D01*
X188580889Y-40468719D01*
X188578051Y-40475241D01*
X188531365Y-40541698D01*
X188466464Y-40585509D01*
X188390600Y-40605668D01*
X188363344Y-40604128D01*
X188363344Y-40439655D01*
X188400024Y-40425163D01*
X188426309Y-40382195D01*
X188440417Y-40312871D01*
X188442290Y-40275823D01*
X188437494Y-40214081D01*
X188418858Y-40173040D01*
X188410000Y-40163027D01*
X188361806Y-40135900D01*
X188318092Y-40129606D01*
X188259605Y-40129606D01*
X188259605Y-40211070D01*
X188264432Y-40305766D01*
X188279613Y-40372187D01*
X188306200Y-40414154D01*
X188318052Y-40423551D01*
X188363344Y-40439655D01*
X188363344Y-40604128D01*
X188311026Y-40601171D01*
X188234995Y-40571015D01*
X188183612Y-40529869D01*
X188161397Y-40504948D01*
X188146798Y-40480552D01*
X188137897Y-40448809D01*
X188132775Y-40401848D01*
X188129515Y-40331796D01*
X188128577Y-40304010D01*
X188122879Y-40129606D01*
X188070091Y-40129862D01*
X188014603Y-40136616D01*
X187981052Y-40161036D01*
X187959618Y-40210370D01*
X187959236Y-40211694D01*
X187950808Y-40281640D01*
X187961816Y-40350086D01*
X187988585Y-40400953D01*
X188001803Y-40421363D01*
X187999974Y-40443346D01*
X187980824Y-40477174D01*
X187967308Y-40497039D01*
X187938432Y-40535894D01*
X187916786Y-40559962D01*
X187910589Y-40563824D01*
X187878519Y-40547921D01*
X187840219Y-40500935D01*
X187827297Y-40480527D01*
X187805041Y-40421857D01*
X187792432Y-40342788D01*
X187789600Y-40254959D01*
X187796673Y-40170008D01*
G36*
X187795104Y-41175870D02*
G01*
X187800066Y-41109780D01*
X188059079Y-41023374D01*
X188318092Y-40936969D01*
X188226184Y-40909876D01*
X188169384Y-40893572D01*
X188092625Y-40872125D01*
X188008251Y-40848965D01*
X187962993Y-40836720D01*
X187791710Y-40790656D01*
X187791710Y-40600613D01*
X187971349Y-40657418D01*
X188059704Y-40685393D01*
X188166281Y-40719187D01*
X188277454Y-40754480D01*
X188376579Y-40785987D01*
X188602171Y-40857750D01*
X188612253Y-41012714D01*
X188473528Y-41054730D01*
X188387351Y-41080641D01*
X188292347Y-41108917D01*
X188208441Y-41133631D01*
X188205102Y-41134606D01*
X188148248Y-41153065D01*
X188109456Y-41169351D01*
X188094787Y-41180758D01*
X188096483Y-41183102D01*
X188119225Y-41191329D01*
X188167940Y-41206962D01*
X188236502Y-41228096D01*
X188318785Y-41252830D01*
X188364046Y-41266213D01*
X188610526Y-41338689D01*
X188610526Y-41492505D01*
X188222006Y-41615469D01*
X188113022Y-41650012D01*
X188014048Y-41681479D01*
X187929736Y-41708384D01*
X187864734Y-41729241D01*
X187823692Y-41742562D01*
X187811701Y-41746612D01*
X187799423Y-41743406D01*
X187794046Y-41718235D01*
X187794584Y-41665854D01*
X187794990Y-41657655D01*
X187800066Y-41560518D01*
X188034013Y-41496900D01*
X188119333Y-41473516D01*
X188194335Y-41452619D01*
X188252507Y-41436049D01*
X188287337Y-41425646D01*
X188293016Y-41423724D01*
X188286486Y-41415759D01*
X188252654Y-41399696D01*
X188196127Y-41377379D01*
X188121510Y-41350655D01*
X188054107Y-41328063D01*
X187790143Y-41241959D01*
X187795104Y-41175870D01*
G37*
X187795104Y-41175870D02*
X187800066Y-41109780D01*
X188059079Y-41023374D01*
X188318092Y-40936969D01*
X188226184Y-40909876D01*
X188169384Y-40893572D01*
X188092625Y-40872125D01*
X188008251Y-40848965D01*
X187962993Y-40836720D01*
X187791710Y-40790656D01*
X187791710Y-40600613D01*
X187971349Y-40657418D01*
X188059704Y-40685393D01*
X188166281Y-40719187D01*
X188277454Y-40754480D01*
X188376579Y-40785987D01*
X188602171Y-40857750D01*
X188612253Y-41012714D01*
X188473528Y-41054730D01*
X188387351Y-41080641D01*
X188292347Y-41108917D01*
X188208441Y-41133631D01*
X188205102Y-41134606D01*
X188148248Y-41153065D01*
X188109456Y-41169351D01*
X188094787Y-41180758D01*
X188096483Y-41183102D01*
X188119225Y-41191329D01*
X188167940Y-41206962D01*
X188236502Y-41228096D01*
X188318785Y-41252830D01*
X188364046Y-41266213D01*
X188610526Y-41338689D01*
X188610526Y-41492505D01*
X188222006Y-41615469D01*
X188113022Y-41650012D01*
X188014048Y-41681479D01*
X187929736Y-41708384D01*
X187864734Y-41729241D01*
X187823692Y-41742562D01*
X187811701Y-41746612D01*
X187799423Y-41743406D01*
X187794046Y-41718235D01*
X187794584Y-41665854D01*
X187794990Y-41657655D01*
X187800066Y-41560518D01*
X188034013Y-41496900D01*
X188119333Y-41473516D01*
X188194335Y-41452619D01*
X188252507Y-41436049D01*
X188287337Y-41425646D01*
X188293016Y-41423724D01*
X188286486Y-41415759D01*
X188252654Y-41399696D01*
X188196127Y-41377379D01*
X188121510Y-41350655D01*
X188054107Y-41328063D01*
X187790143Y-41241959D01*
X187795104Y-41175870D01*
G36*
X188610526Y-41817369D02*
G01*
X188610526Y-41909277D01*
X188608962Y-41962623D01*
X188602485Y-41990407D01*
X188588418Y-42000410D01*
X188578906Y-42001185D01*
X188559832Y-42002872D01*
X188556174Y-42013510D01*
X188567932Y-42041465D01*
X188578906Y-42063205D01*
X188604911Y-42146668D01*
X188606416Y-42237396D01*
X188587021Y-42311158D01*
X188540165Y-42379846D01*
X188471004Y-42432206D01*
X188389427Y-42460878D01*
X188384866Y-42461608D01*
X188335101Y-42465868D01*
X188263659Y-42467986D01*
X188209626Y-42467816D01*
X188209626Y-42285280D01*
X188281441Y-42281051D01*
X188340634Y-42271432D01*
X188374060Y-42258410D01*
X188419740Y-42209144D01*
X188436115Y-42150650D01*
X188422873Y-42090329D01*
X188383373Y-42038783D01*
X188356807Y-42019262D01*
X188325106Y-42007848D01*
X188278832Y-42002502D01*
X188209328Y-42001185D01*
X188140499Y-42003542D01*
X188080026Y-42009767D01*
X188039556Y-42018592D01*
X188035929Y-42020063D01*
X187992802Y-42055653D01*
X187969124Y-42107600D01*
X187965301Y-42165722D01*
X187981738Y-42219840D01*
X188018840Y-42259774D01*
X188026222Y-42263917D01*
X188071239Y-42276884D01*
X188135967Y-42283948D01*
X188209626Y-42285280D01*
X188209626Y-42467816D01*
X188182230Y-42467729D01*
X188138405Y-42466528D01*
X188029988Y-42458355D01*
X187948588Y-42441370D01*
X187888412Y-42413113D01*
X187843666Y-42371128D01*
X187817400Y-42330368D01*
X187798935Y-42273419D01*
X187792602Y-42202589D01*
X187797760Y-42130059D01*
X187813769Y-42068014D01*
X187832920Y-42035232D01*
X187863732Y-42001185D01*
X187474210Y-42001185D01*
X187474210Y-41817369D01*
X188610526Y-41817369D01*
G37*
X188610526Y-41817369D02*
X188610526Y-41909277D01*
X188608962Y-41962623D01*
X188602485Y-41990407D01*
X188588418Y-42000410D01*
X188578906Y-42001185D01*
X188559832Y-42002872D01*
X188556174Y-42013510D01*
X188567932Y-42041465D01*
X188578906Y-42063205D01*
X188604911Y-42146668D01*
X188606416Y-42237396D01*
X188587021Y-42311158D01*
X188540165Y-42379846D01*
X188471004Y-42432206D01*
X188389427Y-42460878D01*
X188384866Y-42461608D01*
X188335101Y-42465868D01*
X188263659Y-42467986D01*
X188209626Y-42467816D01*
X188209626Y-42285280D01*
X188281441Y-42281051D01*
X188340634Y-42271432D01*
X188374060Y-42258410D01*
X188419740Y-42209144D01*
X188436115Y-42150650D01*
X188422873Y-42090329D01*
X188383373Y-42038783D01*
X188356807Y-42019262D01*
X188325106Y-42007848D01*
X188278832Y-42002502D01*
X188209328Y-42001185D01*
X188140499Y-42003542D01*
X188080026Y-42009767D01*
X188039556Y-42018592D01*
X188035929Y-42020063D01*
X187992802Y-42055653D01*
X187969124Y-42107600D01*
X187965301Y-42165722D01*
X187981738Y-42219840D01*
X188018840Y-42259774D01*
X188026222Y-42263917D01*
X188071239Y-42276884D01*
X188135967Y-42283948D01*
X188209626Y-42285280D01*
X188209626Y-42467816D01*
X188182230Y-42467729D01*
X188138405Y-42466528D01*
X188029988Y-42458355D01*
X187948588Y-42441370D01*
X187888412Y-42413113D01*
X187843666Y-42371128D01*
X187817400Y-42330368D01*
X187798935Y-42273419D01*
X187792602Y-42202589D01*
X187797760Y-42130059D01*
X187813769Y-42068014D01*
X187832920Y-42035232D01*
X187863732Y-42001185D01*
X187474210Y-42001185D01*
X187474210Y-41817369D01*
X188610526Y-41817369D01*
G36*
X187793486Y-42870119D02*
G01*
X187800982Y-42845112D01*
X187817451Y-42837050D01*
X187824886Y-42836711D01*
X187845594Y-42835264D01*
X187848845Y-42825302D01*
X187834648Y-42798388D01*
X187824948Y-42782402D01*
X187804175Y-42731967D01*
X187793904Y-42671728D01*
X187793114Y-42608566D01*
X187800786Y-42549363D01*
X187815898Y-42500998D01*
X187837432Y-42470354D01*
X187864366Y-42464311D01*
X187871660Y-42467361D01*
X187901937Y-42489594D01*
X187939175Y-42524070D01*
X187945195Y-42530306D01*
X187972875Y-42563167D01*
X187981818Y-42591520D01*
X187975576Y-42631173D01*
X187971429Y-42647058D01*
X187961467Y-42696491D01*
X187965947Y-42731248D01*
X187981746Y-42760600D01*
X188002949Y-42787487D01*
X188029614Y-42807290D01*
X188066827Y-42821052D01*
X188119673Y-42829816D01*
X188193237Y-42834626D01*
X188292605Y-42836526D01*
X188352601Y-42836711D01*
X188610526Y-42836711D01*
X188610526Y-43003816D01*
X187791710Y-43003816D01*
X187791710Y-42920264D01*
X187793486Y-42870119D01*
G37*
X187793486Y-42870119D02*
X187800982Y-42845112D01*
X187817451Y-42837050D01*
X187824886Y-42836711D01*
X187845594Y-42835264D01*
X187848845Y-42825302D01*
X187834648Y-42798388D01*
X187824948Y-42782402D01*
X187804175Y-42731967D01*
X187793904Y-42671728D01*
X187793114Y-42608566D01*
X187800786Y-42549363D01*
X187815898Y-42500998D01*
X187837432Y-42470354D01*
X187864366Y-42464311D01*
X187871660Y-42467361D01*
X187901937Y-42489594D01*
X187939175Y-42524070D01*
X187945195Y-42530306D01*
X187972875Y-42563167D01*
X187981818Y-42591520D01*
X187975576Y-42631173D01*
X187971429Y-42647058D01*
X187961467Y-42696491D01*
X187965947Y-42731248D01*
X187981746Y-42760600D01*
X188002949Y-42787487D01*
X188029614Y-42807290D01*
X188066827Y-42821052D01*
X188119673Y-42829816D01*
X188193237Y-42834626D01*
X188292605Y-42836526D01*
X188352601Y-42836711D01*
X188610526Y-42836711D01*
X188610526Y-43003816D01*
X187791710Y-43003816D01*
X187791710Y-42920264D01*
X187793486Y-42870119D01*
G36*
X187798184Y-43389543D02*
G01*
X187819160Y-43310930D01*
X187857180Y-43251084D01*
X187906978Y-43208853D01*
X187928230Y-43195725D01*
X187950492Y-43186032D01*
X187978970Y-43179256D01*
X188018871Y-43174877D01*
X188075401Y-43172376D01*
X188153767Y-43171232D01*
X188259176Y-43170928D01*
X188287142Y-43170922D01*
X188610526Y-43170922D01*
X188610526Y-43251132D01*
X188606943Y-43302294D01*
X188597866Y-43340123D01*
X188592268Y-43349601D01*
X188582606Y-43375512D01*
X188592268Y-43401976D01*
X188604330Y-43445548D01*
X188609185Y-43508840D01*
X188607078Y-43578990D01*
X188598256Y-43643140D01*
X188586937Y-43680593D01*
X188540412Y-43753067D01*
X188475846Y-43798360D01*
X188390000Y-43818722D01*
X188387796Y-43818912D01*
X188349713Y-43817125D01*
X188349713Y-43655527D01*
X188393030Y-43641399D01*
X188417408Y-43618388D01*
X188435845Y-43572196D01*
X188443205Y-43511225D01*
X188439583Y-43449051D01*
X188425074Y-43399249D01*
X188415765Y-43385297D01*
X188372753Y-43360915D01*
X188323857Y-43354737D01*
X188259605Y-43354737D01*
X188259605Y-43447182D01*
X188266366Y-43535005D01*
X188285520Y-43601582D01*
X188315376Y-43642998D01*
X188349713Y-43655527D01*
X188349713Y-43817125D01*
X188294004Y-43814510D01*
X188219847Y-43783576D01*
X188163767Y-43725419D01*
X188158665Y-43717380D01*
X188142055Y-43682837D01*
X188131996Y-43640082D01*
X188127107Y-43580314D01*
X188125983Y-43509310D01*
X188125921Y-43354737D01*
X188061125Y-43354737D01*
X188010850Y-43361294D01*
X187977169Y-43378025D01*
X187975376Y-43379984D01*
X187960642Y-43417217D01*
X187954931Y-43473420D01*
X187957737Y-43535533D01*
X187968556Y-43590490D01*
X187984782Y-43623101D01*
X187997780Y-43640772D01*
X188000262Y-43659431D01*
X187989613Y-43685181D01*
X187963218Y-43724127D01*
X187918465Y-43782370D01*
X187914273Y-43787716D01*
X187898760Y-43784977D01*
X187872960Y-43762124D01*
X187844289Y-43727391D01*
X187820166Y-43689010D01*
X187814470Y-43676952D01*
X187803103Y-43632966D01*
X187794995Y-43568513D01*
X187791743Y-43496503D01*
X187791736Y-43493136D01*
X187798184Y-43389543D01*
G37*
X187798184Y-43389543D02*
X187819160Y-43310930D01*
X187857180Y-43251084D01*
X187906978Y-43208853D01*
X187928230Y-43195725D01*
X187950492Y-43186032D01*
X187978970Y-43179256D01*
X188018871Y-43174877D01*
X188075401Y-43172376D01*
X188153767Y-43171232D01*
X188259176Y-43170928D01*
X188287142Y-43170922D01*
X188610526Y-43170922D01*
X188610526Y-43251132D01*
X188606943Y-43302294D01*
X188597866Y-43340123D01*
X188592268Y-43349601D01*
X188582606Y-43375512D01*
X188592268Y-43401976D01*
X188604330Y-43445548D01*
X188609185Y-43508840D01*
X188607078Y-43578990D01*
X188598256Y-43643140D01*
X188586937Y-43680593D01*
X188540412Y-43753067D01*
X188475846Y-43798360D01*
X188390000Y-43818722D01*
X188387796Y-43818912D01*
X188349713Y-43817125D01*
X188349713Y-43655527D01*
X188393030Y-43641399D01*
X188417408Y-43618388D01*
X188435845Y-43572196D01*
X188443205Y-43511225D01*
X188439583Y-43449051D01*
X188425074Y-43399249D01*
X188415765Y-43385297D01*
X188372753Y-43360915D01*
X188323857Y-43354737D01*
X188259605Y-43354737D01*
X188259605Y-43447182D01*
X188266366Y-43535005D01*
X188285520Y-43601582D01*
X188315376Y-43642998D01*
X188349713Y-43655527D01*
X188349713Y-43817125D01*
X188294004Y-43814510D01*
X188219847Y-43783576D01*
X188163767Y-43725419D01*
X188158665Y-43717380D01*
X188142055Y-43682837D01*
X188131996Y-43640082D01*
X188127107Y-43580314D01*
X188125983Y-43509310D01*
X188125921Y-43354737D01*
X188061125Y-43354737D01*
X188010850Y-43361294D01*
X187977169Y-43378025D01*
X187975376Y-43379984D01*
X187960642Y-43417217D01*
X187954931Y-43473420D01*
X187957737Y-43535533D01*
X187968556Y-43590490D01*
X187984782Y-43623101D01*
X187997780Y-43640772D01*
X188000262Y-43659431D01*
X187989613Y-43685181D01*
X187963218Y-43724127D01*
X187918465Y-43782370D01*
X187914273Y-43787716D01*
X187898760Y-43784977D01*
X187872960Y-43762124D01*
X187844289Y-43727391D01*
X187820166Y-43689010D01*
X187814470Y-43676952D01*
X187803103Y-43632966D01*
X187794995Y-43568513D01*
X187791743Y-43496503D01*
X187791736Y-43493136D01*
X187798184Y-43389543D01*
G36*
X186552468Y-44086640D02*
G01*
X186569874Y-44051408D01*
X186600206Y-44007960D01*
X186633283Y-43976294D01*
X186674817Y-43954606D01*
X186730522Y-43941097D01*
X186806111Y-43933962D01*
X186907296Y-43931400D01*
X186950797Y-43931250D01*
X187046135Y-43931688D01*
X187114271Y-43933504D01*
X187161418Y-43937455D01*
X187193790Y-43944298D01*
X187217600Y-43954789D01*
X187233843Y-43965704D01*
X187302952Y-44035381D01*
X187344521Y-44117434D01*
X187357023Y-44205950D01*
X187338934Y-44295019D01*
X187326142Y-44323237D01*
X187290931Y-44390790D01*
X187842700Y-44390790D01*
X187817205Y-44341488D01*
X187797480Y-44276527D01*
X187792427Y-44196680D01*
X187801756Y-44116948D01*
X187822714Y-44056735D01*
X187862627Y-44006792D01*
X187919741Y-43964119D01*
X187925605Y-43960910D01*
X187953227Y-43947378D01*
X187981068Y-43937495D01*
X188014794Y-43930691D01*
X188060071Y-43926399D01*
X188122562Y-43924049D01*
X188207935Y-43923072D01*
X188304010Y-43922895D01*
X188610526Y-43922895D01*
X188610526Y-44106711D01*
X188045339Y-44106711D01*
X188002077Y-44158125D01*
X187967472Y-44211534D01*
X187961180Y-44262112D01*
X187977372Y-44312970D01*
X187993227Y-44340075D01*
X188015810Y-44360249D01*
X188049940Y-44374597D01*
X188100434Y-44384224D01*
X188172111Y-44390237D01*
X188269788Y-44393740D01*
X188334802Y-44394974D01*
X188602171Y-44399145D01*
X188607222Y-44486875D01*
X188612273Y-44574606D01*
X186953101Y-44574606D01*
X186953101Y-44390790D01*
X187045600Y-44386104D01*
X187109809Y-44370312D01*
X187149759Y-44340817D01*
X187169480Y-44295020D01*
X187173421Y-44248750D01*
X187168892Y-44196372D01*
X187151069Y-44161610D01*
X187127519Y-44139872D01*
X187102189Y-44122760D01*
X187073969Y-44112573D01*
X187034431Y-44108040D01*
X186975142Y-44107891D01*
X186925498Y-44109416D01*
X186850710Y-44112919D01*
X186801611Y-44118133D01*
X186770467Y-44126913D01*
X186749545Y-44141114D01*
X186737452Y-44154516D01*
X186711081Y-44210513D01*
X186706822Y-44276789D01*
X186715906Y-44314844D01*
X186748196Y-44352523D01*
X186811006Y-44377481D01*
X186903894Y-44389578D01*
X186953101Y-44390790D01*
X186953101Y-44574606D01*
X186538421Y-44574606D01*
X186538421Y-44482698D01*
X186540603Y-44427517D01*
X186548351Y-44399048D01*
X186563468Y-44390794D01*
X186563916Y-44390790D01*
X186578720Y-44386960D01*
X186577039Y-44370067D01*
X186560772Y-44336481D01*
X186535887Y-44258222D01*
X186533271Y-44170173D01*
X186552468Y-44086640D01*
G37*
X186552468Y-44086640D02*
X186569874Y-44051408D01*
X186600206Y-44007960D01*
X186633283Y-43976294D01*
X186674817Y-43954606D01*
X186730522Y-43941097D01*
X186806111Y-43933962D01*
X186907296Y-43931400D01*
X186950797Y-43931250D01*
X187046135Y-43931688D01*
X187114271Y-43933504D01*
X187161418Y-43937455D01*
X187193790Y-43944298D01*
X187217600Y-43954789D01*
X187233843Y-43965704D01*
X187302952Y-44035381D01*
X187344521Y-44117434D01*
X187357023Y-44205950D01*
X187338934Y-44295019D01*
X187326142Y-44323237D01*
X187290931Y-44390790D01*
X187842700Y-44390790D01*
X187817205Y-44341488D01*
X187797480Y-44276527D01*
X187792427Y-44196680D01*
X187801756Y-44116948D01*
X187822714Y-44056735D01*
X187862627Y-44006792D01*
X187919741Y-43964119D01*
X187925605Y-43960910D01*
X187953227Y-43947378D01*
X187981068Y-43937495D01*
X188014794Y-43930691D01*
X188060071Y-43926399D01*
X188122562Y-43924049D01*
X188207935Y-43923072D01*
X188304010Y-43922895D01*
X188610526Y-43922895D01*
X188610526Y-44106711D01*
X188045339Y-44106711D01*
X188002077Y-44158125D01*
X187967472Y-44211534D01*
X187961180Y-44262112D01*
X187977372Y-44312970D01*
X187993227Y-44340075D01*
X188015810Y-44360249D01*
X188049940Y-44374597D01*
X188100434Y-44384224D01*
X188172111Y-44390237D01*
X188269788Y-44393740D01*
X188334802Y-44394974D01*
X188602171Y-44399145D01*
X188607222Y-44486875D01*
X188612273Y-44574606D01*
X186953101Y-44574606D01*
X186953101Y-44390790D01*
X187045600Y-44386104D01*
X187109809Y-44370312D01*
X187149759Y-44340817D01*
X187169480Y-44295020D01*
X187173421Y-44248750D01*
X187168892Y-44196372D01*
X187151069Y-44161610D01*
X187127519Y-44139872D01*
X187102189Y-44122760D01*
X187073969Y-44112573D01*
X187034431Y-44108040D01*
X186975142Y-44107891D01*
X186925498Y-44109416D01*
X186850710Y-44112919D01*
X186801611Y-44118133D01*
X186770467Y-44126913D01*
X186749545Y-44141114D01*
X186737452Y-44154516D01*
X186711081Y-44210513D01*
X186706822Y-44276789D01*
X186715906Y-44314844D01*
X186748196Y-44352523D01*
X186811006Y-44377481D01*
X186903894Y-44389578D01*
X186953101Y-44390790D01*
X186953101Y-44574606D01*
X186538421Y-44574606D01*
X186538421Y-44482698D01*
X186540603Y-44427517D01*
X186548351Y-44399048D01*
X186563468Y-44390794D01*
X186563916Y-44390790D01*
X186578720Y-44386960D01*
X186577039Y-44370067D01*
X186560772Y-44336481D01*
X186535887Y-44258222D01*
X186533271Y-44170173D01*
X186552468Y-44086640D01*
D12*
X83010000Y-35750000D02*
X83010000Y-50250000D01*
X83010000Y-50250000D02*
X83510000Y-50250000D01*
X83510000Y-50250000D02*
X83510000Y-49250000D01*
X83510000Y-49250000D02*
X91510000Y-49250000D01*
X95010000Y-49250000D02*
X97010000Y-49250000D01*
X97010000Y-49250000D02*
X97010000Y-36750000D01*
X97010000Y-36750000D02*
X95010000Y-36750000D01*
X91510000Y-36750000D02*
X83510000Y-36750000D01*
X83510000Y-36750000D02*
X83510000Y-35750000D01*
X83510000Y-35750000D02*
X83010000Y-35750000D01*
X97260000Y-39000000D02*
X97260000Y-40000000D01*
X112770000Y-34350000D02*
X112770000Y-33020000D01*
X114100000Y-34350000D02*
X112770000Y-34350000D01*
X112770000Y-31750000D02*
X112770000Y-29150000D01*
X115370000Y-31750000D02*
X112770000Y-31750000D01*
X115370000Y-34350000D02*
X115370000Y-31750000D01*
X112770000Y-29150000D02*
X125590000Y-29150000D01*
X115370000Y-34350000D02*
X125590000Y-34350000D01*
X125590000Y-34350000D02*
X125590000Y-29150000D01*
X152765507Y-57640738D02*
X161675052Y-48731192D01*
X149159262Y-54034493D02*
X152765507Y-57640738D01*
X158068808Y-45124948D02*
X149159262Y-54034493D01*
X112770000Y-39920000D02*
X114100000Y-39920000D01*
X112770000Y-41250000D02*
X112770000Y-39920000D01*
X112770000Y-42520000D02*
X115430000Y-42520000D01*
X115430000Y-42520000D02*
X115430000Y-45120000D01*
X112770000Y-42520000D02*
X112770000Y-45120000D01*
X112770000Y-45120000D02*
X115430000Y-45120000D01*
X134317313Y-43486779D02*
X134686779Y-43117313D01*
X133313221Y-42482687D02*
X133682687Y-42113221D01*
X156492529Y-31711563D02*
X156861995Y-31342097D01*
X155488437Y-30707471D02*
X155857903Y-30338005D01*
X135182687Y-43713221D02*
X134813221Y-44082687D01*
X136186779Y-44717313D02*
X135817313Y-45086779D01*
X136732687Y-45213221D02*
X136363221Y-45582687D01*
X137736779Y-46217313D02*
X137367313Y-46586779D01*
X115310000Y-39920000D02*
X116640000Y-39920000D01*
X115310000Y-41250000D02*
X115310000Y-39920000D01*
X115310000Y-42520000D02*
X117970000Y-42520000D01*
X117970000Y-42520000D02*
X117970000Y-45120000D01*
X115310000Y-42520000D02*
X115310000Y-45120000D01*
X115310000Y-45120000D02*
X117970000Y-45120000D01*
D10*
X100552380Y-53002380D02*
X100552380Y-52002380D01*
X100933333Y-52002380D01*
X101028571Y-52050000D01*
X101076190Y-52097619D01*
X101123809Y-52192857D01*
X101123809Y-52335714D01*
X101076190Y-52430952D01*
X101028571Y-52478571D01*
X100933333Y-52526190D01*
X100552380Y-52526190D01*
X101457142Y-52002380D02*
X101695238Y-53002380D01*
X101885714Y-52288095D01*
X102076190Y-53002380D01*
X102314285Y-52002380D01*
X103266666Y-53002380D02*
X102933333Y-52526190D01*
X102695238Y-53002380D02*
X102695238Y-52002380D01*
X103076190Y-52002380D01*
X103171428Y-52050000D01*
X103219047Y-52097619D01*
X103266666Y-52192857D01*
X103266666Y-52335714D01*
X103219047Y-52430952D01*
X103171428Y-52478571D01*
X103076190Y-52526190D01*
X102695238Y-52526190D01*
X103457142Y-53097619D02*
X104219047Y-53097619D01*
X104409523Y-52954761D02*
X104552380Y-53002380D01*
X104790476Y-53002380D01*
X104885714Y-52954761D01*
X104933333Y-52907142D01*
X104980952Y-52811904D01*
X104980952Y-52716666D01*
X104933333Y-52621428D01*
X104885714Y-52573809D01*
X104790476Y-52526190D01*
X104600000Y-52478571D01*
X104504761Y-52430952D01*
X104457142Y-52383333D01*
X104409523Y-52288095D01*
X104409523Y-52192857D01*
X104457142Y-52097619D01*
X104504761Y-52050000D01*
X104600000Y-52002380D01*
X104838095Y-52002380D01*
X104980952Y-52050000D01*
X105409523Y-52478571D02*
X105742857Y-52478571D01*
X105885714Y-53002380D02*
X105409523Y-53002380D01*
X105409523Y-52002380D01*
X105885714Y-52002380D01*
X106790476Y-53002380D02*
X106314285Y-53002380D01*
X106314285Y-52002380D01*
X146231268Y-38912453D02*
X146938375Y-38205346D01*
X147039390Y-39585888D02*
X146972046Y-39585888D01*
X146837359Y-39518545D01*
X146770016Y-39451201D01*
X146702672Y-39316514D01*
X146702672Y-39181827D01*
X146736344Y-39080812D01*
X146837359Y-38912453D01*
X146938375Y-38811438D01*
X147106733Y-38710423D01*
X147207749Y-38676751D01*
X147342436Y-38676751D01*
X147477123Y-38744094D01*
X147544466Y-38811438D01*
X147611810Y-38946125D01*
X147611810Y-39013468D01*
X147645482Y-40326667D02*
X147241421Y-39922606D01*
X147443451Y-40124636D02*
X148150558Y-39417530D01*
X147982199Y-39451201D01*
X147847512Y-39451201D01*
X147746497Y-39417530D01*
X98302380Y-45071428D02*
X99111904Y-45071428D01*
X99207142Y-45023809D01*
X99254761Y-44976190D01*
X99302380Y-44880952D01*
X99302380Y-44690476D01*
X99254761Y-44595238D01*
X99207142Y-44547619D01*
X99111904Y-44500000D01*
X98302380Y-44500000D01*
X99254761Y-44071428D02*
X99302380Y-43928571D01*
X99302380Y-43690476D01*
X99254761Y-43595238D01*
X99207142Y-43547619D01*
X99111904Y-43500000D01*
X99016666Y-43500000D01*
X98921428Y-43547619D01*
X98873809Y-43595238D01*
X98826190Y-43690476D01*
X98778571Y-43880952D01*
X98730952Y-43976190D01*
X98683333Y-44023809D01*
X98588095Y-44071428D01*
X98492857Y-44071428D01*
X98397619Y-44023809D01*
X98350000Y-43976190D01*
X98302380Y-43880952D01*
X98302380Y-43642857D01*
X98350000Y-43500000D01*
X98778571Y-42738095D02*
X98826190Y-42595238D01*
X98873809Y-42547619D01*
X98969047Y-42500000D01*
X99111904Y-42500000D01*
X99207142Y-42547619D01*
X99254761Y-42595238D01*
X99302380Y-42690476D01*
X99302380Y-43071428D01*
X98302380Y-43071428D01*
X98302380Y-42738095D01*
X98350000Y-42642857D01*
X98397619Y-42595238D01*
X98492857Y-42547619D01*
X98588095Y-42547619D01*
X98683333Y-42595238D01*
X98730952Y-42642857D01*
X98778571Y-42738095D01*
X98778571Y-43071428D01*
X99397619Y-42309523D02*
X99397619Y-41547619D01*
X99016666Y-41357142D02*
X99016666Y-40880952D01*
X99302380Y-41452380D02*
X98302380Y-41119047D01*
X99302380Y-40785714D01*
X155556895Y-50569669D02*
X155220177Y-50906387D01*
X155691582Y-49963578D02*
X155556895Y-50569669D01*
X156162986Y-50434982D01*
X156061971Y-51748180D02*
X155657910Y-51344119D01*
X155859941Y-51546150D02*
X156567047Y-50839043D01*
X156398689Y-50872715D01*
X156264002Y-50872715D01*
X156162986Y-50839043D01*
M02*
